<?xml version="1.0" encoding="UTF-8"?>
<svg id="Layer_1" data-name="Layer 1" xmlns="http://www.w3.org/2000/svg" viewBox="0 0 288 134.25">
  <defs>
    <style>
      .cls-1 {
        fill: none;
      }

      .cls-2 {
        fill: #758592;
      }
    </style>
  </defs>
  <polygon class="cls-1" points="23.25 76.27 31.54 76.27 23.25 67.98 23.25 76.27"/>
  <path class="cls-1" d="M36.21,93.78v1.74h1.83v4.29h-5.96v-4.29h1.83v-1.74h-14.86c9.39,16.9,27.38,28.35,48.08,28.35s38.7-11.45,48.09-28.35H36.21Z"/>
  <path class="cls-1" d="M20.95,68.37c-2.7,1.64-5.56,3.12-8.5,4.57,.12,1.12,.31,2.22,.5,3.32h8v-7.89Z"/>
  <path class="cls-1" d="M20.95,80.88h-7.02c.1,.4,.19,.81,.31,1.21l6.71,6.71v-7.92Z"/>
  <path class="cls-1" d="M16.31,88.2c.14,.33,.3,.64,.45,.97h1.3l-2.18-2.18c.16,.4,.27,.82,.44,1.21Z"/>
  <path class="cls-1" d="M33.91,57.9c-2.88,3.17-6.01,5.81-9.35,8.13l9.35,9.35v-17.48Z"/>
  <polygon class="cls-1" points="47.16 80.88 39.4 80.88 47.16 88.63 47.16 80.88"/>
  <path class="cls-1" d="M36.21,57.98v17.42l9.33-9.33c-3.33-2.31-6.45-4.94-9.33-8.09Z"/>
  <polygon class="cls-1" points="23.25 88.37 30.74 80.88 23.25 80.88 23.25 88.37"/>
  <polygon class="cls-1" points="33.91 89.17 33.91 80.96 25.7 89.17 33.91 89.17"/>
  <polygon class="cls-1" points="47.16 67.72 38.6 76.27 47.16 76.27 47.16 67.72"/>
  <path class="cls-1" d="M215.43,61.06h-1.94v11.81h1.94c3.49,0,5.65-2.32,5.65-5.9s-2.16-5.9-5.65-5.9Z"/>
  <path class="cls-1" d="M187.12,33.56h-2.66v5.52h2.66c1.97,0,3.02-.98,3.02-2.76s-1.05-2.76-3.02-2.76Z"/>
  <path class="cls-1" d="M209.11,33.43c-3.62,0-5.68,2.63-5.68,6.03s2.06,6.06,5.68,6.06,5.68-2.66,5.68-6.06-2.06-6.03-5.68-6.03Z"/>
  <path class="cls-1" d="M170.72,43.46c0-1.4-.67-2.22-2.51-2.22h-3.46v4.47h3.46c1.87,0,2.51-.86,2.51-2.25Z"/>
  <path class="cls-1" d="M235.42,91.32c0-1.78-1.05-2.76-3.02-2.76h-2.66v5.52h2.66c1.97,0,3.02-.98,3.02-2.76Z"/>
  <path class="cls-1" d="M170.72,70.96c0-1.4-.67-2.22-2.51-2.22h-3.46v4.47h3.46c1.87,0,2.51-.86,2.51-2.25Z"/>
  <path class="cls-1" d="M169.93,62.68c0-1.21-.54-1.97-2.13-1.97h-3.05v3.9h2.98c1.59,0,2.19-.73,2.19-1.94Z"/>
  <path class="cls-1" d="M169.93,35.18c0-1.21-.54-1.97-2.13-1.97h-3.05v3.9h2.98c1.59,0,2.19-.73,2.19-1.94Z"/>
  <polygon class="cls-1" points="89.16 89.17 97.39 89.17 89.16 80.94 89.16 89.17"/>
  <path class="cls-1" d="M118.85,80.88l1.2,1.2c.11-.39,.19-.8,.29-1.2h-1.49Z"/>
  <polygon class="cls-1" points="113.35 80.93 105.11 89.17 113.35 89.17 113.35 80.93"/>
  <path class="cls-1" d="M119.25,84.54l-3.6-3.6v8.23h1.83c.24-.55,.51-1.08,.73-1.64,.39-.98,.7-1.99,1.04-2.99Z"/>
  <polygon class="cls-1" points="102.41 88.62 110.15 80.88 102.41 80.88 102.41 88.62"/>
  <polygon class="cls-1" points="100.11 80.88 92.35 80.88 100.11 88.63 100.11 80.88"/>
  <polygon class="cls-1" points="36.21 89.17 44.44 89.17 36.21 80.94 36.21 89.17"/>
  <path class="cls-1" d="M67.13,12.13c-.35,0-.69,0-1.04,.01-29.4,.54-53.1,24.16-53.89,53.5,6.8-3.91,12.93-8.88,18.05-15.14,.26-.32,.51-.63,.77-.95h8.01c.25,.32,.51,.64,.77,.95,13.17,16.1,32.62,24.09,54.6,25.77h12.1c5.21-.4,10.28-1.17,15.15-2.31,.28-2.24,.47-4.51,.47-6.83,0-14.68-5.76-28.03-15.13-37.89-10.02-10.54-24.18-17.11-39.87-17.11Z"/>
  <path class="cls-1" d="M67.13,2.2c-.41,0-.82,0-1.22,.02C30.61,2.87,2.2,31.68,2.2,67.13c0,8.81,1.76,17.21,4.94,24.87,9.76,23.51,32.94,40.05,59.99,40.05s50.74-16.91,60.31-40.84c2.98-7.45,4.62-15.57,4.62-24.08,0-17.33-6.79-33.08-17.86-44.73C102.36,9.96,85.65,2.2,67.13,2.2Zm0,126.71c-34.12,0-61.78-27.66-61.78-61.78S33.01,5.34,67.13,5.34s61.78,27.66,61.78,61.78-27.66,61.78-61.78,61.78Z"/>
  <path class="cls-1" d="M190.14,63.82c0-1.78-1.05-2.76-3.02-2.76h-2.66v5.52h2.66c1.97,0,3.02-.98,3.02-2.76Z"/>
  <polygon class="cls-1" points="49.46 88.62 57.2 80.88 49.46 80.88 49.46 88.62"/>
  <path class="cls-1" d="M49.46,76.27h15.11c-5.36-2.47-10.42-4.86-15.11-7.68v7.68Z"/>
  <polygon class="cls-1" points="73.65 80.88 65.9 80.88 73.65 88.63 73.65 80.88"/>
  <polygon class="cls-1" points="60.4 89.17 60.4 80.93 52.16 89.17 60.4 89.17"/>
  <polygon class="cls-1" points="62.71 89.17 70.93 89.17 62.71 80.94 62.71 89.17"/>
  <polygon class="cls-1" points="75.95 88.62 83.69 80.88 75.95 80.88 75.95 88.62"/>
  <polygon class="cls-1" points="86.86 80.97 78.66 89.17 86.86 89.17 86.86 80.97"/>
  <path class="cls-2" d="M176.5,44c0-3.08-1.91-4.54-3.9-5.11,1.71-.63,2.98-2.06,2.98-4.63,0-3.62-2.76-5.59-7.04-5.59h-9.36v21.58h9.08c5.36,0,8.25-2.32,8.25-6.25Zm-11.74-10.79h3.05c1.59,0,2.13,.76,2.13,1.97s-.6,1.94-2.19,1.94h-2.98v-3.9Zm0,12.5v-4.47h3.46c1.84,0,2.51,.82,2.51,2.22s-.63,2.25-2.51,2.25h-3.46Z"/>
  <path class="cls-2" d="M195.95,36.32c0-4.41-3.05-7.65-8.54-7.65h-8.73v21.58h5.77v-6.76h1.97l3.81,6.76h6.25l-4.47-7.65c2.57-1.17,3.93-3.43,3.93-6.28Zm-8.82,2.76h-2.66v-5.52h2.66c1.97,0,3.02,.98,3.02,2.76s-1.05,2.76-3.02,2.76Z"/>
  <path class="cls-2" d="M209.11,28.42c-6.22,0-11.58,4.54-11.58,11.04s5.36,11.07,11.58,11.07,11.58-4.57,11.58-11.07-5.36-11.04-11.58-11.04Zm0,17.1c-3.62,0-5.68-2.66-5.68-6.06s2.06-6.03,5.68-6.03,5.68,2.63,5.68,6.03-2.06,6.06-5.68,6.06Z"/>
  <path class="cls-2" d="M228.69,50.51l5.33-11.58,5.4,11.58c.12,.25,.28,.25,.38,0l8.92-21.83h-5.77l-3.84,10.12-4.86-10.54c-.06-.16-.19-.16-.25,0l-4.63,10.54-4.03-10.12h-6.06l9.04,21.83c.1,.22,.29,.22,.38,0Z"/>
  <path class="cls-2" d="M255.51,39.49l13.55,11.14c.35,.29,.45,.19,.45-.06V28.67h-5.43v10.82l-13.55-11.17c-.35-.28-.44-.13-.44,.06v21.86h5.43v-10.76Z"/>
  <path class="cls-2" d="M279.94,33.18c1.71,0,2.86,.63,3.74,1.56l3.3-3.46c-1.27-1.49-3.56-2.86-7.36-2.86s-7.36,2.19-7.36,6.44c0,3.55,2.22,5.46,5.36,6.51l2.54,.86c1.43,.48,2.13,.92,2.13,1.84,0,1.21-1.02,1.71-2.73,1.71-2.16,0-3.46-1.05-4.5-2.35l-4.19,3.14c1.33,1.78,4.09,4,8.95,4,5.71,0,8.19-2.86,8.19-6.82,0-3.05-1.46-5.11-5.77-6.54l-2.86-.95c-1.05-.35-1.52-.76-1.52-1.59s.7-1.49,2.09-1.49Z"/>
  <path class="cls-2" d="M176.5,71.5c0-3.08-1.91-4.54-3.9-5.11,1.71-.63,2.98-2.06,2.98-4.63,0-3.62-2.76-5.59-7.04-5.59h-9.36v21.58h9.08c5.36,0,8.25-2.32,8.25-6.25Zm-11.74-10.79h3.05c1.59,0,2.13,.76,2.13,1.97s-.6,1.94-2.19,1.94h-2.98v-3.9Zm0,12.5v-4.47h3.46c1.84,0,2.51,.82,2.51,2.22s-.63,2.25-2.51,2.25h-3.46Z"/>
  <path class="cls-2" d="M178.68,77.75h5.77v-6.76h1.97l3.81,6.76h6.25l-4.47-7.65c2.57-1.17,3.93-3.43,3.93-6.28,0-4.41-3.05-7.65-8.54-7.65h-8.73v21.58Zm5.77-16.69h2.66c1.97,0,3.02,.98,3.02,2.76s-1.05,2.76-3.02,2.76h-2.66v-5.52Z"/>
  <rect class="cls-2" x="198.71" y="56.17" width="5.77" height="21.58"/>
  <path class="cls-2" d="M226.98,66.96c0-6.7-4.7-10.79-10.92-10.79h-8.35v21.58h8.35c6.22,0,10.92-4.09,10.92-10.79Zm-11.55,5.9h-1.94v-11.81h1.94c3.49,0,5.65,2.32,5.65,5.9s-2.16,5.9-5.65,5.9Z"/>
  <path class="cls-2" d="M249.51,65.73h-9.43v4.44h4.29v2.16c-.92,.44-2.09,.86-4.19,.86-3.81,0-5.78-2.82-5.78-6.22s1.94-6.03,5.46-6.03c2.16,0,3.68,.92,4.76,2.32l4.03-3.49c-1.87-2.41-4.86-3.84-8.66-3.84-6.22,0-11.49,4.54-11.49,11.04s5.27,11.07,11.62,11.07c4.79,0,7.39-1.33,9.39-2.98v-9.33Z"/>
  <polygon class="cls-2" points="267.34 72.9 257.54 72.9 257.54 69.19 265.34 69.19 265.34 64.58 257.54 64.58 257.54 61.03 266.9 61.03 266.9 56.17 251.76 56.17 251.76 77.75 267.34 77.75 267.34 72.9"/>
  <path class="cls-2" d="M169.35,105.54c4.38,0,7.36-1.56,9.49-5.14l-4.44-2.86c-.92,1.71-2.29,2.98-5.08,2.98-3.3,0-5.3-2.66-5.3-6.06s1.94-6.03,5.11-6.03c2.73,0,4.06,1.3,4.89,2.57l4.35-2.95c-1.81-2.67-4.67-4.63-9.33-4.63-5.77,0-10.92,4.54-10.92,11.04s5.17,11.07,11.23,11.07Z"/>
  <polygon class="cls-2" points="199.47 105.25 199.47 83.67 193.69 83.67 193.69 91.96 186.2 91.96 186.2 83.67 180.43 83.67 180.43 105.25 186.2 105.25 186.2 96.81 193.69 96.81 193.69 105.25 199.47 105.25"/>
  <path class="cls-2" d="M211.72,105.57c5.39,0,9.36-2.86,9.36-8.66v-13.23h-5.77v13.17c0,2.44-1.14,3.84-3.59,3.84s-3.59-1.4-3.59-3.84v-13.17h-5.78v13.23c0,5.81,3.97,8.66,9.36,8.66Z"/>
  <path class="cls-2" d="M229.74,98.49h1.97l3.81,6.76h6.25l-4.47-7.65c2.57-1.17,3.93-3.43,3.93-6.28,0-4.41-3.05-7.65-8.54-7.65h-8.73v21.58h5.77v-6.76Zm0-9.93h2.66c1.97,0,3.02,.98,3.02,2.76s-1.05,2.76-3.02,2.76h-2.66v-5.52Z"/>
  <path class="cls-2" d="M254.04,105.54c4.38,0,7.36-1.56,9.49-5.14l-4.44-2.86c-.92,1.71-2.29,2.98-5.08,2.98-3.3,0-5.3-2.66-5.3-6.06s1.94-6.03,5.11-6.03c2.73,0,4.06,1.3,4.89,2.57l4.35-2.95c-1.81-2.67-4.67-4.63-9.33-4.63-5.77,0-10.92,4.54-10.92,11.04s5.17,11.07,11.23,11.07Z"/>
  <polygon class="cls-2" points="284.16 105.25 284.16 83.67 278.38 83.67 278.38 91.96 270.89 91.96 270.89 83.67 265.12 83.67 265.12 105.25 270.89 105.25 270.89 96.81 278.38 96.81 278.38 105.25 284.16 105.25"/>
  <rect class="cls-2" x="159.28" y="114.8" width="127.68" height="2.4"/>
  <rect class="cls-2" x="159.28" y="15.15" width="127.68" height="2.4"/>
  <path class="cls-2" d="M67.13,5.34C33.01,5.34,5.34,33.01,5.34,67.13s27.66,61.78,61.78,61.78,61.78-27.66,61.78-61.78S101.25,5.34,67.13,5.34ZM16.76,89.17c-.14-.33-.31-.64-.45-.97-.16-.4-.28-.81-.44-1.21l2.18,2.18h-1.3Zm-2.52-7.08c-.11-.4-.2-.81-.31-1.21h7.02v7.92l-6.71-6.71Zm-1.29-5.82c-.19-1.1-.38-2.2-.5-3.32,2.94-1.45,5.8-2.93,8.5-4.57v7.89H12.94Zm54.18,45.86c-20.7,0-38.69-11.45-48.08-28.35h14.86v1.74h-1.83v4.29h5.96v-4.29h-1.83v-1.74H115.21c-9.39,16.9-27.39,28.35-48.09,28.35ZM31.54,76.27h-8.29v-8.29l8.29,8.29Zm-6.98-10.24c3.34-2.32,6.47-4.96,9.35-8.13v17.48l-9.35-9.35Zm9.35,14.93v8.21h-8.21l8.21-8.21Zm-3.17-.09l-7.49,7.49v-7.49h7.49Zm7.87-4.61l8.55-8.55v8.55h-8.55Zm8.55,4.61v7.75l-7.75-7.75h7.75Zm-10.94-5.48v-17.42c2.88,3.15,6,5.78,9.33,8.09l-9.33,9.33Zm8.23,13.77h-8.23v-8.23l8.23,8.23Zm26.49,0h-8.23v-8.23l8.23,8.23Zm-5.04-8.29h7.75v7.75l-7.75-7.75Zm-16.44-4.61v-7.68c4.69,2.82,9.75,5.21,15.11,7.68h-15.11Zm7.74,4.61l-7.74,7.74v-7.74h7.74Zm3.2,.05v8.24h-8.24l8.24-8.24Zm15.55,7.68v-7.74h7.74l-7.74,7.74Zm10.9-7.65v8.2h-8.2l8.2-8.2Zm10.53,8.2h-8.23v-8.23l8.23,8.23Zm-5.04-8.29h7.75v7.75l-7.75-7.75Zm10.05,7.74v-7.74h7.74l-7.74,7.74Zm10.94-7.68v8.24h-8.24l8.24-8.24Zm2.3,8.24v-8.23l3.6,3.6c-.33,1-.65,2.01-1.04,2.99-.22,.56-.49,1.09-.73,1.64h-1.83Zm3.19-8.29h1.49c-.1,.4-.18,.8-.29,1.2l-1.2-1.2Zm2.81-6.92c-4.88,1.14-9.94,1.91-15.15,2.31h-12.1c-21.99-1.68-41.44-9.67-54.6-25.77-.26-.32-.51-.63-.77-.95h-8.01c-.25,.32-.51,.64-.77,.95-5.12,6.26-11.25,11.22-18.05,15.14,.79-29.34,24.49-52.95,53.89-53.5,.35,0,.69-.01,1.04-.01,15.69,0,29.85,6.57,39.87,17.11,9.38,9.86,15.13,23.2,15.13,37.89,0,2.32-.19,4.59-.47,6.83Z"/>
  <path class="cls-2" d="M67.13,0C30.05,0,0,30.05,0,67.13s30.05,67.13,67.13,67.13,67.13-30.05,67.13-67.13S104.2,0,67.13,0Zm60.31,91.21c-9.57,23.93-32.96,40.84-60.31,40.84S16.9,115.52,7.14,92c-3.18-7.66-4.94-16.06-4.94-24.87C2.2,31.68,30.61,2.87,65.9,2.22c.41,0,.81-.02,1.22-.02,18.52,0,35.23,7.76,47.06,20.2,11.07,11.64,17.86,27.39,17.86,44.73,0,8.51-1.64,16.64-4.62,24.08Z"/>
</svg>