<?xml version="1.0" encoding="UTF-8"?>
<svg id="Isolated_Elements" data-name="Isolated Elements" xmlns="http://www.w3.org/2000/svg" viewBox="0 0 559.9 190.16">
  <defs>
    <style>
      .cls-1 {
        fill: #57c1e9;
      }
    </style>
  </defs>
  <g>
    <g>
      <path class="cls-1" d="M439.82,154.04c-6.97,0-11.95-5.39-11.95-12.09s4.99-12.18,11.95-12.18c5.43,0,9.58,2.98,11.04,7.95,.06,.2-.1,.41-.3,.41h-5.75c-.11,0-.2-.06-.25-.15-.85-1.51-2.64-2.77-4.73-2.77-3.28,0-5.93,3.06-5.93,6.79s2.65,6.65,5.93,6.65c2.13,0,3.97-1.26,4.78-2.81,.05-.1,.15-.16,.26-.16h5.74c.21,0,.36,.21,.3,.41-1.46,5.01-5.61,7.95-11.08,7.95Z"/>
      <path class="cls-1" d="M473.72,153.5h-5.32c-.17,0-.31-.14-.31-.31v-13.22c0-1.35-.45-4.41-4.32-4.41-2.65,0-4.49,1.8-4.49,4.41v13.22c0,.17-.14,.31-.31,.31h-5.37c-.17,0-.31-.14-.31-.31v-31.44c0-.17,.14-.31,.31-.31h5.37c.17,0,.31,.14,.31,.31v9.23c0,.24,.26,.38,.47,.24,1.39-.92,3.02-1.47,4.84-1.47,5.66,0,9.44,4.09,9.44,10.2v13.22c0,.17-.14,.31-.31,.31Z"/>
      <path class="cls-1" d="M487.56,154.04c-6.47,0-10.29-4.27-10.29-10.34v-13.04c0-.17,.14-.31,.31-.31h5.32c.17,0,.31,.14,.31,.31v13.22c0,1.3,.45,4.4,4.36,4.4,2.61,0,4.49-1.84,4.49-4.4v-13.22c0-.17,.14-.31,.31-.31h5.32c.17,0,.31,.14,.31,.31v13.04c0,5.89-4.14,10.34-10.43,10.34Z"/>
      <path class="cls-1" d="M513.46,135.13c0,.18-.17,.32-.35,.29-3.58-.49-5.94,1.51-5.94,4.68v13.09c0,.17-.14,.31-.31,.31h-5.32c-.17,0-.31-.14-.31-.31v-13.09c0-6.48,4.43-11.03,11.94-10.24,.16,.02,.29,.16,.29,.32v4.95Z"/>
      <path class="cls-1" d="M525.69,154.04c-6.97,0-11.95-5.39-11.95-12.09s4.99-12.18,11.95-12.18c5.43,0,9.58,2.98,11.04,7.95,.06,.2-.1,.41-.3,.41h-5.75c-.11,0-.2-.06-.25-.15-.85-1.51-2.64-2.77-4.73-2.77-3.28,0-5.93,3.06-5.93,6.79s2.65,6.65,5.93,6.65c2.13,0,3.97-1.26,4.78-2.81,.05-.1,.15-.16,.26-.16h5.74c.21,0,.36,.21,.3,.41-1.46,5.01-5.61,7.95-11.08,7.95Z"/>
      <path class="cls-1" d="M559.59,153.5h-5.32c-.17,0-.31-.14-.31-.31v-13.22c0-1.35-.45-4.41-4.32-4.41-2.65,0-4.49,1.8-4.49,4.41v13.22c0,.17-.14,.31-.31,.31h-5.37c-.17,0-.31-.14-.31-.31v-31.44c0-.17,.14-.31,.31-.31h5.37c.17,0,.31,.14,.31,.31v9.23c0,.24,.26,.38,.47,.24,1.39-.92,3.02-1.47,4.84-1.47,5.66,0,9.44,4.09,9.44,10.2v13.22c0,.17-.14,.31-.31,.31Z"/>
    </g>
    <g>
      <path class="cls-1" d="M232.28,116.75c-12.49,0-21.21-9.61-21.21-21.53V60.02c0-.43,.35-.77,.77-.77h9.1c.43,0,.77,.35,.77,.77v18.48c3.12-3.28,7.2-4.8,12.01-4.8,10.89,0,19.69,9.69,19.69,21.53s-8.72,21.53-21.13,21.53Zm0-33.3c-5.84,0-10.57,5.28-10.57,11.85s4.72,11.61,10.57,11.61,10.57-5.04,10.57-11.61-4.72-11.85-10.57-11.85Z"/>
      <path class="cls-1" d="M275.59,116.75c-11.53,0-18.33-7.6-18.33-18.41v-23.17c0-.33,.27-.6,.6-.6h9.29c.37,0,.67,.3,.67,.67v23.42c0,2.32,.8,7.84,7.76,7.84,4.64,0,8-3.28,8-7.84v-23.42c0-.37,.3-.67,.67-.67h9.22c.37,0,.67,.3,.67,.67v23.1c0,10.49-7.36,18.41-18.57,18.41Z"/>
      <path class="cls-1" d="M319.38,116.75c-12.41,0-21.29-9.61-21.29-21.53s8.88-21.69,21.29-21.69c9.61,0,16.97,5.25,19.61,14.02,.13,.43-.21,.87-.66,.87h-10c-.24,0-.45-.13-.57-.34-1.52-2.65-4.69-4.86-8.38-4.86-5.84,0-10.57,5.44-10.57,12.09s4.72,11.85,10.57,11.85c3.76,0,7-2.21,8.46-4.93,.12-.22,.33-.36,.58-.36h9.99c.45,0,.79,.44,.66,.87-2.63,8.84-10,14.02-19.69,14.02Z"/>
      <path class="cls-1" d="M421.57,115.79h-9.22c-.37,0-.67-.3-.67-.67v-23.42c0-2.4-.8-7.84-7.68-7.84-4.72,0-8,3.2-8,7.84v23.42c0,.37-.3,.67-.67,.67h-9.3c-.37,0-.67-.3-.67-.67V60.02c0-.43,.35-.77,.77-.77h9.1c.43,0,.77,.35,.77,.77v16.72c2.64-2,5.84-3.2,9.45-3.2,10.09,0,16.81,7.28,16.81,18.17v23.42c0,.37-.3,.67-.67,.67Z"/>
      <path class="cls-1" d="M513.03,115.79h-8.66c-.37,0-.67-.3-.67-.67v-3.65c-3.12,3.44-7.6,5.2-12.57,5.2-10.89,0-19.77-9.6-19.77-21.45s8.72-21.69,21.21-21.69,21.13,9.77,21.13,21.69v19.9c0,.37-.3,.67-.67,.67Zm-20.46-32.34c-5.84,0-10.57,5.04-10.57,11.85s4.72,11.61,10.57,11.61,10.57-5.2,10.57-11.61-4.72-11.85-10.57-11.85Z"/>
      <path class="cls-1" d="M559.9,95.32c0,11.93-8.72,21.53-21.13,21.53s-21.21-9.61-21.21-21.53,8.88-21.53,19.69-21.53c4.88,0,8.88,1.52,12.09,4.8v-18.48c0-.43,.35-.77,.77-.77h9.02c.43,0,.77,.35,.77,.77v35.21Zm-21.13-11.77c-5.84,0-10.57,5.04-10.57,11.85s4.72,11.61,10.57,11.61,10.57-5.2,10.57-11.61-4.72-11.85-10.57-11.85Z"/>
      <path class="cls-1" d="M353.72,103.95v11.17c0,.37-.3,.67-.67,.67h-9.22c-.37,0-.67-.3-.67-.67V60.02c0-.43,.35-.77,.77-.77h9.02c.43,0,.77,.35,.77,.77v29.52l13.33-14.75c.13-.14,.31-.22,.5-.22h12.7c.59,0,.9,.71,.49,1.14l-14.28,14.95,15.58,24.1c.29,.45-.03,1.04-.56,1.04h-11.83c-.24,0-.46-.13-.58-.33l-10.05-17.04-5.28,5.52Z"/>
      <path class="cls-1" d="M436.82,99.34c1.36,5.04,5.36,8.16,10.33,8.16,3.4,0,6.73-1.42,8.54-4.47,.12-.2,.33-.33,.57-.33h9.98c.46,0,.8,.45,.65,.89-2.65,7.92-9.78,13.2-19.66,13.2-11.61,0-21.13-9.61-21.13-21.53s9.53-21.69,21.13-21.69,21.99,9.2,20.79,25.14c-.03,.35-.33,.63-.68,.63h-30.51Zm20.65-8.64c-1.28-4.8-5.28-7.84-10.33-7.84s-8.64,3.04-10.17,7.84h20.49Z"/>
    </g>
  </g>
  <g>
    <path class="cls-1" d="M96.73,.01C43.54-.9,0,43.56,0,96.77v3.17c0,.25,.2,.45,.45,.45H29.57c.25,0,.45-.2,.45-.45v-14.51c0-.2,.16-.36,.36-.36h5.88c.2,0,.36,.16,.36,.36v14.51c0,.25,.2,.45,.45,.45h26.93c.25,0,.45-.2,.45-.45V55.27c0-.37,.42-.58,.72-.35l10.41,8.02c.11,.08,.17,.21,.17,.35v36.65c0,.25,.2,.45,.45,.45h26.93c.25,0,.45-.2,.45-.45V41.94c0-2.62,.69-4.57,2.06-5.8,1.09-.98,2.73-1.62,4.8-1.88,.22-.03,.43,.15,.43,.38v12.24c0,.21,.17,.37,.37,.37h5.82c.21,0,.37,.17,.37,.37v52.32c0,.25,.2,.45,.45,.45h26.93c.25,0,.45-.2,.45-.45v-34.12c0-.14,.1-.27,.24-.28,2.16-.2,5.13-.2,7.29,0,.14,.01,.24,.13,.24,.28v34.12c0,.25,.2,.45,.45,.45h36.18c.25,0,.45-.2,.45-.45v-4.86C190.16,43.2,148.4,.9,96.73,.01Zm67.42,89.75c-.25,0-.45-.2-.45-.45v-27.77c0-4.78-4.34-6.82-14.51-6.82s-14.51,2.04-14.51,6.82v27.77c0,.25-.2,.45-.45,.45h-5.7c-.25,0-.45-.2-.45-.45V37.08c0-.25-.2-.45-.45-.45h-5.66c-.25,0-.45-.2-.45-.45v-11.55c0-.23-.17-.43-.41-.45l-4.34-.47c-9.72-1.03-15.27,1.89-18.22,4.53-3.65,3.28-5.59,8.02-5.59,13.7v47.39c0,.25-.2,.45-.45,.45h-5.7c-.25,0-.45-.2-.45-.45v-31.26c0-.14-.06-.27-.17-.35l-31.65-24.4c-.29-.23-.72-.02-.72,.35v55.74c0,.2-.16,.36-.36,.36h-5.86c-.2,0-.36-.16-.36-.36v-14.67c0-.16-.13-.29-.29-.29H19.69c-.16,0-.29,.13-.29,.29v15.03H10.79C13.54,45.67,50.3,10.62,95.08,10.62s81.54,35.04,84.29,79.14h-15.22Z"/>
    <path class="cls-1" d="M95.08,190.16c15.26,0,29.66-3.61,42.43-10,.3-.15,.19-.62-.15-.62H52.8c-.34,0-.45,.47-.15,.62,12.78,6.39,27.18,10,42.43,10Z"/>
    <path class="cls-1" d="M39.62,172.21h110.93c.07,0,.14-.02,.19-.06,4.17-3.02,8.09-6.36,11.72-10.01,.2-.2,.05-.56-.23-.56H27.94c-.29,0-.44,.35-.23,.56,3.63,3.64,7.55,6.99,11.72,10.01,.06,.04,.12,.06,.19,.06Z"/>
    <path class="cls-1" d="M20.84,154.26H169.32c.1,0,.19-.05,.26-.12,2.52-3.18,4.85-6.52,6.96-10.01,.13-.22-.03-.49-.28-.49H13.91c-.25,0-.41,.28-.28,.49,2.11,3.49,4.44,6.83,6.96,10.01,.06,.08,.16,.12,.26,.12Z"/>
    <path class="cls-1" d="M9.58,136.3H180.58c.13,0,.24-.07,.29-.18,1.55-3.24,2.9-6.58,4.08-10.01,.07-.21-.09-.43-.31-.43H5.52c-.22,0-.38,.22-.31,.43,1.18,3.43,2.53,6.77,4.08,10.01,.05,.11,.17,.18,.29,.18Z"/>
    <path class="cls-1" d="M3.13,118.35H187.03c.15,0,.28-.1,.32-.25,.81-3.27,1.44-6.61,1.91-10.01,.03-.19-.13-.37-.32-.37H1.24c-.2,0-.35,.18-.32,.37,.46,3.39,1.09,6.74,1.91,10.01,.04,.15,.17,.25,.32,.25Z"/>
  </g>
</svg>