<?xml version="1.0" encoding="UTF-8"?>
<svg id="Layer_1" data-name="Layer 1" xmlns="http://www.w3.org/2000/svg" viewBox="0 0 604.77 288.48">
  <defs>
    <style>
      .cls-1 {
        fill: #ffce01;
      }

      .cls-2 {
        fill: #383638;
      }
    </style>
  </defs>
  <g>
    <path class="cls-1" d="M171.56,96.18h29.49c.61,0,1.1-.49,1.1-1.1V43.62c0-.4-.22-.78-.57-.97-9.22-5.21-19.21-9.19-29.76-11.75-.7-.17-1.37,.37-1.37,1.08v63.08c0,.61,.49,1.1,1.1,1.1Z"/>
    <path class="cls-1" d="M255.5,111.52h-36.89c-.61,0-1.1,.49-1.1,1.1v22.83c0,.61,.49,1.1,1.1,1.1h40.96c.64,0,1.16-.55,1.11-1.19-.6-7.93-1.99-15.63-4.11-23.04-.14-.48-.58-.81-1.07-.81Z"/>
    <path class="cls-2" d="M86.06,175.86c0,.61,.49,1.1,1.1,1.1h75.62c.48,0,.95,.06,1.41,.14,.17,.03,.32,.08,.48,.12,.29,.07,.57,.16,.85,.26,.18,.07,.34,.14,.51,.22,.25,.12,.5,.25,.74,.4,.16,.1,.31,.19,.47,.3,.07,.05,.15,.09,.22,.14l32.91,25.32c.73,.56,1.78,.04,1.78-.88V112.63c0-.61-.49-1.1-1.1-1.1H87.16c-.61,0-1.1,.49-1.1,1.1v63.23Z"/>
    <path class="cls-1" d="M217.93,217.37l9.46,7.28c.45,.35,1.09,.3,1.49-.11,18-18.92,29.72-43.85,31.8-71.43,.05-.64-.47-1.2-1.11-1.2h-40.96c-.61,0-1.1,.49-1.1,1.1v63.48c0,.34,.16,.67,.43,.88Z"/>
    <path class="cls-1" d="M27.79,144.24c0,11.07,1.58,21.77,4.47,31.92,.14,.48,.58,.81,1.07,.81h36.27c.61,0,1.1-.49,1.1-1.1v-63.23c0-.61-.49-1.1-1.1-1.1H33.34c-.5,0-.94,.33-1.07,.81-2.89,10.15-4.47,20.85-4.47,31.91Z"/>
    <path class="cls-1" d="M171.83,257.57c10.55-2.55,20.54-6.54,29.76-11.75,.35-.2,.57-.57,.57-.97v-19.71c0-.34-.16-.67-.43-.88l-29.49-22.68c-.73-.56-1.78-.04-1.78,.88v54.02c0,.72,.68,1.25,1.37,1.08Z"/>
    <path class="cls-1" d="M86.06,244.5c0,.4,.21,.77,.56,.97,17.05,9.77,36.78,15.39,57.8,15.39,3.26,0,6.49-.15,9.68-.42,.57-.05,1.01-.53,1.01-1.11v-65.92c0-.61-.49-1.1-1.1-1.1H87.16c-.61,0-1.1,.49-1.1,1.1v51.08Z"/>
    <path class="cls-1" d="M70.71,232.17v-38.75c0-.61-.49-1.1-1.1-1.1h-29.66c-.81,0-1.36,.85-1.01,1.58,7.13,15.09,17.39,28.42,29.95,39.13,.71,.61,1.82,.09,1.82-.85Z"/>
    <path class="cls-1" d="M217.5,55.8v39.27c0,.61,.49,1.1,1.1,1.1h30.29c.81,0,1.36-.85,1.01-1.58-7.25-15.34-17.73-28.85-30.59-39.65-.72-.6-1.82-.08-1.82,.86Z"/>
    <path class="cls-1" d="M39.94,96.18h29.67c.61,0,1.1-.49,1.1-1.1V56.31c0-.94-1.11-1.46-1.82-.85-12.57,10.71-22.83,24.05-29.96,39.14-.35,.73,.2,1.58,1.01,1.58Z"/>
    <path class="cls-1" d="M155.11,29.14c0-.58-.44-1.06-1.01-1.11-3.19-.27-6.42-.42-9.68-.42-21.02,0-40.75,5.62-57.8,15.39-.35,.2-.56,.57-.56,.97v51.1c0,.61,.49,1.1,1.1,1.1h66.84c.61,0,1.1-.49,1.1-1.1V29.14Z"/>
  </g>
  <path class="cls-2" d="M144.24,288.48C64.7,288.48,0,223.77,0,144.24S64.7,0,144.24,0s144.24,64.7,144.24,144.24-64.7,144.24-144.24,144.24Zm0-275.33C71.96,13.15,13.15,71.96,13.15,144.24s58.81,131.09,131.09,131.09,131.09-58.81,131.09-131.09S216.52,13.15,144.24,13.15Z"/>
  <g>
    <path class="cls-2" d="M318.98,66.22h17.84c13.29,0,23.33,8.75,23.33,23.06s-10.04,23.06-23.33,23.06h-17.84v-46.12Zm16.48,35.68c7.46,0,12.07-4.95,12.07-12.62s-4.61-12.62-12.07-12.62h-4.14v25.23h4.14Z"/>
    <path class="cls-2" d="M363.41,66.22h32.35v10.38h-20.01v7.6h16.69v9.84h-16.69v7.94h20.96v10.38h-33.3v-46.12Z"/>
    <path class="cls-2" d="M422.42,112.95c-12.96,0-24.01-9.77-24.01-23.67s10.99-23.6,23.33-23.6c9.97,0,16.07,4.2,19.94,9.9l-9.29,6.31c-1.76-2.71-4.61-5.49-10.44-5.49-6.78,0-10.92,5.63-10.92,12.89s4.27,12.96,11.33,12.96c5.97,0,8.89-2.71,10.85-6.38l9.5,6.1c-4.54,7.67-10.92,10.99-20.28,10.99Z"/>
    <path class="cls-2" d="M472.14,106.78h-16.07l-2.31,5.56h-12.07l22.45-46.94c.2-.47,.61-.47,.81,0l22.38,46.94h-12.75l-2.44-5.56Zm-12.28-8.95h8.34l-4.21-9.77-4.14,9.77Z"/>
    <path class="cls-2" d="M492.23,76.59h-12.21v-10.38h36.76v10.38h-12.21v35.74h-12.35v-35.74Z"/>
    <path class="cls-2" d="M521.53,94.5v-28.28h12.34v28.15c0,5.22,2.44,8.21,7.67,8.21s7.66-2.98,7.66-8.21v-28.15h12.35v28.28c0,12.41-8.48,18.52-20.01,18.52s-20.01-6.1-20.01-18.52Z"/>
    <path class="cls-2" d="M579.06,112.34h-12.35v-46.12h18.65c11.73,0,18.25,6.92,18.25,16.35,0,6.1-2.92,10.92-8.41,13.43l9.56,16.35h-13.36l-8.14-14.45h-4.2v14.45Zm5.7-23.88c4.21,0,6.44-2.1,6.44-5.9s-2.24-5.9-6.44-5.9h-5.7v11.8h5.7Z"/>
    <path class="cls-2" d="M339.87,168.16c-12.96,0-24.01-9.77-24.01-23.67s10.99-23.6,23.33-23.6c9.97,0,16.07,4.2,19.94,9.9l-9.29,6.31c-1.76-2.71-4.61-5.49-10.44-5.49-6.78,0-10.92,5.63-10.92,12.89s4.27,12.96,11.33,12.96c5.97,0,8.89-2.71,10.85-6.38l9.5,6.1c-4.54,7.67-10.92,10.99-20.28,10.99Z"/>
    <path class="cls-2" d="M363.81,121.42h12.35v46.12h-12.35v-46.12Z"/>
    <path class="cls-2" d="M392.84,131.8h-12.21v-10.38h36.76v10.38h-12.21v35.74h-12.35v-35.74Z"/>
    <path class="cls-2" d="M418.88,121.42h13.57l9.09,16.89,9.09-16.89h12.96l-16.07,27.95v18.18h-12.35v-17.84l-16.28-28.28Z"/>
    <path class="cls-2" d="M339.87,223.36c-12.96,0-24.01-9.77-24.01-23.67s10.99-23.6,23.33-23.6c9.97,0,16.07,4.2,19.94,9.9l-9.29,6.31c-1.76-2.71-4.61-5.49-10.44-5.49-6.78,0-10.92,5.63-10.92,12.89s4.27,12.96,11.33,12.96c5.97,0,8.89-2.71,10.85-6.38l9.5,6.1c-4.54,7.67-10.92,10.99-20.28,10.99Z"/>
    <path class="cls-2" d="M391.89,176.63h12.35v46.12h-12.35v-18.04h-16.01v18.04h-12.35v-46.12h12.35v17.7h16.01v-17.7Z"/>
    <path class="cls-2" d="M409.41,204.91v-28.28h12.34v28.15c0,5.22,2.44,8.21,7.67,8.21s7.66-2.98,7.66-8.21v-28.15h12.35v28.28c0,12.41-8.48,18.52-20.01,18.52s-20.01-6.1-20.01-18.52Z"/>
    <path class="cls-2" d="M466.94,222.75h-12.35v-46.12h18.65c11.73,0,18.25,6.92,18.25,16.35,0,6.1-2.92,10.92-8.41,13.43l9.56,16.35h-13.36l-8.14-14.45h-4.2v14.45Zm5.7-23.88c4.21,0,6.44-2.1,6.44-5.9s-2.24-5.9-6.44-5.9h-5.7v11.8h5.7Z"/>
    <path class="cls-2" d="M517.89,223.36c-12.96,0-24.01-9.77-24.01-23.67s10.99-23.6,23.33-23.6c9.97,0,16.07,4.2,19.94,9.9l-9.29,6.31c-1.76-2.71-4.61-5.49-10.44-5.49-6.78,0-10.92,5.63-10.92,12.89s4.27,12.96,11.33,12.96c5.97,0,8.89-2.71,10.85-6.38l9.5,6.1c-4.54,7.67-10.92,10.99-20.28,10.99Z"/>
    <path class="cls-2" d="M569.92,176.63h12.35v46.12h-12.35v-18.04h-16.01v18.04h-12.35v-46.12h12.35v17.7h16.01v-17.7Z"/>
  </g>
</svg>