<?xml version="1.0" encoding="utf-8"?>
<!-- Generator: Adobe Illustrator 27.5.0, SVG Export Plug-In . SVG Version: 6.00 Build 0)  -->
<svg version="1.1" id="artwork" xmlns="http://www.w3.org/2000/svg" xmlns:xlink="http://www.w3.org/1999/xlink" x="0px" y="0px"
	 viewBox="0 0 394.4 123.6" style="enable-background:new 0 0 394.4 123.6;" xml:space="preserve">
<style type="text/css">
	.st0{fill:#FFFFFF;}
	.st1{opacity:0.75;}
	.st2{fill:#686463;}
	.st3{fill:#97A3AE;}
	.st4{fill:#95ACBC;}
	.st5{fill:#D9D8D6;}
	.st6{fill:#212322;}
</style>
<g>
	<path class="st0" d="M92.6,57.8L92.6,57.8c-0.1,0-0.1-0.1-0.1-0.1c0-0.1-0.1,0.1-0.2-0.2c0-0.2,0-0.5,0.1-0.5
		c0,0.5,0.1-0.1,0.1,0.4v-0.3l0,0c0.1-0.5-0.1-0.2-0.2-0.7c0.1,0.1,0.1-0.1,0.1-0.2c0,0.2-0.1,0.1-0.1-0.1c0-0.3-0.1-0.3-0.1-0.5
		v0.2c-0.1,0-0.1-0.2-0.1-0.4c0,0,0.1,0.2,0.1,0.1c-0.1-0.2,0-0.6-0.2-0.9c0-0.2,0.1,0,0.1-0.2c-0.2-0.3,0-0.4-0.2-0.8
		c0,0.1,0,0.2-0.2-0.1l0.2,0.6l-0.2-0.4c0.1,0.2,0.2,0.4,0.2,0.5c-0.1-0.2-0.1-0.2-0.1-0.1c0-0.3-0.2-0.5-0.2-0.8h0.2
		c-0.1-0.5-0.4-0.8-0.6-1.3l0.1,0.2c-0.1,0-0.2-0.3-0.3-0.5c0.1,0,0-0.1,0-0.2c0,0-0.2-0.4-0.3-0.4l-0.1-0.3
		c-0.2-0.5-0.4-0.4-0.6-0.8c0.1,0.1,0.1-0.1,0.2,0.1C90.1,50,90,49.9,90,49.9c0-0.1-0.3-0.3-0.4-0.5c-0.1,0-0.1,0-0.2-0.2l0,0
		c0,0-0.2-0.2-0.2,0c-0.1-0.5-0.8-1.1-1-1.5c-0.3-0.2-0.6-0.5-0.8-0.7c0,0,0,0,0.1,0c-0.2-0.2-0.3-0.2-0.4-0.2
		c-0.1-0.1-0.2-0.2-0.2-0.2s0.2,0.2,0.2,0.1c0.1-0.2-0.5-0.3-0.7-0.6h0.1c-0.2-0.2-0.5-0.3-0.9-0.5l0,0c-0.1,0-0.1,0-0.2-0.1
		c-0.4-0.2-0.7-0.5-1.1-0.7c-0.1-0.2-0.4-0.2-0.5-0.3l0,0c-0.1,0-0.2-0.1-0.3-0.1c-0.3-0.1-0.5-0.2-0.8-0.3h-0.1
		C82.4,44,82.2,44,82,43.9h0.1H82c0.1-1.2,0.3-2.5,0.2-3.8c0-0.5-0.3-0.3-0.2-0.9l0.1,0.2c-0.2-0.9-0.4-1.8-0.6-2.6
		c0.9-0.7,1.8-1.5,2.5-2.4c0.3-0.4-0.1-0.4,0.4-0.8v0.2c0.4-0.9,1-1.7,1.2-2.7c0,0.1,0,0.1,0,0.2c0.1-0.2,0.2-0.7,0.2-0.7
		c0.1-0.1,0.1,0,0.1-0.1c0.1-0.2,0.1-0.5,0.2-0.6V30c0-0.1,0.2-0.6,0.1-0.5c0.1-0.3,0.1-0.7,0.2-1c-0.1-0.2,0.1-0.6,0-0.7
		c0.2,0,0.2-0.6,0.1-0.8c0,0.1,0-0.2,0.1-0.1c0-0.3,0-0.5-0.1-0.5c0.2-0.5-0.1-0.9,0-1.2c-0.2-0.8-0.2-1.5-0.4-2.1
		c0.1,0,0.2,0.7,0.3,0.7c-0.2-0.6-0.4-1-0.4-1.6c0-0.2,0.1,0.1,0.1,0.1c-0.1-0.6-0.4-1.2-0.6-1.7c0,0,0.1,0,0.1,0.1
		c0-0.1-0.1-0.3-0.1-0.2l0.1,0.1c0,0.2-0.3-0.4-0.4-0.4c0.2,0.1-0.2-0.5,0.1-0.4c0-0.1-0.1-0.1-0.1-0.1c-0.1-0.1,0-0.1,0.1-0.1
		c-0.2-0.3-0.2-0.2-0.4-0.5c0,0,0.1,0,0.1,0.1c-0.2-0.1-0.3-0.3-0.4-0.5c0,0,0,0,0.1,0c-0.3-0.5-0.6-0.7-0.9-1.2
		c0.2,0.1-0.1-0.2,0-0.3L83,16.8v0.1c-0.2-0.2-0.4-0.4-0.5-0.6l0.2,0.1L82.4,16l0.2,0.2c-0.2-0.2-0.1,0.1-0.3-0.2
		c0.1,0-0.2-0.2-0.3-0.3c-0.1-0.1-0.2-0.1-0.4-0.3c0-0.1,0.1-0.1,0.1-0.1c-0.2,0-0.5-0.4-0.7-0.5c0.1,0,0.1,0,0.1,0H81
		c-0.1-0.1-0.1-0.1,0-0.1c-0.3-0.2,0,0.2-0.3-0.1c0,0,0,0,0.1,0c-0.3-0.3-0.7-0.5-1.1-0.8c0-0.2,0.3,0.2,0.2,0
		c-0.5-0.4-1.1-0.6-1.6-0.9l0.1,0.1c-0.1,0.1-0.3-0.3-0.6-0.4c0.1,0,0.1,0,0.1,0c-0.4-0.2-0.7-0.4-1.3-0.5h0.1
		c-0.2-0.1-0.6-0.3-0.8-0.3c-0.1,0-0.2,0-0.2,0.1c-0.7-0.4-1.5-0.2-2.2-0.4c0.1,0,0.2,0,0.1,0H73c0,0.1,0.1,0,0.2,0.1c0,0,0,0-0.1,0
		s-0.2,0-0.2,0s-0.1-0.1-0.2-0.1v0.1c-0.2-0.1-0.2,0-0.2,0c-0.1,0-0.2,0-0.2,0l0,0l0,0c-0.2,0-0.3,0-0.4,0c0.1,0,0.2,0,0.2-0.1
		c-0.1,0-0.2,0-0.3,0.1c-0.1,0-0.1,0-0.2,0h0.2c-0.2-0.1-0.3-0.1-0.4-0.1H71h0.1c-0.3,0.2-0.6,0.1-0.9,0.2c0,0,0,0-0.1,0
		c0.3-0.1,0-0.1,0-0.1c-0.1,0-0.3,0-0.2-0.1c-0.1,0.1-0.2,0-0.3,0.1c-0.5-0.8-0.9-1.6-1.6-2.5c0.1,0.4-0.2-0.3-0.3-0.1
		c-0.2-0.2-0.2-0.3-0.2-0.3l0,0L67,7.9c-0.1-0.2,0.2,0.2,0.2,0.2c-0.4-0.5-0.1-0.3-0.3-0.6c0,0.1-0.2-0.1-0.4-0.4l0.3,0.4
		c-0.7-0.6-0.4-0.7-1.1-1.2l0.2,0.2c-0.3-0.3-1.2-1.2-1.7-1.4c0-0.1-0.1-0.2,0.1-0.1c-0.8-0.8-2-1.4-2.7-1.9h0.1
		C61.5,3,61.4,3,61.2,2.8c0,0,0.1,0,0,0s-0.5-0.2-0.7-0.4l0.2,0.1c-0.9-0.5-1.5-0.6-2.4-0.9c0-0.1-0.7-0.4-1.1-0.6l0,0
		C56,0.6,55.1,0.5,54,0.4C53,0.1,51.3,0,50.2,0c0.2,0,0,0.1-0.2,0.1c-0.3,0-0.7,0.1-0.7,0h0.1c-0.2-0.1-0.8,0-1.2,0v0.2
		c-1.2-0.1-2.9,0.6-3.5,0.6l-0.8,0.3V1.1c-0.8,0.2-1.1,0.3-2,0.7L42,1.7c-0.5,0.2-0.5,0.4-1,0.7h-0.2C40,2.7,39.1,3,38.4,3.6
		c0,0,0-0.1,0.1-0.1c-0.4,0.2-1.5,0.8-1.2,0.9c-0.1-0.1-0.8,0.5-1.2,0.8V5.1c-0.3,0.3-0.3,0.4-0.7,0.7c-0.1,0.1-0.1,0-0.1,0
		C35,6,35.1,6,34.7,6.3l0.1-0.2c-0.4,0.3-0.3,0.3-0.5,0.5s-0.7,0.6-0.8,0.6c0,0.1-0.2,0.3-0.4,0.5V7.6c-0.6,0.5-0.8,0.9-1.2,1.2
		h-0.1C32.2,8.3,32.6,8,32.6,8c0-0.1-0.4,0.3-0.2-0.1c-0.3,0.3-0.6,0.9-1,1.3h-0.1l0,0l-0.2,0.2L31,9.8c-0.1,0-0.4,0.4-0.5,0.6
		c0.1,0-0.1,0.3,0.1,0.1c0,0,0-0.1,0.1-0.2l0.1-0.1l0,0c0.1-0.1,0.2-0.3,0.4-0.5c-0.1,0.2-0.2,0.4-0.4,0.6c0,0.1-0.1,0.3-0.1,0.4
		c-0.3,0.2-0.7,0.7-0.8,0.8c-0.4,0.7-0.9,1.6-1,2.1c-0.1,0.2-0.1,0.2-0.2,0.3c0-0.1,0.1-0.3,0.1-0.3c-0.2,0.4-0.5,1.2-0.5,1.3
		c-0.3,0.5,0-0.3-0.2,0.4v-0.1c-0.7,1.3-0.6,2.3-1.1,3.8c0,0,0,0,0-0.1c-0.4,1.6-0.3,3.3-0.3,4.9c-0.1,0-0.2,0-0.2,0
		c-0.4-0.3-0.9,0-1.1-0.3c-0.7,0-1.4-0.2-2.1-0.1c0-0.1,0.7,0,0.7-0.1c-0.6,0-1,0.1-1.6,0.1c-0.2,0,0.1-0.1,0.1-0.1
		c-0.6,0.1-1.2,0-1.8,0.2c0,0,0.1,0,0.1-0.1c-0.1,0-0.3,0-0.2,0.1h0.1c0.2,0-0.3,0.2-0.4,0.3l0,0c0.1-0.2-0.5,0.1-0.3-0.2
		c-0.1,0-0.1,0.1-0.1,0.1c-0.1,0-0.1,0,0-0.1c-0.4,0.1-0.2,0.1-0.6,0.2c0,0,0.1,0,0.1-0.1c-0.2,0.1-0.3,0.2-0.6,0.3l0,0
		c-0.4,0.2-0.7,0.5-1.2,0.7c0.1-0.2-0.2,0.1-0.3,0L17,25h0.1c-0.2,0.1-0.4,0.3-0.6,0.4l0.1-0.1l-0.4,0.3l0.2-0.1
		c-0.2,0.2,0.1,0.1-0.2,0.3c0,0-0.2,0.2-0.4,0.2c-0.1,0.1-0.2,0.2-0.3,0.3c-0.1,0,0-0.1-0.1-0.1c-0.1,0.1-0.5,0.4-0.5,0.6v-0.1v0.1
		c-0.1,0.1-0.1,0.1-0.1,0c-0.3,0.2,0.2,0-0.2,0.3c0,0,0,0,0.1-0.1c-0.4,0.3-0.6,0.6-0.9,0.9c-0.2,0,0.2-0.3,0.1-0.2
		c-0.4,0.5-0.7,1-1.1,1.4l0.1-0.1c0.1,0.1-0.3,0.3-0.4,0.6c0-0.1,0-0.1,0-0.1c-0.3,0.3-0.4,0.7-0.6,1.2v-0.1
		c-0.1,0.2-0.3,0.5-0.4,0.8c0,0.1,0,0.2,0,0.1c-0.5,0.7-0.3,1.4-0.5,2c0-0.1,0-0.2,0-0.1L10.9,34c0.1,0,0.1-0.1,0.1-0.2
		c0,0,0,0.1,0,0.2c0,0.1,0,0.1,0,0.2c0-0.1-0.1,0.1-0.1,0.2H11c-0.2,0.3,0.1,0.1,0,0.5l0,0c0,0.2,0,0.3,0,0.5
		c-0.1,0.1,0-0.2-0.1-0.2c-0.1,0.2,0.1,0.5,0.1,0.7l-0.1-0.3c-0.1,0.2-0.1,0.2-0.1,0.4l0,0v0.4v-0.1c0.1,0.2,0.1,0.3,0.1,0.5
		c0,0.1,0,0.2,0,0.3c0-0.1,0,0.1-0.1,0.1c0,0.1,0,0.3-0.1,0.2c0.1,0.2,0,0.3,0.1,0.6c0,0,0,0.2-0.1,0.2c0,0.2,0.1-0.1,0.1,0
		c0.1,0.4,0.1,0.9,0.3,1.4c0.1,0.2,0.1,0.2,0.1,0.3c-0.3,0-0.1-0.1-0.2-0.1c-0.2,0.1-0.4,0.2-0.6,0.2c0,0-0.1,0,0,0
		c-0.2,0.1-0.8,0.1-1,0.2l0,0c0.1,0,0.1,0.1,0.1,0.1c-0.1,0-0.2,0.1-0.3,0.1c0.1,0,0.1,0,0.1-0.1L9,39.9c-0.1-0.1,0.2-0.1,0.2-0.2
		C8.9,39.8,8.6,40,8.4,40c-0.1-0.1,0.5-0.2,0.2-0.2L9,39.7c-0.3-0.1,0.2,0-0.1-0.1c-0.5,0.1-0.5,0.2-0.9,0.3C7.9,40,8.1,40,8,40.1
		c-0.6,0.3-0.6,0-1,0.3c-0.1,0.1-0.1,0.2-0.4,0.4l0.1-0.2c-0.4,0.2-0.2,0.3-0.6,0.4c0-0.1,0.3-0.2,0.2-0.2C5.8,41,6,41.1,5.8,41.2
		H5.7c-0.3,0.3-0.7,0.7-1.1,1.1c0,0,0.1-0.1-0.1-0.1c-0.5,0.5-1,1-1.5,1.5L3,44c0,0-0.1,0,0,0c-0.2,0.2,0,0,0,0.2
		c-0.1,0.1-0.2,0.1-0.1,0c-0.2,0.4-0.7,1.1-0.9,1.5v-0.1c-0.2,0.3,0,0.5-0.2,0.7v-0.1c-0.3,0.7-0.8,1.5-0.9,2C1,48.4,0.7,49,0.8,49
		c-0.2,0.4-0.2,0.3-0.4,0.9c-0.1,0.2,0,0.3,0,0.5H0.2l0.1,0.3l-0.1,0.1V51c0-0.1,0.1-0.2,0.1-0.2c0,0.3-0.1,0.7-0.2,0.7v0.7
		c0,0-0.1-0.1-0.1-0.2c0.1,0.4-0.1,0.1,0,0.4c0,0,0,0,0.1,0C0,52.6,0,53,0.1,53.3L0,53.5c0,0.5,0.1,1.1,0.2,1.7c0-0.2,0.1-0.2,0.1,0
		l-0.1,0.1c0.1,0.1,0-0.2,0.1,0c0,0.2-0.1,0.2-0.1,0l0.1,0.3c0,0,0,0-0.1,0c0.1,0.1,0,0.5,0.1,0.6l0,0c0.1,0.6,0.2,0.9,0.4,1.3
		c0.1,0,0.1,0.2,0.2,0.3C1,58.2,1.1,58.6,1.3,59c0.2,0.3,0.1,0,0.2,0.2c-0.1,0,0.1,0.5,0,0.3c0.3,0.5,0.4,0.6,0.7,1.1
		c0-0.1,0-0.2,0-0.1c0.1,0.1,0.1,0.2,0.1,0.3l0,0c0.5,0.5,0.9,1.5,1.4,1.8l0,0L4.2,63c0.2,0.2-0.2-0.1,0,0.1C4.8,63.4,5,63.8,5.5,64
		c0.2,0.4,1.3,0.8,1.8,1.1V65c0.1,0,0.1,0.1,0.2,0.2c0,0-0.1-0.1,0-0.1c1.2,0.4,2.4,0.9,3.7,1c0.5,0.1,0.3-0.2,0.9-0.1h-0.2
		c1-0.1,1.9,0,2.9-0.2c-0.1,0-0.1,0.1-0.1,0.1c0.2,0.1,0.7-0.1,0.7-0.1c0.1,0,0,0.1,0.1,0.1c0.2,0,0.5-0.2,0.6-0.1
		c0,0-0.1,0-0.1,0.1c0.1-0.1,0.6-0.1,0.5-0.2c0.4,0,0.6-0.2,0.9-0.2c0.1-0.1,0.6-0.1,0.6-0.2c0,0.1,0.6-0.1,0.8-0.2
		c-0.1,0.1,0.2,0,0.1,0.1c0.2-0.1,0.4-0.2,0.4-0.2c0.3,0,0.5-0.2,0.7-0.3c0.2,0.2,0.3,0.3,0.5,0.5c0,0,0,0.1,0,0
		c0.3,0.3,0.7,1,1.1,1.3v0.1c0-0.1,0-0.1,0.1-0.2c0.1,0.2,0.3,0.3,0.3,0.4c-0.1-0.1-0.1-0.1-0.2-0.2l0.2,0.2
		c0.1,0.2-0.2-0.2-0.3-0.2c0.3,0.4,0.8,0.7,1.1,1c0,0.1-0.6-0.6-0.4-0.2L22,66.8c0.2,0.4-0.2-0.3-0.1,0.1c0.5,0.6,0.6,0.6,1.2,1.1
		c0.2,0.1,0-0.1,0.2,0c0.9,0.6,0.5,0.8,1.2,1.1c0.2,0.1,0.4,0,0.8,0.4h-0.2c0.6,0.4,0.4,0.1,1.1,0.5c-0.1,0-0.5-0.2-0.5-0.2
		c0.4,0.3,0.4,0.1,0.7,0.3v0.1c0.7,0.4,1.6,0.6,2.4,0.9c0,0-0.2,0,0,0.1c1.1,0.3,2.2,0.7,3.3,0.9h0.4c0.1,0,0.2,0.1,0.1,0.1
		c0.4,0.1,0-0.1,0.2-0.1s0.3,0.1,0.2,0.1c0.4,0.1,0.9,0.1,1.5,0.1c0,0.1,0,0.1,0,0.2v-0.1c0.2,1.3,0.8,2.6,1.1,3.6
		c0.2,0.1,0.5,1.2,0.7,1.2c0.3,0.7,0.1,0.5,0.6,1.4c0.2,0.2,0.3,0.3,0.5,0.6l-0.1,0.1l0.3,0.3l0.1,0.3l0.2,0.2
		c-0.1-0.1-0.2-0.2-0.1-0.2c0.4,0.4,0.8,1,0.7,1c0.3,0.3,0.6,0.6,0.9,0.8c0,0-0.2-0.1-0.3-0.2c0.5,0.4,0,0.2,0.5,0.5
		c0-0.1,0.1,0,0.1,0c0.2,0.2,0.7,0.7,1.1,1h-0.1c0.7,0.5,1.5,1.1,2.3,1.6c-0.3-0.2-0.2-0.3,0.1-0.1v0.1c0.2,0.1-0.2-0.2,0.1-0.1
		c0.3,0.2,0.2,0.2,0,0.1l0.4,0.2h-0.1c0.2,0.1,0.6,0.5,0.9,0.5l0,0c0.3,0.2,0.5,0.3,0.8,0.4c0,0.5,0,0.9,0,1.4
		c0,1.4,0.1,2.8,0.1,4.1s-0.1,14.7-0.2,16.1c-0.2,2.9,0.1,12.1-1.2,13c-2.2,1.3-4.1,1-5.8,1c-0.9,0-28.2,0.9-29,0.9
		c-3.7,0.1-4.2,0.2-4.2,0.5c0,0.2,23.7,0.6,27.2,0.6h17c0.7,0,1.8-0.1,1.9-0.7c0.2-0.7-0.3-7.8-0.6-10c0.1,1-0.4-4.1-0.7-9.3
		c-0.1-3-0.4-11.1-0.2-12.8c0.1-0.8,0.2-1.6,0.2-2.5c0.5,0.2,0.9,0.2,1.8,0.4c-0.1-0.1-0.2-0.1-0.2-0.1c0.2,0,0.4,0.1,0.4,0.2l0,0
		c1.2,0.1,2.8,0.5,3.8,0.3l0,0l1-0.1c0.5,0-0.3,0.1,0.1,0.1c1.1-0.1,1.7-0.1,2.6-0.2c0.7,0.2,2.4-0.3,3.4-0.4h-0.1
		c0.2-0.1,0.3,0,0.5-0.1c0,0-0.3,0-0.1-0.1c2-0.5,4.1-1.1,6-2.2c0.7-0.4,0.2-0.5,1.1-1L69.8,85c1.2-1,2.3-2.2,3.3-3.3
		c0,0.1,0,0.1-0.1,0.2c0.3-0.2,0.7-0.9,0.7-1c0.2-0.2,0.1,0,0.2-0.1c0.2-0.2,0.4-0.7,0.6-0.8c0,0,0,0.1-0.1,0.1
		c0.1-0.2,0.6-0.8,0.4-0.7c0.4-0.4,0.5-1,0.8-1.3c0.1-0.3,0.5-0.9,0.4-1c0.1,0.1,0.6-0.8,0.6-1.2c0,0.1,0.1-0.3,0.1-0.1
		c0.1-0.4,0.2-0.8,0.1-0.7c0.3-0.7,0.3-1.5,0.6-1.9c0-0.4,0-0.7,0.1-1c1.2,0.2,2.4,0.1,3.5-0.1l0,0l0,0c0.1,0,0.1,0,0.2,0l0,0l0,0
		c0.3-0.1,0.6-0.1,0.9-0.2c0,0,0,0,0.1,0l0,0c0.2-0.1,0.4-0.1,0.6-0.2c-0.1,0.1-0.2,0.1,0,0.1c0.1-0.2,0.5-0.1,0.7-0.2
		c0,0,0-0.1,0.1-0.1l-0.1,0.1l0.1,0.1c0.1,0,0.1-0.1,0.1-0.1c0.2-0.1,0.5-0.1,0.7-0.3c0,0,0.7-0.3,1-0.4l0,0c0-0.1,0.3-0.3,0.6-0.4
		c0,0.1,0,0.1-0.1,0.2l0.2-0.1c0-0.1,0.1-0.1,0.2-0.2v0.1c0.3-0.2,0.5-0.5,0.8-0.7c0-0.1-0.3,0-0.1-0.2c0,0,0,0,0.1-0.1
		c0,0,0.1,0.1,0,0.1l0.2-0.2l-0.1,0.2c0.2-0.1,0.1-0.1,0.2-0.2c0,0.1,0.1,0,0.1,0l-0.2,0.1c0.2-0.1,0.3-0.2,0.4-0.2
		c0,0-0.1-0.1,0.1-0.1c0.2-0.2,0.1,0,0.3-0.1c0-0.1,0.2-0.2,0.2-0.3c0.1-0.1,0.1-0.1,0.2-0.1c0.1-0.2,0.6-0.6,0.3-0.5l0,0l0,0
		c0.3-0.4,0.8-0.8,1.1-1.3l0,0c0.2-0.3,0.4-0.6,0.5-0.9c0.1-0.1,0.2-0.2,0.2-0.1c0.1-0.2,0.1-0.3,0.3-0.6c-0.1,0.3,0.1-0.1-0.1,0.3
		c0.2-0.3,0.2-0.3,0.3-0.7c0,0.1,0.2-0.2,0.2-0.3l-0.2,0.2l0.2-0.4l0.1,0.1c0.4-0.6,0.2-1.2,0.6-1.7c0-0.2-0.2,0.3-0.2,0.2
		c0.1-0.3,0.4-0.6,0.4-0.7c0.2-0.4,0-0.4,0.1-0.9h-0.1c0.1-0.2,0.1-0.3,0.1-0.4c0.1,0,0.1,0,0.1,0.1s0,0.1-0.1,0.1
		c0,0.1,0,0.2,0,0.1l0,0c0.1-0.1,0.2-0.6,0.2-0.5c0-0.2,0-0.1-0.1,0.1c0.2-0.4,0.1-0.6,0.2-1c0,0.1-0.1,0.1-0.1,0
		c0.1-0.4,0-0.4,0-0.5s0-0.2,0-0.3c0.1-0.1,0.1,0.1,0.1-0.3c0.1-0.2,0.1,0,0.1,0.1c0-0.4,0.1-0.7,0.1-0.9v0.2L92.6,57.8L92.6,57.8z
		 M83.9,44.6L83.9,44.6C84,44.7,83.9,44.6,83.9,44.6L83.9,44.6L83.9,44.6z M81.5,40.7L81.5,40.7C81.5,40.6,81.5,40.6,81.5,40.7z
		 M81.3,38.9c0-0.1,0-0.2,0-0.3c0,0,0,0.1,0.1,0.1C81.3,38.8,81.3,38.8,81.3,38.9z M74.2,11.8L74.2,11.8L74.2,11.8L74.2,11.8
		L74.2,11.8z M11.2,32.7L11.2,32.7c0,0.1,0,0.1,0,0.2C11.2,32.8,11.2,32.8,11.2,32.7L11.2,32.7z M11.1,38.8
		C11.1,38.8,11.1,38.9,11.1,38.8C11.1,38.9,11.1,38.9,11.1,38.8L11.1,38.8L11.1,38.8z M4.4,42.5C4.4,42.5,4.4,42.6,4.4,42.5
		c0,0-0.1,0.1-0.2,0.2L4.4,42.5z M85.4,70.5C85.5,70.4,85.5,70.4,85.4,70.5c0.1-0.2,0.2-0.2,0.3-0.2C85.6,70.4,85.5,70.5,85.4,70.5z
		"/>
	<g>
		<g class="st1">
			<path class="st2" d="M47.7,47.4l4.1-0.7c0.6,0,1.2-0.1,1.8-0.1c-0.5-1-0.8-2.1-1-3c-5.1,1.1-10.2,0.4-15.4-2
				c-0.3-0.1-0.5-0.3-0.8-0.5l0,0c-2.3,4.9-5.9,7.4-10.5,8c0.6,1.6,0.9,3.3,0.7,5.3c-0.4,4.9-3.1,7.9-6.5,9.5
				c1.6,2.6,3.9,4.9,7.2,6.4c2.1,0.9,4.5,1.6,7,1.8c-0.3-1.8-0.4-3.8-0.5-5.8C33.5,57.3,38.5,49.3,47.7,47.4L47.7,47.4z"/>
		</g>
		<path class="st3" d="M18.3,40.8c0.1,0.1,0.3,0.2,0.5,0.3c1.7-3.8,4.8-7.5,10.1-10.1c-1.2-2.3-1.9-4.6-2.1-6.9
			c-2.6-0.5-5.2-0.8-7.8,0.2c-3.2,1.2-7.1,4.5-7.8,8.1c-0.7,3.6-0.5,5.7,0.1,7.6C14.4,39.7,17.2,40.2,18.3,40.8L18.3,40.8z"/>
		<path class="st3" d="M29.5,31.8c-0.2-0.3-0.3-0.6-0.5-0.9c-5.4,2.6-8.5,6.3-10.1,10.1c1.8,1,5.5,3.7,7.1,8c4.6-0.5,8.2-3.1,10.5-8
			l0,0C33,38.7,29.5,31.8,29.5,31.8z"/>
		<path class="st4" d="M17.1,47.7c-1.8-1-3.2-2.7-4.5-4.8c-0.7-1.1-1.2-2.1-1.5-3.1c-1.8,0.1-3.6,0.6-5,1.5c-2.9,2.1-5,5.6-5.5,9.2
			c-1.3,9,4.4,15.3,12.5,15c2.4-0.1,4.9-0.6,7.1-1.6c-2.5-4.2-3.2-9-3.3-11.9C16.8,50.8,16.9,49.3,17.1,47.7z"/>
		<path class="st5" d="M26.7,54.3c0.2-2-0.1-3.8-0.7-5.3c-1.9,0.2-3.9,0.1-6-0.3c-1.1-0.2-2-0.6-2.9-1.1c-0.2,1.6-0.2,3.1-0.2,4.3
			c0.1,2.9,0.7,7.7,3.3,11.9C23.6,62.2,26.2,59.2,26.7,54.3z"/>
		<path class="st5" d="M17.1,47.7c0.3-2,0.8-4.3,1.8-6.6c-0.2-0.1-0.4-0.2-0.5-0.3c-1.2-0.6-4.2-1.2-7.2-1c0.3,1,0.8,1.9,1.5,3.1
			C13.9,45,15.3,46.6,17.1,47.7L17.1,47.7z"/>
		<path class="st2" d="M18.9,41.1c-1,2.3-1.5,4.5-1.8,6.6c0.9,0.5,1.8,0.9,2.9,1.1c2.1,0.4,4.1,0.5,6,0.3
			C24.3,44.8,20.6,42.1,18.9,41.1z"/>
		<path class="st5" d="M63.1,55.2c-1.3-0.4-2.5-0.9-3.6-1.7c-0.2,2.1-0.7,4.1-1.3,6c-3.4,9.7-14.3,13.6-23.8,12.6
			c0.9,2.8,1.7,4.8,3.5,7.2c1.5,2,3.8,3.9,6.2,5.4c2.8,1.7,5.4,3.4,8.4,3.7C58,89,66.3,88,70.1,84.3c3.5-3.4,5.9-6.4,6.6-10.9
			c0.1-0.3,0.1-0.7,0.1-1c-0.4-0.1-0.8-0.1-1.2-0.2C69.2,70.6,61.5,63.6,63.1,55.2L63.1,55.2z"/>
		<path class="st2" d="M58.2,59.5c0.7-1.9,1.1-3.9,1.3-6c-1.4-1-2.6-2.2-3.9-3.7c-0.9-1-1.5-2.1-2-3.1c-0.6,0-1.2,0.1-1.8,0.1
			l-4.1,0.7c-9.2,1.8-14.2,9.9-13.8,18.8c0.1,2.1,0.2,4,0.5,5.8C43.8,73.1,54.8,69.2,58.2,59.5L58.2,59.5z"/>
		<path class="st4" d="M90.7,52c-1.9-4.5-5.4-7.3-9.2-8.3c-0.4,5-2.9,9-8.3,10.9c3.4,5.1,4.4,11.7,3.6,17.8c6.8,1,12.1-3.7,14-8.4
			C92.8,59.1,92.9,57.2,90.7,52L90.7,52z"/>
		<path class="st3" d="M73.2,54.6c-1.4,0.5-3,0.8-4.8,1c-2.1,0.2-3.8,0-5.4-0.4c-1.6,8.4,6.2,15.4,12.6,16.9
			c0.4,0.1,0.8,0.2,1.2,0.2C77.6,66.2,76.6,59.6,73.2,54.6L73.2,54.6z"/>
		<path class="st3" d="M34.1,29.1c0.5-0.1,1-0.3,1.5-0.4c5.3-1.2,10.1,0.9,13.9,2.9c1.6,0.9,3,1.9,4.2,3.2c0.3-0.7,0.5-1.1,0.5-1.1
			c1.3-2.3,3.4-4,5.6-5.2c-0.1-0.4-0.2-0.9-0.3-1.4c-1.2-5.4,0.8-9.6,4.6-12.9c1.6-1.4,3.4-2.1,5.1-2.4c-1.2-2.1-2.6-4-4.4-5.7
			C50.6-7.9,25,6.3,26.9,24c0.3,0.1,0.6,0.2,0.9,0.4C30.2,25.5,32.4,27.1,34.1,29.1L34.1,29.1z"/>
		<path class="st2" d="M52.5,38.5c0.2-1,0.8-2.6,1.2-3.7c-1.2-1.2-2.6-2.3-4.2-3.2c-3.8-2-8.6-4.1-13.9-2.9c-0.5,0.1-1,0.2-1.5,0.4
			c3,3.3,4.3,7.6,2.3,12c0.3,0.2,0.5,0.4,0.8,0.5c5.1,2.5,10.3,3.1,15.4,2C52.1,41.3,52.3,39.4,52.5,38.5L52.5,38.5z"/>
		<path class="st5" d="M34.1,29.1c-1.7-2.3-3.4-4-6.3-4.7c-0.3-0.1-0.6-0.3-0.9-0.4c0.2,2.3,0.9,4.6,2.1,6.9
			C30.5,30.2,32.2,29.6,34.1,29.1L34.1,29.1z"/>
		<path class="st2" d="M34.1,29.1c-1.9,0.5-3.6,1.1-5.1,1.9c0.1,0.3,0.3,0.6,0.5,0.9c0,0,3.5,6.9,6.9,9.3
			C38.4,36.6,37,32.4,34.1,29.1z"/>
		<path class="st4" d="M68,37.3c-0.8-0.3-1.6-0.7-2.3-1c-2.5,2.3-5.1,4.1-7.7,5.4c0.6,1.5,1,3.2,1.3,4.8c2.5,0.2,4.9,0.7,7.1,1.9
			c3.8-4.5,9.8-6.2,15.1-4.7c0.2-2.2-0.1-4.7-0.7-7.2C76.7,39.7,73,39.2,68,37.3L68,37.3z"/>
		<path class="st4" d="M59.3,46.5c-0.3-1.7-0.7-3.3-1.3-4.8c-1.8,0.9-3.6,1.5-5.4,1.9c0.2,1,0.5,2,1,3
			C55.6,46.5,57.5,46.4,59.3,46.5L59.3,46.5z"/>
		<path class="st2" d="M66.4,48.4c-2.3-1.2-4.6-1.7-7.1-1.9c0.4,2.3,0.4,4.7,0.2,7c1.1,0.8,2.3,1.3,3.6,1.7c0.1-0.8,0.3-1.5,0.6-2.3
			C64.4,51.2,65.3,49.7,66.4,48.4L66.4,48.4z"/>
		<path class="st2" d="M59.3,46.5c-1.8-0.1-3.7,0-5.7,0.1c0.5,1,1.1,2.1,2,3.1c1.3,1.5,2.5,2.8,3.9,3.7
			C59.7,51.1,59.6,48.8,59.3,46.5L59.3,46.5z"/>
		<path class="st3" d="M66.4,48.4L66.4,48.4c2.9,1.5,5.2,3.7,6.8,6.2c5.4-1.8,7.9-5.9,8.3-10.9C76.2,42.2,70.2,43.9,66.4,48.4
			L66.4,48.4z"/>
		<path class="st2" d="M66.4,48.4L66.4,48.4c-1.1,1.3-2,2.8-2.7,4.5c-0.3,0.8-0.5,1.5-0.6,2.3c1.6,0.4,3.3,0.6,5.4,0.4
			c1.8-0.2,3.4-0.5,4.8-1C71.6,52,69.3,49.9,66.4,48.4z"/>
		<path class="st2" d="M65.7,36.3c-3.1-1.7-4.9-4.1-6-7.9c-2.2,1.2-4.3,2.9-5.6,5.2c0,0-0.2,0.5-0.5,1.1c1.9,2,3.3,4.3,4.3,6.9
			C60.6,40.4,63.2,38.6,65.7,36.3z"/>
		<path class="st2" d="M53.7,34.8c-0.5,1.1-1.1,2.7-1.2,3.7c-0.1,0.9-0.4,2.8,0.1,5.1c1.8-0.4,3.6-1,5.4-1.9
			C57,39.1,55.6,36.8,53.7,34.8L53.7,34.8z"/>
		<path class="st5" d="M71.6,26.8c4.4,1.8,8.3,6,9.1,9.1c0.1,0.2,0.1,0.4,0.2,0.6c0.1-0.1,0.3-0.2,0.4-0.3c1.9-1.5,3.9-4,4.4-7.1
			c0.3-2.2,0.2-5.3-0.4-7.4c-1.6-5.9-7.3-8.8-9.5-9.5c-1.3-0.4-3.9-0.9-6.6-0.4C71.8,16.5,72.8,21.8,71.6,26.8L71.6,26.8z"/>
		<path class="st3" d="M59.4,27c0.1,0.5,0.2,0.9,0.3,1.4c2.5-1.4,5.1-2.1,6.9-2.4c1.6-0.2,3.2,0.1,4.9,0.7c1.2-5,0.2-10.4-2.4-15.1
			c-1.8,0.3-3.8,1-5.1,2.4C60.6,17.9,58.3,21.7,59.4,27L59.4,27z"/>
		<path class="st3" d="M71.6,26.8c-0.8,3.2-2.4,6.2-5,8.7c-0.3,0.3-0.6,0.5-0.8,0.8c0.7,0.4,1.5,0.7,2.3,1c5,1.8,8.6,2.4,12.8-0.8
			c-0.1-0.2-0.1-0.4-0.2-0.6C79.9,32.8,76,28.5,71.6,26.8L71.6,26.8z"/>
		<path class="st2" d="M65.7,36.3c0.3-0.2,0.6-0.5,0.8-0.8c2.6-2.5,4.3-5.5,5-8.7c-1.6-0.6-3.3-1-4.9-0.7c-1.8,0.2-4.5,1-7,2.4
			C60.8,32.2,62.6,34.6,65.7,36.3L65.7,36.3z"/>
	</g>
	<path class="st6" d="M16,25.9l0.1-0.1C16,25.8,16,25.8,16,25.9z M36,32.9c0-0.2,0.2,0.3,0.2,0C36.1,32.9,35.9,32.6,36,32.9z
		 M14,27.4v0.1l0.1-0.2L14,27.4z M11.9,31L11.9,31L11.9,31L11.9,31z M16.7,25.7L16.7,25.7C16.6,25.8,16.7,25.7,16.7,25.7z
		 M28.4,24.9v-0.1C28.2,24.8,28.2,24.8,28.4,24.9z M19.8,24.5L19.8,24.5L19.8,24.5z M12.6,42.8L12.6,42.8L12.6,42.8L12.6,42.8
		L12.6,42.8z M10.7,36.8L10.7,36.8L10.7,36.8L10.7,36.8L10.7,36.8z M33.5,28.5c-0.1-0.1-0.2-0.2-0.2-0.3
		C33.3,28.3,33.4,28.4,33.5,28.5z M33.7,44.5l-0.1,0.2l0.1-0.1C33.7,44.6,33.7,44.5,33.7,44.5z M20.9,23.5L20.9,23.5
		C21,23.4,20.9,23.5,20.9,23.5z M28.2,24.1l0.2,0.1l0,0C28.5,24.2,28.2,24.1,28.2,24.1z M11.3,33.9L11.3,33.9L11.3,33.9L11.3,33.9z
		 M28.7,24.9L28.7,24.9L28.7,24.9C28.6,24.8,28.7,24.9,28.7,24.9z M11.1,37.8l0.1,0.4c0-0.1,0-0.2,0.1,0
		C11.3,37.7,11.2,38.3,11.1,37.8L11.1,37.8z M12,30.9l0.1-0.1C12.1,30.7,12,30.8,12,30.9z M19.3,48.9L19.3,48.9
		C19.3,48.9,19,48.8,19.3,48.9z M12.4,42.6c0-0.2-0.1-0.4-0.2-0.5c0,0,0,0,0.1,0C12.2,42,12,41.9,12,42c0.1,0.1,0.1,0.1,0.3,0.2
		c0.1,0.1,0.1,0.2,0,0.2L12.4,42.6L12.4,42.6z M33.1,46.3L33.1,46.3L33.1,46.3C33,46.3,33.1,46.3,33.1,46.3z M11.2,36.7
		C11.2,36.5,11.2,36.5,11.2,36.7S11.2,36.7,11.2,36.7z M13.4,28.8L13.4,28.8C13.5,28.7,13.4,28.8,13.4,28.8z M15.2,27.1l0.2-0.2
		L15.2,27.1L15.2,27.1z M11.8,41.7L11.8,41.7L11.8,41.7L11.8,41.7z M11.4,40.6L11.4,40.6L11.4,40.6L11.4,40.6L11.4,40.6z M11.4,40.7
		L11.4,40.7L11.4,40.7L11.4,40.7z M23.6,48.9L23.6,48.9L23.6,48.9L23.6,48.9L23.6,48.9L23.6,48.9z M57.2,42.2
		C57.3,42.2,57.3,42.1,57.2,42.2C57.2,42.2,57.2,42.2,57.2,42.2z M32.2,35.9c0.1,0.1,0.3,0.5,0.4,0.6C32.5,36.4,32.4,36.1,32.2,35.9
		C32.3,35.9,32.2,35.9,32.2,35.9z M54.2,43.5L54.2,43.5l0.3-0.2L54.2,43.5L54.2,43.5z M29.5,31.8L29.5,31.8L29.5,31.8L29.5,31.8z
		 M71.7,27.5l-0.1,0.1C71.6,27.7,71.7,27.8,71.7,27.5z M30.8,33.6L30.8,33.6L30.8,33.6L30.8,33.6z M45,1.5L45,1.5L45,1.5L45,1.5z
		 M56.2,42.3l0.2-0.2C56.3,42.2,56.2,42.3,56.2,42.3z M47.8,0.2l-0.4,0.1h0.2C47.5,0.3,47.7,0.2,47.8,0.2z M35.7,40.8
		C35.5,40.5,35.7,40.8,35.7,40.8C35.9,40.9,35.9,41,35.7,40.8z M63.8,37.5L63.8,37.5C64,37.4,63.9,37.4,63.8,37.5z M30.1,32.8
		C30,32.6,30,32.5,30,32.5s-0.1-0.3-0.2-0.3c0.1,0.3,0.2,0.6,0.4,0.8c0,0.1,0,0-0.1,0c0.2,0.2,0.4,0.4,0.4,0.2
		C30.3,33,30.3,33,30.1,32.8z M30.7,33.6c0-0.1-0.1-0.2-0.1-0.2L30.7,33.6z M71.4,16.3c0.1,0.2,0.1,0.5,0.1,0.6
		C71.6,16.8,71.5,16.5,71.4,16.3z M30.7,10.4L30.7,10.4L30.7,10.4L30.7,10.4L30.7,10.4L30.7,10.4z M62.6,39.4L62.6,39.4
		C62.5,39.5,62.5,39.4,62.6,39.4z M34.3,39.3l-0.4-0.5c0,0.1,0.1,0.2-0.1,0C34.3,39.5,33.8,38.7,34.3,39.3z M45.1,44L45.1,44
		L45.1,44L45.1,44z M70.8,30L70.8,30l-0.1,0.2C70.7,30.1,70.7,30.1,70.8,30z M27.9,16.9L27.8,17C27.9,17,27.8,17.5,27.9,16.9z
		 M28,27.3L28,27.3C27.9,27.3,28,27.3,28,27.3z M45.3,44.1l0.3,0.1C45.6,44.1,45.5,44.1,45.3,44.1z M40,42.9L40,42.9h-0.2H40
		L40,42.9z M70.1,29.9L70.1,29.9L70.1,29.9L70.1,29.9z M70.1,29.8l0.2-0.5C70.3,29.5,70.2,29.6,70.1,29.8z M70.9,27.8l0.1-0.3v-0.1
		L70.9,27.8z M49.7,44.2L49.7,44.2C50,44.2,49.7,44.2,49.7,44.2z M35.8,40.3L35.8,40.3L35.8,40.3L35.8,40.3z M31.8,35.3L31.8,35.3
		L31.8,35.3L31.8,35.3z M31.7,35.2l-0.1-0.1L31.7,35.2L31.7,35.2z M67.4,8.4c0.2,0.4-0.5-0.5-0.2,0.1C67.2,8.4,67.6,8.9,67.4,8.4z
		 M18.8,64.8L18.8,64.8L18.8,64.8L18.8,64.8L18.8,64.8z M17.5,65.3h-0.2l0,0H17.5L17.5,65.3z M0.2,50.4L0.2,50.4L0.2,50.4L0.2,50.4z
		 M20.9,42.2L20.9,42.2c0,0,0.2,0.3,0.3,0.3C21.2,42.4,21.1,42.2,20.9,42.2z M0.8,52.1L0.8,52.1L0.8,52.1L0.8,52.1L0.8,52.1z
		 M23.6,45.2l-0.1-0.1v0.1C23.4,45.2,23.5,45.2,23.6,45.2z M17,64.7L17,64.7C17.2,64.7,17.2,64.6,17,64.7z M24.8,47.2L24.8,47.2
		L24.8,47.2L24.8,47.2L24.8,47.2z M10.9,65.2c-0.1-0.1-0.2-0.1-0.3-0.1C10.7,65.2,10.9,65.2,10.9,65.2z M26.5,52.6L26.5,52.6
		C26.5,52.7,26.5,52.6,26.5,52.6z M5.9,63.3C6.1,63.5,5.5,63.2,5.9,63.3C5.7,63.4,6.1,63.5,5.9,63.3z M20.5,41.9h-0.1H20.5
		L20.5,41.9L20.5,41.9z M26.2,55.1L26.2,55.1v0.2V55.1z M24,61.5L24,61.5C23.9,61.6,23.9,61.5,24,61.5z M25.9,57.1L25.9,57.1
		C25.9,57,25.9,57.1,25.9,57.1z M24.2,60L24.2,60L24.2,60z M19.6,41.2L19.6,41.2L19.6,41.2L19.6,41.2L19.6,41.2z M26.1,50.1v0.2
		C26.2,50.2,26.2,50.1,26.1,50.1z M16.7,64.8L16.7,64.8h0.1H16.7L16.7,64.8z M26.9,54.3v-0.2V54V54.3z M23.4,44.6L23.4,44.6
		L23.4,44.6L23.4,44.6z M18.3,40.8L18.3,40.8L18.3,40.8C18.2,40.8,18.3,40.8,18.3,40.8z M26.4,56.8c0-0.1,0-0.2,0-0.2V56.8z
		 M18.5,64.3L18.5,64.3h0.1C18.7,64.2,18.5,64.3,18.5,64.3z M20.6,41.9L20.6,41.9L20.6,41.9L20.6,41.9L20.6,41.9z M23.2,44.9
		C23.1,44.8,23.2,44.9,23.2,44.9C23.3,45,23.3,45.1,23.2,44.9z M26.1,50L26.1,50L26.1,50L26.1,50z M9.2,39.7h0.1
		C9.3,39.7,9.5,39.6,9.2,39.7z M5.6,42L5.6,42L5.6,42L5.6,42L5.6,42L5.6,42z M22.5,44l-0.3-0.3c0,0.1,0.1,0.2-0.1,0
		C22.4,44.2,22.1,43.7,22.5,44L22.5,44z M24.7,33.8L24.7,33.8L24.7,33.8L24.7,33.8z M18.5,41.5L18.5,41.5L18.5,41.5L18.5,41.5z
		 M19.2,40.8V41h0.1C19.2,40.9,19.2,40.8,19.2,40.8z M54.4,34.9l0.2,0.3h0.1L54.4,34.9z M59.1,54.1c0.1-0.4,0,0.6,0.2,0.1
		C59.2,54.2,59.2,53.6,59.1,54.1z M46.6,70.2l0.2-0.1l-0.4,0.2C46.5,70.3,46.6,70.2,46.6,70.2z M30.6,30l-0.1,0.1l0.4-0.2L30.6,30
		L30.6,30z M16.8,47.9v0.2V47.9L16.8,47.9L16.8,47.9z M16.9,52L16.9,52L16.9,52C16.9,52.1,16.9,52,16.9,52z M27.7,70.2L27.7,70.2
		L27.7,70.2L27.7,70.2L27.7,70.2L27.7,70.2z M17,56.8L17,56.8C17.1,56.8,17,56.7,17,56.8z M16.8,47.8V48l0,0V47.8z M44.2,71.7
		L44.2,71.7L44.2,71.7C44.1,71.8,44.2,71.7,44.2,71.7z M18.9,41.5C19,41.3,19,41.3,18.9,41.5C18.8,41.8,18.9,41.5,18.9,41.5z
		 M35.6,28.9C35.7,28.9,35.8,28.9,35.6,28.9C35.7,28.9,35.6,28.9,35.6,28.9z M59,57.8L59,57.8L59,57.8L59,57.8z M16.6,49.6
		L16.6,49.6L16.6,49.6L16.6,49.6z M41.4,29L41.4,29C41.3,29,41.4,29,41.4,29z M28.5,31.4L28.5,31.4C28.7,31.4,28.5,31.5,28.5,31.4z
		 M49.4,31.9L49.4,31.9L49.4,31.9z M18,43.9C18,43.8,18.1,43.7,18,43.9c0.4-0.7,0,0.2,0.2-0.6L18,43.9L18,43.9z M24.8,33.7l0.3-0.2
		C25.1,33.5,25,33.6,24.8,33.7z M52.4,33.9L52.4,33.9c0,0-0.1-0.1-0.2-0.1C52.3,33.8,52.3,33.8,52.4,33.9z M58.7,44.9
		c0,0.1,0,0.4,0.1,0.6C58.8,45.3,58.8,45,58.7,44.9z M52.7,33.3L52.7,33.3L52.7,33.3L52.7,33.3z M32.4,29.9l0.4-0.2L32.4,29.9
		L32.4,29.9z M52.7,33.4l0.4,0.4C53.1,33.6,52.9,33.5,52.7,33.4z M54.2,35.7C54.1,35.6,54,35.6,54.2,35.7L54.2,35.7z M54.6,36.2
		L54.6,36.2L54.6,36.2C54.5,36.1,54.6,36.2,54.6,36.2z M43.6,28.8L43.6,28.8C43.8,28.9,43.7,28.8,43.6,28.8z M21.2,37.5L21.2,37.5
		l-0.1,0.2L21.2,37.5L21.2,37.5z M16.8,50.7c0-0.2-0.1-0.5-0.2-0.4c0.1,0.2,0,0.3,0.1,0.5c0,0.2,0,0.3-0.1,0.3c0,0.1,0,0.3,0,0.4
		C16.8,51.3,16.8,51,16.8,50.7C16.8,50.6,16.8,50.6,16.8,50.7L16.8,50.7z M21.6,66.5v-0.2C21.5,66.4,21.2,66,21.6,66.5z M17,46.4
		c0,0.2-0.1,0.5-0.1,0.7l0,0C16.9,47,17.1,46.6,17,46.4L17,46.4z M70.9,52.1L70.9,52.1C71,52.3,70.8,52.1,70.9,52.1z M75,58.5
		C75,58.4,74.9,58.4,75,58.5C75,58.4,75,58.5,75,58.5z M72.7,53.6l0.2,0.3L72.7,53.6C72.8,53.7,72.7,53.6,72.7,53.6z M76.3,64
		L76.3,64C76.3,63.9,76.3,64,76.3,64z M39.6,81l0.2,0.1L39.6,81L39.6,81z M58.3,46.7C58.5,46.7,58.6,46.7,58.3,46.7
		S58.3,46.7,58.3,46.7z M47.7,47.5L47.7,47.5L47.7,47.5L47.7,47.5z M67.5,49.3L67.5,49.3L67.5,49.3L67.5,49.3z M67.7,49.4l0.2,0.2
		C67.9,49.6,67.8,49.5,67.7,49.4z M76.4,76L76.4,76L76.4,76L76.4,76z M51.6,46.5h-0.2H51.6L51.6,46.5L51.6,46.5z M51.7,46.5
		c0,0,0.1,0,0.2,0C51.8,46.5,51.7,46.5,51.7,46.5z M62.9,47.3L62.9,47.3h-0.2H62.9z M55.7,46.7c0.8,0.1-0.2-0.1,0.7-0.1L55.7,46.7
		C55.8,46.6,56,46.7,55.7,46.7z M34.2,63.1L34.2,63.1L34.2,63.1L34.2,63.1L34.2,63.1L34.2,63.1z M35.8,56.1c-0.1,0,0.2-0.4-0.2,0.1
		L35.8,56.1z M48.8,47.2c-0.2,0-0.3,0-0.3,0c-0.1,0-0.3,0-0.4,0.1c0.3,0,0.6,0,0.9-0.1c0.1,0,0,0,0,0.1c0.2-0.1,0.5-0.2,0.3-0.3
		C49.1,47.1,49,47,48.8,47.2z M49.8,46.8L49.8,46.8L49.8,46.8L49.8,46.8L49.8,46.8z M51.7,46.5L51.7,46.5L51.7,46.5L51.7,46.5
		L51.7,46.5z M75.5,78.1l-0.2,0.3v0.1L75.5,78.1z M77.3,66L77.3,66C77.4,66.2,77.3,66.1,77.3,66z M73.4,55.5l0.3,0.3L73.4,55.5
		L73.4,55.5L73.4,55.5z M37.3,79.3L37.3,79.3L37.3,79.3L37.3,79.3z M74.7,78.2L74.7,78.2C74.8,78.1,74.8,78,74.7,78.2z M67.8,85.7
		c-0.1,0-0.4,0.1-0.5,0.2C67.5,85.8,67.7,85.7,67.8,85.7z M76.4,76.1l-0.2,0.5C76.3,76.5,76.4,76.3,76.4,76.1z M60,46.4l-0.3-0.1
		C59.8,46.3,59.9,46.4,60,46.4z M76.5,72.4L76.5,72.4L76.5,72.4z M59.1,88c0.4,0-0.6,0.1,0,0.2C59,88.2,59.6,88,59.1,88z M74.4,78.8
		L74.4,78.8l0.1-0.2C74.5,78.7,74.4,78.8,74.4,78.8z M75.8,75.9L75.8,75.9l0.1-0.2C75.8,75.8,75.8,75.8,75.8,75.9z M58.1,46.2
		L58.1,46.2L58.1,46.2L58.1,46.2L58.1,46.2z M52.6,37.3c0,0.2,0,0.2,0,0.4c0,0.1-0.1,0.2-0.1,0.2s-0.1,0.2,0,0.3
		c0.1-0.2,0.2-0.4,0.2-0.6c0,0,0,0,0.1,0C52.7,37.5,52.7,37.3,52.6,37.3L52.6,37.3z M53.1,35.8L53.1,35.8L53.1,35.8L53.1,35.8z
		 M52.7,36.9L52.7,36.9L52.7,36.9C52.7,37,52.7,36.9,52.7,36.9z M53.1,35.8L53.1,35.8L53.1,35.8L53.1,35.8L53.1,35.8z M52.5,38.5
		L52.5,38.5L52.5,38.5L52.5,38.5z M53.5,34.8c0,0.1-0.2,0.3-0.2,0.4l0,0C53.3,35.2,53.5,35,53.5,34.8L53.5,34.8z M57.9,51.9
		L57.9,51.9L57.9,51.9L57.9,51.9L57.9,51.9L57.9,51.9z M54.4,48.4C54.4,48.5,54.2,48.2,54.4,48.4L54.4,48.4z M79,31.9L79,31.9
		L79,31.9L79,31.9L79,31.9z M79.9,33.2l0.1,0.2l0,0L79.9,33.2z M79.5,33.8C79.4,33.7,79.3,33.7,79.5,33.8L79.5,33.8z M73.8,27.4
		L73.8,27.4C73.9,27.5,73.8,27.4,73.8,27.4z M81.4,40.4c0,0.1,0,0.3,0,0.4C81.4,40.6,81.4,40.5,81.4,40.4z M69.9,55L69.9,55L69.9,55
		L69.9,55L69.9,55z M68.2,55.9L68.2,55.9L68.2,55.9L68.2,55.9z M65,26.1L65,26.1h0.2H65L65,26.1z M80.6,46.4c0.2-0.2,0,0.4,0.2,0.1
		C80.7,46.5,80.7,46.1,80.6,46.4z M55.1,31.9L55.1,31.9L55.1,31.9L55.1,31.9z M67.8,26H68C67.9,25.9,67.8,25.9,67.8,26z M63.5,26.9
		L63.5,26.9C63.6,26.9,63.5,26.9,63.5,26.9z M54.6,33.5c0.4-0.4-0.1,0.1,0.2-0.4L54.6,33.5C54.6,33.4,54.7,33.3,54.6,33.5L54.6,33.5
		z M60.7,27.9L60.7,27.9L60.7,27.9L60.7,27.9z M68.5,26.3C68.5,26.3,68.6,26.3,68.5,26.3L68.5,26.3z M55.6,32
		C55.6,31.9,55.7,31.9,55.6,32C55.4,32.2,55.6,32,55.6,32z M55.8,31.5v0.1h0.1C55.8,31.7,55.8,31.6,55.8,31.5L55.8,31.5z M79.7,34.2
		L79.7,34.2L79.7,34.2C79.7,34.1,79.7,34.2,79.7,34.2z M78.5,32.3L78.5,32.3L78.5,32.3C78.5,32.3,78.5,32.3,78.5,32.3z M60.8,27.9
		l0.2-0.1C61,27.9,60.9,27.9,60.8,27.9z M66.3,26.4L66.3,26.4h0.2H66.3L66.3,26.4z M72.2,27.4L72.2,27.4
		C72.1,27.4,72.2,27.4,72.2,27.4z M57.8,29.8L57.8,29.8l-0.1,0.1L57.8,29.8z M80,14.1L80,14.1l0.1,0.1L80,14.1z M81.9,15.8
		L81.9,15.8L81.9,15.8z M69.9,11.4L69.9,11.4L69.9,11.4L69.9,11.4z M86.2,28l-0.1,0.2l0,0L86.2,28L86.2,28z M81.9,15.8l0.2,0.1
		C82,15.9,82,15.8,81.9,15.8z M85.2,20.4L85.2,20.4C85.2,20.5,85.2,20.5,85.2,20.4z M86.3,26.6L86.3,26.6L86.3,26.6L86.3,26.6z
		 M82.8,34.3c0.1-0.1,0.2-0.2,0.2-0.3C82.9,34,82.8,34.1,82.8,34.3z M76.1,12.4l0.2,0.1C76.3,12.5,76.2,12.4,76.1,12.4z M59.6,26.6
		L59.6,26.6L59.6,26.6L59.6,26.6L59.6,26.6L59.6,26.6z M64.1,14.1L64.1,14.1L64.1,14.1L64.1,14.1L64.1,14.1z M78.5,13.6L78.5,13.6
		C78.6,13.7,78.4,13.6,78.5,13.6z M80.6,15.2L80.6,15.2l0.2,0.1L80.6,15.2L80.6,15.2z M70.1,11.9C70.2,11.8,70.2,11.8,70.1,11.9
		C69.9,11.9,70.1,11.9,70.1,11.9z M65.9,12.4L65.9,12.4L65.9,12.4C65.9,12.5,65.9,12.4,65.9,12.4z M64.6,13.5L64.6,13.5
		c0.1-0.1,0.2-0.3,0.1-0.3C64.6,13.4,64.6,13.4,64.6,13.5c-0.2,0.2-0.3,0.2-0.3,0.2s-0.2,0.1-0.2,0.2C64.3,13.8,64.5,13.7,64.6,13.5
		z M59.1,22.2L59.1,22.2C59.1,22.1,59.1,21.8,59.1,22.2z M65,12.9L65,12.9L65,12.9L65,12.9L65,12.9z M66.4,12.2L66.4,12.2
		c0.1-0.1,0.3-0.1,0.4-0.1C66.7,12,66.6,12.1,66.4,12.2z M66,12.4L66,12.4L66,12.4L66,12.4L66,12.4z M64.2,35.7L64.2,35.7L64.2,35.7
		L64.2,35.7z M85.4,28.3L85.4,28.3C85.5,28.1,85.4,28.1,85.4,28.3z M84,19.5L84,19.5L84,19.5z M85.4,28.7L85.4,28.7v-0.1V28.7
		L85.4,28.7z M78.6,37.4c0.2,0-0.3,0.3,0.1,0.2C78.6,37.6,78.9,37.3,78.6,37.4z M85.6,26.7L85.6,26.7v-0.1
		C85.6,26.5,85.6,26.7,85.6,26.7z M82.1,16.5L82.1,16.5L82.1,16.5z M72.9,11.9L72.9,11.9L72.9,11.9L72.9,11.9z M70.5,11.7l-0.1,0.1
		v0.1C70.5,11.8,70.5,11.8,70.5,11.7L70.5,11.7z M76,12.3L76,12.3L76,12.3C76,12.4,76,12.3,76,12.3z M92,61C92,61.1,92,61.1,92,61
		L92,61z M91.4,63.3l0.1-0.3L91.4,63.3C91.5,63.2,91.4,63.3,91.4,63.3z M90.1,65.8L90.1,65.8C90.2,65.7,90.2,65.9,90.1,65.8z
		 M88.3,68.2L88.3,68.2L88.3,68.2L88.3,68.2z M83.3,71.6L83.3,71.6v0.2C83.3,71.8,83.3,71.7,83.3,71.6z M88.4,68.2l0.2-0.1
		C88.5,68,88.4,68.1,88.4,68.2z M85.7,70.6L85.7,70.6L85.7,70.6L85.7,70.6z M78.9,72L78.9,72c0.1,0,0.4,0.1,0.5,0
		C79.2,72,79.1,72,78.9,72z M82.5,71.5L82.5,71.5L82.5,71.5L82.5,71.5L82.5,71.5z M81.5,72.2l-0.4,0.1c0.1,0,0.2,0.1,0,0.1
		C81.7,72.3,81,72.3,81.5,72.2L81.5,72.2z M90.5,64.3l0.1-0.2L90.5,64.3L90.5,64.3L90.5,64.3z M92.6,58.1v-0.3l-0.1,0.1
		c0-0.1,0-0.2,0-0.2c0-0.1-0.1,0.1-0.2-0.2c0-0.2,0-0.5,0.1-0.5c0,0.5,0.1-0.1,0.1,0.4v-0.3l0,0c0.1-0.5-0.1-0.2-0.2-0.7
		c0.1,0.1,0.1-0.1,0.1-0.2c0,0.2-0.1,0.1-0.1-0.1c0-0.3-0.1-0.3-0.1-0.5v0.2c-0.1,0-0.1-0.2-0.1-0.4c0,0,0.1,0.2,0.1,0.1
		c-0.1-0.2,0-0.6-0.2-0.9c0-0.2,0.1,0,0.1-0.2c-0.2-0.3,0-0.4-0.2-0.8c0,0.1,0,0.2-0.2-0.1l0.2,0.6l-0.2-0.4
		c0.1,0.2,0.2,0.4,0.2,0.5c-0.1-0.2-0.1-0.2-0.1-0.1c0-0.3-0.2-0.5-0.2-0.8h0.2c-0.1-0.5-0.4-0.8-0.6-1.3l0.1,0.2
		c-0.1,0-0.2-0.3-0.3-0.5c0.1,0,0-0.1,0-0.2c0,0-0.2-0.4-0.3-0.4l-0.1-0.3c-0.2-0.5-0.4-0.4-0.6-0.8c0.1,0.1,0.1-0.1,0.2,0.1
		C90,50,90,49.9,90,49.9c0-0.1-0.3-0.3-0.4-0.5c-0.1,0-0.1,0-0.2-0.2l0,0c0,0-0.2-0.2-0.2,0c-0.1-0.5-0.8-1.1-1-1.5
		c-0.3-0.2-0.6-0.5-0.8-0.7c0,0,0,0,0.1,0c-0.3-0.3-0.3-0.1-0.6-0.4c-0.1-0.2,0.2,0.1,0.1,0c0.1-0.2-0.5-0.3-0.7-0.6h0.1
		c-0.2-0.2-0.5-0.3-0.9-0.5l0,0c-0.3-0.1-0.8-0.3-1.1-0.5c0.1,0,0.2,0,0.1,0c-0.2-0.1,0,0.1-0.3,0c-0.1-0.1-0.3-0.3-0.3-0.3l0.3,0.2
		c-0.1-0.2-0.4-0.2-0.6-0.3l0,0c-0.5-0.2-0.5-0.1-1.1-0.3l0,0c-0.3,0-0.2-0.2-0.5-0.2L81.9,44c-0.1,0-0.2,0-0.3,0c0,0,0,0,0-0.1h0.1
		h-0.1c0.1-1.2,0.3-2.5,0.2-3.8c0-0.5-0.3-0.3-0.2-0.9l0.1,0.2c-0.2-0.9-0.4-1.8-0.6-2.6c0.9-0.7,1.8-1.5,2.5-2.4
		c0.3-0.4-0.1-0.4,0.4-0.8v0.2c0.4-0.9,1-1.7,1.2-2.7c0,0.1,0,0.1,0,0.2c0.1-0.2,0.2-0.7,0.2-0.7c0.1-0.1,0.1,0,0.1-0.1
		c0.1-0.2,0.1-0.5,0.2-0.6V30c0-0.1,0.2-0.6,0.1-0.5c0.1-0.3,0.1-0.7,0.2-1c-0.1-0.2,0.1-0.6,0-0.7c0.2,0,0.2-0.6,0.1-0.8
		c0,0.1,0-0.2,0.1-0.1c0-0.3,0-0.5-0.1-0.5c0.2-0.5-0.1-0.9,0-1.2c-0.2-0.8-0.2-1.5-0.4-2.1c0.1,0,0.2,0.7,0.3,0.7
		c-0.2-0.6-0.4-1-0.4-1.6c0-0.2,0.1,0.1,0.1,0.1c-0.1-0.6-0.4-1.2-0.6-1.7c0,0,0.1,0,0.1,0.1c0-0.1-0.1-0.3-0.1-0.2l0.1,0.1
		c0,0.2-0.3-0.4-0.4-0.4c0.2,0.1-0.2-0.5,0.1-0.4c0-0.1-0.1-0.1-0.1-0.1c-0.1-0.1,0-0.1,0.1-0.1c-0.2-0.3-0.2-0.2-0.4-0.5
		c0,0,0.1,0,0.1,0.1c-0.2-0.1-0.3-0.3-0.4-0.5c0,0,0,0,0.1,0c-0.3-0.5-0.6-0.7-0.9-1.2c0.2,0.1-0.1-0.2,0-0.3L83.2,17v0.1
		c-0.2-0.2-0.4-0.4-0.5-0.6l0.2,0.1l-0.3-0.4l0.2,0.2c-0.2-0.2-0.1,0.1-0.3-0.2c0.1,0-0.2-0.2-0.3-0.3c-0.1-0.1-0.2-0.1-0.4-0.3
		c0-0.1,0.1-0.1,0.1-0.1c-0.2,0-0.5-0.4-0.7-0.5c0.1,0,0.1,0,0.1,0h-0.1c-0.1-0.1-0.1-0.1,0-0.1c-0.3-0.2,0,0.2-0.3-0.1
		c0,0,0,0,0.1,0c-0.3-0.3-0.7-0.5-1.1-0.8c0-0.2,0.3,0.2,0.2,0c-0.5-0.4-1.1-0.6-1.6-0.9l0.1,0.1c-0.1,0.1-0.3-0.3-0.6-0.4
		c0.1,0,0.1,0,0.1,0c-0.4-0.2-0.7-0.4-1.3-0.5h0.1c-0.2-0.1-0.6-0.3-0.8-0.3c-0.1,0-0.2,0-0.2,0.1c-0.7-0.4-1.5-0.2-2.2-0.4
		c0.1,0,0.2,0,0.1,0h-0.6c0,0.1,0.1,0,0.2,0.1c-0.1,0-0.2,0.1-0.4,0c0.3,0,0-0.1-0.1-0.1v0.1c-0.3-0.1-0.1,0.1-0.5,0l0,0h-0.5
		c-0.1-0.1,0.2,0,0.2-0.1c-0.2,0-0.5,0.2-0.7,0.1l0.3-0.1c-0.2-0.1-0.3-0.1-0.4-0.1l0,0h-0.4H71c-0.3,0.2-0.6,0-1,0.2
		c0.4-0.2,0.1-0.1,0.1-0.2c-0.1,0-0.3,0-0.2-0.1c-0.1,0.1-0.2,0-0.3,0.1c-0.5-0.8-0.9-1.6-1.6-2.5c0.1,0.4-0.2-0.3-0.3-0.1
		c-0.2-0.2-0.2-0.3-0.3-0.3v0.1V8.7l-0.5-0.8c-0.1-0.2,0.2,0.2,0.2,0.2c-0.4-0.5-0.1-0.3-0.3-0.6c0,0.1-0.2-0.1-0.4-0.4l0.3,0.4
		c-0.7-0.6-0.4-0.7-1.1-1.2l0.2,0.2c-0.3-0.3-1.2-1.2-1.7-1.4C64.1,5,64,4.9,64.2,5c-0.8-0.8-2-1.4-2.7-1.9h0.1
		C61.4,3,61.3,3,61.1,2.8c0,0,0.1,0,0,0s-0.5-0.2-0.7-0.4l0.2,0.1c-0.9-0.5-1.5-0.6-2.4-0.9c0-0.1-0.7-0.4-1.1-0.6l0,0
		c-1.2-0.4-2.1-0.5-3.2-0.6C53,0,51.3,0,50.1,0c0.2,0,0,0.1-0.2,0.1c-0.3,0-0.7,0.1-0.7,0h0.1c-0.2-0.1-0.8,0-1.2,0v0.2
		c-1.2-0.1-2.9,0.6-3.5,0.6l-0.8,0.3V1.1c-0.8,0.2-1.1,0.3-2,0.7L42,1.7c-0.5,0.2-0.5,0.4-1,0.7h-0.2C39.9,2.7,39,3,38.3,3.5
		c0,0,0-0.1,0.1-0.1c-0.4,0.2-1.5,0.8-1.2,0.9c-0.1-0.1-0.8,0.5-1.2,0.8L36,5c-0.3,0.3-0.3,0.4-0.7,0.7c-0.1,0.1-0.1,0,0-0.1
		c-0.4,0.2-0.2,0.3-0.7,0.6L34.7,6c-0.4,0.3-0.3,0.3-0.5,0.5s-0.7,0.6-0.8,0.6c0,0.1-0.2,0.3-0.4,0.5V7.5c-0.6,0.5-0.8,0.9-1.2,1.2
		h-0.1c0.6-0.4,1-0.7,1-0.7c0-0.1-0.4,0.3-0.2-0.1c-0.3,0.3-0.6,0.9-1,1.3h-0.1l0,0l-0.2,0.2L31,9.8c-0.1,0-0.4,0.4-0.5,0.6
		c0.1,0-0.1,0.3,0.1,0.1c0,0,0-0.1,0.1-0.2l0.1-0.1l0,0c0.1-0.1,0.2-0.3,0.4-0.5c-0.1,0.2-0.2,0.4-0.4,0.6c0,0.1-0.1,0.3-0.1,0.4
		c-0.3,0.2-0.7,0.7-0.8,0.8c-0.4,0.7-0.9,1.6-1,2.1c-0.1,0.2-0.1,0.2-0.2,0.3c0-0.1,0.1-0.3,0.1-0.3c-0.2,0.4-0.5,1.2-0.5,1.3
		c-0.3,0.5,0-0.3-0.2,0.4v-0.1c-0.7,1.3-0.6,2.4-1.1,3.9c0-0.1,0-0.2,0.1-0.2c-0.4,1.6-0.3,3.3-0.3,4.9c-0.1,0-0.2,0-0.2,0
		c-0.4-0.3-0.9,0-1.1-0.3c-0.7,0-1.4-0.2-2.1-0.1c0-0.1,0.7,0,0.7-0.1c-0.6,0-1,0.1-1.6,0.1c-0.2,0,0.1-0.1,0.1-0.1
		c-0.6,0.1-1.2,0-1.8,0.2c0,0,0.1,0,0.1-0.1c-0.1,0-0.3,0-0.2,0.1h0.1c0.2,0-0.4,0.3-0.4,0.3c0.1-0.2-0.5,0.1-0.3-0.2
		c-0.1,0-0.1,0.1-0.1,0.1c-0.1,0-0.1,0,0-0.1c-0.4,0.1-0.2,0.1-0.6,0.2c0,0,0.1,0,0.1-0.1c-0.2,0.1-0.3,0.2-0.6,0.3l0,0
		c-0.4,0.2-0.7,0.5-1.2,0.7c0.1-0.2-0.2,0.1-0.3,0L17,25h0.1c-0.2,0.1-0.4,0.3-0.6,0.4l0.1-0.1l-0.4,0.3l0.2-0.1
		c-0.2,0.2,0.1,0.1-0.2,0.3c0,0-0.2,0.2-0.4,0.2c-0.1,0.1-0.2,0.2-0.3,0.3c-0.1,0,0-0.1-0.1-0.1c-0.1,0.1-0.5,0.4-0.5,0.6v-0.1v0.1
		c-0.1,0.1-0.1,0.1-0.1,0c-0.3,0.2,0.2,0-0.2,0.3c0,0,0,0,0.1-0.1c-0.4,0.3-0.6,0.6-0.9,0.9c-0.2,0,0.2-0.3,0.1-0.2
		c-0.4,0.5-0.7,1-1.1,1.4l0.1-0.1c0.1,0.1-0.3,0.3-0.4,0.6c0-0.1,0-0.1,0-0.1c-0.3,0.3-0.4,0.7-0.6,1.2v-0.1
		c-0.1,0.2-0.3,0.5-0.4,0.8c0,0.1,0,0.2,0,0.1c-0.5,0.7-0.3,1.4-0.5,2c0-0.1,0-0.2,0-0.1L10.9,34c0.1,0,0.1-0.1,0.1-0.2
		c0,0.1,0,0.2,0,0.4c0-0.3-0.1,0-0.2,0.1h0.1c-0.2,0.3,0.1,0.1,0,0.5l0,0c0,0.2,0,0.3,0,0.5c-0.1,0.1,0-0.2-0.1-0.2
		c-0.1,0.2,0.1,0.5,0.1,0.7l-0.1-0.3c-0.1,0.2-0.1,0.2-0.1,0.4l0,0v0.4v-0.1c0.2,0.3,0.1,0.6,0.2,1c-0.1-0.4-0.1-0.1-0.2-0.1
		c0,0.1,0,0.3-0.1,0.2c0.1,0.2,0,0.3,0.1,0.6c0,0,0,0.2-0.1,0.2c0,0.2,0.1-0.1,0.1,0c0.1,0.4,0.1,0.9,0.3,1.4
		c0.1,0.2,0.1,0.2,0.1,0.3c-0.3,0-0.1-0.1-0.2-0.1c-0.2,0.1-0.4,0.2-0.6,0.2c0,0-0.1,0,0,0c-0.2,0.1-0.8,0.1-1,0.2l0,0
		c0.1,0,0.1,0.1,0.1,0.1C9.1,39.9,9,40,9,39.9c0.1,0,0.1,0,0.1-0.1L9,39.9c-0.1-0.1,0.2-0.1,0.2-0.2C8.9,39.8,8.6,40,8.4,40
		c-0.1-0.1,0.5-0.2,0.2-0.2L9,39.7c-0.3-0.1,0.2,0-0.1-0.1c-0.5,0.1-0.5,0.2-0.9,0.3C7.9,40,8.1,40,8,40.1c-0.6,0.3-0.6,0-1,0.3
		c-0.1,0.1-0.1,0.2-0.4,0.4l0.1-0.2c-0.4,0.2-0.2,0.3-0.6,0.4c0-0.1,0.3-0.2,0.2-0.2C6,40.9,6.1,41,6,41.1H5.9
		c-0.3,0.3-0.7,0.7-1.1,1.1c0,0,0.1-0.1-0.1-0.1c-0.5,0.5-1,1-1.5,1.5L3,43.9c0,0-0.1,0.1-0.1,0c-0.2,0.2,0,0,0,0.2
		c-0.1,0.1-0.2,0.1-0.1,0c-0.2,0.4-0.7,1.1-0.9,1.5v-0.1c-0.2,0.3,0,0.5-0.2,0.7v-0.1c-0.3,0.7-0.8,1.5-0.9,2
		c0.1,0.2-0.2,0.8-0.1,0.8c-0.2,0.4-0.2,0.3-0.4,0.9c0,0.2,0,0.3,0,0.5H0.2l0.1,0.3l-0.1,0.1v0.2c0-0.1,0.1-0.2,0.1-0.2
		c0,0.3-0.1,0.7-0.2,0.7v0.7c0,0-0.1-0.1-0.1-0.2c0.1,0.4-0.1,0.1,0,0.4h0.1C0,52.8,0,53.2,0,53.5v-0.1c0,0.5,0.1,1.1,0.2,1.7
		c0-0.2,0.1-0.2,0.1,0l-0.1,0.1c0.1,0.1,0-0.2,0.1,0c0,0.2-0.1,0.2-0.1,0l0.1,0.3c0,0,0,0-0.1,0c0.1,0.1,0,0.5,0.1,0.6l0,0
		c0.1,0.6,0.2,0.9,0.4,1.3c0.1,0,0.1,0.2,0.2,0.3C1,58.2,1.1,58.5,1.3,59c0.2,0.3,0.1,0,0.2,0.2c-0.1,0,0.1,0.5,0,0.3
		c0.3,0.5,0.4,0.6,0.7,1.1c0-0.1,0-0.2,0-0.1c0.1,0.1,0.1,0.2,0.1,0.3l0,0c0.5,0.5,0.9,1.5,1.4,1.8l0,0L4.2,63
		c0.2,0.2-0.2-0.1,0,0.1C4.8,63.4,5,63.8,5.5,64c0.2,0.5,1.3,0.8,1.8,1.1V65c0.1,0,0.1,0.1,0.2,0.2c0,0-0.1-0.1,0-0.1
		c1.2,0.4,2.4,0.9,3.7,1c0.5,0.1,0.3-0.2,0.9-0.1l-0.2,0.1c1-0.1,1.9,0,2.9-0.2c-0.1,0-0.1,0.1-0.1,0.1c0.2,0.1,0.7-0.1,0.7-0.1
		c0.1,0,0,0.1,0.1,0.1c0.2,0,0.5-0.2,0.6-0.1c0,0-0.1,0-0.1,0.1c0.1-0.1,0.6-0.1,0.4-0.2c0.4,0,0.6-0.2,0.9-0.2
		c0.1-0.1,0.6-0.1,0.6-0.2c0,0.1,0.6-0.1,0.8-0.2c-0.1,0.1,0.2,0,0.1,0.1c0.2-0.1,0.4-0.2,0.4-0.2c0.3,0,0.5-0.2,0.7-0.3
		c0.2,0.2,0.3,0.3,0.5,0.5c0,0,0,0.1,0,0c0.3,0.3,0.7,1,1.1,1.3v0.1c0-0.1,0-0.1,0.1-0.2c0.1,0.2,0.3,0.3,0.3,0.4
		c-0.1-0.1-0.1-0.1-0.2-0.2l0.2,0.2c0.1,0.2-0.2-0.2-0.3-0.2c0.3,0.4,0.8,0.7,1.1,1c0,0.1-0.6-0.6-0.4-0.2l-0.4-0.4
		c0.2,0.4-0.2-0.3-0.1,0.1c0.5,0.6,0.6,0.6,1.2,1.1c0.2,0.1,0-0.1,0.2,0c0.9,0.6,0.5,0.8,1.2,1.1c0.2,0.1,0.4,0,0.8,0.4H25
		c0.6,0.4,0.4,0.1,1.1,0.5c-0.1,0-0.5-0.2-0.5-0.2c0.4,0.3,0.4,0.1,0.7,0.3v0.1c0.7,0.4,1.6,0.6,2.4,0.9c0,0-0.2,0,0,0.1
		c1.1,0.3,2.2,0.7,3.3,0.9h0.4c0.1,0,0.2,0.1,0.1,0.1c0.4,0.1,0-0.1,0.2-0.1s0.3,0.1,0.2,0.1c0.4,0.1,0.9,0.1,1.5,0.1
		c0,0.1,0,0.1,0,0.2v-0.1c0.2,1.3,0.8,2.6,1.1,3.6c0.2,0.1,0.5,1.2,0.7,1.2c0.3,0.7,0.1,0.5,0.6,1.4c0.2,0.2,0.3,0.3,0.5,0.6
		l-0.1,0.1l0.3,0.3l0.1,0.3l0.2,0.2c-0.1-0.1-0.2-0.2-0.1-0.2c0.4,0.4,0.8,1,0.7,1c0.3,0.3,0.6,0.6,0.9,0.8c0,0-0.2-0.1-0.3-0.2
		c0.5,0.4,0,0.2,0.5,0.5c0-0.1,0.1,0,0.1,0c0.2,0.2,0.7,0.7,1.1,1h-0.1c0.7,0.5,1.5,1.1,2.3,1.6c-0.3-0.2-0.2-0.3,0.1-0.1v0.1
		c0.2,0.1-0.2-0.2,0.1-0.1c0.3,0.2,0.2,0.2,0,0.1l0.4,0.2h-0.1c0.2,0.1,0.6,0.5,0.9,0.5l0,0c0.3,0.2,0.5,0.3,0.8,0.4
		c0,0.5,0,0.9,0,1.4c0,1.4,0.1,2.8,0.1,4.1s-0.1,14.7-0.2,16.1c-0.2,2.9,0.1,12.1-1.2,13c-2.2,1.3-4.1,1-5.8,1
		c-0.9,0-28.2,0.9-29,0.9c-3.7,0.1-4.2,0.2-4.2,0.5c0,0.2,23.7,0.6,27.2,0.6h17c0.7,0,1.8-0.1,1.9-0.7c0.2-0.7-0.3-7.8-0.6-10
		c0.1,1-0.4-4.1-0.7-9.3c-0.1-3-0.4-11.1-0.2-12.8c0.1-0.8,0.2-1.6,0.2-2.5c0.5,0.2,0.9,0.2,1.8,0.4c-0.1-0.1-0.2-0.1-0.2-0.1
		c0.2,0,0.4,0.1,0.4,0.2l0,0c1.2,0.1,2.8,0.5,3.8,0.3l0,0l1-0.1c0.5,0-0.3,0.1,0.1,0.1c1.1-0.1,1.7-0.1,2.6-0.2
		c0.7,0.2,2.4-0.3,3.4-0.4h-0.1c0.2-0.1,0.3,0,0.5-0.1c0,0-0.3,0-0.1-0.1c2-0.5,4.1-1.1,6-2.2c0.7-0.4,0.2-0.5,1.1-1l-0.2,0.2
		c1.2-1,2.3-2.2,3.3-3.3c0,0.1,0,0.1-0.1,0.2c0.3-0.2,0.7-0.9,0.7-1c0.2-0.2,0.1,0,0.2-0.1c0.2-0.2,0.4-0.7,0.6-0.8
		c0,0,0,0.1-0.1,0.1c0.1-0.2,0.6-0.8,0.4-0.7c0.4-0.4,0.5-1,0.8-1.3c0.1-0.3,0.5-0.9,0.4-1c0.1,0.1,0.6-0.8,0.6-1.2
		c0,0.1,0.1-0.3,0.1-0.1c0.1-0.4,0.2-0.8,0.1-0.7c0.3-0.7,0.3-1.5,0.6-1.9c0-0.5,0-0.9,0.1-1.3l0,0c0.2-0.1,0.3,0.1,0.3,0.1h-0.2
		c0.2,0.2,0.7,0,1,0.1l-0.1,0.1l0.3-0.1c0.1,0,0.1,0.1,0,0.1c0.2,0.1,0.2-0.1,0.4,0l0,0l0.2-0.1c0,0,0,0.1-0.1,0.1
		c0.4,0,0.7-0.2,0.8-0.1l0,0c0.6-0.1,0.1-0.1,0.5-0.2l0.3,0.2v-0.1c0.1,0,0.2,0,0.2,0c0.2-0.1,0,0,0.1-0.1c0.3,0.1,0.8-0.2,0.9-0.1
		c0.1-0.1-0.3,0,0-0.1c0.1,0.1,0.3-0.1,0.6-0.1c-0.1,0.1-0.3,0.1,0,0.1c0.1-0.2,0.5-0.1,0.7-0.2c0-0.1,0.5-0.2,0.8-0.4
		c0,0,0.7-0.3,1-0.4l0,0c0-0.1,0.3-0.3,0.6-0.4c0,0.1,0,0.1-0.1,0.2l0.2-0.1c0-0.1,0.1-0.1,0.2-0.2v0.1c0.3-0.2,0.5-0.5,0.8-0.7
		c0-0.1-0.4,0-0.1-0.3c0,0,0.1,0.1,0,0.2l0.2-0.2l-0.1,0.2c0.2-0.1,0.1-0.1,0.2-0.2c0,0.1,0.1,0,0.1,0l-0.2,0.1
		c0.2-0.1,0.3-0.2,0.4-0.2c0,0-0.1-0.1,0.1-0.1c0.2-0.2,0.1,0,0.3-0.1c0-0.1,0.2-0.2,0.2-0.3c0.1-0.1,0.1-0.1,0.2-0.1
		c0.1-0.2,0.6-0.6,0.3-0.5l0,0l0,0c0.3-0.4,0.8-0.8,1.1-1.3l0,0c0.2-0.3,0.4-0.6,0.5-0.9c-0.1-0.2,0-0.3,0-0.2
		c0.1-0.2,0.1-0.3,0.3-0.6c-0.1,0.3,0.1-0.1-0.1,0.3c0.2-0.3,0.2-0.3,0.3-0.7c0,0.1,0.2-0.2,0.2-0.3l-0.2,0.2l0.2-0.4l0.1,0.1
		c0.4-0.6,0.2-1.2,0.6-1.7c0-0.2-0.2,0.3-0.2,0.2c0.1-0.3,0.4-0.6,0.4-0.7c0.2-0.4,0-0.4,0.1-0.9c-0.1,0-0.2,0.1-0.1-0.3
		c0.1-0.3,0.2-0.3,0.2-0.1c0,0.1,0,0.1-0.1,0.1c0,0.1,0,0.2,0,0.1l0,0c0.1-0.1,0.2-0.6,0.2-0.5c0-0.2,0-0.1-0.1,0.1
		c0.2-0.4,0.1-0.6,0.2-1c0,0.1-0.1,0.1-0.1,0c0.1-0.6,0-0.3,0-0.7C92,59,92,59.3,92,58.9c0.1-0.2,0.1,0,0.1,0.1
		c0-0.4,0.1-0.7,0.1-0.9L92.6,58.1L92.6,58.1z M30.8,10.1L30.8,10.1L30.8,10.1C30.9,9.9,31,9.9,31,9.9L30.8,10.1L30.8,10.1z
		 M81.2,38.5C81.1,38.4,81.1,38.3,81.2,38.5c-0.1,0.1,0-0.2,0.1,0.2c0,0.1,0,0.4-0.1,0.4l-0.1-0.3c-0.1,0.2,0.1,0.4,0.1,0.6h-0.1
		c0.1,0.5,0.2,0.5,0.2,1v-0.1c0.1,0.3,0,0.2,0.1,0.5l0,0.2c0,0.2,0.1,0.7,0.1,1c-0.1-0.2-0.1-0.6-0.2-0.9c0,0.2,0,0.7,0.1,0.8v-0.3
		c0.1,0.2,0.2,0.6,0.1,1c-0.2-0.1-0.2,0.6-0.2,1h-0.1h0.1l0,0c-0.2,0-0.5,0-0.8-0.1c0.1-0.2-1-0.2-1.3-0.4c-0.7,0-1.4-0.2-2.2-0.1
		c0.3,0.2-0.2,0-0.2,0.2c-0.2,0-0.3,0-0.3,0H76c-0.1,0,0.2-0.1,0.2-0.1c-0.4,0-0.2,0-0.5-0.1c0.1,0-0.1,0.1-0.4,0.1h0.3
		c-0.6,0.2-0.5-0.1-1.1,0.1l0.2-0.1c-0.3,0-1.1,0.2-1.3,0.5c-0.1,0-0.1,0,0-0.1c-0.7,0.1-1.5,0.6-2,0.8v-0.1
		c-0.1,0.1-0.2,0.2-0.4,0.2c0,0,0-0.1,0,0c-0.1,0-0.3,0.2-0.5,0.3l0.1-0.1c-0.7,0.3-0.9,0.7-1.4,1c-0.1-0.1-0.6,0.1-0.8,0.3l0,0
		c-0.6,0.5-1.1,1-1.5,1.5c-0.2,0.1-0.5,0.4-0.7,0.7c-0.8-0.5-1.8-0.6-2.5-1c0.1,0,0.3,0.1,0.2,0c-0.3-0.1-0.6-0.2-0.9-0.2
		c0.1,0.1,0.1,0.1,0.3,0.2c-0.1,0-0.4,0-0.6-0.1c0.4,0,0-0.1-0.2-0.2c0,0,0,0,0,0.1c-0.5-0.2-0.1,0.1-0.8-0.1l0,0l-0.8-0.1
		c-0.1-0.1,0.3,0,0.3-0.1c-0.4,0-0.8,0.1-1.1,0h0.6c-0.4-0.1-0.4-0.1-0.7-0.2l0,0l-0.4-0.1c-0.1-0.7-0.2-1.5-0.4-2.2
		c-0.2-0.8-0.4-0.4-0.5-1.3l0.2,0.2c-0.2-0.4-0.3-0.9-0.5-1.3c0.2-0.1,0.4-0.2,0.7-0.4c-0.1,0-0.2,0-0.1,0c0.8-0.4,0.3-0.2,0.9-0.6
		c0.3-0.1,0,0.2,0.5-0.2c0.3-0.2,0.1,0,0,0.1c0.5-0.4,1-0.5,1.2-0.7l-0.2,0.2l0.4-0.3h-0.2c0.2-0.1,0.3-0.2,0.3-0.2
		c0.1-0.1-0.2,0,0.1-0.3c0.2-0.1,0.6-0.5,0.7-0.4c-0.6,0.4,0.1,0-0.4,0.4c0.1-0.1,0.2-0.2,0.4-0.3c0,0,0,0,0,0.1
		c0.6-0.3,0.2-0.3,0.8-0.7c0,0.1,0.2,0,0.3-0.1c-0.2,0.2-0.2,0,0-0.2c0.4-0.3,0.4-0.3,0.6-0.5L64,38c0-0.1,0.2-0.2,0.5-0.5
		c0.1,0-0.2,0.2-0.1,0.2c0.2-0.3,0.7-0.5,1-0.8c0.2-0.1,0.1,0.1,0.2-0.1l0.1-0.1c0.2,0.1,0,0.1,0.3,0.2h0.1c0.1,0.1,0.5,0.3,0.8,0.4
		h-0.1c0.5,0.2,1.1,0.5,1.7,0.6c-0.2-0.1-0.1-0.2,0.1-0.1v0.1c0.1,0-0.2-0.1,0.1-0.1c0.2,0.1,0.1,0.2,0,0.1L69,38h-0.1
		c0.1,0,0.4,0.2,0.6,0.2l0,0c0.6,0.2,0.9,0.2,1.4,0.4c0-0.1,0.2,0,0.4,0c0.3,0.1,0.7,0.3,1.2,0.3c0.3,0,0.1,0,0.2-0.1
		c0,0.1,0.4,0.1,0.2,0.2c0.5,0.1,0.7,0.1,1.4,0c-0.1,0-0.2,0-0.1-0.1c0.1,0,0.3,0,0.3,0.1l0,0c0.8,0,1.8,0.1,2.4-0.2l0,0l0.6-0.3
		c0.3-0.1-0.2,0.1,0.1,0.1c0.6-0.3,1.1-0.3,1.5-0.7c0.5,0,1.4-0.7,1.9-1h-0.1c0,0,0,0,0.1,0c0.1,0.1,0.1,0.3,0.2,0.4l0,0
		C81,37.6,81.1,38.1,81.2,38.5L81.2,38.5z M80.8,46.3c0,0.2-0.1,0.2-0.1,0.2l0,0l0,0L80.5,47c-0.1,0.1,0-0.2,0-0.2
		c-0.2,0.4-0.1,0.1-0.3,0.4c0.1,0,0,0.2-0.1,0.4l0.2-0.3c-0.1,0.6-0.3,0.4-0.5,1v-0.2c-0.1,0.3-0.5,0.9-0.6,1.2c0,0-0.1,0.1-0.1,0
		c-0.4,0.6-0.8,1.3-1.2,1.7v-0.1c-0.1,0.1-0.1,0.2-0.2,0.3c0,0,0-0.1,0,0s-0.2,0.3-0.3,0.4l0.1-0.1c-0.5,0.5-0.7,0.8-1.2,1.2
		c-0.1-0.1-0.5,0.2-0.8,0.3l0,0c-0.7,0.3-1.1,0.8-1.8,1.1c-0.2,0-0.4,0.1-0.7,0.2c-0.2-0.3-0.5-0.7-0.7-1c0-0.2,0.3,0.5,0.3,0.2
		c-0.5-0.8-1.5-1.4-2.1-2.1l0.1,0.1c-0.2,0-0.4-0.5-0.8-0.8c0.1,0.1,0.2,0,0.1,0c-0.4-0.5-1.1-0.8-1.9-1.3h0.1
		c-0.3-0.2-0.8-0.6-1.2-0.8c-0.1,0-0.3-0.2-0.2,0c0,0,0,0-0.1,0l0.1-0.1c-0.2,0.2-0.2,0-0.1-0.1h0.1c0-0.1-0.2,0.1,0-0.1
		c0.2-0.2,0.2,0,0.1,0.1l0.2-0.2v0.1c0-0.1,0.4-0.3,0.4-0.5l0,0c0.5-0.4,0.7-0.6,1.1-0.9c0-0.1,0.1-0.2,0.2-0.3
		c0.3-0.2,0.7-0.3,1.1-0.6c0.3-0.2,0.1-0.1,0.2-0.2c0.1,0,0.4-0.2,0.3,0c0.5-0.3,0.6-0.3,1.2-0.7c-0.1,0-0.2,0-0.1,0
		c0.1-0.1,0.3-0.1,0.3,0l0,0c0.7-0.5,1.8-0.3,2.3-0.7l0,0c0.2-0.1,0.4-0.1,0.6-0.2c0.3,0-0.2,0.1,0.1,0.1c0.7-0.2,1.1-0.2,1.7-0.3
		c0.4,0.2,1.6-0.1,2.2,0.2v-0.1c0.2,0,0.2,0,0.3,0.1c0,0-0.2-0.1-0.1-0.1c0.7,0,1.5,0.2,2.2,0.4c-0.1,0.6-0.2,1.2-0.4,1.8
		C80.9,45.8,80.6,46.2,80.8,46.3L80.8,46.3z M71.4,54.7c-0.2,0-0.4,0.2-0.4,0.1l0,0c-0.2-0.1-0.5,0-0.8,0.1v0.2
		c-0.8-0.1-1.9,0.4-2.3,0.2l-0.6,0.1v-0.1c-0.5,0-0.7,0-1.3,0h0.1c-0.3,0-0.4,0.2-0.8,0.2l-0.1-0.1c-0.6,0-1.2-0.2-1.7-0.3
		c0,0,0,0,0.1,0c-0.1,0-0.2,0-0.3-0.1l0,0c-0.1-0.2,0.3-0.8,0.2-0.9c0.2-0.4,0.2-0.3,0.5-0.9c0.1-0.2,0-0.3,0.1-0.5h0.1v-0.3
		l0.2-0.1l0.1-0.2c0,0.1-0.1,0.1-0.1,0.1c0.1-0.3,0.4-0.7,0.4-0.7c0.1-0.2,0.2-0.5,0.3-0.7c0,0,0,0.2-0.1,0.2c0.2-0.4,0.1,0,0.3-0.4
		c0,0,0,0,0-0.1c0.2-0.1,0.4-0.5,0.5-0.8v0.1c0.2-0.4,0.5-0.7,0.8-1.1c0.1,0.1,0.1,0.1,0.1,0.1c0.2,0.1,1,0.7,0.8,0.4h-0.1l0,0
		c0.7,0.4,1.4,1,2.1,1.5l0,0c0.4,0.3,0.8,0.8,1.1,1c0.1,0.1,0.2,0.3,0.1,0.3c0.3,0.2,0.3,0.3,0.7,0.7c-0.3-0.2,0.1,0.1-0.3-0.2
		c0.3,0.4,0.4,0.5,0.8,0.8c-0.2-0.1,0.1,0.4,0.3,0.5L72,53.5l0.4,0.6h-0.2c0.1,0.1,0.1,0.2,0.2,0.3C72.1,54.5,71.7,54.6,71.4,54.7
		C71.6,54.6,71.5,54.7,71.4,54.7L71.4,54.7z M62.9,54.7C62.8,54.7,62.8,54.7,62.9,54.7c-0.1,0-0.7-0.1-1-0.2l0.1-0.1
		c-0.3,0-0.3,0-0.7-0.1c-0.1,0,0-0.1,0,0c-0.2-0.1-0.2,0-0.5-0.2h0.1c-0.3-0.2-0.2-0.1-0.4-0.2c-0.2-0.1-0.5-0.3-0.5-0.4
		c0,0-0.1,0-0.2,0c0.1-0.8,0.1-2,0.2-2.7l0,0c0-0.2,0-0.3,0-0.5c0,0,0,0.3-0.1,0.1c-0.1-1.3-0.1-2.6-0.2-3.9c0.2,0,0.3,0,0.5,0
		c0,0,1.1,0.1,1.6,0.3l0,0c0.1-0.1,0.7,0.1,1,0.1c0,0.1-0.1,0.1-0.3,0l0.4,0.1c0.1,0,0.2,0,0.4,0h-0.1c0.5,0.1,1,0.2,1.5,0.5
		c0.1,0-0.4-0.4,0.2-0.2c0,0,0,0.1-0.2,0.1c0.1,0,0.2,0,0.3,0.1h-0.3c0.2,0.2,0.2,0,0.4,0.1l0.1,0.1c-0.1,0-0.2-0.1-0.3-0.1
		c0.2,0.1,0.5,0.3,0.6,0.4c0,0,0-0.1,0.2,0c0.1,0,0.1,0.1,0.2,0.1c-0.2,0.3-0.5,0.5-0.7,0.8c0.1-0.1,0.1,0.1,0,0.2
		c-0.1,0.1-0.2,0.5-0.3,0.4l0,0c-0.2,0-0.3,0.4-0.5,0.6l0.1,0.1c-0.6,0.5-0.8,1.8-1.2,2.1c0,0.2-0.1,0.4-0.2,0.6H63
		c-0.2,0.5-0.2,0.7-0.4,1.3v-0.1C62.8,54.3,62.9,54.5,62.9,54.7L62.9,54.7z M81,43.8c0.1,0,0.1,0,0.2,0l0,0
		C81.2,43.8,81.1,43.8,81,43.8L81,43.8z M59.3,50.2c0.1,0.8,0,1.7-0.1,2.6c-0.2-0.1-0.5-0.2-0.6-0.4l0,0l0,0l-0.2-0.1l-0.2-0.2
		c0-0.1-0.2-0.3-0.4-0.4c0,0.1-0.2-0.1-0.1,0.1c0,0,0,0,0.1,0.1h0.1l0,0l0.3,0.3c-0.1-0.1-0.2-0.1-0.3-0.3c-0.1,0-0.2,0-0.3-0.1
		c-0.1-0.2-0.4-0.6-0.3-0.7c-0.4-0.3-0.8-0.9-1.1-1c-0.2,0-0.1-0.1-0.2-0.2c0.1,0,0.1,0.1,0.2,0.2c-0.2-0.2-0.6-0.6-0.7-0.6
		c-0.2-0.3,0.2,0.1-0.1-0.3h0.1c-0.4-0.9-1.2-1.1-1.5-2.2c0,0.1,0,0.1,0,0.1c-0.1-0.2-0.1-0.3-0.2-0.5h0.1l0,0
		c0.9-0.1,0.1-0.1,0.7-0.2l0.5,0.2l0.1-0.1c0.1,0,0.3,0,0.2,0c0.3-0.1-0.1,0,0.1-0.1c0.4,0.1,1.2-0.1,1.3,0.1c0.2-0.1-0.4,0,0-0.1
		c0.1,0.2,0.5,0,0.9,0c-0.1,0.1-0.5,0-0.1,0.1c0.2-0.1,0.8,0.1,1.1,0c0,0,0,0,0.1,0l0,0h-0.1v0.1h0.1c0,0.2,0.1,0.5,0.1,0.6
		l-0.1-0.4c0.1,0.3,0.3,0.8,0.3,1.4C59.2,48.2,59.5,49.8,59.3,50.2L59.3,50.2z M58.9,53.3l-0.2-0.2c0,0,0,0,0.1,0
		C58.7,53.1,58.8,53.2,58.9,53.3z M58.9,52.8L58.9,52.8c0.1,0,0.2,0.1,0.3,0.2c0,0,0,0,0,0.1C59.1,52.9,59,52.9,58.9,52.8L58.9,52.8
		z M58.3,52.8L58.3,52.8L58.3,52.8L58.3,52.8z M58.2,52L58.2,52L58.2,52L58.2,52C58.2,52,58.2,52,58.2,52z M52.9,43.8
		c0.7-0.2,1.3-0.5,2-0.6c0.2-0.2-0.5,0.1-0.3,0c0.5-0.1,1-0.2,1.1-0.2c0.7-0.2,0.5-0.4,1.2-0.6c-0.1,0-0.2,0,0.2-0.3
		c0.4-0.2,0.6-0.1,0.3,0c-0.1,0-0.2,0.1-0.2,0c-0.1,0.1-0.3,0.2-0.1,0.1l0,0c0.2-0.1,0.8-0.3,0.7-0.2c0.3-0.2,0.1-0.1-0.1,0
		c0.1,0,0.2-0.1,0.3-0.1c0,0.1,0.1,0.2,0.1,0.3C58,42.1,58,42,58,42.1c0.1,0.2,0.1-0.1,0.3,0.4c0,0.2,0.1,0.5,0,0.6l-0.2-0.5
		c0,0.3,0.2,0.6,0.2,0.9l0,0c0.2,0.7,0.3,0.7,0.5,1.5v-0.1c0.2,0.4,0,0.4,0.2,0.8l-0.1,0.2c0,0.1,0.1,0.3,0.1,0.5c0,0,0,0-0.1,0
		c0-0.1,0-0.2-0.1-0.3c0,0.1,0,0.2,0,0.3c-0.3,0-0.7,0-1.1,0c0.6-0.1,0.1-0.1,0.2-0.2c-0.2,0-0.4-0.1-0.3-0.1c-0.3,0.1-0.5,0-1,0.1
		c0,0-0.3,0-0.3-0.1c-0.4,0,0.1,0,0.1,0.1c-0.6,0.1-1.5-0.1-2.3,0.1c-0.2,0-0.4,0-0.5,0.1C53.3,45.6,53,44.7,52.9,43.8L52.9,43.8z
		 M53,46.4C53,46.4,53.1,46.4,53,46.4C53.1,46.4,53.1,46.4,53,46.4C53.1,46.5,53.1,46.5,53,46.4L53,46.4z M52.6,42.6
		c-0.1-0.5,0.1-0.9,0-1.5l-0.1,0.1c0-0.2,0-0.7,0-0.7s-0.1-0.1,0-0.2l0,0v-0.6c0.1-0.4,0.2,0.1,0.2-0.6c0-0.2,0-0.7-0.1-0.6
		c0,0.1-0.1,0.2-0.1,0.2v-0.2l-0.1-0.1c0,0,0,0,0-0.1l-0.1-0.1v0.2l0,0c-0.1,0-0.1,0.1-0.2,0.4v0.4L52,39.3V39c-0.1,0.2,0,0.3,0,0.4
		l0,0.2l0.1,0.4C52,40,52,39.8,52,40.1c0,0.2,0.1-0.2,0.2,0.1C52,40.4,52,40.4,52,40.6c0,0-0.1,0-0.1-0.1c0,0.2,0,0.5,0.1,0.6
		c-0.1,0.2,0,0.7-0.1,0.6c0,0.1,0.1,0.3,0.2,0.5c-0.2-0.3,0.1,0.7-0.1,0.6c0.1,0.1,0.1,0.3,0.2,0.6h-0.1L52,43.5h0.2l0,0
		c-0.2,0.1-0.5,0.1-0.8,0.1c-0.2-0.1,0.6-0.1,0.3-0.2c-1,0.2-2,0.4-2.9,0.5H49c-0.1,0.2-0.7,0-1.2,0c0.1,0,0.2-0.1,0.1-0.1
		c-0.6,0-1.3,0.1-2.3,0h0.1c-0.4-0.1-1-0.1-1.4-0.2c-0.1,0-0.4,0-0.2,0c-1.2-0.4-2.4-0.4-3.4-0.9c0.1,0,0.3,0.1,0.2,0L40,42.4
		c0,0.1,0.1,0.1,0.3,0.2c-0.1,0-0.4-0.1-0.6-0.2c0.4,0.1,0-0.1-0.1-0.2l0,0c-0.4-0.3-0.1,0.1-0.7-0.2l0,0c-0.2-0.1-0.5-0.1-0.7-0.3
		c-0.1-0.1,0.3,0.1,0.3,0c-0.4-0.2-0.8-0.2-1.1-0.4l0.5,0.2c-0.3-0.2-0.4-0.2-0.6-0.3l-0.5-0.3c0.1-0.2,0.1-0.4,0.2-0.6
		c-0.1,0,0-0.2,0-0.4c0.2-0.3,0.3-0.7,0.4-1.2c0-0.3,0-0.1-0.1-0.2c0.1,0,0.2-0.4,0.2-0.2c0-0.5,0-0.7,0-1.3c0,0.1,0,0.2-0.1,0.1
		c0-0.1,0-0.3,0.1-0.2l0,0c-0.1-0.7,0.1-1.7-0.2-2.3l0,0L37.1,34c-0.1-0.3,0.1,0.2,0.1-0.1c-0.3-0.6-0.3-1-0.6-1.5
		c0-0.5-0.6-1.4-0.8-1.9l0,0c-0.1-0.1-0.1-0.2-0.1-0.3c0,0,0,0.2,0,0.1c-0.3-0.5-0.6-1-1-1.5c0.1,0,0.2-0.1,0.5-0.1
		c-0.1,0-0.2-0.1,0.3-0.2s0.6,0,0.3,0.1c-0.1,0-0.2,0-0.2,0c-0.1,0-0.3,0.1-0.1,0.1l0,0c0.2,0,0.9-0.1,0.7,0
		c0.3-0.1,0.1-0.1-0.1-0.1c0.6,0,0.9-0.1,1.5-0.2c-0.1,0-0.2,0-0.1,0c0.9,0,0.4-0.1,1-0.1c0.3,0-0.1,0.1,0.5,0.1
		c0.4,0,0.1,0.1-0.1,0.1c0.6-0.1,1,0.1,1.3,0.1H40h0.5l-0.2-0.1c0.2,0,0.3,0,0.3,0.1c0.2,0-0.1-0.1,0.2-0.1c0.2,0,0.7,0.1,0.8,0.2
		c-0.6-0.1-0.1,0-0.4,0c0.1,0,0.2,0,0.3,0.1c0,0,0,0-0.1,0c0.7,0.2,0.3,0,1,0.1c-0.1,0,0.1,0.1,0.3,0.1c-0.3-0.1-0.1-0.1,0.2-0.1
		c0.4,0.1,0.5,0.1,0.7,0.2L43.3,29c0.1,0,0.3,0,0.6,0.1c0,0-0.3-0.1-0.2,0c0.4,0,0.8,0.3,1.2,0.4c0.2,0.1,0,0.1,0.2,0.2
		c0.5,0.1,0.5,0.3,1.1,0.5c-0.1-0.1-0.2-0.1,0.2,0l-0.9-0.3l0.6,0.1c-0.1,0.1-0.4,0-0.6,0c0.3,0.1,0.3,0.1,0.2,0
		c0.3,0.2,0.8,0.2,1.2,0.5l-0.1,0.1c0.6,0.4,1.2,0.4,1.9,0.9l-0.2-0.2c0.1,0,0.5,0.2,0.8,0.4c0,0,0.1,0.1,0.2,0.2
		c0,0,0.6,0.3,0.7,0.3l0.3,0.3c0.6,0.4,0.8,0.3,1.3,0.8c-0.2-0.1,0,0.2-0.4-0.1c0.2,0.1,0.3,0.3,0.4,0.2c0.1,0.1,0.5,0.3,0.7,0.5
		c0.1,0,0.2,0,0.3,0.2l0,0c0,0,0.3,0.3,0.2,0c0.2,0.3,0.5,0.5,0.7,0.8c0,0.1,0,0.2-0.1,0.3s0-0.2,0-0.2c-0.1,0.2-0.2,0.4-0.3,0.7
		c0,0,0,0-0.1,0c-0.1,0.2,0,0.2-0.1,0.4v-0.2l-0.2,0.7c-0.1,0,0-0.2,0-0.2c-0.1,0.3-0.2,0.7-0.2,0.8l0.1-0.2c0,0.1-0.1,0-0.1,0
		c0-0.2,0.1-0.3,0.2-0.3v0.2c0.2-0.1,0.2-0.7,0.3-1l0.1,0.2v-0.4c0.1-0.1,0.1-0.1,0.1,0.1c0.2-0.2,0-0.2,0.2-0.4l0,0l0.1-0.2
		c0,0,0.1,0,0,0.1c0-0.1,0.1-0.1,0.1-0.2c0.4,0.4,0.7,0.7,0.8,1.1c0.3,0.4,0.8,0.8,1,1.2c0,0,0,0-0.1-0.1c0.3,0.6,0.3,0.2,0.7,0.9
		c0.1,0.4-0.2-0.3-0.2-0.1c-0.1,0.2,0.5,0.7,0.6,1.2l-0.1-0.1c0.1,0.4,0.5,0.8,0.7,1.3l0,0c0.2,0.2,0.3,0.6,0.5,1
		c-0.2,0.1-0.3,0.2-0.5,0.2l0.3-0.2L56.9,42l0.5-0.2c-0.4,0.2,0.1,0.1-0.5,0.3c0.1-0.1-0.4,0.2-0.7,0.2c-0.2,0.1-0.4,0.2-0.7,0.3
		c-0.1,0,0-0.1,0-0.1c-0.2,0.2-1,0.3-1.2,0.5c0.1,0,0.1-0.1,0-0.1L54.1,43c-0.2,0-0.2,0-0.2,0c-0.6,0.1,0.2,0.1-0.5,0.2
		c0,0,0,0,0.1-0.1c-0.3,0-0.5,0.1-0.8,0.2c0-0.1-0.1-0.2-0.2-0.3l0.1-0.1L52.6,42.6L52.6,42.6z M35.8,40.3c-0.1-0.1-0.3-0.3-0.2-0.3
		c-0.3-0.2-0.3-0.4-0.7-0.6c0,0-0.2-0.2-0.1-0.2c-0.3-0.3,0,0.1,0,0.1c-0.5-0.4-0.9-1.2-1.5-1.8c-0.5-0.6-0.7-0.7-1.1-1.2
		c-0.1-0.2,0.2,0.1,0.2,0.1c-0.2-0.3-0.4-0.6-0.6-0.9c0.1,0,0,0,0-0.1c-0.2-0.2-0.2-0.1-0.4-0.5c0.1,0,0.1,0.1,0.2,0.2L31,34.2
		c0-0.1,0.2,0.2,0.3,0.2c-0.2-0.3-0.6-0.9-0.7-0.9l0.1,0.2c-0.1-0.1,0-0.1,0.1,0C31,34,31,34.2,31,34.2L30.8,34
		c0,0.3,0.6,0.9,0.8,1.3l-0.2-0.1l0.4,0.4c0,0.1,0,0.2-0.1,0c0.1,0.3,0.2,0.2,0.3,0.5l0,0l0.2,0.3c-0.1,0,0,0.1-0.2-0.1
		c0.3,0.6,0.7,0.8,0.8,1.1l0,0c0.6,0.7,0.1,0,0.6,0.5l0.1,0.5h0.1c0,0.1,0.2,0.2,0.1,0.2c0.3,0.2,0-0.1,0.2,0
		c0.2,0.4,0.8,0.9,0.8,1.1c0.2,0.1-0.3-0.3,0.1,0c0,0.2,0.4,0.4,0.7,0.7c-0.2,0-0.4-0.3-0.2,0c0.2,0.1,0.5,0.4,0.7,0.6
		c-0.1,0.2-0.2,0.5-0.3,0.8C35.4,42,35,43,34.6,43.4c0.1-0.1,0.1,0.1,0,0.2c-0.1,0.1-0.2,0.4-0.3,0.3l0,0c-0.2,0-0.3,0.3-0.5,0.5
		l0.1,0.1c-0.5,0.4-1.1,1.3-1.5,1.4l-0.3,0.4v-0.1c-0.4,0.2-0.5,0.4-0.9,0.7l0.1-0.1c-0.3,0.1-0.2,0.4-0.4,0.5l-0.1-0.1l-1.4,0.7
		c0,0,0-0.1,0.1-0.1c-0.2,0.1-0.9,0.2-0.8,0.3c0-0.1-0.5,0.2-0.8,0.3v-0.1c-0.2,0.2-0.2,0.2-0.5,0.3c-0.1,0-0.1,0,0,0
		c-0.2,0-0.2,0.1-0.5,0.1l0.1-0.1c-0.3,0-0.2,0.1-0.4,0.1c-0.1,0-0.4,0-0.5,0c-0.2-0.5-0.5-0.9-0.7-1.4c0,0.1,0.1,0.2,0.1,0.1
		L25.1,47c0,0.1,0,0.1,0,0.2c-0.1,0-0.2-0.2-0.2-0.3c0.2,0.2,0.1-0.1,0.1-0.2h-0.1c-0.1-0.3-0.1,0-0.3-0.3l0,0l-0.3-0.3
		c0-0.1,0.1,0.1,0.2,0.1c-0.1-0.2-0.4-0.3-0.4-0.5l0.2,0.2c0-0.2-0.1-0.2-0.2-0.4l0,0l-0.2-0.3v0.1c-0.3-0.1-0.4-0.5-0.8-0.7
		c0.4,0.2,0.1,0,0.2,0c0-0.1-0.1-0.2-0.1-0.2C23,44.3,23,44.1,22.8,44c0,0-0.1-0.1-0.1-0.2c-0.2-0.2,0,0.1,0,0.1
		c-0.3-0.2-0.5-0.7-1-1c-0.4-0.3-0.5-0.2-0.9-0.5c-0.1-0.1,0.2,0,0.2,0c-0.2-0.2-0.3-0.3-0.5-0.4c0,0,0,0,0-0.1
		c-0.1-0.1-0.2,0-0.3-0.2h0.2l-0.6-0.3c0-0.1,0.1,0,0.2,0c-0.2-0.1-0.5-0.3-0.6-0.3l0.1,0.1c-0.1,0,0-0.1,0.1-0.1
		c0.2,0.1,0.2,0.2,0.2,0.2l-0.1-0.1c0,0.2,0.5,0.3,0.8,0.5h-0.2l0.3,0.1c0,0.1,0,0.2-0.1,0.1c0.1,0.2,0.2,0.1,0.3,0.2l0,0l0.2,0.1
		c0,0,0,0.1-0.1,0c0.3,0.3,0.5,0.3,0.6,0.5l0,0c0.4,0.3,0.1,0,0.5,0.2v0.3h0.1l0.1,0.1c0.2,0.1,0,0,0.1,0c0.1,0.2,0.6,0.5,0.5,0.6
		c0.1,0-0.1-0.2,0.1,0c0,0.2,0.2,0.2,0.4,0.5c-0.1,0-0.2-0.2-0.1,0c0.2,0,0.3,0.4,0.4,0.5c0.1-0.1,0.3,0.3,0.5,0.6
		c0,0,0.3,0.6,0.5,0.8l0,0c0.1,0,0.3,0.3,0.4,0.5c-0.1,0-0.1,0-0.2-0.1l0.1,0.2c0,0,0.1,0.1,0.2,0.2H25c0.1,0.2,0.4,0.5,0.5,0.8
		c0.1,0,0.1-0.4,0.3,0c0,0-0.1,0.1-0.1,0c0,0,0.1,0.1,0.1,0.2L25.7,48c0,0.2,0.1,0.1,0.1,0.2v0.1l-0.1-0.2c0,0.2,0.1,0.3,0.1,0.4
		c0,0,0.1,0,0.1,0.1l0,0c-0.4,0-0.6,0.2-1,0.1l0,0c0.4,0,0.6,0,0.6,0c0-0.1-0.3,0-0.1-0.2c-0.2,0.1-0.6,0.2-0.9,0.2l0,0l0,0h-0.2
		h-0.2c0-0.1-0.3,0-0.5,0c0,0.1-0.2,0.1,0,0.1c0,0,0,0,0.1,0h0.1l0,0H24c-0.1,0-0.2,0.1-0.4,0L23.4,49c-0.2-0.1-0.6-0.2-0.6-0.2
		c-0.4,0-1-0.1-1.3,0c-0.1,0-0.1-0.1-0.2-0.1h0.2c-0.3,0-0.7-0.1-0.8,0c-0.3-0.1,0.2-0.1-0.2-0.1h0.1c-0.8-0.3-1.4-0.1-2.2-0.6
		l0.1,0.1c-0.4-0.2-0.7-0.4-1.1-0.6c0-0.1,0-0.2,0.1-0.4l0,0v-0.4c0,0.1,0.1,0,0,0.2c0.1-0.6,0.1-1,0.2-1.2l0,0
		c0.1-0.9-0.1-0.1,0-0.8l0.3-0.4l-0.1-0.1c0-0.1,0.1-0.3,0.1-0.2c0-0.3,0,0,0-0.2c0.2-0.4,0.3-1.2,0.5-1.2c0-0.2-0.2,0.4-0.1-0.1
		c0.2-0.1,0.2-0.5,0.4-0.9c0,0.2-0.1,0.5,0.1,0.1c0-0.2,0.2-0.6,0.4-0.9l0,0l0,0c0.1,0,0.3,0,0.3-0.1c-0.1,0-0.2,0-0.3,0v-0.1
		c-0.1-0.1,0.3-0.7,0.5-1.2c0,0,0.6-0.9,0.9-1.3l0,0c0-0.1,0.2-0.6,0.5-0.9c0,0,0,0.1-0.1,0.3l0.2-0.3c0-0.1,0.1-0.2,0.2-0.4v0.1
		c0.3-0.4,0.5-0.9,1-1.3c0-0.1-0.5,0.2-0.1-0.3c0,0,0.1,0,0,0.2c0,0,0.1-0.2,0.2-0.2l-0.1,0.2c0.2-0.2,0.1-0.2,0.2-0.3
		c0,0,0.1-0.1,0.2,0c0,0-0.2,0.1-0.2,0.2c0.2-0.2,0.4-0.4,0.5-0.4c0,0,0,0,0.1-0.2c0.3-0.4,0.2-0.1,0.4-0.3c0-0.1,0.3-0.3,0.3-0.4
		c0.1-0.1,0.2-0.1,0.2-0.1c0.2-0.2,0.9-0.8,0.6-0.7l0,0l0,0c0.6-0.6,1.5-1,2.1-1.5l0,0c0.4-0.3,1-0.6,1.2-0.8c0.1-0.1,0.3-0.1,0.3,0
		c0.2-0.1,0.3-0.2,0.5-0.3c0.2,0.3,0.6,0.8,0.5,0.7c-0.1-0.1-0.1-0.4-0.1-0.4l0.2,0.3c0.1,0,0.1,0,0.2,0c0,0,0,0.1,0.1,0.1l0.1,0.1
		l-0.2-0.3l0,0c0-0.1,0-0.2-0.1-0.6L29.5,31c0.1-0.1,0.3-0.1,0.5-0.3c-0.1,0.1,0.4,0,0.6-0.1l-0.4,0.1l0.7-0.3l-0.1,0.1
		c1-0.2,1.6-0.9,2.4-0.9c0.2-0.1-0.5,0.1-0.3,0c0.5-0.1,1-0.1,1.1-0.1s0.2,0,0.3-0.1c0.1,0.1,0.2,0.2,0.3,0.4
		c-0.2,0.1,0.4,0.8,0.4,1.1c0.3,0.5,0.6,1.1,0.8,1.7c0.1-0.3,0.1,0.2,0.2,0.1c0.1,0.2,0.1,0.2,0.1,0.2l0,0l0.1,0.5
		c0,0.1-0.1-0.1-0.1-0.1c0.1,0.3,0,0.2,0,0.4c0-0.1,0.1,0.1,0.2,0.3v-0.3c0.2,0.5,0,0.5,0.2,0.9l-0.1-0.1c0.1,0.2,0.2,0.9,0.4,1.1
		c0,0,0,0.1-0.1,0c0.1,0.6,0.3,1.3,0.2,1.8l0,0c0,0.1,0.1,0.2,0,0.3l0,0c0,0.1,0.1,0.3,0,0.5v-0.1c-0.1,0.6,0,0.9-0.1,1.4
		c-0.1,0-0.3,0.4-0.4,0.6l0,0c-0.1,0.2-0.2,0.5-0.2,0.7c-0.2-0.1-0.3-0.3-0.6-0.4C36.2,40.6,35.8,40.3,35.8,40.3L35.8,40.3z
		 M25.7,48.9L25.7,48.9C25.7,48.9,25.7,48.8,25.7,48.9C25.7,48.8,25.7,48.9,25.7,48.9L25.7,48.9z M25.1,49.3h-0.3c0,0,0-0.1,0.1-0.1
		C24.8,49.3,25,49.3,25.1,49.3z M24.4,49.3L24.4,49.3h-0.1H24.4z M23.9,48.8h-0.2l0,0l0,0C23.8,48.8,23.9,48.8,23.9,48.8z
		 M28.8,29.5c-0.1-0.2,0,0.3-0.2-0.1c0-0.3,0-0.2-0.1-0.5c0,0,0.1,0,0.1,0.1c-0.1-0.2-0.3-0.7-0.4-0.8c0-0.3-0.3-0.9-0.2-0.9
		c0-0.1-0.2-0.5-0.3-0.7c0.3,0.4-0.3-0.9,0-0.9c-0.1-0.2-0.2-0.9-0.3-1.4c0.4,0.2,1.1,0.2,1.4,0.5c0.3,0.1,0.6,0.2,0.9,0.3
		c0,0,0,0-0.1,0c0.3,0.2,0.3,0,0.6,0.2c0.1,0.2-0.2-0.1-0.1,0c0,0.2,0.5,0.2,0.6,0.5h-0.1c0.1,0.2,0.5,0.2,0.8,0.5l0,0
		c0.2,0.1,0.6,0.3,0.9,0.6c-0.1,0-0.1-0.1-0.1,0c0.1,0.1,0-0.1,0.3,0.1c0,0.1,0.2,0.3,0.2,0.4l-0.2-0.2c0,0.2,0.3,0.3,0.4,0.4l0,0
		c0.3,0.3,0.4,0.2,0.7,0.6v-0.1c0.2,0.1,0.1,0.2,0.3,0.4v0.1c0.1,0.1,0.2,0.2,0.4,0.4c0,0,0,0-0.1,0c0,0,0,0-0.1-0.1l0,0l0,0
		c0,0-0.1-0.1-0.2-0.1l0.1,0.1c-0.3,0.1-1,0.3-1.2,0.4c0.1,0,0.1-0.1,0-0.1l-0.2,0.1c-0.2,0-0.2,0-0.2,0c-0.6,0.2,0.2,0.1-0.5,0.3
		c0,0,0,0,0.1-0.1c-0.7,0.2-1.3,0.5-2,0.8c-0.2,0,0.5-0.2,0.3-0.2c-0.4,0.1-0.7,0.3-1,0.5c-0.1-0.1-0.1-0.2-0.2-0.2v-0.2l-0.4-0.4
		C28.7,29.6,28.9,29.9,28.8,29.5L28.8,29.5z M29.3,30.6C29.3,30.6,29.2,30.6,29.3,30.6l-0.1-0.1L29.3,30.6L29.3,30.6z M36.9,41.1
		L36.9,41.1C37,41.2,36.9,41.1,36.9,41.1C36.8,41.1,36.8,41.1,36.9,41.1z M54.1,34l0.3-0.2v-0.1c0,0,0.1-0.2,0.1-0.1
		c0.1-0.2-0.1,0,0-0.1c0.2-0.2,0.4-0.7,0.5-0.7c0-0.1-0.2,0.2-0.1-0.1c0.2,0,0.2-0.3,0.4-0.5c0,0.1-0.2,0.3,0,0.1
		c0-0.2,0.3-0.4,0.4-0.6c-0.1-0.1,0.3-0.4,0.5-0.7c0,0.1,0.5-0.5,0.8-0.7l0,0c0-0.1,0.3-0.3,0.5-0.5c0,0.1,0,0.1-0.1,0.2l0.2-0.1
		c0-0.1,0.1-0.1,0.2-0.2v0.1c0.3-0.2,0.5-0.5,0.9-0.7c0-0.1-0.4,0,0-0.3c0,0,0.1,0.1,0,0.1c0,0,0.1-0.1,0.2-0.1L58.8,29
		c0.2-0.1,0.1-0.1,0.2-0.2h0.1L59,28.9c0.2-0.1,0.4-0.2,0.4-0.2s0-0.1,0.1-0.1c0,0,0,0,0.1,0c0.1,0.4,0.2,0.7,0.2,1l0.2,0.2v0.1
		c0.1,0.2,0,0,0.1,0.1s0,0.2,0,0.1c0.2,0.4,0.6,1.1,0.8,1.6l-0.1-0.1c0.1,0.3,0.3,0.3,0.4,0.6l0,0c0.4,0.7,1,1.4,1.3,1.9
		c0.2,0,0.5,0.6,0.7,0.5c0.3,0.4,0.2,0.3,0.7,0.8c0.1,0.1,0.3,0.1,0.5,0.2l-0.1,0.1l0.3,0.1l0.1,0.2l0.2,0.1c-0.1,0-0.1-0.1-0.1-0.1
		c0.2,0.1,0.5,0.3,0.6,0.4c-0.5,0.5-1,0.9-1.5,1.3c0,0,0.1-0.1,0.1-0.2c-0.1,0.1-0.3,0.2-0.3,0.3l0.1-0.1c0.3-0.1-0.5,0.6-0.5,0.7
		c0.2-0.3-0.8,0.5-0.5,0c-0.1,0.1-0.2,0.2-0.2,0.2c-0.2,0.1-0.2,0.1-0.1,0c-0.5,0.4-0.3,0.3-0.8,0.7c0,0,0.1-0.1,0.1-0.2
		c-0.2,0.2-0.4,0.5-0.9,0.7c0,0,0,0,0.1-0.1c-0.7,0.4-1.2,0.9-2,1.3c0.2-0.2-0.3,0.1-0.4,0l-0.4,0.2c-0.3-0.9-0.7-1.7-1.2-2.5
		c0.1,0.1,0.1,0.1,0.2,0.2c-0.1-0.3-0.6-1.1-0.6-1c-0.1-0.2,0-0.1,0-0.2c-0.1-0.3-0.5-0.6-0.6-0.8l0.1,0.1c-0.1-0.2-0.6-0.8-0.5-0.6
		c-0.3-0.5-0.7-0.8-1-1.2c-0.2-0.1-0.4-0.4-0.6-0.6c0,0,0-0.1,0.1-0.1l0,0C54.3,34,54,34.5,54.1,34L54.1,34z M59.5,28.2l-0.1-0.3
		c0,0,0,0,0.1,0C59.5,27.9,59.5,28.1,59.5,28.2z M59.7,26.7L59.7,26.7c0.1,0.1,0.1,0.2,0,0.2V26.7L59.7,26.7L59.7,26.7z M60,28
		C60,28,59.9,28,60,28c-0.1-0.1-0.1-0.1-0.1-0.3v-0.1C59.9,27.8,59.9,27.9,60,28C59.9,28,59.9,28,60,28L60,28z M60.7,28L60.7,28
		L60.7,28c0.5-0.3,1.1-0.5,1.6-0.7l0,0c0.3-0.1,0.7-0.3,0.9-0.4c0.1,0,0.2,0,0.2,0c0.2-0.1,0.2-0.2,0.6-0.2c-0.2,0.1,0.1,0-0.2,0.1
		c0.3,0,0.4,0,0.7-0.2c-0.1,0.1,0.3,0,0.4,0h-0.2l0.5-0.1l-0.1,0.1c0.7,0,1.2-0.4,1.7-0.3c0.2-0.1-0.4,0-0.2-0.1
		c0.3,0,0.6,0.2,0.7,0.1c0.4,0.1,0.4-0.1,0.8-0.1c-0.1,0-0.1-0.1,0.2-0.1c0.3,0,0.4,0.2,0.2,0.2c-0.1,0-0.1,0-0.1,0
		c-0.1,0-0.2,0-0.1,0.1l0,0c0.2,0,0.6,0,0.5,0.1c0.2,0,0.1,0-0.1-0.1c0.4,0,0.6,0,1,0.2c-0.1,0-0.1-0.1-0.1-0.1
		c0.6,0.2,0.3,0,0.7,0.1c0.2,0.1-0.1,0.1,0.3,0.2c0.2,0.1,0,0.1-0.1,0.1c0.2,0,0.4,0.1,0.6,0.2c0,0.2-0.1,0.3-0.1,0.5
		c0,0.3-0.3,0.9-0.2,1c-0.1-0.1-0.5,0.9-0.6,1.2c0-0.1-0.2,0.3-0.2,0.1c-0.1,0.4-0.3,0.7-0.2,0.7c-0.5,0.6-0.6,1.4-1,1.6
		c-0.6,1-1.3,1.9-2,2.7c-0.1-0.1,0.8-0.9,0.7-1c-0.7,0.8-0.9,1.3-1.7,2l0,0c0.1-0.1,0.1-0.1,0.1-0.2c-0.1,0-0.1,0.1-0.2,0.2
		c-0.5-0.3-1.1-0.5-1.2-0.8l-0.4-0.2l0.1-0.1c-0.3-0.3-0.5-0.4-0.9-0.8h0.1c-0.2-0.2-0.4-0.1-0.6-0.3v-0.1c-0.4-0.4-0.5-0.9-1-1.3
		c0,0,0.1,0,0.1,0.1c-0.2-0.2-0.4-0.9-0.5-0.7c0.1-0.1-0.2-0.5-0.4-0.7h0c-0.2-0.2-0.2-0.2-0.4-0.5c0-0.1,0-0.1,0,0
		c0-0.2-0.1-0.1-0.2-0.4l0.1,0.1c-0.1-0.3-0.1-0.2-0.2-0.4c-0.1-0.2-0.2-0.5-0.1-0.6c-0.1,0-0.2-0.1-0.2-0.3c0,0,0,0,0.1,0
		c0-0.2-0.1-0.3-0.1-0.5l0,0l0,0l0,0c0,0,0,0,0.1,0C60.3,28.2,60.9,28,60.7,28L60.7,28z M72,27.3l0.3,0.1c0,0,0,0-0.1,0
		c0.4,0.3,0.2,0,0.7,0.2c-0.1,0,0.1,0.1,0.1,0.2c-0.2-0.1,0-0.1,0.1-0.1c0.3,0.2,0.3,0.1,0.5,0.2l-0.2-0.1c0.1,0,0.2,0,0.4,0.1
		c0,0-0.2-0.1-0.1,0c0.3,0,0.4,0.4,0.7,0.5c0.1,0.1,0,0.1,0.1,0.2c0.3,0.2,0.3,0.3,0.6,0.5C75,29,75,29,75.3,29.1l-0.6-0.3l0.4,0.2
		c-0.2-0.1-0.4-0.2-0.4-0.3c0.2,0.1,0.2,0.1,0.1,0c0.2,0.2,0.5,0.3,0.7,0.5l-0.1,0.1c0.3,0.3,0.7,0.5,1.1,0.9L76.3,30
		c0.1,0,0.3,0.2,0.4,0.4c-0.1,0,0,0.1,0.1,0.2c0,0,0.3,0.3,0.4,0.3l0.1,0.2c0.3,0.4,0.5,0.3,0.8,0.7c-0.1-0.1,0,0.1-0.3-0.1
		c0.1,0.1,0.2,0.2,0.2,0.2c0,0.1,0.3,0.3,0.4,0.4c0.1,0,0.1,0,0.2,0.2l0,0c0,0,0.2,0.2,0.2,0c0.1,0.5,0.7,1.2,0.8,1.6
		c0.2,0.3,0.3,0.7,0.5,0.9l0,0c0.1,0.4,0.2,0.2,0.4,0.7c0,0.3-0.2-0.2-0.1-0.1c-0.1,0.1,0.1,0.4,0.2,0.7c-0.5,0.4-1,0.7-1.6,1
		c0.3,0-0.2,0.1-0.1,0.2c-0.1,0.1-0.2,0.1-0.2,0.1l0,0l0,0l0,0l0,0l-0.5,0.1c-0.1,0,0.1-0.1,0.1-0.1c-0.3,0.2-0.2,0-0.4,0.1
		c0.1,0-0.1,0.1-0.3,0.2h0.3c-0.5,0.2-0.5,0-0.9,0.2l0.1-0.1c-0.2,0.1-0.9,0.3-1.2,0.4c-0.1,0-0.1,0,0-0.1c-0.6,0.1-1.4,0.3-1.9,0.2
		h0.1c-0.1,0-0.2,0.1-0.4,0c0,0,0.1,0,0,0s-0.3,0.1-0.5,0h0.1c-0.6-0.2-1,0-1.5-0.1c0-0.1-0.4-0.3-0.7-0.4l0,0
		c-0.7-0.2-1.2-0.2-1.9-0.4c-0.2-0.4-1.2-0.6-1.8-1c0.1,0.1-0.1,0.1-0.2,0s-0.4-0.1-0.4-0.2h0.1c-0.1-0.1-0.3-0.2-0.5-0.3
		c0.1-0.1,0.1-0.1,0.2-0.2c-0.2,0.1-0.2,0.1,0.1-0.2l-0.5,0.5l0,0l0.2-0.3c-0.1,0.1-0.2,0.2-0.2,0.2l0,0c0.2-0.2,0.4-0.5,0.7-0.7
		l0.1,0.1c0.5-0.5,0.8-1,1.5-1.7L68.3,34c0.1-0.1,0.3-0.5,0.5-0.7c0,0.1,0.2-0.1,0.3-0.2c0,0,0.4-0.5,0.4-0.7l0.3-0.3
		c0.4-0.6,0.3-0.8,0.7-1.5c-0.1,0.2,0.1,0-0.1,0.4c0.1-0.2,0.2-0.4,0.2-0.4c0.1-0.1,0.2-0.6,0.4-0.8c0-0.1,0-0.2,0.1-0.4l0,0
		c0,0,0.1-0.4,0-0.2c0.4-0.5,0.6-1.6,0.8-2.2l0,0c0.1,0,0-0.1,0.2-0.1c0.1,0.1,0.4,0.2,0.4,0.3C71.9,27.1,72.3,27.5,72,27.3L72,27.3
		z M65.9,36.7L65.9,36.7L65.9,36.7L65.9,36.7z M58.4,41.2C58.4,41.2,58.3,41.2,58.4,41.2L58.4,41.2L58.4,41.2z M59.1,46.6L59.1,46.6
		L59.1,46.6c0.1,0.3,0.2,0.5,0.2,0.8C59.2,47.2,59.2,46.9,59.1,46.6L59.1,46.6L59.1,46.6z M69.8,11.8c-0.1,0.1-0.3,0.1-0.1,0.1
		c0.1-0.1,0.5,0,0.7-0.1c0-0.1,0.4-0.1,0.8-0.1c0,0,0.7,0,1,0.1l0,0c0.1-0.1,0.4-0.1,0.6-0.1c0,0.1-0.1,0.1-0.2,0.1h0.2
		c0.1,0,0.1,0,0.3-0.1L73,11.8c0.3,0,0.6,0,1,0.1c0-0.1-0.3-0.2,0.1-0.2c0,0,0,0.1-0.1,0.1c0,0,0.1,0,0.2,0H74c0.2,0.1,0.1,0,0.2,0
		c0,0.1,0.1,0.1,0.1,0.1h-0.2c0.2,0,0.3,0.1,0.4,0.1c0,0,0-0.1,0.1-0.1c0.3,0.1,0.1,0.1,0.2,0.2c0.1,0,0.3,0.1,0.3,0
		c0.1,0,0.1,0.1,0.1,0.1c0.2,0,0.7,0.2,0.6,0.1l0,0l0,0c0.5,0.1,1,0.4,1.4,0.6l0,0c0.3,0.1,0.6,0.3,0.8,0.4c0.1,0.1,0.2,0.2,0.1,0.2
		c0.2,0.1,0.2,0.1,0.5,0.3c-0.2-0.1,0.1,0.1-0.2-0.1c0.2,0.2,0.3,0.2,0.6,0.4c-0.1,0,0.1,0.2,0.3,0.3l-0.1-0.2l0.4,0.3h-0.1
		c0.4,0.5,1,0.5,1.2,1c0.2,0.1-0.2-0.3-0.1-0.2c0.2,0.2,0.3,0.5,0.4,0.6c0.2,0.3,0.4,0.1,0.6,0.4c0-0.1,0-0.2,0.3,0
		c0.2,0.2,0.1,0.4,0,0.2c-0.1,0-0.1-0.1-0.1-0.1c-0.1-0.1-0.2-0.1-0.1,0H82c0.1,0.1,0.3,0.4,0.2,0.4c0.2,0.1,0.1,0,0-0.1
		c0.2,0.3,0.4,0.4,0.6,0.8c0-0.1,0-0.1,0-0.1c0.3,0.5,0.2,0.1,0.5,0.4c0.1,0.2-0.1,0,0.1,0.3c0.1,0.2-0.1,0.1-0.1,0
		c0.2,0.3,0.3,0.6,0.4,0.7l-0.1-0.1l0.2,0.2v-0.1c0.1,0.1,0.1,0.2,0.1,0.2c0.1,0.1,0.1-0.1,0.2,0c0,0.1,0.2,0.4,0.2,0.4
		c-0.2-0.4-0.1,0.1-0.3-0.2l0.1,0.2l0,0c0.1,0.4,0.2,0.1,0.3,0.5c-0.1,0-0.1,0.1,0,0.2c-0.1-0.2,0.1-0.1,0.1,0
		c0.1,0.3,0.1,0.3,0.2,0.4v-0.2c0.1,0,0.1,0.2,0.2,0.4c0,0-0.1-0.2-0.1-0.1c0.2,0.2,0.1,0.5,0.2,0.8c0,0.1-0.1,0-0.1,0.2
		c0.2,0.3,0,0.4,0.1,0.7c0.1-0.1,0-0.1,0.1,0.1L85,21.9l0.2,0.4c0-0.2-0.1-0.4-0.1-0.5c0.1,0.2,0.1,0.1,0.1,0
		c-0.1,0.3,0.2,0.5,0.2,0.8h-0.2c0,0.4,0.3,0.7,0.3,1.3v-0.2c0.1,0.1,0.1,0.3,0.1,0.5c-0.1,0-0.1,0.1-0.1,0.2c0,0,0,0.4,0.2,0.4
		L85.6,25c0,0.4,0.2,0.5,0.2,0.9c-0.1-0.1-0.1,0.1-0.2-0.2c0,0.1,0,0.3,0,0.3c0,0.1,0.1,0.4,0,0.5c0,0.1,0.1,0.1,0.1,0.2l0,0
		c0,0,0,0.2,0.1,0.1c-0.2,0.4-0.1,1.2-0.3,1.6c0,0.3-0.1,0.7-0.2,1c0,0,0,0,0-0.1c-0.2,0.4,0.1,0.3-0.1,0.7c-0.2,0.2,0-0.2-0.1-0.1
		c-0.2,0-0.1,0.5-0.3,0.8v-0.1c-0.1,0.2-0.1,0.5-0.3,0.9l0,0c0,0.2-0.2,0.7-0.4,1c0-0.1,0-0.2-0.1-0.1c-0.1,0.2,0.1,0,0,0.3
		c-0.1,0.1-0.2,0.3-0.3,0.2l0.1-0.3c-0.2,0.1-0.2,0.3-0.3,0.5l0,0c-0.3,0.4-0.2,0.5-0.5,0.8h0.1c-0.1,0.3-0.2,0.1-0.3,0.4h-0.1
		c-0.1,0.2-0.3,0.5-0.6,0.8c0.1-0.2,0.3-0.5,0.4-0.7c-0.1,0.1-0.4,0.4-0.4,0.5l0.2-0.2c-0.1,0.2-0.3,0.5-0.5,0.7
		c-0.1-0.1-0.3,0.1-0.5,0.3c-0.1-0.2-0.2-0.5-0.3-0.5c-0.1-0.2,0,0,0-0.2c-0.1-0.2-0.3-0.5-0.3-0.6c0,0,0,0,0.1,0.1
		c-0.1-0.1-0.3-0.6-0.3-0.5c-0.1-0.4-0.4-0.6-0.5-0.9c-0.2-0.1-0.3-0.6-0.4-0.6c0.1,0-0.3-0.7-0.5-0.8c0.1,0-0.1-0.2,0-0.1
		c-0.2-0.2-0.4-0.4-0.4-0.3c-0.2-0.5-0.7-0.7-0.8-1.1c-0.7-0.5-1.2-1-1.8-1.5c0.1-0.1,0.6,0.5,0.7,0.4c-0.5-0.5-0.9-0.6-1.5-1
		c-0.1-0.1,0.1,0,0.2,0c-0.6-0.3-1.1-0.9-1.7-1h0.1c-0.1,0-0.2-0.1-0.3-0.1h0.1c0.1,0.2-0.5,0-0.6,0c0.3-0.1-0.5-0.3-0.2-0.4
		c-0.1,0-0.2,0-0.2,0c-0.1-0.1-0.1-0.1,0-0.1c-0.4-0.2-0.3,0-0.7-0.2h0.1c-0.1,0-0.2,0-0.3-0.1c0.1-0.5,0.1-1,0.2-1.3c0,0,0,0,0,0.1
		c0.2-0.6-0.1-0.4,0-1.1c0.1-0.4,0,0.4,0.1,0.2c0.2-0.1,0-0.9,0.2-1.4v0.1c0.1-0.4-0.1-0.9-0.1-1.6l0,0c-0.1-0.4-0.2-1.2-0.3-1.8
		c0.1,0.2,0.1,0.3,0.1,0.1c-0.1-0.3-0.1,0.1-0.2-0.4c0-0.2,0-0.6,0.1-0.6L72,19c0.1-0.3-0.1-0.7-0.1-0.9H72
		c-0.2-0.8-0.3-0.8-0.5-1.6v0.1c-0.2-0.4-0.1-0.4-0.3-0.8l0.1-0.2c-0.1-0.3-0.4-1-0.7-1.5c0.2,0.2,0.4,0.8,0.6,1.2
		c-0.1-0.3-0.3-1-0.4-1.1c0.1,0.1,0.1,0.2,0.2,0.4c-0.2-0.3-0.4-0.7-0.7-1.3c0.3,0-0.6-1.4-0.7-1.9l0,0
		C69.6,11.7,69.7,11.7,69.8,11.8L69.8,11.8z M32.4,8.9c0,0.1,0.2-0.1,0.3-0.2L32.4,9C32.4,9,32.4,9,32.4,8.9L32.4,8.9z M32,9.5
		L32,9.5l-0.2,0.2C31.9,9.7,31.9,9.6,32,9.5z M27.1,22.1c0.1-0.3,0-0.3,0.1-0.4c-0.1-0.1,0-0.3-0.1-0.6c0.1-0.5,0.1-0.1,0.1-0.6
		c0-0.2,0.1,0.2,0.1,0.2c0-0.5-0.1-0.3-0.1-0.4c0.1-0.6,0.1-0.3,0.2-0.5c0-0.4,0-0.7,0-1c0,0,0-0.1,0,0c0-0.4,0.3-1.2,0.3-1.7l0,0
		c-0.1,0.1-0.1,0.1-0.2,0c0-0.2,0-0.5,0.2-0.5c0,0.1,0,0.2,0,0.2l0.1-0.2c0.2-0.2-0.1,0.3,0,0.4c0.1-0.5,0.2-1,0.4-1.4
		c0.1,0-0.3,0.8,0,0.4L28,16.5c0.3-0.4-0.1,0.3,0.2,0c0.3-0.7,0.2-0.8,0.5-1.5c0-0.2-0.1,0-0.1-0.2c0.4-1,0.6-0.7,0.8-1.4
		c0-0.2,0-0.3,0.3-0.8v0.2c0.4-0.6,0.1-0.4,0.5-1.1c0,0.1-0.3,0.5-0.2,0.4c0.3-0.4,0.1-0.3,0.4-0.6h0.1c0.4-0.7,0.9-1.4,1.4-2.1
		c0,0.1-0.1,0.2,0.1,0.1c0.7-0.9,1.6-1.7,2.4-2.3l0.2-0.3c0.1-0.1,0.2-0.1,0.1,0c0.3-0.2,0-0.1,0.1-0.2C35,6.5,35.1,6.5,35,6.6
		c0.5-0.5,1.5-1.4,2.2-1.7L37.3,5c0.5-0.3,0.5-0.5,1-0.8l-0.1,0.1c1.1-0.6,2.4-1.3,3.3-1.6c0.1-0.2,1.2-0.4,1.2-0.6
		c0.7-0.2,0.5-0.1,1.5-0.3c0.3-0.1,0.4-0.2,0.7-0.3v0.1l0.4-0.2h0.3l0.3-0.1c-0.1,0-0.3,0-0.3,0c0.5-0.1,1.2-0.2,1.2-0.2L48,0.9
		c0,0-0.2,0.1-0.4,0.1c0.6-0.2,0.1,0.1,0.7-0.1c-0.1,0,0-0.1,0-0.1c0.3,0,0.9,0,1.4-0.1l-0.1,0.1c0.9-0.1,1.8,0,2.8,0
		c-0.3,0-0.3-0.1,0-0.1l0.1,0.1c0.2,0-0.3-0.1,0.1-0.1c0.4,0.1,0.2,0.1,0,0.1h0.5c0,0-0.1,0-0.1,0.1c0.2,0,0.8,0.2,1,0.1l0,0
		c1,0.2,1.4,0.2,2.2,0.5c0-0.1,0.3,0,0.6,0C57.3,1.7,58,2,58.6,2.3c0.5,0.2,0.2,0,0.4,0c0,0.1,0.7,0.4,0.3,0.3c0.8,0.3,1,0.5,1.9,1
		c-0.1-0.1-0.2-0.2-0.1-0.2c0.2,0.1,0.4,0.3,0.3,0.3l0,0c1.1,0.6,2.1,1.8,2.9,2.4h-0.1c0.3,0.2,0.5,0.4,0.8,0.7
		c0.3,0.3-0.2-0.2,0,0.1c0.8,0.7,1.1,1.3,1.7,1.9c0.3,0.6,1.4,2,1.8,2.9v-0.1l0.1,0.1c-0.3,0.1-0.8,0.1-1.2,0.3
		c-0.4,0.2-0.5,0.3-0.9,0.5c-0.2,0,0.1-0.1,0.1-0.1c-0.2,0.1-0.4,0.2-0.6,0.3c0,0,0,0-0.1,0c-0.2,0.1-0.1,0.1-0.3,0.2
		c0-0.1,0.1-0.1,0.1-0.2l-0.5,0.4c-0.1,0,0.1-0.1,0.1-0.2c-0.2,0.1-0.5,0.4-0.5,0.5l0.1-0.1c-0.1,0.1-0.1,0,0-0.1
		c0.1-0.2,0.3-0.2,0.3-0.1l0-0.1c0.2,0,0.6-0.3,0.8-0.4l-0.1,0.2l0.2-0.2c0.1,0,0.1,0,0,0.1c0.2-0.1,0.2-0.1,0.4-0.1l0,0l0.2-0.1
		c0,0,0.1,0.1-0.1,0.1c0.4-0.1,0.6-0.3,0.7-0.2l0,0c0.5-0.2,0-0.1,0.4-0.3l0.3,0.1v-0.1c0.1,0,0.2,0,0.2,0c0.2-0.1,0,0,0.1-0.1
		c0.1,0,0.3,0,0.4,0v0.1h-0.3c0.1,0,0.2,0.1,0,0.1c0.5,0-0.1-0.1,0.3-0.1l0,0l0,0c0,0,0,0,0.1,0h-0.1V12l0,0
		c1.1,1.7,1.7,3.8,2.2,5.8c0.2,0.7,0.4,0.4,0.4,1.3l-0.1-0.2c0.4,1.5,0.4,3.1,0.4,4.6c0-0.1,0-0.1,0-0.2c-0.1,0.3-0.1,1.2,0,1.2
		c0,0.2-0.1,0-0.1,0.2c-0.1,0.3,0,0.8-0.1,1v-0.1c0,0.2-0.2,0.9-0.1,0.8c0,0.1-0.1,0.3-0.1,0.4c-0.5-0.1-0.9-0.1-1.4-0.3
		c0.2-0.1-0.2-0.1-0.2-0.2l-0.3-0.1l0.1,0.1c-0.3-0.1-0.6,0-0.8,0h0.2h-0.6h0.3c-0.3,0,0,0.1-0.4,0.1c0.1,0-0.3,0-0.4-0.1
		c-0.2,0-0.3,0.1-0.5,0c-0.1,0,0-0.1,0-0.1c-0.1,0.1-0.7,0-0.9,0.1c0.1,0,0.1-0.1,0-0.1l0-0.2c-0.1,0-0.2,0-0.2-0.1
		c-0.4,0,0.2,0.1-0.3,0.1c0,0,0,0,0.1,0c-0.5,0-0.9,0.2-1.4,0.3c-0.2-0.1,0.4-0.1,0.2-0.2c-0.6,0.2-1.3,0.4-1.9,0.6h0.1
		c0,0.2-0.5,0.1-0.8,0.3c0.1,0,0.1-0.1,0-0.1c-0.4,0.1-0.8,0.4-1.4,0.7l0.1-0.1c-0.2,0.1-0.6,0.3-0.9,0.4l0,0
		c-0.1-0.2-0.2-0.4-0.2-0.5l0,0l0,0l-0.1-0.2V27c0,0,0-0.3,0-0.5c-0.1,0-0.1-0.2-0.1,0c0,0,0,0,0,0.1v0.1l0,0l0.1,0.4
		c-0.1-0.1-0.1-0.2-0.1-0.4l-0.2-0.2c0.1-0.2,0.1-0.6,0.2-0.7c-0.1-0.4-0.1-1.1-0.3-1.4c0-0.1,0-0.1,0.1-0.2c0,0.1,0,0.2,0,0.2
		c0-0.3,0-0.8-0.1-0.8c0.1-0.3,0.1,0.2,0.1-0.3v0.1c0.4-0.8-0.1-1.5,0.5-2.4c0,0.1,0,0.1-0.1,0.1c0.4-1,0.8-2.2,1.5-3.1
		c0.2-0.2,0.2-0.3,0.2-0.5h0.1l0.1-0.4c0.2-0.4,0.7-0.5,0.9-1.1h-0.1c0.1-0.2,0.4-0.6,0.4-0.5c0,0,0-0.1,0.1-0.1l0,0l0.3-0.5
		c0.3-0.3,0.1,0.2,0.5-0.3c0.1-0.2,0.3-0.6,0.2-0.5c-0.1,0.1-0.2,0.2-0.2,0.1l0.1-0.2c0,0,0-0.1-0.1-0.1c0,0,0,0,0.1-0.1v-0.1
		l0.1,0.3l0,0c-0.1,0-0.2,0-0.3,0.2l-0.2,0.3h-0.1l0.2-0.2c-0.2,0.1-0.2,0.2-0.2,0.3l-0.2,0.1L63,15.1c-0.1,0,0-0.2-0.2,0
		c-0.1,0.2,0.2,0,0,0.2c-0.2,0.1-0.2,0-0.2,0.2v-0.1c-0.1,0.2-0.3,0.4-0.3,0.5c-0.2,0.1-0.3,0.5-0.4,0.4c0,0.1-0.1,0.3-0.2,0.4
		c0-0.3-0.4,0.5-0.4,0.3c0,0.3-0.4,0.7-0.5,1.1V18c-0.1,0.2-0.2,0.2-0.3,0.3c0.1,0.1,0,0.4-0.1,0.6c-0.2,0.2,0-0.2-0.2-0.2
		c0.1,0-0.1,0.5,0,0.4c-0.2,0.1-0.1,0.1-0.2,0.2c0.1,0.1-0.1,0.2-0.1,0.4c-0.2,0.2-0.2,0-0.2,0.3c-0.1,0.1,0-0.2,0-0.2
		c-0.1,0.3,0,0.2,0.1,0.3c-0.1,0.4-0.1,0.1-0.2,0.3c0,0.2,0,0.5-0.1,0.6l0,0c0,0.3-0.2,0.8-0.2,1.1l0,0c0.1,0,0.1,0,0.2,0
		c0,0.1,0,0.3-0.1,0.3c0-0.1,0-0.1,0-0.1v0.2c-0.1,0.1,0-0.2-0.1-0.2c0,0.3,0,0.7-0.1,0.9c-0.1,0,0.1-0.5-0.1-0.2l0.1-0.4
		c-0.2,0.2,0-0.2-0.2,0c-0.1,0.5-0.1,0.5-0.1,1c0,0.1,0.1,0,0.1,0.1c0.1,0.7-0.3,0.5-0.1,1c0.1,0.1,0.2,0.2,0.1,0.5l-0.1-0.1
		c0,0.5,0.2,0.2,0.2,0.7c0-0.1-0.1-0.4-0.1-0.3c0,0.3,0.1,0.2,0.1,0.5L59,26.1c0.1,0.5,0.2,1,0.4,1.5c0,0-0.1-0.1-0.1,0
		c0.1,0.2,0.1,0.5,0.2,0.7c-0.6,0.3-1,0.7-1.5,1c0.1-0.1,0.2-0.2,0.1-0.1l-0.5,0.4c0.1,0,0.1,0,0.2-0.1c0,0.1-0.2,0.2-0.3,0.3
		c0.2-0.2-0.1-0.1-0.2,0v0.1c-0.3,0.1,0,0.1-0.4,0.4l0,0l-0.3,0.4c-0.1,0,0.1-0.2,0.1-0.2c-0.2,0.2-0.2,0.5-0.5,0.6l0.2-0.3
		c-0.2,0.1-0.2,0.2-0.4,0.3l0,0l-0.3,0.3l0.1-0.1c0,0.4-0.5,0.5-0.6,1c0.1-0.4,0-0.1-0.1-0.2c-0.1,0.1-0.2,0.2-0.2,0.2
		c0,0.2-0.2,0.3-0.3,0.6c0,0-0.1,0.2-0.2,0.1c-0.1,0.2,0.1,0,0.1,0c-0.2,0.4-0.6,0.8-0.7,1.4c0,0.1-0.1,0.2-0.1,0.3l0,0
		c0.1,0-0.6-0.8-1-1c0.1,0-0.2-0.2-0.1-0.2c-0.3-0.3-0.7-0.5-0.6-0.4c-0.5-0.6-1.3-0.8-1.6-1.2c-1.1-0.6-2.1-1-3.1-1.5
		c0.1-0.1,1.1,0.5,1.1,0.4c-1-0.4-1.5-0.6-2.5-1c-0.2-0.1,0.2,0,0.3,0c-1-0.4-1.9-0.7-2.8-0.9c0,0,0.1,0,0.2,0
		c-0.2,0-0.4-0.1-0.4-0.1h0.2c0.3,0.1-0.8,0-0.8,0c0.3-0.1-0.9-0.2-0.4-0.3c-0.1,0-0.3,0-0.3,0c-0.2,0-0.2-0.1,0-0.1
		c-0.7-0.1-0.4,0-1-0.1c0,0,0.1,0,0.2,0c-0.3,0-0.6,0-1.1,0l0,0c-0.8-0.1-1.4,0.1-2.3,0.1c0.3-0.1-0.3,0-0.4-0.1l-0.5,0.1H37
		c-0.4,0.1-0.8,0.2-1.2,0.2l0.3-0.1c-0.3,0.1-0.6,0.1-0.8,0.2l0.5-0.1c-0.4,0.1,0.1,0.1-0.5,0.2c0.1,0-0.4,0.1-0.7,0.1l0.3-0.1
		c-0.2,0-0.3,0.1-0.3,0.1h-0.1c-0.3-0.5-0.6-0.9-1-1.4c-0.3-0.4-0.4,0-0.7-0.5H33c-0.7-0.6-1.4-1.3-2.2-1.7c0.1,0,0.1,0,0.1,0
		c-0.1-0.2-0.6-0.4-0.6-0.4c-0.1-0.1,0-0.1-0.1-0.1c-0.2-0.1-0.5-0.2-0.5-0.3h0.1c-0.1,0-0.6-0.2-0.5-0.1c-0.3-0.2-0.6-0.2-0.9-0.3
		c-0.2,0-0.6-0.2-0.6-0.1c0-0.1-0.3-0.2-0.6-0.2c0-0.2,0-0.3,0-0.5c-0.1,0-0.2-0.6-0.2-0.9c0.1-0.4,0.1,0.3,0.2,0.1
		C27.1,22.8,27.1,22,27.1,22.1L27.1,22.1z M59.4,27.5L59.4,27.5v-0.1V27.5L59.4,27.5z M4.8,42.2L4.8,42.2L4.8,42.2L4.8,42.2z
		 M4.4,42.5C4.4,42.5,4.4,42.6,4.4,42.5c0,0-0.1,0.1-0.2,0.2L4.4,42.5z M20.2,63.6c-0.8-1.3-1.5-2.7-1.8-4.2
		c-0.1-0.5-0.2-0.5-0.4-0.8v-0.1L17.8,58c-0.3-0.7-0.1-1.3-0.4-2.3v0.1c0-0.3-0.2-1.1-0.1-1c0,0-0.1-0.1-0.1-0.2l0,0L17,53.8
		c0-0.7,0.2,0.1,0.1-0.9c0-0.3-0.2-1-0.2-0.9c0,0.2,0,0.4-0.1,0.4v-0.3c0,0-0.1-0.1-0.2-0.1c0,0,0-0.1,0-0.2l-0.1-0.1V52l0,0
		c0,0-0.1,0.2-0.1,0.6l0.1,0.6v0.2v-0.5c0,0.3,0,0.4,0.1,0.6c0,0,0,0.1,0,0.2l0.2,0.5c0,0.1-0.1-0.2-0.1,0.1
		c0.1,0.2,0.1-0.3,0.2,0.2c0,0.3-0.1,0.2,0,0.5c0,0-0.1,0-0.1-0.1c0.1,0.3,0.1,0.7,0.2,0.9c0,0.3,0.2,0.9,0.1,0.9
		c0,0.1,0.2,0.5,0.3,0.7c-0.3-0.4,0.2,1,0,0.9c0.2,0.3,0.4,1.2,0.7,1.8L18,60c0.1,0.3,0.1,0.5,0.2,0.7c0.1,0,0.4,0.5,0.5,0.8
		c0.1,0.4-0.2-0.2-0.3,0c0.1,0,0.4,0.7,0.4,0.5c0.1,0.3,0.1,0.3,0.1,0.5c0.1,0,0.1,0.3,0.4,0.5c0.2,0.5-0.1,0.2,0.2,0.6
		c0.1,0.2-0.2-0.2-0.2-0.2c0.3,0.5,0.2,0.2,0.3,0.2c0.1,0.1,0.1,0.2,0.1,0.2c-0.2,0.1-0.3,0.3-0.6,0.4c0.1-0.1-0.1-0.1,0.1-0.2
		c-0.1,0-0.2,0-0.2,0c-0.1,0-0.3,0.2-0.5,0.2c0,0,0,0.1-0.2,0.2l0,0c0,0-0.2,0.1-0.1,0.1c-0.5,0-1.2,0.3-1.6,0.3
		C16.4,64.9,16,65,15.8,65c0,0,0,0,0.1,0c-0.4,0-0.2,0.2-0.6,0.2c-0.2-0.1,0.2-0.1,0.1-0.1c-0.1-0.2-0.5,0.1-0.8,0h0.1
		c-0.2,0-0.5,0.1-0.9,0.1l0,0c-0.2,0.1-0.7,0.2-1.1,0.2c0.1-0.1,0.2,0,0.1-0.1c-0.2,0,0.1,0.1-0.3,0.1c-0.1,0-0.3-0.1-0.4-0.2h0.3
		c-0.1-0.1-0.4,0-0.5,0v-0.1c-0.4,0-0.5,0.1-0.9,0h0.1c-0.3,0.1-0.2-0.1-0.5,0L10.5,65c-0.2,0-0.6,0-0.9-0.1c0.2,0,0.6,0,0.8,0
		C10,65,9.6,64.9,9.5,65h0.2c-0.2,0-0.5,0-0.9-0.1c0.1-0.2-0.8-0.3-1-0.6c-0.6-0.2-1.1-0.5-1.7-0.9c0.1,0.3-0.2-0.1-0.2,0.1
		c-0.1-0.1-0.2-0.1-0.2-0.1l0,0l0,0L5.3,63c-0.1-0.1,0.2,0.1,0.2,0c-0.3-0.2-0.1-0.2-0.2-0.3c0,0.1-0.2,0-0.3-0.2l0.2,0.2
		c-0.4-0.2-0.2-0.4-0.7-0.6l0.2,0.1c-0.2-0.1-0.7-0.7-1-0.8c0,0,0-0.1,0.1,0c-0.4-0.5-1-1-1.2-1.5h0.1c-0.1-0.1-0.2-0.1-0.2-0.3
		c0,0,0.1,0,0,0c0,0-0.2-0.2-0.3-0.4l0.1,0.1c-0.3-0.5-0.5-0.8-0.8-1.2c0.1,0,0-0.5-0.1-0.7l0,0c-0.2-0.7-0.5-1.1-0.6-1.8
		c0-0.4-0.1-1.4-0.1-2c0,0.1-0.1,0-0.1-0.1c0-0.2-0.1-0.4,0-0.4l0,0c0.1-0.1,0.1-0.4,0.1-0.7H0.6c0.2-0.6,0.1-1.7,0.3-2L1,49.9h0.1
		c0.1-0.4,0.2-0.6,0.3-1.1v0.1c0.1-0.3-0.1-0.4-0.1-0.7h0.1c0.1-0.5,0.5-0.9,0.6-1.4c0,0,0,0,0,0.1C2.2,46.6,2.6,46,2.4,46
		c0.1,0,0.2-0.5,0.3-0.8v0.1c0-0.2,0-0.3,0.2-0.6c0,0,0.1,0,0,0c0.1-0.1,0-0.2,0.2-0.4v0.1c0.2-0.2,0.1-0.2,0.2-0.4
		c0.1-0.2,0.3-0.4,0.4-0.4c0-0.1,0-0.2,0.1-0.3v0.1c0.3-0.3,0.4-0.6,0.7-0.7h0.1c-0.3,0.2-0.5,0.4-0.5,0.4c0.1,0,0.3-0.1,0.2,0.1
		c0.1-0.2,0.3-0.5,0.6-0.7l0,0l0,0L5,42.4l0.2-0.1c0.1,0,0.3-0.2,0.4-0.3c-0.1,0,0.1-0.2-0.1-0.1c0,0,0,0-0.1,0.1l0,0l0,0l-0.3,0.2
		c0.1-0.1,0.1-0.2,0.3-0.3c0-0.1,0.1-0.2,0.1-0.2c0.2,0,0.5-0.2,0.6-0.2C6.4,41.3,7,41,7.2,40.7c0.1-0.1,0.2,0,0.2,0
		c-0.1,0-0.1,0.1-0.2,0.1C7.5,40.7,8,40.6,8,40.5c0.3,0-0.1,0.1,0.3,0H8.2c0.9-0.1,1.3-0.6,2.3-0.5c-0.1,0-0.1,0-0.1,0
		c0.2,0,0.5,0,0.7,0c0,0.1,0,0.2,0,0.3l0,0c0,0,0-0.2,0-0.3c0.1,0,0.1,0,0.2,0v0.1c0,0.2-0.1-0.1-0.1-0.1c0,0.2,0.1,0.4,0.1,0.6
		c0,0-0.1,0-0.1,0.1c0.1,0.2,0.1,0.1,0.2,0.3l-0.2-0.1l0.4,0.5c0,0.1-0.1-0.1-0.2-0.2c0.1,0.2,0.3,0.6,0.4,0.6v-0.2
		c0,0.1,0,0.1-0.1,0c-0.1-0.2-0.1-0.3-0.1-0.3l0.1,0.1c0.1-0.2-0.3-0.5-0.4-0.8l0.2,0.1l-0.2-0.3c0-0.1,0.1-0.1,0.1,0
		c0-0.2-0.1-0.2-0.1-0.4l0,0l-0.1-0.2c0,0,0,0,0.1,0l0,0l0,0c0.8,0,1.5-0.1,2.3,0.1c0.3,0,0.3,0,0.5,0l0.1,0.1l0.3-0.1
		c0.5,0,0.8,0.3,1.3,0.3l0.2,0c0.2,0,0.6,0.1,0.6,0.2h0.1l0,0h0.5c0.4,0.2-0.1,0.2,0.4,0.3c0.2,0.1,0.6,0.1,0.5,0
		c-0.1,0-0.2-0.1-0.2-0.2h0.2l0.1-0.1c0,0,0,0,0.1,0h0.1l-0.2-0.1l0,0c0-0.1-0.1-0.1-0.3-0.3h-0.4l-0.1-0.1l0.3,0.1
		c-0.1-0.1-0.3-0.1-0.4-0.1l-0.1-0.1h-0.4c0-0.1,0.2-0.1,0-0.2c-0.2,0,0.1,0.2-0.1,0.1c-0.1-0.1-0.1-0.1-0.3-0.1c0,0,0,0,0.1,0
		c-0.2,0-0.5-0.1-0.5,0c-0.1-0.1-0.6-0.1-0.5-0.2c-0.1,0-0.3,0-0.5,0c0.3-0.1-0.6-0.1-0.5-0.2c-0.2,0.1-0.8,0-1.2,0h0.1
		c-0.2,0-0.3-0.1-0.4-0.1c0,0.1-0.4,0.1-0.5,0.2c-0.3-0.1,0.2-0.1,0.1-0.2c0,0.1-0.5,0.1-0.4,0.2c-0.2-0.1-0.2,0-0.3-0.1
		c0,0.1-0.2,0-0.4,0.1c-0.3-0.1-0.1-0.1-0.4-0.1c0,0,0,0,0-0.1c0.1,0,0.1,0,0.1,0h-0.1c0,0,0,0,0-0.1l0,0c-0.1-0.5-0.1,0-0.3-0.4
		l0.1-0.3h-0.1v-0.2c-0.1-0.2,0,0-0.1-0.1c0-0.3-0.1-0.7,0-0.8c-0.1-0.1,0,0.3-0.1,0c0.1-0.1,0-0.3,0-0.6c0.1,0.1,0.1,0.3,0.1,0
		c-0.1-0.1,0-0.5,0-0.7c0,0-0.1,0-0.1-0.1l0.1,0.1h0.1l-0.1-0.1c0-0.2,0-0.4-0.1-0.7c0,0,0-0.6,0.1-0.9l0,0c-0.1-0.1,0-0.4,0-0.6
		c0.1,0,0.1,0.1,0.1,0.2v-0.2c0,0,0-0.1,0-0.3l0.1,0.1c0-0.3,0-0.6,0.1-1c-0.1,0-0.2,0.3-0.2-0.2c0,0,0.1,0,0.1,0.1c0,0,0-0.1,0-0.2
		v0.2c0.1-0.2,0-0.1,0-0.2C11,32.1,11,32,11,32v0.2c0-0.2,0.1-0.3,0.2-0.4c0,0-0.1,0,0-0.1c0.1-0.3,0.1-0.1,0.2-0.2
		c0-0.1,0.1-0.2,0-0.3c0-0.1,0.1-0.1,0.1-0.1c0-0.2,0.2-0.7,0.1-0.5l0,0l0,0c0.2-0.5,0.5-0.9,0.8-1.3l0,0c0.1-0.3,0.4-0.5,0.4-0.8
		c0.1-0.1,0.2-0.1,0.2-0.1c0.1-0.2,0.1-0.2,0.4-0.5c-0.1,0.2,0.1,0-0.1,0.2c0.2-0.2,0.3-0.2,0.4-0.5c0,0.1,0.2-0.1,0.3-0.2l0,0.5
		l0.3-0.3v0.1c0.5-0.3,0.7-0.9,1.1-1c0.1-0.2-0.3,0.2-0.2,0c0.2-0.2,0.5-0.2,0.6-0.3c0.3-0.2,0.2-0.3,0.5-0.5c-0.1,0-0.1,0,0.1-0.2
		c0.2-0.1,0.4-0.1,0.2,0h-0.1c-0.1,0.1-0.1,0.1,0,0.1l0,0c0.1-0.1,0.5-0.3,0.4-0.2c0.2-0.1,0-0.1-0.1,0c0.3-0.1,0.5-0.3,0.8-0.4
		c-0.1,0-0.1,0-0.1,0C18,25,17.7,25,18,24.8c0.2,0,0,0.1,0.3,0c0.2-0.1,0.1,0.1,0,0.1c0.3-0.2,0.6-0.2,0.7-0.3v0.1l0.2-0.1h-0.1
		c0.1,0,0.2,0,0.2,0c0.1-0.1-0.1-0.1,0.1-0.2c0.1,0,0.4-0.1,0.5,0c-0.4,0.1,0.1,0.1-0.3,0.2h0.2l0,0c0.4,0,0.1-0.1,0.6-0.2
		c0,0.1,0.1,0.1,0.2,0c-0.2,0-0.1-0.1,0-0.1c0.3,0,0.3-0.1,0.4-0.1h-0.2c0-0.1,0.2-0.1,0.4-0.1c0,0-0.2,0.1-0.1,0.1
		c0.2-0.2,0.5,0,0.8,0c0.1,0,0,0.1,0.1,0.1c0.3-0.1,0.4,0.1,0.7,0c-0.1-0.1-0.1,0,0.1-0.1h-0.6l0.4-0.1c-0.2,0-0.4,0-0.5,0
		c0.2-0.1,0.1,0,0.1-0.1c0.2,0.1,0.5-0.1,0.7,0v0c0.4,0.1,0.7-0.1,1.2,0h-0.2c0.1-0.1,0.3,0,0.5,0l0.1,0.1c0,0,0.4,0.1,0.5,0
		l0.2,0.1c0.4,0.1,0.5-0.1,0.9,0c-0.1,0,0,0.1-0.2,0.1c0.1,0,0.3,0.1,0.3,0c0,0,0.3,0,0.4,0.1l0,0l0,0l0,0c0,0.1,0,0.1,0,0.2
		c0,0.5,0.1,0.6,0.2,0.9l-0.1,0.1l0.2,0.5c0.3,0.7,0.1,1.4,0.6,2.3v-0.1c0.1,0.3,0.5,1,0.4,1c0,0,0.1,0.1,0.1,0.2l0,0l0.4,0.8
		c0.2,0.5-0.1,0.1,0.1,0.6c-0.4,0.2-0.7,0.4-1.1,0.6l0.2-0.1c0,0.2-0.7,0.2-1,0.6c0.1-0.1,0.1-0.2,0.1-0.1c-0.5,0.3-1.1,0.7-1.9,1.3
		l0.1-0.1c-0.3,0.2-0.8,0.6-1.1,0.9c-0.1,0.1-0.3,0.2-0.1,0.2c-1.1,0.7-1.7,1.7-2.5,2.5c0.1-0.1,0.2-0.3,0.1-0.2l-0.6,0.8
		c0.1,0,0.1-0.1,0.3-0.2c0,0.1-0.2,0.3-0.3,0.5c0.2-0.4-0.1-0.1-0.2,0.1l0,0c-0.4,0.4,0.1,0.2-0.4,0.7l0,0c-0.1,0.2-0.2,0.5-0.4,0.7
		c-0.1,0.1,0.1-0.2,0.1-0.3c-0.2,0.3-0.3,0.7-0.5,1c0.1-0.2,0.1-0.4,0.2-0.5c-0.3,0.3-0.3,0.3-0.4,0.6l0,0l-0.2,0.3
		c0.1-0.1,0.1-0.2,0.2-0.3l-0.3,0.5l0.1-0.1c0,0.2-0.1,0.5-0.2,0.7l0,0c0,0-0.1-0.1-0.2-0.1c0.1,0.1,0.1,0.1,0.2,0.2
		c-0.1,0.2-0.2,0.5-0.3,0.8c0.1-0.6,0-0.1-0.1-0.2c-0.1,0.2-0.2,0.4-0.2,0.3c0,0.3-0.2,0.5-0.3,0.9c0,0-0.1,0.3-0.1,0.2
		c-0.1,0.4,0.1-0.1,0.1,0c-0.1,0.6-0.6,1.4-0.6,2.3c-0.1,0.8-0.1,0.9-0.1,1.6C17,47.2,17,46.8,17,46.8c0,0.1,0,0.3,0,0.6
		c-0.5-0.3-1.1-0.7-1.4-1.2c-0.2-0.2-0.3-0.2-0.4-0.3v-0.1l-0.3-0.2c-0.4-0.3-0.4-0.7-0.8-1.1v0.1c-0.1-0.2-0.4-0.5-0.3-0.5
		c0,0-0.1,0-0.1-0.1l0,0l-0.4-0.4c-0.2-0.3,0.2,0-0.1-0.5c-0.1-0.2-0.4-0.4-0.4-0.3c0.1,0.1,0.1,0.2,0.1,0.2l-0.1-0.2
		c-0.1,0-0.1,0-0.2,0c0,0,0,0,0-0.1h-0.1l0.1,0.2l0,0c0,0,0,0.2,0.1,0.4l0.3,0.2v0.1l-0.2-0.2c0,0.2,0.1,0.2,0.2,0.3v0.2l0.3,0.2
		c0,0.1-0.2-0.1-0.1,0.1c0.1,0.1,0-0.2,0.2,0c0,0.2,0,0.2,0.1,0.3h-0.1c0.1,0.1,0.3,0.4,0.4,0.4c0,0.2,0.4,0.5,0.3,0.5
		c0.1,0,0.3,0.2,0.4,0.3c-0.3-0.1,0.4,0.4,0.2,0.5c0.2,0.1,0.6,0.5,0.9,0.7h-0.1c0.1,0.2,0.1,0.2,0.3,0.3c0.1-0.1,0.4,0.1,0.6,0.1
		c0.1,0.2-0.2,0-0.2,0.2c0-0.1,0.4,0.2,0.4,0.1c0.1,0.2,0.1,0.1,0.2,0.3c0.1-0.1,0.2,0,0.3,0.1l0,0c0,0.3,0.1,0.2,0,0.6
		c0-0.1-0.1-0.2-0.1-0.3v1c0,0.1,0-0.2-0.1-0.3c0,0.4,0,1,0,1.2v-0.3c0,0.2-0.1,0.1-0.1,0c0-0.3,0-0.5,0.1-0.5v0.3
		c0.2-0.2,0.1-1,0.1-1.5l0.1,0.2V48c0,0,0,0,0.2,0.1c0.1,0.1-0.2,0-0.2,0c0.3,0.2,0.2,0,0.3,0c0.3,0.2,0.1,0.2,0.2,0.3
		c0.2,0,0.5,0,0.6,0.1l0,0c0.3,0,0.7,0.2,1,0.2l0,0c0-0.1,0-0.1,0-0.2c0.1,0,0.3,0,0.3,0.1c-0.1,0-0.1,0-0.1,0h0.1
		c0.1,0.1-0.2,0-0.2,0c0.3,0,0.6,0.1,0.9,0.2c0,0.1-0.5-0.1-0.2,0.1l-0.3-0.1c0.2,0.2-0.2-0.1,0,0.2c0.4,0.2,0.5,0.1,1,0.2
		c0.1,0,0-0.1,0.1-0.1c0.6,0,0.5,0.3,1,0.2c0.1,0,0.2-0.2,0.5,0L22,49.4c0.4,0.1,0.3-0.1,0.7,0c-0.1,0-0.4,0-0.3,0
		c0.3,0.1,0.2,0,0.5,0v0.1c0.5,0,1-0.1,1.5-0.1c0,0-0.1,0.1,0,0.1c0.5,0,1,0,1.5-0.1v0.1c0.1,0.1,0.2,0.7,0.3,0.5l0,0l0,0
		c0.2,0.5,0.2,1,0.3,1.5l0,0c0.1,0.3,0.1,0.7,0.2,0.9c0,0.1,0,0.2-0.1,0.2c0,0.2,0.1,0.2,0,0.6c0-0.2,0,0.1,0-0.2
		c0,0.3-0.1,0.4,0,0.7c-0.1-0.1-0.1,0.2-0.1,0.4l0.1-0.2v0.4l-0.1-0.1c-0.1,0.6,0,1.1-0.2,1.5c0,0.2,0.1-0.3,0.2-0.2
		C26.2,55.7,26,55.9,26,56c-0.1,0.4,0.1,0.4,0,0.8c0,0,0.1-0.1,0.1,0.2c-0.1,0.3-0.3,0.3-0.2,0.1c0-0.1,0-0.1,0-0.1
		c0-0.1,0-0.2,0-0.1l0,0c-0.1,0.1-0.2,0.5-0.2,0.4c0,0.2,0,0.1,0.1,0c-0.2,0.3-0.2,0.5-0.4,0.8c0,0,0.1-0.1,0.1,0
		c-0.2,0.5,0,0.2-0.2,0.6c-0.1,0.2-0.1-0.1-0.2,0.2c-0.1,0.2-0.1,0-0.1-0.1c0,0.3-0.3,0.5-0.4,0.7l0.1-0.2l-0.1,0.2h0.1
		c-0.1,0.1-0.1,0.1-0.1,0.1c0,0.1,0.1,0,0.1,0.2c-0.1,0.1-0.2,0.4-0.3,0.3c0.3-0.3-0.1,0,0.1-0.3L24.4,60l0,0
		c-0.3,0.3,0,0.2-0.3,0.5c0-0.1-0.1,0-0.2,0.1c0.1-0.1,0.1,0,0,0.1c-0.2,0.2-0.1,0.3-0.2,0.4l0.1-0.1c0,0.1-0.1,0.2-0.2,0.3
		c0,0,0.1-0.1,0-0.1c-0.1,0.2-0.4,0.2-0.6,0.5c-0.1,0.1-0.1-0.1-0.2,0c-0.2,0.3-0.3,0.2-0.5,0.5c0.1,0,0.1,0,0,0.2l0.4-0.4l-0.2,0.3
		c0.1-0.1,0.2-0.3,0.3-0.3c-0.1,0.2-0.1,0.1,0,0.1c-0.2,0.1-0.3,0.4-0.6,0.5L22,62.4c-0.4,0.2-0.6,0.5-1,0.7l0.2-0.1
		c0,0.1-0.3,0.2-0.4,0.3c0-0.1-0.1,0-0.2,0C20.5,63.4,20.2,63.5,20.2,63.6L20.2,63.6z M5.4,42.3L5.4,42.3L5.4,42.3L5.4,42.3
		L5.4,42.3z M28.8,71.1L28.6,71C28.6,71,28.7,71,28.8,71.1L28.8,71.1z M29.4,71.3c0,0,0-0.1,0.1,0c-0.1,0,0.2,0.1,0.3,0.2
		C29.8,71.4,29.4,71.3,29.4,71.3z M45.2,81.1c0,1.3,0,2.6,0,3.9c-0.3-0.2-0.6-0.3-0.9-0.5c-0.5-0.5-1.9-1.3-2.7-2
		c0.1,0.1-0.1,0.1-0.2-0.1c-0.2-0.2-0.6-0.4-0.5-0.4l0.1,0.1c-0.1-0.2-0.5-0.6-0.8-0.8L40,81.4c-0.7-0.9-2-2-2.1-2.7L37.4,78h0.1
		c-0.3-0.6-0.5-0.9-0.9-1.7l0.1,0.1c-0.2-0.4-0.5-0.5-0.7-0.9l0.1-0.2c-0.3-0.8-0.5-1.7-0.8-2.5c0,0,0.1,0,0.1,0.2
		c0-0.2-0.1-0.4-0.1-0.7c0.3,0,0.6,0.1,0.8,0.1h-0.2c0.6,0.1,0.7-0.2,1.2-0.1H37c1.3,0.1,2.7-0.1,3.7-0.1c0.2-0.2,1.3-0.1,1.3-0.3
		c0.8-0.1,0.5,0.1,1.6-0.1c0.3-0.1,0.4-0.2,0.7-0.3v0.1l0.4-0.2H45l0.2-0.1c-0.2,1.1-0.1,2.3,0,3.3c0.1,0.6,0.1,1.2,0.1,1.7
		c0,0.8,0,1.6,0,2.4C45.2,79.8,45.2,80.5,45.2,81.1L45.2,81.1z M44.9,71.5C44.9,71.5,45,71.5,44.9,71.5C45,71.4,45,71.4,44.9,71.5
		L44.9,71.5L44.9,71.5z M48.9,69.2c0.2-0.1,0,0.1-0.2,0.2s-0.6,0.4-0.6,0.2h0.1c-0.2,0-0.7,0.2-1.1,0.4v0.2c-1.1,0.2-2.7,1-3.3,0.9
		L43,71.4v-0.1c-0.7,0.2-1.1,0.2-2,0.3l0.2-0.1c-0.5,0.1-0.6,0.3-1.1,0.4L40,71.8l-2.7,0.1c0,0,0-0.1,0.2-0.1
		c-0.4,0-1.6-0.1-1.5,0.1c0-0.1-0.7-0.1-1.2-0.1c0-0.2-0.1-0.2-0.1-0.2c0.1,0-0.1-0.9-0.3-1.4l0.1,0.1c-0.2-0.4-0.2-0.4-0.3-0.9
		c0-0.1,0-0.1,0,0.1c0-0.4-0.1-0.3-0.1-0.9l0.1,0.2c0-0.4-0.1-0.4-0.2-0.7c0-0.3,0-0.9,0-0.9c0-0.1-0.1-0.3-0.1-0.6
		c0,0,0,0.1,0.1,0.1c0-0.8-0.1-1.1,0-1.7v-0.1c0,0.6,0,1.1,0,1c0.1,0,0.1-0.5,0.2-0.1c0-0.4-0.1-1.1-0.1-1.5v-0.1v0.1V64v-0.4
		c0.1,0,0-0.6,0.1-0.8c-0.1,0,0-0.3-0.1,0c0,0,0,0,0,0.2v0.1l0,0c0,0.2,0,0.4,0,0.6c0-0.2-0.1-0.4,0-0.7C34,62.9,34,62.7,34,62.7
		c0.2-0.3,0.3-0.9,0.4-1c0.1-0.7,0.2-1.7,0.3-2.2c0-0.2,0.1-0.2,0.2-0.3c0,0.1-0.1,0.2-0.1,0.3c0.1-0.4,0.4-1.2,0.3-1.3
		c0.2-0.5,0,0.3,0.2-0.4V58c0.5-1.3,0.8-2.2,1.7-3.5c-0.1,0.1-0.1,0.1-0.1,0.1c1.1-1.4,2.3-3,3.8-4c0.4-0.3,0.4-0.4,0.6-0.6h0.1
		l0.4-0.3c0.6-0.4,1.3-0.4,2-1H44c0.3-0.2,1-0.4,1-0.3c0,0,0.1-0.1,0.2-0.1l0,0L46,48c0.6-0.2,0,0.2,0.9-0.1
		c0.3-0.1,0.9-0.4,0.8-0.4c-0.1,0-0.4,0.1-0.4,0l0.3-0.1c0-0.1,0-0.1,0-0.2c0,0,0.1,0,0.2,0l0.1-0.1l-0.3,0.1l0,0
		c-0.1,0-0.2,0-0.6,0l-0.5,0.2h-0.2l0.5-0.2c-0.3,0-0.4,0.1-0.6,0.2c0,0-0.1,0-0.2,0l-0.5,0.3c-0.1,0,0.2-0.2-0.2-0.1
		c-0.2,0.1,0.3,0-0.1,0.2c-0.3,0-0.2,0-0.5,0.1c0,0,0-0.1,0.1-0.1c-0.3,0.1-0.7,0.3-0.8,0.4c-0.3,0.1-0.8,0.5-0.9,0.3
		c-0.1,0.1-0.4,0.3-0.6,0.5c0.3-0.4-0.9,0.5-0.8,0.2c-0.3,0.2-1,0.8-1.5,1.3l0.1-0.1c-0.3,0.2-0.4,0.2-0.6,0.4
		c0,0.1-0.4,0.5-0.5,0.7c-0.4,0.2,0.1-0.3-0.1-0.2c0,0-0.5,0.6-0.3,0.5c-0.3,0.2-0.2,0.2-0.4,0.3c0.1,0.1-0.2,0.2-0.3,0.5
		c-0.4,0.3-0.2,0-0.5,0.4c-0.2,0.2,0.1-0.2,0.1-0.2c-0.3,0.4-0.1,0.3-0.1,0.4c-0.4,0.5-0.2,0.2-0.4,0.3c-0.3,0.3-0.3,0.6-0.5,0.9
		c0,0-0.1,0.1,0,0c-0.1,0.4-0.6,1.1-0.8,1.6l0,0c0.1,0,0.1,0,0.2,0c-0.1,0.2-0.2,0.4-0.3,0.5c0.1-0.1,0-0.2,0.1-0.2l-0.1,0.2
		c-0.2,0.2,0.1-0.3,0.1-0.3c-0.2,0.4-0.4,1-0.5,1.3c-0.1,0,0.3-0.8,0-0.4c0.1-0.2,0.1-0.4,0.2-0.5c-0.4,0.3,0.2-0.3-0.2,0
		c-0.3,0.7-0.3,0.8-0.5,1.5c0,0.2,0.1,0,0.1,0.2c-0.3,1-0.5,0.7-0.7,1.5c0,0.2,0.1,0.3,0,0.9l-0.1-0.2c-0.2,0.7,0.1,0.5-0.1,1.2
		c0-0.1,0.1-0.6,0-0.5c-0.2,0.5,0,0.4-0.1,0.7L33.8,62c-0.2,0.8-0.1,1.7-0.1,2.5c0-0.1,0-0.2-0.1,0c0,1.1-0.1,2.3,0,3.4l0.1,0.4
		c0,0.1,0,0.2,0,0.1c0,0.4,0.1,0,0.1,0.2s0,0.3-0.1,0.2c0.1,0.7,0.4,2,0.5,2.8v-0.1c0,0.2,0.1,0.3,0.1,0.4c-0.1,0-0.2,0-0.4,0
		c-0.1,0-0.1-0.1,0.1,0c-0.4-0.1-0.4,0-0.9-0.1h0.2c-0.5-0.1-0.4-0.1-0.7-0.1s-0.9-0.2-0.9-0.3c-0.1,0-0.3,0-0.6-0.1h0.1
		c-0.7-0.3-1.1-0.2-1.6-0.4l-0.1-0.1c0.6,0.2,1.1,0.3,1,0.3c0-0.1-0.5-0.2,0-0.2c-0.4-0.1-1.1-0.1-1.5-0.3v-0.1l0,0l-0.3-0.1
		l-0.4-0.2c0-0.1-0.5-0.2-0.7-0.3c0,0.1-0.3-0.1,0,0.1c0,0,0,0,0.2,0.1h0.1l0,0c0.1,0.1,0.4,0.1,0.6,0.2c-0.2,0-0.4-0.1-0.6-0.2
		c-0.1,0-0.3,0-0.4,0c-0.3-0.3-0.8-0.6-0.9-0.7c-0.7-0.2-1.5-0.9-2-1c-0.2-0.1-0.2-0.2-0.2-0.3c0.1,0.1,0.2,0.2,0.3,0.2
		c-0.4-0.2-1-0.8-1.1-0.8c-0.4-0.4,0.3,0.1-0.3-0.3l0.1,0.1c-0.9-1.1-1.9-1.5-2.6-3c0,0.1,0.1,0.2,0.1,0.2c-0.1-0.1-0.1-0.3-0.2-0.4
		c0.6-0.4,1.1-0.8,1.6-1.1c0,0.1-0.6,0.4-0.5,0.5c0.5-0.3,0.8-0.7,1.2-1.1c0.1-0.1,0,0.1-0.1,0.2c0.4-0.5,1-0.8,1.3-1.2v0.1
		c0.1-0.1,0.2-0.2,0.1-0.2v0.1c-0.2,0.1,0.1-0.5,0.1-0.5c0,0.3,0.4-0.4,0.4,0c0-0.1,0.1-0.2,0-0.2c0.1-0.1,0.1-0.1,0.1,0
		c0.2-0.3,0.1-0.3,0.3-0.5v0.1c0.1-0.2,0.1-0.4,0.3-0.6c0,0,0,0,0,0.1c0.3-0.4,0.2-0.9,0.5-1.4c0,0.2,0.1-0.2,0.2-0.2l0.1-0.3L26,58
		c0.1-0.2,0.1-0.5,0.3-0.7v0.2c0-0.2,0.1-0.3,0.2-0.5l-0.1,0.3c0-0.3-0.1,0,0-0.3c0,0.1,0-0.3,0.1-0.4c0-0.1,0-0.3,0-0.5
		c0,0,0.1,0.1,0.1,0c-0.1-0.2,0.1-0.6,0-0.8c0,0.1,0.1,0.1,0.1,0v-0.1c0-0.1,0.1-0.1,0.1-0.1c0.1-0.4-0.2,0.1,0-0.3c0,0,0,0,0,0.1
		c0.1-0.4,0.1-0.8,0.1-1.3c0.1-0.1,0,0.4,0.1,0.2c0-0.6-0.1-1.2-0.1-1.8v0.1c-0.2-0.1,0-0.4-0.1-0.7c0,0.1,0.1,0.1,0.1,0.1
		c0-0.4-0.2-0.8-0.4-1.3v0.1c0-0.2-0.2-0.6-0.2-0.8c0,0,0-0.1-0.1-0.1c0.1,0,0.2,0,0.3,0l0.2-0.1c0.1,0,0.1,0,0,0c0.2,0,0,0,0.1-0.1
		c0.1,0,0.2,0,0.1,0.1c0.4-0.1,1.2-0.4,1.6-0.5h-0.1c0.4-0.1,0.3-0.3,0.7-0.3l0,0c0.8-0.2,1.5-0.8,2-0.9c0-0.2,0.7-0.3,0.7-0.5
		c0.4-0.2,0.3-0.1,0.8-0.5c0.1-0.1,0.1-0.2,0.3-0.4l0.1,0.1l0.2-0.2h0.2l0.1-0.1c-0.1,0-0.2,0.1-0.2,0c0.2-0.2,0.6-0.5,0.6-0.5
		l0.4-0.6c0,0,0,0.1-0.1,0.2c0.2-0.4,0.1,0,0.3-0.3c0,0,0,0,0-0.1c0.2-0.1,0.4-0.4,0.6-0.7v0.1c0.4-0.4,0.6-1,0.9-1.5
		c-0.1,0.2-0.2,0.1-0.1-0.1H36c0-0.1-0.1,0.1-0.1-0.1c0.1-0.2,0.2-0.1,0.1,0l0.1-0.2v0.1c0-0.1,0.3-0.4,0.3-0.6l0,0
		c0.1-0.1,0.2-0.3,0.2-0.4c0.2,0.1,0.5,0.3,0.7,0.4c0,0,1,0.5,1.5,0.7l0,0c0.1,0,0.7,0.2,1,0.3c0,0-0.1,0-0.3,0l0.4,0.1
		c0.1,0,0.2,0,0.5,0.1h-0.1c0.5,0.2,1,0.2,1.6,0.5c0-0.1-0.5-0.3,0.2-0.2c0,0,0,0.1-0.2,0.1c0.1,0,0.2,0,0.3,0.1h-0.3
		c0.3,0.1,0.2,0,0.4,0c0,0,0.2,0.1,0.1,0.1c-0.1,0-0.2-0.1-0.3-0.1c0.3,0.1,0.6,0.2,0.7,0.3c0,0,0-0.1,0.2,0
		c0.5,0.1,0.2,0.1,0.5,0.2c0.1,0,0.4,0.1,0.5,0c0.2,0,0.2,0.1,0.2,0.1c0.3,0,1.2,0.2,0.9,0H45l0,0c0.9,0,1.8,0.2,2.6,0.2l0,0
		c0.5,0,1.1,0,1.5-0.1c0.2,0,0.4,0,0.3,0.1c0.4-0.1,0.4-0.1,1-0.1c-0.4,0.1,0.1,0-0.4,0.1c0.5,0,0.6,0,1.2-0.2c-0.2,0.1,0.4,0,0.6,0
		h-0.4l0.7-0.1l0,0L52,44h0.1c0,0,0,0.1,0,0.2v-0.1c0,0.2,0,0.3,0,0.5c0.1,0,0.2,0.3,0.4,0.5c0,0.3-0.2-0.1-0.3,0
		c0.1,0,0.3,0.5,0.3,0.3c0,0.2,0,0.2,0,0.3c0.2,0,0.1,0.2,0.2,0.3c0,0.3-0.1,0.2,0.1,0.4c0,0,0,0-0.1,0v-0.1c0,0,0,0,0,0.1
		c-0.2,0-0.4,0-0.5,0l0,0c0.1,0,0.4,0,0.6,0c0.1,0.2,0.1,0,0.2,0.1c0,0,0,0,0,0.1c-0.2,0-0.3,0.1-0.6,0.1c-0.2,0,0.2-0.1,0.2-0.1
		c-0.4,0-0.7,0-1,0.1c0.1,0,0,0-0.1-0.1c-0.3,0.1-0.2,0.1-0.6,0.2c0.1,0,0.1-0.1,0.3-0.2l-1,0.3c-0.1,0,0.2-0.1,0.3-0.2
		c-0.4,0.1-1,0.2-1.1,0.3h0.3c-0.1,0-0.1,0,0-0.1c0.3-0.1,0.5-0.1,0.5,0L50,47c0.3,0.1,1-0.2,1.5-0.3l-0.2,0.2l0.5-0.2
		c0.1,0,0.2,0.1,0,0.1c0.4,0,0.3-0.1,0.6,0l0,0l0.3-0.1c-0.1,0,0.1,0.1-0.2,0.1c0.2,0,0.4,0,0.6,0c0,0-0.1,0-0.1,0.1
		c0.2,0.2,0.3,0.4,0.4,0.6c0,0,0,0.1,0,0c0.2,0.2,0.4,0.8,0.7,1l0,0c0-0.1,0.1-0.1,0.1-0.1c0.1,0.1,0.2,0.2,0.2,0.3
		c0-0.1-0.1-0.1-0.1-0.1l0.1,0.1c0,0.2-0.2-0.2-0.2-0.1c0.2,0.2,0.5,0.5,0.6,0.7c0,0.1-0.4-0.5-0.2-0.1l-0.2-0.3
		c0,0.3-0.1-0.2-0.1,0.1c0.3,0.4,0.4,0.5,0.7,0.9c0.1,0.1,0-0.1,0.2,0c0.5,0.5,0.2,0.6,0.6,0.9c0.1,0.1,0.3,0,0.5,0.3h-0.2
		c0.3,0.4,0.3,0.1,0.6,0.5c-0.1,0-0.3-0.2-0.3-0.2c0.2,0.3,0.2,0.1,0.4,0.3v0.1c0.4,0.3,0.8,0.7,1.3,1.1c0,0-0.2,0,0,0.1
		c0.3,0.2,0.7,0.5,1,0.7l0,0l0,0c0,0.3,0,0.4,0,0.4l0,0v0.1l0,0L59,54.9c-0.1,0.2,0-0.3,0-0.2c-0.1,0.6-0.1,0.2-0.2,0.6
		c0.1-0.1,0.1,0.2,0,0.6l0.2-0.5c-0.1,0.9-0.3,0.7-0.4,1.5v-0.3c0,0.4-0.4,1.6-0.4,2c0,0.1-0.1,0.2-0.1,0c-0.3,1-0.7,2.2-1.1,2.9
		v-0.1c-0.1,0.2-0.1,0.3-0.3,0.5c0,0,0-0.1,0,0s-0.2,0.5-0.4,0.7l0.1-0.2c-0.5,0.9-0.8,1.4-1.3,2.1c-0.1-0.1-0.6,0.5-0.9,0.8l0,0
		c-0.9,0.8-1.4,1.5-2.2,2.2C51.3,67.8,49.9,68.7,48.9,69.2L48.9,69.2z M34.3,63.3L34.3,63.3c0,0.2,0,0.3,0,0.3V63.3L34.3,63.3z
		 M33.7,65.2c0-0.1,0,0.2-0.1,0.3L33.7,65.2C33.7,65.1,33.8,65.1,33.7,65.2z M33.7,64.5c0-0.1,0-0.2,0-0.3
		C33.7,64.3,33.7,64.4,33.7,64.5L33.7,64.5z M28.2,70.3l-0.3-0.1l0,0H28C28.1,70.2,28.1,70.2,28.2,70.3z M76.9,69.5h-0.2
		c-0.1,0.7,0,1.2-0.1,2.1l0.1-0.3c0.1,0.1,0,0.4,0,0.7c-0.1,0-0.1,0-0.2,0.1c-0.1,0-0.2-0.1-0.2-0.1c-0.1,0-0.2,0-0.3,0
		c0.2,0.1,0.4,0.1,0.6,0.1c0.1,0,0,0.1,0,0.1h0.1l0,0c-0.1,0-0.1,0.1-0.1,0.3c0,0-0.1,0.7,0,0.8l-0.2,0.4c-0.2,0.7-0.1,0.8-0.2,1.5
		c0-0.2-0.1,0.1-0.1-0.4C76,75,76,75.2,76,75.2c-0.1,0.1-0.1,0.6-0.2,0.8c0,0.1,0.1,0.2,0,0.4l0,0c0,0-0.1,0.4,0,0.2
		c-0.5,0.6-0.9,1.8-1.3,2.3c-0.2,0.5-0.6,0.9-0.9,1.3c0,0,0,0,0-0.1c-0.4,0.5-0.1,0.4-0.6,0.9c-0.3,0.2,0.2-0.3,0-0.2
		c-0.2-0.1-0.5,0.7-0.9,1l0.1-0.1c-0.3,0.2-0.6,0.7-1,1.1l0,0c-0.2,0.4-0.7,1-1.1,1.4c0.1-0.2,0.2-0.2,0-0.2
		c-0.2,0.2,0.2,0.1-0.2,0.4c-0.2,0.1-0.5,0.3-0.6,0.2l0.4-0.3c-0.3,0.1-0.5,0.4-0.7,0.5v-0.1c-0.6,0.5-0.5,0.6-1.2,0.9h0.1
		c-0.3,0.3-0.4,0.1-0.7,0.4H67c-0.2,0.2-0.9,0.5-1.4,0.7c0.2-0.2,0.8-0.4,1.1-0.6c-0.2,0.2-0.9,0.4-1,0.5l0.3-0.2
		c-0.3,0.2-0.7,0.4-1.3,0.6c0-0.2-1.5,0.4-1.9,0.3c-1,0.4-2,0.3-3.2,0.6c0.4,0.1-0.3,0.1-0.2,0.2c-0.3,0-0.4,0-0.4,0h0.1H59l0,0
		h-0.8c-0.2,0,0.3-0.1,0.2-0.1c-0.6,0-0.3-0.1-0.7-0.1c0.1,0.1-0.2,0.1-0.5,0.1h0.5c-0.8,0.2-0.7-0.1-1.6,0l0.3-0.1
		c-0.4,0-1.6,0-2,0.1c-0.1,0-0.2-0.1,0-0.1c-1-0.1-2.3,0-3.1-0.3h0.1c-0.2,0-0.3,0-0.6-0.1c0,0,0.1,0,0-0.1c-0.1,0-0.5,0-0.8-0.2
		h0.2C50,87.1,49.8,87,49.7,87c0-0.2,0-0.3,0-0.5c0-1-0.1-2.3-0.2-3.7c-0.2-2.3-0.3-4.7-0.2-6.5c0.1-1,0.5-5.7,0.7-7.1v-0.1l0,0
		c0.5-0.3,0.9-0.6,1.4-0.9c-0.3,0.2-0.3,0-0.1-0.1h0.2c0.1-0.2-0.3,0.2,0-0.1c0.3-0.2,0.3-0.1,0.1,0.1l0.3-0.3v0.1
		c0.1-0.2,0.7-0.4,0.8-0.6l0,0c0.8-0.6,1.1-1,1.7-1.6c0-0.1,0.2-0.3,0.3-0.5c0.4-0.4,0.9-0.9,1.3-1.5c0.3-0.4,0-0.2,0.1-0.4
		c0.1,0,0.5-0.6,0.3-0.3c0.4-0.8,0.6-1,1-2c-0.1,0.1-0.1,0.2-0.1,0.1c0.1-0.2,0.2-0.4,0.2-0.4l0,0c0.4-1.2,1.3-2.6,1.3-3.6l0.2-1
		c0.1-0.5,0,0.3,0.1,0c0.1-1.1,0.3-1.7,0.4-2.6c0,0,0-0.1,0-0.2c0.1,0.1,0.3,0.2,0.4,0.3l0.3,0.1c0.1,0,0.1,0.1,0,0.1
		c0.2,0.2,0,0,0.2,0c0.1,0.1,0.2,0.2,0.1,0.1c0.5,0.2,1.4,0.4,1.8,0.7h-0.1c0.2,0.1,0.3,0.1,0.4,0.1c-0.1,0.5-0.3,0.9-0.2,1.4
		c0,0,0,0,0-0.1c0,0.3-0.1,1.1,0.1,1c-0.1,0,0,0.6,0.1,1h-0.1c0.1,0.3,0.2,0.3,0.2,0.7c0,0.1,0,0.1,0,0c0,0.3,0.1,0.2,0.1,0.6
		l-0.1-0.1c0,0.3,0.1,0.3,0.2,0.4c0.1,0.2,0.1,0.6,0.1,0.6s0.2,0.2,0.2,0.4c0,0,0,0-0.1-0.1c0.1,0.5,0.3,0.7,0.4,1.1v0.1
		c-0.2-0.4-0.3-0.7-0.2-0.7c-0.1,0,0,0.3-0.2,0.1c0.2,0.2,0.4,0.6,0.5,1l0,0l0,0l0.1,0.2l0.1,0.3c0,0.1,0.2,0.4,0.2,0.5
		c0.1,0,0.2,0.2,0.1-0.1c0,0,0,0-0.1-0.1v-0.1l0,0L63.8,63c0.1,0.1,0.2,0.2,0.2,0.4c0.1,0,0.2,0.1,0.2,0.2c0,0.2,0.2,0.7,0.1,0.8
		c0.3,0.4,0.7,1,1,1.2c0.1,0.1,0.1,0.2,0.1,0.2c-0.1-0.1-0.1-0.2-0.2-0.2c0.2,0.2,0.5,0.7,0.7,0.7c0.2,0.3-0.2-0.1,0.1,0.3h-0.1
		c0.5,0.9,1.3,1,1.9,1.9l-0.1-0.1c0.9,0.9,2,1.6,3,2.3c0.3,0.2,0.3,0.2,0.6,0.2V71l0.4,0.1c0.5,0.1,0.7,0.6,1.4,0.7L73,71.7
		c0.2,0.1,0.7,0.2,0.7,0.3c0,0,0.1,0,0.2,0v0.1l0.6,0.1c0.4,0.1-0.1,0.2,0.5,0.3c0.2,0,0.7,0,0.6,0s-0.2-0.1-0.2-0.1h0.2
		c0,0,0.1-0.1,0.1-0.2h0.1l0.1-0.1h-0.2l0,0c0-0.1-0.1-0.1-0.3-0.2H75l-0.1-0.1l0.3,0.1c-0.2-0.1-0.3-0.1-0.4-0.1l-0.1-0.1h-0.4
		c0-0.1,0.2-0.1,0-0.2c-0.2,0,0.1,0.2-0.2,0.1c-0.2-0.1-0.1-0.2-0.3-0.2c0,0,0-0.1,0.1,0c-0.2,0-0.5-0.1-0.6-0.1
		c-0.2-0.1-0.6-0.2-0.5-0.3c-0.1,0-0.3,0-0.5-0.1c0.3,0-0.6-0.3-0.4-0.4c-0.3,0-0.7-0.4-1.1-0.5h0.1c-0.2-0.1-0.2-0.2-0.3-0.3
		c-0.1,0.1-0.4-0.1-0.6-0.2c-0.2-0.2,0.2,0,0.2-0.2c0,0.1-0.4-0.2-0.4-0.1c-0.1-0.2-0.1-0.1-0.2-0.3c-0.1,0.1-0.2-0.1-0.4-0.1
		c-0.2-0.3,0-0.2-0.3-0.3c-0.1-0.1,0.2,0,0.2,0c-0.3-0.2-0.2,0-0.3,0c-0.3-0.2-0.1-0.2-0.2-0.3c-0.2-0.1-0.4-0.2-0.6-0.3
		c0,0,0-0.1,0,0c-0.3-0.1-0.6-0.6-0.9-0.7V67c0,0.1-0.1,0.1-0.1,0.1c0-0.1-0.2-0.1-0.1-0.2C67,67,67,67,67,67l-0.1-0.1
		c0-0.2,0.2,0.1,0.2,0.1c-0.3-0.2-0.6-0.4-0.7-0.7c0-0.1,0.4,0.4,0.2,0.1l0.2,0.3c-0.1-0.3,0.2,0.2,0.1-0.1
		c-0.3-0.4-0.4-0.4-0.7-0.8c-0.1-0.1,0,0.1-0.2,0c-0.5-0.5-0.1-0.6-0.5-0.9c-0.1-0.1-0.3-0.1-0.4-0.4h0.2c-0.2-0.4-0.3-0.1-0.5-0.6
		c0.1,0.1,0.2,0.3,0.2,0.2c-0.1-0.3-0.2-0.2-0.3-0.4l0.1-0.1c-0.2-0.5-0.6-0.9-0.8-1.4c0,0,0.1,0.1,0.1,0c-0.3-0.6-0.5-1.4-0.6-2.1
		l-0.2-0.2c0-0.1,0-0.1,0-0.1c0-0.3-0.1,0-0.1-0.1s0-0.2,0-0.1c-0.1-0.5-0.3-1.3-0.2-1.8v0.1c0-0.4-0.2-0.4-0.1-0.8v0.1
		c0-0.6,0.1-1.2,0.2-1.7c0.8,0.2,1.7,0.3,2.3,0.4c0.1-0.1,0.9,0.1,0.9-0.1c0.5,0.1,0.4,0.1,1.1,0.1c0.2,0,0.3-0.1,0.5-0.1v0.1
		l0.3-0.1l0.2,0.1h0.2c-0.1,0-0.2,0-0.2,0c0.3-0.1,0.8-0.1,0.8,0l0.8-0.2c0,0-0.1,0.1-0.2,0.1c0.4-0.2,0.1,0.1,0.5-0.1
		c-0.1,0,0-0.1,0-0.1c0.2,0,0.6-0.1,1-0.2l-0.1,0.1c0.5-0.1,1-0.3,1.6-0.5c0.3,0.4,0.6,0.7,0.8,1.2c0.2,0.2-0.2-0.5-0.1-0.3
		c0.2,0.4,0.3,0.9,0.3,1c0.2,0.6,0.4,0.5,0.6,1.1c0-0.1,0-0.2,0.3,0.2c0.2,0.4,0.1,0.6,0,0.3c-0.1-0.1-0.1-0.2-0.1-0.2
		c-0.1-0.1-0.2-0.3-0.1-0.1h0.1c0.1,0.2,0.3,0.8,0.2,0.7c0.2,0.3,0.1,0.1,0-0.1c0.2,0.5,0.3,0.9,0.4,1.5c0-0.1,0-0.2,0-0.1
		c0.2,0.9,0.2,0.4,0.3,0.9c0,0.3-0.2-0.1,0.1,0.5c0.1,0.4-0.1,0.1-0.1,0c0.2,0.5,0.3,1,0.3,1.3l0.2-0.3c0.1,0.2,0.1,0.3,0.1,0.5
		v-0.2c0,0.2,0,0.3,0,0.3c0.1,0.2,0.1-0.2,0.2,0.2c0,0.2,0.1,0.7,0.1,0.8c-0.1-0.7-0.1,0.1-0.2-0.5c0,0.1,0.1,0.3,0.1,0.4
		c0,0,0,0,0-0.1c0,0.7,0.2,0.3,0.2,1c-0.1-0.1-0.1,0.2-0.1,0.3c0-0.3,0.1-0.2,0.1,0.1c0,0.5,0.1,0.5,0.1,0.7v-0.3
		c0.1,0.1,0.1,0.3,0.1,0.6c0,0,0-0.3-0.1-0.2c0.1,0.3-0.1,0.8,0,1.3c0,0.2-0.1,0-0.1,0.2c0.1,0.6-0.1,0.6,0,1.2
		c0.1-0.2,0.1-0.2,0.1,0.2l-0.1-1l0.1,0.6c0-0.3-0.1-0.6-0.1-0.8c0.1,0.3,0,0.3,0.1,0.1c-0.1,0.4,0.1,0.8,0,1.2L76.9,69.5z
		 M63.8,61.7l0.1,0.3c0,0,0,0-0.1,0C63.9,61.9,63.8,61.8,63.8,61.7L63.8,61.7z M63.8,63.1l0.1,0.2l0,0h-0.1
		C63.8,63.1,63.8,63.1,63.8,63.1z M64.1,62.3L64.1,62.3l0.1,0.2L64.1,62.3L64.1,62.3z M91.8,56.7c0,0.1,0.1,0.2,0.1,0.2
		c0,0.1,0,0.2-0.1,0c0.1,0.4,0.1,0.3,0.1,0.7c0,0,0-0.1-0.1-0.1c0.1,0.2,0.1,0.4,0.1,0.7c0,0,0,0,0-0.1c0,0.6,0.1,1,0,1.6
		c-0.1-0.2-0.1,0.2-0.2,0.2v0.3l0.1-0.1c0,0.3,0,0.5-0.1,0.8v-0.2l-0.1,0.5l0.1-0.3c0,0.3,0.1,0,0,0.4c0-0.1-0.1,0.3-0.2,0.4l0,0
		c0,0.2,0,0.3-0.1,0.5c-0.1,0-0.1-0.1-0.1,0c0,0.2-0.2,0.7-0.2,0.8c0-0.1-0.1-0.1-0.1-0.1V63c-0.1,0.1-0.1,0.1-0.1,0.1
		c-0.2,0.4,0.2-0.1-0.1,0.4c0,0,0,0,0-0.1c-0.2,0.5-0.3,0.9-0.5,1.3c-0.2,0.1,0.1-0.4,0-0.3c-0.3,0.6-0.4,1.3-0.8,1.8l0.1-0.1
		c0.1,0.2-0.3,0.3-0.4,0.6c0-0.1,0-0.1,0-0.1c-0.3,0.3-0.4,0.8-0.8,1.2v-0.1c-0.2,0.2-0.5,0.5-0.7,0.7c0,0.1-0.1,0.2,0,0.2
		c-0.7,0.5-1.2,1.1-1.8,1.4c0.1-0.1,0.2-0.2,0.1-0.1l-0.5,0.4c0.1,0,0.1,0,0.2,0c0,0.1-0.2,0.2-0.3,0.3c0.2-0.2-0.1-0.1-0.2-0.1v0.1
		c-0.3,0.1,0,0.1-0.4,0.3l0,0L84.4,71c-0.1,0,0.2-0.1,0.1-0.2c-0.2,0.1-0.4,0.4-0.6,0.4l0.3-0.2c-0.2,0-0.3,0.1-0.4,0.1l-0.4,0.1
		h0.1c-0.2,0.3-0.6,0.2-1,0.4c0.4-0.2,0.1-0.1,0.1-0.2c-0.1,0-0.3,0-0.2,0c-0.2,0.1-0.3,0-0.6,0.2c0,0-0.2,0.1-0.2,0
		c-0.2,0.1,0.1,0,0.1,0.1c-0.4,0.2-0.9,0-1.5,0.2c-0.5,0.1-0.6,0.2-1.1,0.3c-0.2,0,0.1-0.1,0.1-0.1c-0.3,0-0.4,0-0.7,0
		c0.1,0,0-0.1-0.1-0.1c-0.2,0-0.1,0.1-0.4,0c0,0,0.1-0.1,0.2-0.1L77.5,72c-0.1-0.1,0.2-0.1,0.2-0.1c-0.2,0-0.4,0-0.6,0v-0.1h0.1
		h-0.1c0-0.7,0.1-1.4,0.1-2c0.1,0-0.1,1.2,0,1.2c0.1-1,0-1.6,0-2.7c0-0.3,0.1,0.2,0.1,0.2c-0.1-1,0-2-0.2-2.9c0,0,0,0.1,0.1,0.2
		c0-0.2,0-0.4-0.1-0.4v0.2c0,0.3-0.3-0.7-0.3-0.7c0.2,0.3-0.1-0.9,0.2-0.4c0-0.1-0.1-0.3-0.1-0.2c0-0.2,0-0.2,0.1-0.1
		c-0.1-0.6-0.2-0.4-0.2-1c0,0,0.1,0.1,0.1,0.2c-0.1-0.3-0.2-0.6-0.3-1.1c0,0,0,0,0.1,0.1c-0.2-0.8-0.5-1.4-0.7-2.3
		c0.2,0.2-0.1-0.3,0-0.4l-0.2-0.5v0.2c-0.1-0.4-0.3-0.8-0.5-1.1l0.2,0.3L75.2,58l0.2,0.4c-0.2-0.4-0.1,0.1-0.3-0.5
		c0.1,0.1-0.2-0.4-0.2-0.6l0.2,0.2c-0.1-0.2-0.1-0.3-0.2-0.2c-0.1-0.2-0.2-0.4-0.4-0.7c0-0.1,0.1,0,0.1,0c-0.2-0.2-0.4-0.9-0.7-1.1
		c0.1,0.1,0.1,0,0.1,0l-0.2-0.1c-0.1-0.2-0.1-0.2,0-0.2c-0.3-0.5,0,0.2-0.4-0.4c0,0,0,0,0.1,0.1c-0.1-0.1-0.1-0.2-0.2-0.2l0,0
		c0.2-0.1,0.2,0,0.1,0.1l0.3-0.1v0.1c0.1-0.1,0.5-0.1,0.7-0.3l0,0c0.6-0.3,0.9-0.5,1.3-0.8c0-0.1,0.2-0.2,0.3-0.3
		c0.3-0.2,0.7-0.4,1.1-0.7c0.2-0.2,0-0.1,0.1-0.2c0.1,0,0.4-0.3,0.3-0.1c0.4-0.4,0.5-0.5,1-1.1c-0.1,0-0.2,0.1-0.1,0
		s0.2-0.2,0.2-0.2l0,0c0.5-0.7,1.3-1.4,1.5-2.1l0,0c0.1-0.2,0.2-0.4,0.2-0.6c0.1-0.3,0,0.2,0.1,0c0.2-0.7,0.5-1.1,0.6-1.7
		c0.4-0.4,0.5-1.6,0.7-2.2h-0.1l0,0c0.4,0.1,0.7,0.3,1.1,0.5s0.4-0.1,0.9,0.2h-0.2c0.9,0.4,1.8,0.9,2.6,1.5c-0.1,0-0.1,0-0.2,0
		c0.1,0.2,0.6,0.5,0.6,0.4c0.1,0.1,0,0.1,0.1,0.1c0.2,0.1,0.4,0.3,0.5,0.4h-0.1c0.1,0.1,0.4,0.5,0.4,0.3c0.2,0.3,0.5,0.5,0.7,0.7
		c0.2,0.1,0.3,0.5,0.5,0.5c-0.1,0.1,0.3,0.6,0.5,0.7c-0.1,0,0.1,0.2,0,0.1c0.2,0.2,0.3,0.4,0.3,0.3c0.1,0.5,0.6,0.8,0.6,1.1
		c0.5,0.6,0.8,1.3,1.1,2c-0.1,0-0.3-0.7-0.4-0.6c0.3,0.6,0.6,0.9,0.7,1.6c0,0.2-0.1-0.1-0.1-0.1c0.2,0.6,0.4,1.2,0.5,1.8
		c0,0,0-0.1-0.1-0.1c0,0.1,0,0.3,0.1,0.2V56c0.1-0.2,0.2,0.4,0.3,0.5C91.8,56.3,92.1,57,91.8,56.7L91.8,56.7z M88.5,48L88.5,48
		C88.6,48.2,88.7,48.1,88.5,48z M82.7,44.1c-0.1-0.1-0.2-0.2-0.4-0.2C82.5,44,82.6,44.1,82.7,44.1z M82.8,71.8
		C82.6,71.9,82.8,71.9,82.8,71.8C82.9,71.8,83,71.8,82.8,71.8z M91.5,61.6v-0.2C91.5,61.6,91.4,61.6,91.5,61.6z M64.2,52.6
		L64.2,52.6L64.2,52.6L64.2,52.6L64.2,52.6z M92.5,57.1L92.5,57.1C92.5,57.2,92.5,57.2,92.5,57.1z M89.6,49.4L89.6,49.4L89.6,49.4
		L89.6,49.4z M76.5,43.2L76.5,43.2L76.5,43.2z M64.4,50.4l-0.1,0.2l0.1-0.1V50.4L64.4,50.4z M76.5,43.1c0.3,0.1-0.4,0.1,0,0.2
		C76.5,43.2,76.9,43.1,76.5,43.1z M88.2,47.7L88.2,47.7L88.2,47.7L88.2,47.7L88.2,47.7z M89.1,49.9L89.1,49.9L89.1,49.9L89.1,49.9z
		 M78.4,72.1L78.4,72.1L78.4,72.1L78.4,72.1L78.4,72.1z M88.2,48.7l-0.1-0.2l0,0L88.2,48.7z M75.6,72.1L75.6,72.1L75.6,72.1
		L75.6,72.1z M78.3,72.1L78.3,72.1L78.3,72.1L78.3,72.1L78.3,72.1z M91.7,55.8L91.7,55.8C91.6,55.7,91.6,55.7,91.7,55.8z M64,63.3
		L64,63.3L64,63.3L64,63.3L64,63.3L64,63.3z M67.2,67C67.2,66.9,67.5,67.2,67.2,67L67.2,67z"/>
</g>
<g>
	<g>
		<path class="st6" d="M145.1,64.5c-2.1,2.2-4.6,3.1-7.5,3.1c-2.8,0-5.3-1-7.1-2.9c-2.7-2.7-2.6-5.7-2.6-10.9s-0.1-8.3,2.6-10.9
			c1.9-1.9,4.3-2.9,7.1-2.9c5.8,0,9.1,3.8,9.9,8.5h-4.2c-0.7-3-2.7-4.8-5.8-4.8c-1.6,0-3.1,0.6-4,1.7c-1.4,1.4-1.6,3-1.6,8.5
			s0.3,7.1,1.6,8.5c0.9,1,2.4,1.6,4,1.6c1.8,0,3.3-0.7,4.4-1.9c1-1.1,1.4-2.5,1.4-4.3v-1.6h-5.8v-3.5h10v4.1
			C147.5,60.3,146.8,62.5,145.1,64.5L145.1,64.5z"/>
		<path class="st6" d="M186.9,67.3h-3.6l-5.6-19.1l-5.5,19.1h-3.6l-7.1-27.2h4.3l4.8,19.4l5.5-19.4h3.3l5.5,19.4l4.8-19.4h4.3
			L186.9,67.3L186.9,67.3z"/>
		<path class="st6" d="M209.5,67.3V40.1h4.1v27.2H209.5L209.5,67.3z"/>
		<path class="st6" d="M248.8,67.3l-12.6-19.2v19.2h-4.1V40.1h3.8l12.7,19.1V40.1h4.1v27.2H248.8z"/>
		<path class="st6" d="M287.9,67.3l-12.6-19.2v19.2h-4.1V40.1h3.8l12.6,19.1V40.1h4.1v27.2H287.9z"/>
		<path class="st6" d="M310.3,67.3V40.1h17.4v3.7h-13.2v8h11.3v3.7h-11.3v8.2h13.2v3.7L310.3,67.3L310.3,67.3z"/>
		<path class="st6" d="M354,43.8v23.5h-4.1V43.8h-7.5v-3.7h19.1v3.7H354L354,43.8z"/>
		<path class="st6" d="M387,43.8v23.5h-4.1V43.8h-7.5v-3.7h19.1v3.7H387L387,43.8z"/>
	</g>
	<g>
		<path class="st2" d="M207.3,99.4c-1.8,0-3.2-0.6-4.3-1.8c-1.6-1.6-1.6-3.6-1.6-6.4s-0.1-4.8,1.6-6.4c1.1-1.1,2.6-1.8,4.3-1.8
			c3,0,5.3,1.7,5.9,5.1H210c-0.3-1.3-1.1-2.3-2.7-2.3c-0.9,0-1.6,0.3-2,0.9c-0.6,0.6-0.8,1.4-0.8,4.6s0.1,3.8,0.8,4.6
			c0.4,0.5,1.1,0.9,2,0.9c1.6,0,2.4-1,2.7-2.3h3.2C212.7,97.7,210.2,99.4,207.3,99.4z"/>
		<path class="st2" d="M231.2,99.3v-6.7h-5.4v6.7h-3.1V83.2h3.1v6.6h5.4v-6.6h3.1v16.1H231.2z"/>
		<path class="st2" d="M250.6,99.4c-3.3,0-5.9-2.2-5.9-5.6V83.3h3.1v10.5c0,1.9,1.1,3,2.8,3s2.8-1.1,2.8-3V83.3h3.1v10.5
			C256.5,97.2,253.9,99.4,250.6,99.4z"/>
		<path class="st2" d="M275.3,99.3l-3.1-6.4h-2.3v6.4h-3.1V83.2h6.3c3.3,0,5.2,2.2,5.2,4.9c0,2.3-1.4,3.6-2.9,4.2l3.6,6.9
			L275.3,99.3L275.3,99.3z M272.9,86.1H270v4.3h2.9c1.4,0,2.3-0.9,2.3-2.1C275.2,86.9,274.3,86.1,272.9,86.1z"/>
		<path class="st2" d="M293.7,99.4c-1.8,0-3.2-0.6-4.3-1.8c-1.6-1.6-1.6-3.6-1.6-6.4s-0.1-4.8,1.6-6.4c1.1-1.1,2.6-1.8,4.3-1.8
			c3,0,5.3,1.7,5.9,5.1h-3.2c-0.3-1.3-1.1-2.3-2.7-2.3c-0.9,0-1.6,0.3-2,0.9c-0.6,0.6-0.8,1.4-0.8,4.6s0.1,3.8,0.8,4.6
			c0.4,0.5,1.1,0.9,2,0.9c1.6,0,2.4-1,2.7-2.3h3.2C299.1,97.7,296.7,99.4,293.7,99.4z"/>
		<path class="st2" d="M317.7,99.3v-6.7h-5.4v6.7h-3.1V83.2h3.1v6.6h5.4v-6.6h3.1v16.1H317.7z"/>
	</g>
</g>
</svg>
