<?xml version="1.0" encoding="UTF-8"?>
<svg id="Layer_1" data-name="Layer 1" xmlns="http://www.w3.org/2000/svg" viewBox="0 0 321.76 99.75">
  <defs>
    <style>
      .cls-1 {
        fill: #ff6d2d;
      }

      .cls-2 {
        fill: #9bacb6;
      }
    </style>
  </defs>
  <g>
    <path class="cls-1" d="M63.83,30.25l-11.12-11.19c-.78-.78-1.81-1.17-2.83-1.16-1.02,0-2.05,.38-2.83,1.16l-11.12,11.19,6.29,6.29,7.66-7.66,7.66,7.66,6.29-6.29Z"/>
    <g>
      <path class="cls-2" d="M57.54,63.21l-7.66,7.66-7.66-7.66-6.29,6.29,11.12,11.19c.78,.78,1.81,1.17,2.83,1.16,1.02,0,2.05-.38,2.83-1.16l11.12-11.19-6.29-6.29Z"/>
      <path class="cls-2" d="M80.69,47.05l-11.19-11.12-6.29,6.29,7.66,7.66-7.66,7.66,6.29,6.29,11.19-11.12c.78-.78,1.17-1.81,1.16-2.83,0-1.02-.38-2.05-1.16-2.83Z"/>
      <path class="cls-2" d="M36.54,57.54l-7.66-7.66,7.66-7.66-6.29-6.29-11.19,11.12c-.78,.78-1.17,1.81-1.16,2.83,0,1.02,.38,2.05,1.16,2.83l11.19,11.12,6.29-6.29Z"/>
    </g>
  </g>
  <path class="cls-1" d="M96.1,31.11c-2.51-6.19-6.2-11.74-10.96-16.5-4.76-4.76-10.31-8.45-16.5-10.96-5.98-2.42-12.29-3.65-18.77-3.65s-12.79,1.23-18.77,3.65c-6.19,2.51-11.74,6.2-16.5,10.96-4.76,4.76-8.45,10.31-10.96,16.5-2.42,5.98-3.65,12.29-3.65,18.77s1.23,12.79,3.65,18.77c2.51,6.19,6.2,11.74,10.96,16.5,4.76,4.76,10.31,8.45,16.5,10.96,5.98,2.42,12.29,3.65,18.77,3.65s12.79-1.23,18.77-3.65c6.19-2.51,11.74-6.19,16.5-10.96s8.45-10.31,10.96-16.5c2.42-5.98,3.65-12.29,3.65-18.77s-1.23-12.79-3.65-18.77Zm.88,18.77c0,6.12-1.16,12.08-3.45,17.72-2.37,5.84-5.85,11.08-10.35,15.58s-9.74,7.98-15.58,10.35c-5.64,2.29-11.6,3.45-17.72,3.45s-12.08-1.16-17.72-3.45c-5.84-2.37-11.08-5.85-15.58-10.35-4.5-4.5-7.98-9.74-10.35-15.58-2.29-5.64-3.45-11.61-3.45-17.72s1.16-12.08,3.45-17.72c2.37-5.84,5.85-11.08,10.35-15.58,4.5-4.5,9.74-7.98,15.58-10.35,5.64-2.29,11.61-3.45,17.72-3.45s12.08,1.16,17.72,3.45c5.84,2.37,11.08,5.85,15.58,10.35,4.5,4.5,7.98,9.74,10.35,15.58,2.29,5.64,3.45,11.61,3.45,17.72Z"/>
  <path class="cls-2" d="M19.08,80.67c-4.16-4.16-7.38-9.01-9.57-14.41-2.12-5.22-3.19-10.73-3.19-16.39,0-5.66,1.07-11.17,3.19-16.39,2.19-5.4,5.41-10.25,9.57-14.41s9.01-7.38,14.41-9.57c5.22-2.12,10.73-3.19,16.39-3.19,5.66,0,11.17,1.07,16.39,3.19,5.4,2.19,10.25,5.41,14.41,9.57,4.16,4.16,7.38,9.01,9.57,14.41,2.12,5.22,3.19,10.73,3.19,16.39,0,5.66-1.07,11.17-3.19,16.39-2.19,5.4-5.41,10.25-9.57,14.41s-9.01,7.38-14.41,9.57c-5.22,2.12-10.73,3.19-16.39,3.19-5.66,0-11.17-1.07-16.39-3.19-5.4-2.19-10.25-5.41-14.41-9.57ZM77.34,22.41c-7.34-7.34-17.09-11.38-27.46-11.38s-20.13,4.04-27.46,11.38-11.38,17.09-11.38,27.46c0,10.37,4.04,20.13,11.38,27.46,7.34,7.34,17.09,11.38,27.46,11.38,10.37,0,20.13-4.04,27.46-11.38,7.34-7.34,11.38-17.09,11.38-27.46s-4.04-20.13-11.38-27.46Z"/>
  <g>
    <path class="cls-2" d="M117.39,29.12c0-.32,.29-.57,.61-.57h.8l13.27,14.1h.03v-13.18c0-.32,.26-.61,.61-.61h2.94c.32,0,.61,.29,.61,.61v21.48c0,.32-.29,.57-.61,.57h-.77l-13.34-14.65h-.03v13.72c0,.32-.26,.61-.61,.61h-2.9c-.32,0-.61-.29-.61-.61V29.12Z"/>
    <path class="cls-2" d="M151.28,28.54c6.38,0,11.49,5.14,11.49,11.52s-5.11,11.46-11.49,11.46-11.46-5.07-11.46-11.46,5.07-11.52,11.46-11.52Zm0,18.83c4.02,0,7.34-3.29,7.34-7.31s-3.32-7.37-7.34-7.37-7.31,3.35-7.31,7.37,3.29,7.31,7.31,7.31Z"/>
    <path class="cls-2" d="M166.31,29.47c0-.32,.26-.61,.61-.61h9.13c3.83,0,6.96,3.06,6.96,6.86,0,2.94-1.95,5.33-4.72,6.45l4.37,8.11c.22,.41,0,.93-.54,.93h-3.35c-.29,0-.45-.16-.51-.29l-4.24-8.46h-3.54v8.14c0,.32-.29,.61-.61,.61h-2.94c-.35,0-.61-.29-.61-.61V29.47Zm9.38,9.57c1.69,0,3.16-1.47,3.16-3.25,0-1.69-1.47-3.1-3.16-3.1h-5.2v6.35h5.2Z"/>
    <path class="cls-2" d="M189.92,32.69h-4.88c-.35,0-.61-.29-.61-.61v-2.62c0-.32,.26-.61,.61-.61h13.94c.35,0,.61,.29,.61,.61v2.62c0,.32-.26,.61-.61,.61h-4.88v17.9c0,.32-.29,.61-.61,.61h-2.97c-.32,0-.61-.29-.61-.61v-17.9Z"/>
    <path class="cls-2" d="M202.27,29.47c0-.32,.29-.61,.61-.61h2.97c.35,0,.61,.29,.61,.61v8.46h10.4v-8.46c0-.32,.26-.61,.61-.61h2.94c.32,0,.61,.29,.61,.61v21.12c0,.32-.29,.61-.61,.61h-2.94c-.35,0-.61-.29-.61-.61v-8.81h-10.4v8.81c0,.32-.26,.61-.61,.61h-2.97c-.32,0-.61-.29-.61-.61V29.47Z"/>
    <path class="cls-2" d="M232.58,29.47c0-.32,.26-.61,.61-.61h7.5c3.92,0,7.15,3.19,7.15,7.05s-3.22,7.18-7.12,7.18h-3.99v7.5c0,.32-.29,.61-.61,.61h-2.94c-.35,0-.61-.29-.61-.61V29.47Zm7.85,9.73c1.79,0,3.29-1.44,3.29-3.32,0-1.76-1.5-3.1-3.29-3.1h-3.7v6.41h3.7Z"/>
    <path class="cls-2" d="M260.69,28.54c6.38,0,11.49,5.14,11.49,11.52s-5.11,11.46-11.49,11.46-11.46-5.07-11.46-11.46,5.07-11.52,11.46-11.52Zm0,18.83c4.02,0,7.34-3.29,7.34-7.31s-3.32-7.37-7.34-7.37-7.31,3.35-7.31,7.37,3.29,7.31,7.31,7.31Z"/>
    <path class="cls-2" d="M275.72,29.47c0-.32,.29-.61,.61-.61h2.97c.32,0,.61,.29,.61,.61v21.12c0,.32-.29,.61-.61,.61h-2.97c-.32,0-.61-.29-.61-.61V29.47Z"/>
    <path class="cls-2" d="M285.07,29.12c0-.32,.29-.57,.61-.57h.8l13.27,14.1h.03v-13.18c0-.32,.26-.61,.61-.61h2.94c.32,0,.61,.29,.61,.61v21.48c0,.32-.29,.57-.61,.57h-.77l-13.34-14.65h-.03v13.72c0,.32-.26,.61-.61,.61h-2.9c-.32,0-.61-.29-.61-.61V29.12Z"/>
    <path class="cls-2" d="M312.09,32.69h-4.88c-.35,0-.61-.29-.61-.61v-2.62c0-.32,.26-.61,.61-.61h13.94c.35,0,.61,.29,.61,.61v2.62c0,.32-.26,.61-.61,.61h-4.88v17.9c0,.32-.29,.61-.61,.61h-2.97c-.32,0-.61-.29-.61-.61v-17.9Z"/>
    <path class="cls-2" d="M123.36,56.52c1.94,0,3.35,.62,4.66,1.79,.17,.15,.17,.38,.02,.54l-1.17,1.21c-.13,.15-.33,.15-.48,0-.81-.71-1.89-1.14-2.96-1.14-2.46,0-4.29,2.06-4.29,4.48s1.85,4.45,4.31,4.45c1.15,0,2.14-.44,2.94-1.1,.15-.13,.37-.12,.48,0l1.19,1.23c.15,.13,.12,.38-.02,.52-1.31,1.27-2.96,1.87-4.68,1.87-3.85,0-6.95-3.06-6.95-6.91s3.1-6.95,6.95-6.95Z"/>
    <path class="cls-2" d="M136.44,56.52c3.85,0,6.93,3.1,6.93,6.95s-3.08,6.91-6.93,6.91-6.91-3.06-6.91-6.91,3.06-6.95,6.91-6.95Zm0,11.35c2.42,0,4.43-1.98,4.43-4.41s-2-4.45-4.43-4.45-4.41,2.02-4.41,4.45,1.98,4.41,4.41,4.41Z"/>
    <path class="cls-2" d="M147.3,56.81c.02-.15,.13-.29,.35-.29h.31c.15,0,.27,.08,.33,.19l4.23,9.08h.06l4.23-9.08c.06-.12,.15-.19,.33-.19h.31c.21,0,.33,.13,.35,.29l2.27,12.93c.06,.27-.1,.44-.35,.44h-1.75c-.17,0-.33-.15-.37-.29l-1.14-7.29h-.06l-3.37,7.56c-.04,.12-.15,.21-.33,.21h-.35c-.17,0-.27-.1-.33-.21l-3.41-7.56h-.06l-1.12,7.29c-.02,.13-.17,.29-.35,.29h-1.73c-.25,0-.4-.17-.37-.44l2.29-12.93Z"/>
    <path class="cls-2" d="M164.48,56.81c.02-.15,.13-.29,.35-.29h.31c.15,0,.27,.08,.33,.19l4.23,9.08h.06l4.23-9.08c.06-.12,.15-.19,.33-.19h.31c.21,0,.33,.13,.35,.29l2.27,12.93c.06,.27-.1,.44-.35,.44h-1.75c-.17,0-.33-.15-.37-.29l-1.14-7.29h-.06l-3.37,7.56c-.04,.12-.15,.21-.33,.21h-.35c-.17,0-.27-.1-.33-.21l-3.41-7.56h-.06l-1.12,7.29c-.02,.13-.17,.29-.35,.29h-1.73c-.25,0-.4-.17-.37-.44l2.29-12.93Z"/>
    <path class="cls-2" d="M179.69,57.08c0-.19,.17-.37,.37-.37h1.83c.21,0,.37,.17,.37,.37v7.87c0,1.64,1.12,2.92,2.79,2.92s2.81-1.29,2.81-2.91v-7.89c0-.19,.15-.37,.37-.37h1.83c.19,0,.37,.17,.37,.37v8.01c0,2.92-2.33,5.29-5.37,5.29s-5.35-2.37-5.35-5.29v-8.01Z"/>
    <path class="cls-2" d="M193.72,56.87c0-.19,.17-.35,.37-.35h.48l8.01,8.51h.02v-7.95c0-.19,.15-.37,.37-.37h1.77c.19,0,.37,.17,.37,.37v12.95c0,.19-.17,.35-.37,.35h-.46l-8.04-8.83h-.02v8.27c0,.19-.15,.37-.37,.37h-1.75c-.19,0-.37-.17-.37-.37v-12.95Z"/>
    <path class="cls-2" d="M208.21,57.08c0-.19,.17-.37,.37-.37h1.79c.19,0,.37,.17,.37,.37v12.74c0,.19-.17,.37-.37,.37h-1.79c-.19,0-.37-.17-.37-.37v-12.74Z"/>
    <path class="cls-2" d="M216.43,59.02h-2.94c-.21,0-.37-.17-.37-.37v-1.58c0-.19,.15-.37,.37-.37h8.41c.21,0,.37,.17,.37,.37v1.58c0,.19-.15,.37-.37,.37h-2.94v10.8c0,.19-.17,.37-.37,.37h-1.79c-.19,0-.37-.17-.37-.37v-10.8Z"/>
    <path class="cls-2" d="M227.86,63.7l-4.39-6.43c-.15-.25,0-.56,.31-.56h1.96c.15,0,.25,.1,.31,.17l3.08,4.43,3.08-4.43c.06-.08,.15-.17,.31-.17h1.98c.31,0,.46,.31,.31,.56l-4.45,6.41v6.14c0,.19-.17,.37-.37,.37h-1.77c-.21,0-.37-.17-.37-.37v-6.12Z"/>
    <path class="cls-2" d="M247.49,56.52c1.94,0,3.35,.62,4.66,1.79,.17,.15,.17,.38,.02,.54l-1.17,1.21c-.13,.15-.33,.15-.48,0-.81-.71-1.89-1.14-2.96-1.14-2.46,0-4.29,2.06-4.29,4.48s1.85,4.45,4.31,4.45c1.15,0,2.14-.44,2.94-1.1,.15-.13,.37-.12,.48,0l1.19,1.23c.15,.13,.12,.38-.02,.52-1.31,1.27-2.96,1.87-4.68,1.87-3.85,0-6.95-3.06-6.95-6.91s3.1-6.95,6.95-6.95Z"/>
    <path class="cls-2" d="M254.68,57.08c0-.19,.17-.37,.37-.37h1.79c.21,0,.37,.17,.37,.37v5.1h6.27v-5.1c0-.19,.15-.37,.37-.37h1.77c.19,0,.37,.17,.37,.37v12.74c0,.19-.17,.37-.37,.37h-1.77c-.21,0-.37-.17-.37-.37v-5.31h-6.27v5.31c0,.19-.15,.37-.37,.37h-1.79c-.19,0-.37-.17-.37-.37v-12.74Z"/>
    <path class="cls-2" d="M268.91,57.08c0-.19,.17-.37,.37-.37h1.83c.21,0,.37,.17,.37,.37v7.87c0,1.64,1.12,2.92,2.79,2.92s2.81-1.29,2.81-2.91v-7.89c0-.19,.15-.37,.37-.37h1.83c.19,0,.37,.17,.37,.37v8.01c0,2.92-2.33,5.29-5.37,5.29s-5.35-2.37-5.35-5.29v-8.01Z"/>
    <path class="cls-2" d="M282.55,57.08c0-.19,.15-.37,.37-.37h5.5c2.31,0,4.2,1.85,4.2,4.14,0,1.77-1.17,3.21-2.85,3.89l2.64,4.89c.13,.25,0,.56-.33,.56h-2.02c-.17,0-.27-.1-.31-.17l-2.56-5.1h-2.14v4.91c0,.19-.17,.37-.37,.37h-1.77c-.21,0-.37-.17-.37-.37v-12.74Zm5.66,5.77c1.02,0,1.91-.89,1.91-1.96,0-1.02-.89-1.87-1.91-1.87h-3.14v3.83h3.14Z"/>
    <path class="cls-2" d="M301.33,56.52c1.94,0,3.35,.62,4.66,1.79,.17,.15,.17,.38,.02,.54l-1.17,1.21c-.13,.15-.33,.15-.48,0-.81-.71-1.89-1.14-2.96-1.14-2.46,0-4.29,2.06-4.29,4.48s1.85,4.45,4.31,4.45c1.15,0,2.14-.44,2.94-1.1,.15-.13,.37-.12,.48,0l1.19,1.23c.15,.13,.12,.38-.02,.52-1.31,1.27-2.96,1.87-4.68,1.87-3.85,0-6.95-3.06-6.95-6.91s3.1-6.95,6.95-6.95Z"/>
    <path class="cls-2" d="M308.53,57.08c0-.19,.17-.37,.37-.37h1.79c.21,0,.37,.17,.37,.37v5.1h6.27v-5.1c0-.19,.15-.37,.37-.37h1.77c.19,0,.37,.17,.37,.37v12.74c0,.19-.17,.37-.37,.37h-1.77c-.21,0-.37-.17-.37-.37v-5.31h-6.27v5.31c0,.19-.15,.37-.37,.37h-1.79c-.19,0-.37-.17-.37-.37v-12.74Z"/>
  </g>
</svg>