<?xml version="1.0" encoding="UTF-8"?>
<svg id="Layer_1" data-name="Layer 1" xmlns="http://www.w3.org/2000/svg" viewBox="0 0 600.45 131.73">
  <defs>
    <style>
      .cls-1 {
        fill: #004cfd;
      }

      .cls-2 {
        fill: #0fe6fa;
      }

      .cls-3 {
        fill: #089bff;
      }

      .cls-4 {
        fill: #0e2c7d;
      }
    </style>
  </defs>
  <g id="NPM_Logotype_V2" data-name="NPM Logotype V2">
    <path class="cls-4" d="M235.55,4.51h11.53V57.85h-9.57l-25.33-33.1V57.85h-11.53V4.51h9.49l25.41,33.18V4.51Z"/>
    <path class="cls-4" d="M252.42,38.24c0-11.53,9.26-20.78,20.86-20.78s20.71,9.26,20.71,20.78-9.25,20.78-20.71,20.78-20.86-9.26-20.86-20.78Zm29.96,0c0-5.57-3.92-9.73-9.1-9.73s-9.26,4.16-9.26,9.73,3.92,9.73,9.26,9.73,9.1-4.24,9.1-9.73Z"/>
    <path class="cls-4" d="M310.47,23.02c2.82-3.37,6.9-5.25,11.61-5.25v10.98c-7.69,0-11.61,3.37-11.61,8.63v20.47h-11.29V18.63h11.29v4.39Z"/>
    <path class="cls-4" d="M353.68,28.83h-9.02v13.73c0,3.37,1.25,4.71,4.31,4.71h4.71v10.59h-7.06c-9.26,0-13.33-4.08-13.33-13.33v-15.69h-6.37v-10.2h6.37V9.22l11.37-3.53v12.94h9.02v10.2Z"/>
    <path class="cls-4" d="M397.92,35.02v22.82h-11.37v-20.47c0-5.25-2.74-9.02-7.14-9.02s-7.84,3.77-7.84,9.02v20.47h-11.29V2.94h11.29V22.87c2.82-3.45,6.9-5.49,11.53-5.49,9.02,0,14.82,8,14.82,17.65Z"/>
    <path class="cls-4" d="M463.65,21.53c0,9.57-7.84,17.1-18.35,17.1h-11.92v19.22h-11.61V4.51h23.53c10.43,0,18.35,7.45,18.35,17.02Zm-18.35,6.04c3.92,0,6.82-2.59,6.82-5.96s-2.9-6.04-6.82-6.04h-11.92v12h11.92Z"/>
    <path class="cls-4" d="M463.81,38.24c0-11.53,9.25-20.78,20.86-20.78s20.71,9.26,20.71,20.78-9.25,20.78-20.71,20.78-20.86-9.26-20.86-20.78Zm29.96,0c0-5.57-3.92-9.73-9.1-9.73s-9.26,4.16-9.26,9.73,3.92,9.73,9.26,9.73,9.1-4.24,9.1-9.73Z"/>
    <path class="cls-4" d="M509.7,7.81c0-3.76,3.14-6.43,6.98-6.43s6.82,2.67,6.82,6.43-3.14,6.51-6.82,6.51-6.98-2.67-6.98-6.51Zm1.02,10.82h11.76V57.85h-11.76V18.63Z"/>
    <path class="cls-4" d="M568.92,35.02v22.82h-11.37v-20.47c0-5.25-2.74-9.02-7.14-9.02s-7.84,3.77-7.84,9.02v20.47h-11.29V18.63h11.29v4.24c2.82-3.45,6.9-5.49,11.53-5.49,9.02,0,14.82,8,14.82,17.65Z"/>
    <path class="cls-4" d="M600.45,28.83h-9.02v13.73c0,3.37,1.25,4.71,4.31,4.71h4.71v10.59h-7.06c-9.26,0-13.33-4.08-13.33-13.33v-15.69h-7.06v-10.2h7.06V9.22l11.37-3.53v12.94h9.02v10.2Z"/>
    <path class="cls-4" d="M262.06,129.18h-11.53v-35.37l-13.57,35.37h-11.53l-13.25-34.9v34.9h-11.53v-53.33h16.39l14.2,37.49,14.35-37.49h16.47v53.33Z"/>
    <path class="cls-4" d="M269.76,79.14c0-3.76,3.14-6.43,6.98-6.43s6.82,2.67,6.82,6.43-3.14,6.51-6.82,6.51-6.98-2.67-6.98-6.51Zm1.02,10.82h11.76v39.22h-11.76v-39.22Z"/>
    <path class="cls-4" d="M328.97,106.36v22.82h-11.37v-20.47c0-5.25-2.74-9.02-7.14-9.02s-7.84,3.77-7.84,9.02v20.47h-11.29v-39.22h11.29v4.24c2.82-3.45,6.9-5.49,11.53-5.49,9.02,0,14.82,8,14.82,17.65Z"/>
    <path class="cls-4" d="M335.57,79.14c0-3.76,3.14-6.43,6.98-6.43s6.82,2.67,6.82,6.43-3.14,6.51-6.82,6.51-6.98-2.67-6.98-6.51Zm1.02,10.82h11.76v39.22h-11.76v-39.22Z"/>
    <path class="cls-4" d="M371.02,130.36c-8.55,0-15.14-4.71-16.78-11.69l9.33-2.82c.78,2.98,3.76,5.1,8,5.1,3.22,0,5.41-1.18,5.41-2.67,0-1.73-2.74-2.9-7.37-4-5.1-1.18-13.8-3.37-13.8-12.47,0-8.39,7.37-13.02,15.53-13.02s14.27,4.71,15.84,11.69l-9.02,2.9c-.78-2.67-3.22-5.18-7.06-5.18-2.51,0-4.63,1.1-4.63,2.75s1.8,2.51,6.2,3.53c4.79,1.1,14.98,3.06,14.98,12.71,0,8.55-8.08,13.18-16.63,13.18Z"/>
    <path class="cls-4" d="M418.32,100.16h-9.02v13.73c0,3.37,1.25,4.71,4.31,4.71h4.71v10.59h-7.06c-9.26,0-13.33-4.08-13.33-13.33v-15.69h-7.06v-10.2h7.06v-9.41l11.37-3.53v12.94h9.02v10.2Z"/>
    <path class="cls-4" d="M436.44,94.36c2.82-3.37,6.9-5.25,11.61-5.25v10.98c-7.69,0-11.61,3.37-11.61,8.63v20.47h-11.29v-39.22h11.29v4.39Z"/>
    <path class="cls-4" d="M453.77,79.14c0-3.76,3.14-6.43,6.98-6.43s6.82,2.67,6.82,6.43-3.14,6.51-6.82,6.51-6.98-2.67-6.98-6.51Zm1.02,10.82h11.76v39.22h-11.76v-39.22Z"/>
    <path class="cls-4" d="M511.18,113.73h-26.75c1.18,4.16,4.08,6.59,8.47,6.59,4.16,0,7.45-2.2,9.1-5.26l8.55,4.86c-3.29,6.35-10.51,10.43-18.04,10.43-11.22,0-19.37-8.86-19.37-20.78s8.08-20.78,19.61-20.78c9.88,0,17.41,6.59,18.59,17.49,.23,2.2,.23,4.63-.16,7.45Zm-26.75-8.16h15.69c-.55-4.08-3.61-6.75-7.77-6.75s-6.98,2.67-7.92,6.75Z"/>
    <path class="cls-4" d="M532.99,130.36c-8.55,0-15.14-4.71-16.78-11.69l9.33-2.82c.78,2.98,3.76,5.1,8,5.1,3.21,0,5.41-1.18,5.41-2.67,0-1.73-2.74-2.9-7.37-4-5.1-1.18-13.8-3.37-13.8-12.47,0-8.39,7.37-13.02,15.53-13.02s14.27,4.71,15.84,11.69l-9.02,2.9c-.78-2.67-3.22-5.18-7.06-5.18-2.51,0-4.63,1.1-4.63,2.75s1.8,2.51,6.2,3.53c4.79,1.1,14.98,3.06,14.98,12.71,0,8.55-8.08,13.18-16.63,13.18Z"/>
  </g>
  <g id="NPM_Logo" data-name="NPM Logo">
    <path class="cls-1" d="M163.24,107.98l-2.64-1.5c-1.4-.8-3.12-.8-4.52,0l-23.68,13.45c-1.91,1.09-4.25,1.09-6.16,0l-40.75-23.15c-1.91-1.09-4.25-1.09-6.16,0l-40.75,23.15c-1.91,1.09-4.25,1.09-6.16,0l-23.68-13.45c-1.4-.8-3.12-.8-4.52,0l-2.64,1.5c-2.1,1.2-2.1,4.23,0,5.42l30.84,17.52c1.91,1.09,4.25,1.09,6.16,0l40.76-23.15c1.91-1.09,4.25-1.09,6.16,0l40.75,23.15c1.91,1.09,4.25,1.09,6.16,0l30.84-17.52c2.1-1.2,2.1-4.23,0-5.42Z"/>
    <path class="cls-3" d="M163.24,86l-2.64-1.5c-1.4-.8-3.12-.8-4.52,0l-23.68,13.45c-1.91,1.09-4.25,1.09-6.16,0l-40.75-23.15c-1.91-1.09-4.25-1.09-6.16,0l-40.75,23.15c-1.91,1.09-4.25,1.09-6.16,0l-23.68-13.45c-1.4-.8-3.12-.8-4.52,0l-2.64,1.5c-2.1,1.2-2.1,4.23,0,5.42l30.84,17.52c1.91,1.09,4.25,1.09,6.16,0l40.75-23.15c1.91-1.09,4.25-1.09,6.16,0l40.75,23.15c1.91,1.09,4.25,1.09,6.16,0l30.84-17.52c2.1-1.2,2.1-4.23,0-5.42Z"/>
    <path class="cls-2" d="M163.24,64.03l-2.64-1.5c-1.4-.8-3.12-.8-4.52,0l-23.68,13.45c-1.91,1.09-4.25,1.09-6.16,0l-40.75-23.15c-1.91-1.09-4.25-1.09-6.16,0l-40.76,23.15c-1.91,1.09-4.25,1.09-6.16,0l-23.68-13.45c-1.4-.8-3.12-.8-4.52,0l-2.64,1.5c-2.1,1.2-2.1,4.23,0,5.42l30.84,17.52c1.91,1.09,4.25,1.09,6.16,0l40.75-23.15c1.91-1.09,4.25-1.09,6.16,0l40.75,23.15c1.91,1.09,4.25,1.09,6.16,0l30.84-17.52c2.1-1.2,2.1-4.23,0-5.42Z"/>
    <path class="cls-4" d="M161.99,44.59L84.45,.54c-1.26-.72-2.81-.72-4.07,0L2.83,44.59c-1.39,.79-1.39,2.79,0,3.58l29.58,16.81c1.91,1.09,4.25,1.09,6.16,0l40.75-23.15c1.91-1.09,4.25-1.09,6.16,0l40.75,23.15c1.91,1.09,4.25,1.09,6.16,0l29.58-16.81c1.39-.79,1.39-2.79,0-3.58Z"/>
  </g>
</svg>