<?xml version="1.0" encoding="UTF-8"?>
<svg id="Isolated_Elements" data-name="Isolated Elements" xmlns="http://www.w3.org/2000/svg" viewBox="0 0 224.79 224.79">
  <defs>
    <style>
      .cls-1 {
        fill: #57c1e9;
      }
    </style>
  </defs>
  <path class="cls-1" d="M114.35,.02C51.47-1.06,0,51.5,0,114.39v3.75c0,.3,.24,.53,.53,.53H34.95c.3,0,.53-.24,.53-.53v-17.15c0-.24,.19-.43,.43-.43h6.95c.24,0,.43,.19,.43,.43v17.15c0,.3,.24,.53,.53,.53h31.84c.3,0,.53-.24,.53-.53v-52.8c0-.44,.5-.68,.85-.42l12.3,9.48c.13,.1,.2,.25,.2,.42v43.32c0,.3,.24,.53,.53,.53h31.84c.3,0,.53-.24,.53-.53V49.57c0-3.09,.82-5.4,2.44-6.85,1.29-1.16,3.23-1.91,5.68-2.23,.27-.03,.51,.18,.51,.45v14.47c0,.24,.2,.44,.44,.44h6.88c.24,0,.44,.2,.44,.44v61.84c0,.3,.24,.53,.53,.53h31.84c.3,0,.53-.24,.53-.53v-40.33c0-.17,.12-.31,.29-.33,2.55-.24,6.06-.24,8.61,0,.17,.02,.29,.16,.29,.33v40.33c0,.3,.24,.53,.53,.53h42.76c.3,0,.53-.24,.53-.53v-5.74C224.79,51.07,175.43,1.06,114.35,.02Zm79.69,106.1c-.29,0-.53-.24-.53-.53v-32.82c0-5.65-5.13-8.06-17.15-8.06s-17.15,2.41-17.15,8.06v32.82c0,.29-.24,.53-.53,.53h-6.74c-.29,0-.53-.24-.53-.53V43.83c0-.3-.24-.54-.54-.54h-6.69c-.3,0-.54-.24-.54-.54v-13.65c0-.27-.21-.5-.48-.53l-5.13-.55c-11.5-1.22-18.05,2.23-21.53,5.36-4.32,3.88-6.6,9.48-6.6,16.19v56.01c0,.29-.24,.53-.53,.53h-6.74c-.29,0-.53-.24-.53-.53v-36.95c0-.16-.08-.32-.2-.42l-37.42-28.84c-.35-.27-.85-.02-.85,.42V105.69c0,.24-.19,.43-.43,.43h-6.93c-.24,0-.43-.19-.43-.43v-17.34c0-.19-.15-.34-.34-.34H23.27c-.19,0-.34,.15-.34,.34v17.77H12.75C16.01,53.98,59.46,12.56,112.4,12.56s96.39,41.42,99.64,93.56h-17.99Z"/>
  <path class="cls-1" d="M112.4,224.79c18.03,0,35.06-4.27,50.16-11.82,.36-.18,.22-.74-.18-.74H62.41c-.4,0-.54,.56-.18,.74,15.1,7.55,32.13,11.82,50.16,11.82Z"/>
  <path class="cls-1" d="M46.83,203.57H177.96c.08,0,.16-.03,.23-.07,4.93-3.57,9.57-7.52,13.85-11.83,.24-.24,.06-.66-.27-.66H33.02c-.34,0-.51,.42-.27,.66,4.29,4.3,8.92,8.26,13.85,11.83,.07,.05,.15,.07,.23,.07Z"/>
  <path class="cls-1" d="M24.64,182.34H200.15c.12,0,.23-.05,.3-.15,2.98-3.76,5.74-7.7,8.23-11.83,.15-.25-.03-.58-.33-.58H16.44c-.3,0-.48,.33-.33,.58,2.49,4.13,5.24,8.07,8.23,11.83,.07,.09,.19,.15,.3,.15Z"/>
  <path class="cls-1" d="M11.33,161.12H213.47c.15,0,.28-.09,.35-.22,1.83-3.82,3.43-7.78,4.82-11.83,.09-.25-.1-.51-.36-.51H6.52c-.26,0-.45,.26-.36,.51,1.4,4.05,2.99,8.01,4.82,11.83,.06,.13,.2,.22,.35,.22Z"/>
  <path class="cls-1" d="M3.71,139.9H221.09c.18,0,.33-.12,.38-.29,.96-3.87,1.7-7.82,2.25-11.83,.03-.23-.15-.44-.38-.44H1.46c-.23,0-.41,.21-.38,.44,.55,4.01,1.29,7.96,2.25,11.83,.04,.17,.2,.29,.38,.29Z"/>
</svg>