<?xml version="1.0" encoding="UTF-8"?>
<svg id="Layer_1" data-name="Layer 1" xmlns="http://www.w3.org/2000/svg" viewBox="0 0 534.85 534.78">
  <defs>
    <style>
      .cls-1 {
        fill: #2e5741;
      }
    </style>
  </defs>
  <path class="cls-1" d="M443.88,404.13h53.49c64.86-107.73,43.79-250.25-49.68-334.42-100.3-92.74-259.38-92.97-359.95-.54C-6.18,153.25-27.55,296.16,37.48,404.13h53.49m0,0H443.87m-8.06-283.36c16.18,18.55,29.25,39.71,38.5,62.56,0,0,0,0,0,0,0,0,0,0,0,0,8.83,21.77,14.11,44.55,15.77,67.92h-184.76L435.81,120.77h0ZM282.85,44.63c47.86,3.13,94.53,22.38,130.67,53.91h0s-130.67,130.67-130.67,130.67V44.63ZM121.4,98.47c35.97-31.34,82.37-50.55,129.96-53.8V228.53L121.35,98.51h0s.03-.03,.05-.04Zm-60.88,84.87s0,0,0-.01c0,0,0,0,0,0,9.26-22.85,22.33-44.03,38.53-62.58h0S229.57,251.25,229.57,251.25H44.75c1.66-23.36,6.94-46.14,15.77-67.91Zm6.15,181.8c-2.19-4.51-4.25-9.12-6.15-13.77-8.92-21.99-14.22-45.02-15.82-68.63H229.33l-82.41,82.41H66.69m124.75,0l59.92-59.92v59.92h-59.92Zm91.41,0v-60.61l60.61,60.61h-60.61Zm185.31,0h-80.17l-82.41-82.41h184.57c-1.6,23.61-6.9,46.63-15.82,68.62,0,0,0,0,0,0,0,0,0,0,0,0-1.9,4.66-3.95,9.27-6.15,13.78"/>
  <path class="cls-1" d="M135.63,500.19c80.5,46.13,183.08,46.12,263.58,0H135.63Z"/>
  <path class="cls-1" d="M443.88,404.13h53.49c64.86-107.73,43.79-250.25-49.68-334.42-100.3-92.74-259.38-92.97-359.95-.54C-6.18,153.25-27.55,296.16,37.48,404.13h53.49m0,0M435.82,120.77c16.18,18.55,29.25,39.71,38.5,62.56,0,0,0,0,0,0,0,0,0,0,0,0,8.83,21.77,14.11,44.55,15.77,67.92h-184.76L435.81,120.77h0ZM282.85,44.63c47.86,3.13,94.53,22.38,130.67,53.91h0s-130.67,130.67-130.67,130.67V44.63ZM121.4,98.47c35.97-31.34,82.37-50.55,129.96-53.8V228.53L121.35,98.51h0s.03-.03,.05-.04Zm-60.88,84.87s0,0,0-.01c0,0,0,0,0,0,9.26-22.85,22.33-44.03,38.53-62.58h0S229.57,251.25,229.57,251.25H44.75c1.66-23.36,6.94-46.14,15.77-67.91Zm6.15,181.8c-2.19-4.51-4.25-9.12-6.15-13.77-8.92-21.99-14.22-45.02-15.82-68.63H229.33l-82.41,82.41H66.69m124.75,0l59.92-59.92v59.92h-59.92Zm91.41,0v-60.61l60.61,60.61h-60.61Zm185.31,0h-80.17l-82.41-82.41h184.57c-1.6,23.61-6.9,46.63-15.82,68.62,0,0,0,0,0,0,0,0,0,0,0,0-1.9,4.66-3.95,9.27-6.15,13.78"/>
  <path class="cls-1" d="M135.63,500.19c80.5,46.13,183.08,46.12,263.58,0H135.63Z"/>
  <path class="cls-1" d="M58.67,434.69c9.97,12.43,21.28,24.21,33.34,34.72H443.17c12.05-10.51,23.37-22.28,33.34-34.72H58.67Z"/>
</svg>