<?xml version="1.0" encoding="UTF-8"?>
<svg id="Layer_1" data-name="Layer 1" xmlns="http://www.w3.org/2000/svg" viewBox="0 0 207.22 207.22">
  <defs>
    <style>
      .cls-1 {
        fill: #2a7de1;
      }
    </style>
  </defs>
  <path class="cls-1" d="M206.65,93.36c-.11-1.56-1.6-2.6-3.13-2.27,0,0-3.8,.73-7.4,1.61s-7.57,2.04-7.57,2.04c-1.18,.33-1.99,1.36-1.93,2.57,.09,2.02,.29,4.61,.29,6.1-.02,21.68-8.18,42.23-23.22,57.9-15.12,15.75-35.46,24.82-57.29,25.55-17.55,.59-34.03-4.32-47.78-13.18-.49-.32-.72-.93-.56-1.49,2.13-7.56,4.69-14.84,7.62-21.65l.34-.8c3.4-7.93,9.08-21.21,17.57-22.24,.16-.02,.32-.03,.47-.03,4.65,.1,6.68,12.37,7.35,16.4,.07,.4,.13,.76,.18,1.09,.75,4.38,1.3,9.11,1.77,15.33,0,0,.34,4.31,.33,7.34-.02,6.78,3.46,10.76,7.99,10.85,1.73,.04,6.19-.41,7.63-7.43,.36-1.76,.72-3.5,1.13-5.2,13.86-57.34,64.45-77.87,88.49-84.3,.04-.01,1.67-.46,3.16-.86,1.37-.37,2.19-1.78,1.83-3.15-.56-2.15-1.46-5.75-3.32-10.75-1.59-4.26-3.51-7.95-4.59-10.09-.58-1.15-1.92-1.69-3.14-1.27-1.63,.56-3.63,1.24-3.69,1.26-19,6.43-53.97,24.27-81.49,72.53-.6,1.06-2.19,.82-2.45-.37-2.37-10.78-6.83-23.86-18.63-26.88-1.06-.27-2.13-.42-3.21-.44-9.33-.19-16.88,8.78-22.47,18.02-.66,1.1-2.33,.72-2.48-.56-2.21-19.98-7.66-36.27-16.5-49.49-2.32-3.46-5.06-6.47-8.17-9.01-.53-.44-.67-1.2-.3-1.78,14.3-22.27,38.94-37.41,67.34-38.36,25.11-.84,48.97,9.5,65.51,28.42,.82,.94,1.95,2.3,2.94,3.51,.74,.91,2.02,1.17,3.07,.69,1.05-.48,4.48-2.05,7.63-3.55s6.35-3.12,6.35-3.12c1.46-.7,1.91-2.56,.93-3.85-1.89-2.47-4.08-5.26-5.46-6.85C159.84,10.35,127.42-2.68,93.8,.46,39.55,5.54-1.68,52.45,.05,106.9c1.85,58.24,51.67,103.84,110.21,100.1,24.4-1.56,47.36-11.62,65-28.55,20.67-19.84,32.09-46.71,31.96-75.13-.01-2.61-.34-6.76-.57-9.97ZM43.26,157.63c-.08,1.18-1.55,1.68-2.33,.79-12.23-13.96-19.91-32.06-20.58-52.01-.26-7.88,.58-15.54,2.39-22.84,.23-.93,1.34-1.31,2.1-.73,2.12,1.59,4.04,3.44,5.72,5.54,14.28,17.85,14.16,47.31,12.69,69.25Z"/>
</svg>