<?xml version="1.0" encoding="UTF-8"?>
<svg id="Layer_1" data-name="Layer 1" xmlns="http://www.w3.org/2000/svg" viewBox="0 0 53.27 53.27">
  <defs>
    <style>
      .cls-1 {
        fill: #ffcd00;
      }

      .cls-2 {
        fill: #383638;
      }
    </style>
  </defs>
  <g>
    <path class="cls-1" d="M31.68,17.76h5.45c.11,0,.2-.09,.2-.2V8.06c0-.07-.04-.14-.1-.18-1.7-.96-3.55-1.7-5.5-2.17-.13-.03-.25,.07-.25,.2v11.65c0,.11,.09,.2,.2,.2Z"/>
    <path class="cls-1" d="M47.18,20.6h-6.81c-.11,0-.2,.09-.2,.2v4.22c0,.11,.09,.2,.2,.2h7.56c.12,0,.21-.1,.21-.22-.11-1.46-.37-2.89-.76-4.26-.03-.09-.11-.15-.2-.15Z"/>
    <path class="cls-2" d="M15.89,32.48c0,.11,.09,.2,.2,.2h13.97c.09,0,.17,.01,.26,.03,.03,0,.06,.01,.09,.02,.05,.01,.11,.03,.16,.05,.03,.01,.06,.03,.09,.04,.05,.02,.09,.05,.14,.07,.03,.02,.06,.04,.09,.06,.01,0,.03,.02,.04,.03l6.08,4.68c.13,.1,.33,0,.33-.16V20.8c0-.11-.09-.2-.2-.2H16.1c-.11,0-.2,.09-.2,.2v11.68Z"/>
    <path class="cls-1" d="M40.25,40.14l1.75,1.34c.08,.06,.2,.06,.27-.02,3.32-3.49,5.49-8.1,5.87-13.19,0-.12-.09-.22-.21-.22h-7.56c-.11,0-.2,.09-.2,.2v11.72c0,.06,.03,.12,.08,.16Z"/>
    <path class="cls-1" d="M5.13,26.64c0,2.04,.29,4.02,.83,5.89,.03,.09,.11,.15,.2,.15h6.7c.11,0,.2-.09,.2-.2v-11.68c0-.11-.09-.2-.2-.2H6.16c-.09,0-.17,.06-.2,.15-.53,1.87-.83,3.85-.83,5.89Z"/>
    <path class="cls-1" d="M31.73,47.57c1.95-.47,3.79-1.21,5.5-2.17,.06-.04,.1-.11,.1-.18v-3.64c0-.06-.03-.12-.08-.16l-5.45-4.19c-.13-.1-.33,0-.33,.16v9.98c0,.13,.12,.23,.25,.2Z"/>
    <path class="cls-1" d="M15.89,45.15c0,.07,.04,.14,.1,.18,3.15,1.81,6.79,2.84,10.67,2.84,.6,0,1.2-.03,1.79-.08,.11,0,.19-.1,.19-.2v-12.17c0-.11-.09-.2-.2-.2h-12.34c-.11,0-.2,.09-.2,.2v9.43Z"/>
    <path class="cls-1" d="M13.06,42.88v-7.16c0-.11-.09-.2-.2-.2H7.38c-.15,0-.25,.16-.19,.29,1.32,2.79,3.21,5.25,5.53,7.23,.13,.11,.34,.02,.34-.16Z"/>
    <path class="cls-1" d="M40.17,10.3v7.25c0,.11,.09,.2,.2,.2h5.59c.15,0,.25-.16,.19-.29-1.34-2.83-3.27-5.33-5.65-7.32-.13-.11-.34-.01-.34,.16Z"/>
    <path class="cls-1" d="M7.38,17.76h5.48c.11,0,.2-.09,.2-.2v-7.16c0-.17-.2-.27-.34-.16-2.32,1.98-4.22,4.44-5.53,7.23-.06,.14,.04,.29,.19,.29Z"/>
    <path class="cls-1" d="M28.65,5.38c0-.11-.08-.2-.19-.2-.59-.05-1.19-.08-1.79-.08-3.88,0-7.53,1.04-10.67,2.84-.06,.04-.1,.11-.1,.18v9.44c0,.11,.09,.2,.2,.2h12.34c.11,0,.2-.09,.2-.2V5.38Z"/>
  </g>
  <path class="cls-2" d="M26.64,53.27C11.95,53.27,0,41.32,0,26.64S11.95,0,26.64,0s26.64,11.95,26.64,26.64-11.95,26.64-26.64,26.64Zm0-50.85C13.29,2.43,2.43,13.29,2.43,26.64s10.86,24.21,24.21,24.21,24.21-10.86,24.21-24.21S39.99,2.43,26.64,2.43Z"/>
</svg>