<?xml version="1.0" encoding="UTF-8"?>
<svg id="Layer_2" data-name="Layer 2" xmlns="http://www.w3.org/2000/svg" viewBox="0 0 53.27 53.27">
  <defs>
    <style>
      .cls-1 {
        fill: #686463;
      }

      .cls-2 {
        fill: #97aebf;
      }

      .cls-3 {
        fill: #97a3ae;
      }

      .cls-4 {
        fill: #d9d8d6;
      }

      .cls-5 {
        fill: #212322;
      }

      .cls-6 {
        fill: #95acbc;
      }

      .cls-7 {
        opacity: .75;
      }
    </style>
  </defs>
  <g id="Color">
    <path class="cls-2" d="m26.64,53.27C11.95,53.27,0,41.32,0,26.64S11.95,0,26.64,0s26.64,11.95,26.64,26.64-11.95,26.64-26.64,26.64Zm0-50.85C13.29,2.43,2.43,13.29,2.43,26.64s10.86,24.21,24.21,24.21,24.21-10.86,24.21-24.21S39.99,2.43,26.64,2.43Z"/>
    <g>
      <g>
        <g class="cls-7">
          <path class="cls-1" d="m26.86,21.91l1.27-.22c.19-.01.37-.03.55-.04-.15-.32-.25-.63-.31-.92-1.56.34-3.14.13-4.7-.62-.08-.04-.17-.09-.25-.15h0c-.69,1.5-1.81,2.28-3.2,2.44.18.48.27,1.02.22,1.63-.13,1.49-.94,2.42-2,2.92.48.79,1.18,1.5,2.19,1.95.65.29,1.39.47,2.16.56-.09-.56-.12-1.15-.15-1.78-.11-2.75,1.41-5.21,4.23-5.77Z"/>
        </g>
        <path class="cls-3" d="m17.87,19.87s.1.05.17.09c.52-1.16,1.45-2.31,3.11-3.11-.37-.71-.58-1.43-.66-2.12-.8-.16-1.59-.24-2.38.06-.98.38-2.17,1.39-2.39,2.47-.23,1.1-.15,1.75.04,2.33.92-.06,1.76.1,2.11.27Z"/>
        <path class="cls-3" d="m21.29,17.13c-.05-.09-.1-.18-.15-.27-1.65.79-2.59,1.94-3.11,3.11.54.31,1.68,1.13,2.17,2.44,1.39-.17,2.51-.94,3.2-2.44,0,0,0,0,0,0-1.05-.74-2.12-2.83-2.12-2.83Z"/>
        <path class="cls-6" d="m17.49,21.98c-.55-.32-.98-.83-1.37-1.48-.21-.35-.36-.64-.46-.94-.56.04-1.11.17-1.53.47-.9.63-1.53,1.71-1.69,2.82-.4,2.76,1.36,4.69,3.82,4.6.75-.03,1.5-.18,2.16-.5-.77-1.28-.97-2.75-1-3.65-.01-.38,0-.83.06-1.33Z"/>
        <path class="cls-4" d="m20.43,24.03c.05-.61-.04-1.15-.22-1.63-.57.07-1.18.04-1.83-.09-.33-.06-.62-.18-.89-.34-.06.5-.07.95-.06,1.33.03.89.22,2.37,1,3.65,1.06-.51,1.87-1.43,2-2.92Z"/>
        <path class="cls-4" d="m17.49,21.98c.08-.63.24-1.32.55-2.01-.06-.04-.12-.07-.17-.09-.36-.18-1.29-.38-2.21-.32.1.3.25.59.46.94.39.65.82,1.16,1.37,1.48Z"/>
        <path class="cls-1" d="m18.04,19.96c-.31.69-.47,1.39-.55,2.01.27.16.56.27.89.34.65.13,1.26.16,1.83.09-.49-1.31-1.63-2.13-2.17-2.44Z"/>
        <path class="cls-4" d="m31.57,24.28c-.4-.11-.77-.29-1.1-.52-.06.64-.2,1.26-.4,1.84-1.03,2.98-4.39,4.17-7.29,3.86.28.85.51,1.48,1.06,2.21.47.62,1.15,1.21,1.89,1.66.84.52,1.66,1.04,2.58,1.13,1.73.17,4.25-.12,5.43-1.27,1.08-1.05,1.8-1.98,2.02-3.35.02-.1.03-.2.04-.31-.12-.02-.24-.04-.36-.07-1.96-.47-4.34-2.61-3.86-5.19Z"/>
        <path class="cls-1" d="m30.07,25.6c.2-.58.34-1.21.4-1.84-.42-.29-.81-.68-1.19-1.15-.26-.32-.46-.65-.6-.96-.18.01-.36.03-.55.04l-1.27.22c-2.82.56-4.34,3.02-4.23,5.77.03.63.06,1.22.15,1.78,2.9.31,6.26-.88,7.29-3.86Z"/>
        <path class="cls-6" d="m40.03,23.31c-.59-1.39-1.64-2.22-2.8-2.55-.12,1.53-.9,2.77-2.54,3.34,1.03,1.56,1.34,3.57,1.11,5.44,2.07.31,3.7-1.12,4.29-2.56.6-1.49.62-2.07-.06-3.66Z"/>
        <path class="cls-3" d="m34.68,24.1c-.43.15-.91.25-1.46.3-.63.06-1.17.01-1.65-.12-.48,2.58,1.89,4.71,3.86,5.19.12.03.24.05.36.07.23-1.86-.08-3.88-1.11-5.44Z"/>
        <path class="cls-3" d="m22.7,16.28c.15-.04.3-.08.46-.11,1.62-.36,3.09.28,4.24.89.5.26.93.6,1.3.98.08-.2.15-.34.15-.34.41-.71,1.04-1.23,1.71-1.6-.04-.14-.07-.28-.11-.42-.35-1.65.25-2.93,1.4-3.96.48-.43,1.03-.64,1.57-.73-.35-.63-.8-1.22-1.33-1.75-4.35-4.28-12.19.08-11.62,5.51.1.04.19.07.29.12.73.35,1.41.84,1.93,1.43Z"/>
        <path class="cls-1" d="m28.33,19.18c.05-.31.24-.81.38-1.14-.37-.38-.8-.71-1.3-.98-1.15-.61-2.63-1.26-4.24-.89-.16.04-.31.07-.46.11.9,1.02,1.33,2.32.71,3.68.08.06.17.11.25.15,1.56.75,3.15.96,4.7.62-.15-.7-.08-1.28-.04-1.55Z"/>
        <path class="cls-4" d="m22.7,16.28c-.5-.69-1.03-1.22-1.93-1.43-.1-.02-.19-.08-.29-.12.07.69.28,1.41.66,2.12.46-.22.98-.42,1.56-.57Z"/>
        <path class="cls-1" d="m22.7,16.28c-.58.16-1.1.35-1.56.57.05.09.09.18.15.27,0,0,1.07,2.1,2.12,2.83.62-1.35.2-2.66-.71-3.68Z"/>
        <path class="cls-6" d="m33.1,18.82c-.26-.1-.49-.2-.7-.32-.77.71-1.56,1.25-2.37,1.64.18.48.31.97.39,1.48.77.05,1.48.2,2.18.57,1.17-1.36,3.01-1.89,4.63-1.43.06-.69-.02-1.43-.21-2.2-1.28.98-2.4.82-3.92.26Z"/>
        <path class="cls-6" d="m30.41,21.62c-.08-.51-.21-1.01-.39-1.48-.55.27-1.1.46-1.66.59.06.29.16.6.31.92.61-.04,1.19-.06,1.74-.03Z"/>
        <path class="cls-1" d="m32.59,22.19c-.7-.37-1.42-.52-2.18-.57.11.71.13,1.43.06,2.13.34.24.7.41,1.1.52.04-.23.11-.46.2-.7.2-.53.49-.99.83-1.38Z"/>
        <path class="cls-1" d="m30.41,21.62c-.55-.03-1.13-.01-1.74.03.15.31.34.64.6.96.38.47.77.85,1.19,1.15.07-.71.05-1.43-.06-2.13Z"/>
        <path class="cls-3" d="m32.59,22.19s0,0,0,0c.89.47,1.57,1.13,2.08,1.9,1.64-.57,2.42-1.8,2.54-3.34-1.62-.45-3.46.07-4.63,1.43Z"/>
        <path class="cls-1" d="m32.6,22.2s0,0,0,0c-.34.39-.62.85-.83,1.38-.09.24-.15.47-.2.7.48.13,1.02.18,1.65.12.55-.05,1.03-.15,1.46-.3-.51-.77-1.2-1.43-2.08-1.9Z"/>
        <path class="cls-1" d="m32.39,18.5c-.96-.52-1.51-1.27-1.82-2.41-.67.37-1.3.89-1.71,1.6,0,0-.06.14-.15.34.58.6,1.02,1.32,1.31,2.1.8-.39,1.6-.94,2.37-1.64Z"/>
        <path class="cls-1" d="m28.71,18.04c-.14.33-.33.83-.38,1.14-.04.27-.11.85.04,1.55.56-.12,1.11-.32,1.66-.59-.3-.78-.73-1.51-1.31-2.1Z"/>
        <path class="cls-4" d="m34.19,15.59c1.33.54,2.54,1.84,2.78,2.78.02.06.03.12.04.18.04-.03.09-.06.13-.1.57-.47,1.19-1.22,1.33-2.18.1-.68.06-1.62-.11-2.26-.48-1.8-2.24-2.71-2.9-2.91-.4-.13-1.19-.27-2.03-.13.81,1.44,1.11,3.09.75,4.61Z"/>
        <path class="cls-3" d="m30.46,15.67c.03.15.07.29.11.42.76-.42,1.57-.65,2.13-.73.49-.07,1,.03,1.49.23.36-1.52.06-3.17-.75-4.61-.54.09-1.18.3-1.57.73-1.03,1.15-1.76,2.31-1.4,3.96Z"/>
        <path class="cls-3" d="m34.19,15.59c-.23.97-.73,1.89-1.54,2.67-.08.08-.17.16-.25.24.21.12.45.22.7.32,1.52.56,2.64.72,3.92-.26-.01-.06-.03-.12-.04-.18-.25-.94-1.45-2.25-2.78-2.78Z"/>
        <path class="cls-1" d="m32.39,18.5c.09-.08.17-.16.25-.24.81-.78,1.31-1.7,1.54-2.67-.49-.2-1-.29-1.49-.23-.56.08-1.37.31-2.13.73.32,1.14.86,1.89,1.82,2.41Z"/>
      </g>
      <path class="cls-5" d="m17.16,15.3l.04-.04s-.04.03-.04.04Zm6.13,2.15c0-.07.07.09.05-.01,0,.01-.07-.07-.05.01Zm-6.73-1.68v.03s.04-.06.04-.06l-.04.03Zm-.66,1.1h0s0,0,0,0h0Zm1.47-1.61l-.02.02s.02-.02.02-.02Zm3.58-.27v-.03s-.05.03,0,.03Zm-2.62-.12h0s0,0,0,0Zm-2.2,5.62h0s.01,0,.01,0h-.02Zm-.58-1.83h.01s0,0,0,0h-.01Zm6.96-2.55s-.05-.07-.06-.08c0,.02.03.07.06.08Zm.08,4.9l-.04.06.02-.02.02-.04Zm-3.95-6.43h.01s0,0-.01,0Zm2.26.18l.05.03h.01s-.06-.03-.06-.03Zm-5.2,3.01v.02s0,.02,0,.02v-.03Zm5.35-2.77h0s-.02-.01-.02-.01h.03Zm-5.39,3.97v.11s.03-.05.04,0c0-.15-.02.03-.04-.12Zm.25-2.13l.04-.05s-.02.02-.04.05Zm2.25,5.51l-.02-.03s-.09,0,.02.03Zm-2.11-1.92c0-.05-.02-.11-.07-.16,0-.02.01,0,.02,0-.03-.03-.07-.07-.09-.03.04.03.04.04.09.07.02.03.02.06,0,.06.01,0,.02.06.04.06Zm6.32,1.12h0s0,.01,0,.01h.01Zm-6.69-2.94s-.01-.05-.02,0c0,.06.01,0,.02,0Zm.66-2.42v.02s0,0,0-.02Zm.56-.51l.05-.06-.04.04v.02Zm-1.03,4.47h0v-.02s0,.02,0,.02Zm-.14-.32v.02s.02,0,.02,0h-.02Zm0,.02l.02.03-.02-.03h0Zm3.73,2.51h.01s-.02,0-.02,0h-.01s.02,0,.02,0Zm10.3-2.04s.04-.02.04-.02c-.03.01-.04.02-.04.02Zm-7.65-1.94s.08.16.12.19c-.03-.05-.06-.13-.11-.19h0Zm6.72,2.33h-.03s.13-.04.13-.04l-.1.04Zm-7.55-3.58v-.02s-.02,0-.02,0h.02Zm12.94-1.33l-.03.02c-.01.06.02.08.03-.02Zm-12.53,1.9l.02.03v-.02s-.02,0-.02,0Zm4.34-9.83h0s-.03,0-.03,0h.03Zm3.44,12.49l.08-.05s-.08.03-.08.05Zm-2.58-12.89l-.12.02h.06s.06-.02.06-.02Zm-3.68,12.42c-.08-.07,0,.01-.02.01.06.04.08.04.02-.01Zm8.6-.99h.02c.04-.05.01-.03-.02,0Zm-10.32-1.45c-.03-.05-.04-.1-.03-.09-.02-.02-.04-.09-.07-.11.02.08.07.17.13.25,0,.02-.01,0-.02,0,.05.06.11.12.11.06-.06-.05-.06-.07-.13-.12Zm.19.24s-.02-.04-.04-.05l.04.05Zm12.45-5.28c.02.07.03.14.04.18,0-.04-.01-.13-.04-.18Zm-12.45-1.83v.02s.01-.02.01-.02v-.02s-.01.02-.01.02Zm9.75,8.89h0s0,.01,0,0Zm-8.65-.02l-.12-.16s.04.08-.03,0c.14.21-.02-.05.15.15Zm3.32,1.45h0s0,0,0,0h-.01Zm7.84-4.3h0s-.02.07-.02.07c.01-.02.02-.03.03-.07Zm-13.11-4l-.03.04s-.01.14.03-.04Zm0,3.18h0s0,0,0,0Zm5.32,5.13l.1.02s-.05-.01-.1-.02Zm-1.62-.35h-.03s-.03,0-.03,0h.06Zm9.21-4h0s0-.02,0-.02v.02Zm0-.02l.07-.15s-.04.1-.07.15Zm.24-.62l.04-.09v-.02s-.04.11-.04.11Zm-6.48,5.02v.02c.07,0,0,0,0-.02Zm-4.26-1.19h-.02s0,0,0,0h.01Zm-1.23-1.54l-.02-.03h0s.03.03.03.03Zm-.02-.03l-.04-.04.03.04h0Zm10.91-8.19c.06.11-.15-.14-.05.02,0-.02.13.11.05-.02Zm-14.87,17.27h0s-.01,0-.01,0h.01Zm-.41.13h-.06s-.01,0-.01,0h.07Zm-5.29-4.55h0s0-.02,0-.02v.02Zm6.35-2.53h0s.07.08.1.09c-.03-.02-.06-.07-.1-.09Zm-6.18,3.05v.04s0-.07,0-.07v.03Zm6.98-2.11l-.04-.02v.02s.02,0,.04,0Zm-2.01,5.95l.02.02s.03-.04-.02-.02Zm2.39-5.34v-.02s-.03,0-.03,0l.03.02Zm-4.26,5.51s-.07-.03-.1-.02c.04,0,.08.02.1.02Zm4.77-3.86h-.02s0,0,.02,0Zm-6.32,3.27c.05.06-.11-.04-.04.04,0-.01.1.02.04-.04Zm4.49-6.56h-.03s.03,0,.03,0h0Zm1.74,4.07v-.02s0,.08,0,.08v-.06Zm-.67,1.94h0s0,.02,0,0Zm.6-1.34v-.02s0,.03,0,.02Zm-.54.89h0s0,0,0,0Zm-1.4-5.76h.02s-.01,0-.01,0h0Zm2,2.7v.06s0-.03,0-.06Zm-2.9,4.51h.01s.02,0,.02,0h-.03Zm3.12-3.23l.02-.05-.02-.02v.07Zm-1.05-2.97h-.01s0,0,0,0h.01Zm-1.57-1.15h-.01s0,0,0,0h.02Zm2.47,4.89s.01-.05,0-.06v.06Zm-2.4,2.3h0s.03-.01.03-.01h-.04Zm.62-6.85h-.02s0,0,0,0h.02Zm.82.92s-.01,0-.02.01c.03.02.04.03.02-.01Zm.89,1.54h0s0,0,0,0h0Zm-5.19-3.15h.03s.08-.02-.03,0Zm-1.1.72h0s.01,0,.01,0h0s-.02,0-.02,0Zm5.17.61l-.08-.09s.02.05-.02.01c.09.12,0-.04.1.07Zm.69-3.15h0s0,0,0,0h-.01Zm-1.92,2.39h0s0,.01,0,.01h0Zm.22-.24v.06s0,0,0,0c.01-.02,0-.04,0-.06Zm10.79-1.79l.05.08h.02s-.07-.08-.07-.08Zm1.43,5.86c.04-.12,0,.2.05.02-.01.02-.01-.17-.05-.02Zm-3.81,4.95l.06-.03-.11.05.05-.02Zm-4.9-12.32l-.03.03.11-.05-.08.02Zm-4.23,5.49v.05s0-.05,0-.05h0Zm.03,1.24v.02s.02,0,.02,0l-.02-.02Zm3.3,5.57h.02s-.03,0-.03,0h-.02s.03,0,.03,0Zm-3.25-4.11h0s0,0,0,0Zm-.07-2.74v.04s0,0,0,0v-.03Zm8.38,7.32h0s-.03,0-.03,0h.03Zm-7.73-9.25c.02-.07.02-.08-.02-.01-.03.1.01,0,.02.01Zm5.11-3.87s.05-.01.04-.01c-.03,0-.04,0-.04.01Zm7.16,8.85h0s0,.02,0,.02v-.02Zm-12.97-2.5v.03s0,0,0,0v-.03Zm7.59-6.33h0s-.01,0,0,0Zm-3.96.74v.02c.07-.04,0,0,0-.02Zm6.39.15s0,0,.02.02l-.02-.02Zm-9.62,3.68s.04-.07.02.02c.1-.23-.03.04.04-.2l-.06.19Zm2.11-3.15l.08-.05s-.04.03-.08.05Zm8.44.07h0s-.03-.02-.05-.05c.02.02.02.03.06.05Zm1.94,3.37s0,.13.03.18c-.01-.07-.02-.14-.03-.18Zm-1.85-3.55h0s.02.01.02.01h-.01Zm-6.2-1.04l.13-.05-.09.03-.03.02Zm6.22,1.05l.13.12s-.08-.08-.13-.12Zm.45.71s-.07-.03,0,.04v-.04Zm.13.17v-.02s-.03-.03-.03-.03l.03.04Zm-3.38-2.28h.02c.05.02.02,0-.02,0Zm-6.86,2.66l-.02.02v.03s.02-.05.02-.05Zm-1.34,4.03c-.01-.07-.03-.16-.06-.11.03.07.01.09.04.17,0,.06,0,.11-.02.1,0,.02,0,.1.01.13.02-.08.02-.18,0-.29,0-.02.01,0,.02,0Zm1.45,4.84l-.02-.05s-.11-.1.02.05Zm-1.39-6.16c-.01.06-.04.14-.05.22h0s.05-.16.04-.22Zm16.5,1.76h-.02c.06.06,0,0,.02,0Zm1.25,1.95s-.02-.03-.02-.03c.01.02.02.04.02.03Zm-.7-1.47l.07.09-.03-.07-.04-.02Zm1.1,3.18h0s0-.02,0,0Zm-11.24,5.19l.05.04-.09-.08.04.04Zm5.73-10.48c.07,0,.08,0,0-.02-.1,0,0,.01,0,.02Zm-3.26.23h-.02s0,.02,0,.02l.02-.02Zm6.08.55h0s0,.01,0,.01h0Zm.04.03l.08.06s-.04-.03-.08-.06Zm2.69,8.16h0s0,.02,0,.02v-.02Zm-7.61-9.03l-.05.02h.05s0-.02,0-.02Zm.03,0s.04,0,.06,0c-.02,0-.05,0-.06,0Zm3.44.23h-.03s-.03,0-.03,0h.06Zm-2.21-.18c.25.02-.05-.02.2-.02h-.2s.08.02,0,.02Zm-6.59,5.04v.02s0-.03,0-.03v-.02s0,.03,0,.03Zm.49-2.16s.05-.13-.04.03l.04-.03Zm3.99-2.73c-.06.01-.11,0-.1,0-.02.01-.09,0-.12.03.08,0,.18,0,.28-.04.02,0,0,.01,0,.02.07-.03.14-.06.09-.08-.06.04-.08.03-.15.08Zm.31-.11h.03s-.03,0-.03,0h0Zm.57-.1h-.03s0,.02,0,.02l.03-.02Zm7.3,9.68l-.06.08v.02s.06-.1.06-.1Zm.55-3.72v.02c.02.05,0,.02,0-.02Zm-1.21-3.22l.08.11-.06-.08-.02-.03Zm-11.04,7.3h0s-.02-.02-.02-.02l.02.02Zm11.43-.32h.04c.02-.06,0-.08-.04,0Zm-2.1,2.28s-.12.04-.16.07c.06-.03.13-.05.16-.07Zm2.64-2.94l-.05.17s.03-.11.05-.17Zm-5.02-9.09l-.11-.02s.08.02.11.02Zm5.05,7.97s0,0-.01.03v-.03Zm-5.34,4.78c.12.01-.19.04,0,.05-.02,0,.16-.05,0-.05Zm4.7-2.82h.01s.01-.04.01-.04l-.03.04Zm.42-.88h0s.01-.07.01-.07c0,.03-.01.03-.02.07Zm-5.41-9.1h-.01s0,.01,0,.01h.01Zm-1.71-2.72c.01.05,0,.06.01.12-.01.04-.03.07-.04.06,0,.02-.02.06,0,.09.03-.05.05-.11.05-.19.01-.01.01,0,.02,0,0-.05,0-.11-.04-.09Zm.17-.48v.02s0,0,0,0v-.02Zm-.14.35v.02s0,0,0,0v-.02Zm.13-.33v.04s0-.03,0-.03h0Zm-.18.82h0s.01.02.01.02v-.02Zm.31-1.12s-.06.08-.07.13h0s.07-.09.07-.13Zm1.34,5.21h.01s-.01,0-.01,0h-.01s.01,0,.01,0Zm-1.08-1.05s-.08-.07,0,.04v-.04Zm7.54-5.07h0s0,.01,0,.01h0Zm.27.4l.02.07h.01s-.03-.07-.03-.07Zm-.11.18s-.05-.02-.02.03l.02-.03Zm-1.75-1.94h.01s.01,0-.01,0Zm2.34,3.97s-.01.08,0,.12c0-.05,0-.1,0-.12Zm-3.51,4.46h.04s-.08,0-.08,0h.04Zm-.54.29h0s-.02,0-.02,0h.02Zm-.97-9.14l-.02.03.08-.03h-.06Zm4.78,6.24c.04-.07-.01.13.05.03-.01,0,0-.12-.05-.03Zm-7.8-4.47h0s0,.01,0,.01h0Zm3.89-1.81h.06s-.06-.01-.06,0Zm-1.33.29v.02c.05-.02,0,0,0-.02Zm-2.71,2.01c.11-.13-.04.02.06-.12l-.07.11s.05-.03.02.02Zm1.84-1.69h0s0,0,0,0h-.01Zm2.39-.5s.03,0,.03,0c-.02,0-.03,0-.03,0Zm-3.94,1.75s.02-.05-.01-.01c-.03.06.01,0,.01.01Zm.07-.15v.04s0,0,0,0c.01-.01,0-.03,0-.05Zm7.32.8h0s-.01-.03-.01-.03l.02.03Zm-.36-.55h0s-.03-.04-.03-.04c0,.01.01.02.03.04Zm-5.44-1.36l.06-.02s-.03,0-.06.02Zm1.71-.46h-.02s.09-.01.09-.01h-.06Zm1.79.31h0s0,0,0,0Zm-4.41.73h-.02s0,.03,0,.03l.02-.03Zm6.81-4.82h-.03s.06.04.06.04l-.03-.04Zm.59.54h0s0,0,0,0Zm-3.68-1.35h0s0,.01,0,.01h0Zm4.98,5.08l-.03.06h0s.02-.06.02-.06Zm-1.3-3.74l.05.03s-.04-.04-.05-.03Zm.99,1.4h0s0,.02,0,0Zm.34,1.9h0s0,.01,0,.01h0Zm-1.07,2.35s.06-.06.07-.08c-.02,0-.06.05-.07.08Zm-2.03-6.7l.05.03s-.03-.02-.05-.03Zm-5.06,4.34h0s0,0,0,0h0s0,0,0,0Zm1.36-3.82h0s0,.02,0,.02v-.02Zm4.42-.16l-.02.02s0,0,.02-.02Zm.64.5h-.02s.07.04.07.04l-.05-.04Zm-3.22-1.02s.05-.02,0-.02c-.06.01,0,.01,0,.02Zm-1.27.17l-.03.02.03-.02h0Zm-.4.32s0,.01.01.02c.02-.04.05-.09,0-.1-.02.05-.03.05-.05.11-.03.03-.06.04-.06.03,0,.01-.05.03-.05.06.05-.02.1-.06.14-.11Zm-1.7,2.66l.03-.03s0-.09-.03.03Zm1.81-2.83h-.01s0,.02,0,.02v-.02Zm.44-.24h0s.11-.02.13-.04c-.04,0-.09.01-.13.04Zm-.13.08h-.02s0,.02,0,.02v-.02Zm-.56,7.13h0s-.02-.01-.02-.01h.01Zm6.51-2.28h.03s-.03-.06-.03,0Zm-.43-2.68h0s0,0,0,0Zm.44,2.8h0s0-.03,0-.03v.03Zm-2.08,2.69c.07-.01-.09.08.02.05-.01,0,.07-.08-.02-.05Zm2.13-3.29h0s0-.04,0-.04v.04Zm-1.08-3.13s.02.02.02.01h-.02Zm-2.8-1.41h-.02s-.02,0-.02,0h.03Zm-.73-.04l-.04.02v.02s.03-.02.04-.04Zm1.68.19h0s0,0,0,0h0Zm4.88,14.9s0,.03,0,.03c0-.02,0-.03,0-.03Zm-.16.7l.02-.09-.02.07v.02Zm-.4.78l.02.02c.02-.05,0,0-.02-.02Zm-.56.73h0s0,0,0,0h0Zm-1.53,1.04l-.03.03h.01s.02-.01.02-.03Zm1.55-1.06l.05-.04s-.03.02-.05.04Zm-.81.74h-.02s0,.03,0,.03l.03-.03Zm-2.09.45h0s.11.02.15,0c-.04,0-.09-.01-.14,0Zm1.12-.17h0s0,.01,0,.01h0Zm-.32.2l-.13.02s.06.02,0,.03c.17,0-.04,0,.13-.04Zm2.75-2.41l.03-.07-.04.04v.03Zm.64-1.89v-.1s-.03.04-.03.04c0-.04,0-.07.01-.07-.01-.04-.03.03-.05-.04.01-.05-.01-.15.02-.16,0,.15.03-.02.03.11v-.09s0,0,0,.01c.02-.15-.04-.06-.05-.22.02.02.03-.04.02-.06,0,.06-.02.03-.04-.02,0-.1-.02-.1-.03-.15v.06s-.02-.06-.03-.13c.01,0,.02.06.02.03-.03-.07,0-.17-.05-.27,0-.05.03-.01.02-.05-.05-.11-.01-.13-.06-.24-.01.04,0,.05-.05-.03l.07.19-.06-.12c.02.06.05.12.05.16-.03-.05-.03-.05-.04-.02,0-.09-.06-.15-.07-.25h.05c-.03-.16-.12-.24-.18-.42l.02.06s-.05-.11-.08-.16c.02,0,0-.04,0-.07,0,0-.07-.12-.1-.12l-.02-.08c-.06-.14-.13-.13-.19-.26.04.03.02-.04.07.04-.02-.04-.04-.08-.05-.08,0-.03-.1-.1-.11-.14-.02-.01-.04,0-.07-.05h0s-.06-.07-.05-.02c-.04-.16-.25-.33-.31-.45-.08-.07-.17-.16-.24-.23,0,0,0,0,.02,0-.08-.11-.09-.02-.2-.13-.04-.07.07.04.04,0,.02-.06-.15-.1-.21-.19h.02c-.05-.05-.16-.09-.27-.16h0c-.09-.03-.24-.1-.35-.15.04,0,.05.02.04-.01-.05-.02,0,.04-.1,0-.03-.03-.09-.08-.09-.1l.09.05c-.03-.06-.12-.06-.17-.08h.01c-.15-.06-.16-.03-.32-.1v.02c-.08,0-.05-.05-.15-.06l-.02-.04s-.05,0-.09,0c0,0,0-.01,0-.02.01,0,.03,0,.04,0,0,0-.02,0-.04,0,.04-.38.08-.78.05-1.17-.01-.16-.09-.08-.07-.29l.04.05c-.07-.27-.11-.55-.19-.81.27-.22.55-.46.77-.74.09-.12-.01-.11.13-.24v.06c.1-.28.31-.53.37-.82,0,.02,0,.02,0,.05.04-.05.07-.22.06-.22.02-.04.02,0,.04-.03.03-.06.02-.16.05-.18,0,0,0,.02,0,.03,0-.04.06-.18.02-.15.04-.1.02-.21.05-.29-.02-.06.04-.19,0-.21.05.01.05-.19.02-.26.01.02.01-.06.03-.03,0-.08,0-.15-.03-.14.05-.15-.04-.29,0-.37-.05-.23-.07-.44-.13-.65.04,0,.05.23.08.21-.04-.2-.11-.3-.14-.49,0-.05.02.02.03.04-.04-.19-.12-.37-.19-.53,0,0,.01.02.02.03-.01-.03-.02-.08-.04-.07l.02.03c0,.06-.1-.11-.11-.11.07.03-.05-.17.04-.11-.01-.02-.03-.04-.04-.03-.01-.03-.01-.04.02-.02-.07-.1-.07-.06-.12-.15,0,0,.02.01.04.02-.04-.04-.09-.08-.13-.17,0,0,0-.01.02.01-.09-.14-.17-.22-.28-.36.06.02-.03-.05,0-.08l-.07-.07v.04c-.04-.07-.11-.11-.15-.17l.05.04-.11-.12.05.08c-.07-.05-.02.03-.09-.06.02.01-.06-.06-.08-.1-.04-.02-.08-.04-.12-.09,0-.02.03-.02.03-.03-.05,0-.15-.13-.21-.14.02,0,.03,0,.03-.01h-.04s-.03-.04-.01-.05c-.09-.07,0,.05-.1-.04,0,0,0,0,.03.01-.11-.09-.23-.15-.32-.23-.01-.05.1.06.08.01-.15-.11-.35-.17-.49-.27l.03.02s-.1-.09-.2-.11c.02,0,.04-.01.03,0-.11-.06-.23-.11-.41-.16h.03c-.07-.04-.18-.08-.25-.1-.03,0-.07,0-.05.02-.22-.13-.46-.05-.66-.14.03,0,.06,0,.04,0h-.18s.02.01.06.03c-.02.01-.08.02-.12.01.08,0,0-.03-.03-.05v.02c-.1-.04-.02.04-.15,0h0s-.15,0-.15,0c-.02-.02.05-.01.06-.03-.07,0-.14.05-.21.03l.11-.02c-.07-.03-.08-.02-.13-.02h0s-.13,0-.13,0h.03c-.09.07-.19.02-.31.08.12-.05.02-.02.02-.05-.03,0-.08,0-.07-.01-.03.02-.06.01-.09.01-.15-.25-.29-.5-.48-.78.04.14-.07-.09-.1-.04-.06-.07-.08-.09-.08-.1v.02s0-.02,0-.02l-.14-.23c-.03-.06.06.06.07.04-.12-.15-.03-.08-.1-.19,0,.03-.07-.03-.14-.12l.09.13c-.21-.18-.13-.2-.33-.38l.07.05c-.09-.1-.37-.36-.5-.42-.01-.02-.03-.05.02-.02-.24-.23-.62-.42-.82-.58h.03c-.06-.03-.11-.03-.17-.08,0,0,.03,0,0-.01-.03-.01-.16-.06-.22-.11l.07.02c-.28-.17-.47-.18-.72-.28.01-.04-.23-.13-.35-.17h0c-.37-.11-.64-.15-.99-.17-.21-.08-.74-.09-1.09-.09.05,0,0,.03-.07.04-.08,0-.22.04-.21,0h.03c-.06-.04-.23-.01-.36,0l-.02.05c-.36-.03-.88.18-1.08.18l-.25.1v-.03c-.23.05-.33.11-.6.21l.05-.04c-.15.05-.16.14-.3.2l-.06-.02c-.26.11-.52.22-.75.38,0,0,0-.02.04-.04-.12.06-.45.25-.38.26-.02-.02-.25.15-.36.26v-.03c-.08.1-.08.11-.21.23-.04.02-.04,0,0-.02-.12.08-.08.08-.21.18l.04-.05c-.11.09-.1.09-.14.16-.06.07-.21.18-.24.17,0,.02-.05.09-.11.15-.01,0,0-.02.01-.04-.18.16-.23.27-.36.38h-.03c.13-.13.24-.24.23-.23-.02-.02-.13.09-.06-.02-.08.1-.2.28-.3.39h-.02s0,0,0,0l-.06.08-.09.09s-.12.13-.16.2c.02,0-.04.09.03.02,0,0,0-.01.04-.06l.02-.03h0s.07-.09.12-.15c-.03.06-.06.11-.12.17-.01.04-.02.09-.03.11-.09.07-.22.22-.26.23-.11.21-.29.48-.31.64-.02.06-.04.06-.06.08.01-.04.03-.08.04-.1-.05.13-.17.36-.15.4-.08.15,0-.1-.08.12v-.03c-.21.41-.18.72-.33,1.21,0-.03.01-.05.02-.06-.13.48-.1,1.01-.08,1.5-.04,0-.08,0-.07,0-.13-.08-.28,0-.35-.08-.23,0-.43-.05-.63-.02,0-.04.22,0,.22-.04-.19,0-.31.05-.5.04-.05,0,.03-.02.04-.02-.19.02-.38-.01-.54.06,0,0,.02-.01.03-.02-.03,0-.08.01-.07.03h.03c.06,0-.12.07-.12.09.04-.06-.17.03-.09-.06-.02,0-.05.02-.04.03-.03,0-.05,0-.02-.02-.12.04-.07.05-.18.07,0,0,.02-.02.03-.03-.05.03-.1.05-.18.09,0,0,0,0,0-.01-.13.07-.22.14-.37.21.03-.06-.06.02-.08,0l-.08.06h.04c-.07.04-.12.09-.18.12l.04-.04-.12.09.08-.04c-.06.06.03.03-.06.09.02-.02-.06.05-.11.06-.03.03-.05.06-.11.09-.02,0-.01-.04-.02-.04-.02.04-.14.12-.16.18,0-.02,0-.03,0-.03v.04s-.05.02-.05,0c-.09.07.05,0-.06.08,0,0,0,0,.01-.03-.11.08-.18.19-.27.27-.05,0,.07-.09.02-.07-.12.14-.23.3-.33.44l.02-.02s-.09.09-.13.17c0-.02,0-.04,0-.03-.08.09-.11.22-.19.38v-.03c-.05.06-.09.16-.12.23,0,.03-.01.07.01.05-.16.2-.08.44-.16.63,0-.02,0-.06,0-.04v.18s0-.02.02-.06c0,.02.01.07,0,.12,0-.08-.03,0-.05.03h.02c-.05.09.04.02,0,.15h0s0,.08,0,.13c-.03.02,0-.05-.02-.05-.01.07.04.14.02.2l-.02-.1c-.02.07-.02.08-.02.13h0s0,.12,0,.12v-.03c.07.09.03.18.07.3-.04-.11-.02-.02-.05-.03,0,.03-.01.08-.02.07.02.05-.01.1.02.17,0,0,0,.06-.02.05,0,.07.01-.02.03-.01.03.11.02.27.09.42.02.04.03.08.04.1-.09,0-.04-.03-.08-.04-.07.02-.13.06-.18.06,0,0-.02,0,0-.01-.07.04-.23.03-.32.08h-.01s.02.02.02.04c-.04,0-.08.04-.1.02.03,0,.03-.02.04-.03l-.04.02s.06-.03.05-.05c-.09.04-.18.09-.25.1-.02-.02.15-.06.06-.06l.11-.02c-.09-.02.06-.01-.02-.04-.14.03-.15.06-.29.09-.03.02.02.02,0,.04-.18.08-.18,0-.3.09-.03.04-.02.08-.12.11l.02-.05c-.13.06-.05.08-.19.13.01-.03.09-.06.07-.06-.1.02-.05.04-.1.09h-.03c-.11.09-.22.21-.33.32,0-.01.02-.04-.02-.02-.16.14-.32.3-.44.46l-.02.08s-.03.02-.02,0c-.05.06.01.01,0,.05-.02.04-.05.04-.04.01-.06.13-.2.33-.27.45v-.03c-.05.1,0,.14-.07.22v-.02c-.1.22-.22.45-.29.63.03.04-.07.23-.03.26-.06.13-.06.09-.12.27-.01.05.01.08,0,.14h-.03s.02.09.02.09l-.04.04v.06s.02-.05.03-.04c0,.09-.04.23-.06.23v.22s0-.04-.01-.07c.03.12-.03.02,0,.13,0-.01.02,0,.02.01-.02.05-.02.18-.01.27l-.02-.02c0,.17.04.35.05.53,0-.07.04-.06.04,0l-.03.03s0-.06.03.01c0,.07-.02.05-.04.01l.03.08s-.02-.01-.03-.02c.02.03,0,.15.04.19h0c.03.19.07.27.12.41.02,0,.04.05.07.09.02.11.06.23.12.35.05.08.03.02.06.05-.02.02.04.14,0,.08.08.14.11.18.23.34,0-.02-.01-.05,0-.04.02.03.03.08.02.08h0c.16.16.27.46.44.55h0s.15.11.15.11c.06.06-.05-.02-.01.03.18.1.24.22.4.28.07.14.4.23.54.34v-.02s.04.03.07.05c0-.01-.04-.03-.01-.03.36.12.75.27,1.15.31.14.02.09-.07.27-.03l-.05.03c.29-.02.59-.01.87-.07-.02,0-.02.02-.04.02.06.02.22-.02.22-.04.04,0,.01.01.04.02.06,0,.14-.06.18-.04,0,0-.02.01-.03.01.04-.02.18-.04.14-.05.11-.01.2-.05.28-.06.05-.04.18-.02.19-.07,0,.04.18-.03.24-.08-.02.02.06,0,.04.02.07-.03.14-.06.12-.07.09,0,.16-.05.23-.08.05.06.1.1.14.16,0,0,0,.02,0,.01.09.1.23.31.35.41v.02s.01-.04.03-.05c.05.06.1.09.1.13-.03-.04-.04-.03-.06-.04l.06.05c.02.07-.08-.07-.09-.06.1.11.25.21.32.3,0,.04-.2-.18-.11-.06l-.12-.13c.06.13-.07-.08-.02.04.16.17.19.18.37.35.05.02,0-.03.05,0,.28.18.15.24.38.34.07.02.11,0,.24.11h-.07c.19.12.13.03.33.16-.04,0-.17-.07-.14-.05.13.09.11.03.21.09v.04c.22.12.49.18.74.27-.02,0-.06,0,0,.03.33.09.69.22,1.01.29h.13s.05.02.02.02c.12.03,0-.01.07-.01.07.01.09.03.04.03.11.01.28.02.44.03,0,.02.01.04.01.07v-.03c.06.39.23.8.32,1.09.05.04.15.37.21.36.09.21.04.16.2.44.05.07.1.09.16.17l-.02.02.1.1.02.08.07.07s-.05-.07-.04-.07c.11.11.23.3.22.31.08.09.17.17.27.25-.01,0-.06-.04-.1-.06.16.11,0,.04.16.15-.01-.02.02,0,.03,0,.06.07.2.22.33.3h-.04c.21.17.46.34.72.5-.09-.07-.05-.08.03-.03v.04c.07.02-.06-.06.05-.01.09.06.05.07-.01.04l.12.07s-.03,0-.04,0c.06.02.19.15.27.17h0c.09.07.17.11.24.15,0,.14.01.29.02.43.02.44.03.86.03,1.26s-.03,4.51-.05,4.92c-.04.9.02,3.71-.38,3.98-.67.4-1.26.3-1.77.3-.27,0-8.62.26-8.88.27-1.13.04-1.28.07-1.3.16-.01.07,7.24.18,8.34.18h5.2c.21,0,.54-.04.57-.23.07-.2-.08-2.39-.19-3.07.02.3-.14-1.27-.2-2.85-.04-.93-.11-3.41-.07-3.93.02-.25.05-.5.06-.76.17.06.27.07.55.12-.03-.02-.07-.03-.05-.03.06,0,.13.04.12.05h-.02c.37.04.85.15,1.15.1h-.02s.31-.02.31-.02c.14,0-.08.02.02.03.33-.04.52-.03.79-.07.22.05.74-.1,1.03-.12h-.02c.07-.04.09-.02.14-.03-.01-.01-.08,0-.04-.01.61-.14,1.25-.34,1.83-.66.2-.14.06-.15.32-.3l-.05.08c.38-.31.69-.68,1.01-1.02-.01.03,0,.03-.04.06.08-.06.22-.29.21-.3.05-.06.02,0,.06-.03.07-.07.13-.21.18-.24,0,0-.01.03-.02.04.03-.06.18-.24.13-.2.13-.13.15-.3.24-.41.02-.09.15-.26.13-.3.02.03.19-.26.18-.38,0,.04.04-.09.04-.04.03-.12.06-.24.03-.22.11-.22.08-.46.18-.58,0-.14.01-.27.02-.4h0c.07-.01.1.01.1.02h-.05c.05.06.21.01.31.02l-.04.03.11-.02s.04.03-.01.03c.07.02.07-.02.13,0h0s.07-.01.07-.01c-.01,0,.01.02-.03.02.13,0,.21-.05.26-.02h-.01c.18-.03.02-.03.15-.07l.1.06v-.03s.07,0,.06,0c.07-.02-.01-.01.02-.03.1.03.24-.07.27-.03.03-.03-.09,0,0-.03.04.04.11-.04.19-.04-.02.03-.1.04-.01.04.04-.05.16-.04.22-.06,0-.03.15-.04.24-.12,0,.01.2-.08.31-.12h0s.11-.08.18-.12c0,.02,0,.03-.04.06l.07-.04s.03-.04.07-.07v.03c.08-.06.15-.15.26-.22,0-.02-.12.01-.02-.08.01,0,.03.02,0,.05l.05-.04-.03.05c.05-.03.01-.03.05-.06.01.01.04-.01.04,0l-.05.04s.1-.06.13-.07c-.01,0-.02-.02.01-.04.08-.07.04,0,.09-.04,0-.03.06-.07.05-.09.02-.02.03-.02.05-.02.03-.05.17-.19.11-.16h-.01s0,0,0,0c.11-.14.25-.26.33-.41h0c.05-.09.12-.19.15-.26.02-.03.05-.05.06-.04.03-.07.03-.09.09-.18-.02.08.02-.02-.03.08.05-.09.07-.1.1-.21,0,.04.06-.06.07-.1l-.05.06.07-.14v.04c.14-.18.09-.38.21-.5,0-.06-.05.1-.06.05.04-.09.11-.17.12-.2.05-.12-.01-.13.03-.26-.01.01-.05.02-.03-.08.03-.09.07-.11.06-.04,0,.02-.01.03-.01.03,0,.03,0,.07.01.04h0c.02-.06.05-.19.06-.16,0-.07,0-.03-.03.02.05-.12.03-.19.06-.32,0,.02-.02.04-.02.02.04-.19,0-.08,0-.21.03-.07.03.03.04-.1.02-.08.03-.01.03.02-.01-.12.02-.22.02-.29v.06Zm-18.92-14.71h0s0-.02,0-.02c.03-.04.05-.05.05-.05l-.06.07Zm15.44,8.71s-.02-.05-.04-.03c.01.05.03-.02.06.08,0,.04,0,.12-.02.13l-.02-.1c-.02.06.03.13.02.18h-.01c.02.15.05.15.07.32v-.02c.05.09,0,.08.03.17l-.03.03c0,.06.04.21.04.32-.03-.06-.04-.19-.06-.27,0,.06,0,.2.02.23v-.08c.02.07.04.17.03.29-.05-.02-.05.17-.07.3-.01,0-.02,0-.03,0h.03s0,0,0,.01c-.07,0-.15,0-.24-.03.04-.07-.31-.07-.39-.13-.22-.01-.42-.05-.68-.04.09.05-.07,0-.06.06-.06,0-.08,0-.09,0l-.18-.02s.05-.02.05-.03c-.13.01-.06-.02-.14-.02.02.02-.04.03-.11.04h.11c-.17.06-.16-.01-.33.04l.05-.02c-.09.01-.34.07-.41.14-.02,0-.04-.01,0-.03-.22.04-.46.19-.62.24v-.02s-.05.05-.1.06c0,0,0-.02,0-.01-.02.01-.09.06-.14.08l.04-.03c-.2.08-.27.2-.42.3-.02-.03-.18.04-.24.09h0c-.19.16-.32.28-.47.46-.06.04-.14.12-.23.21-.26-.14-.54-.19-.78-.31.04.01.1.02.07,0-.1-.02-.19-.06-.28-.07.02.03.04.02.09.05-.04,0-.12,0-.19-.02.13.01,0-.03-.05-.05,0,0-.01.01,0,.02-.14-.07-.03.04-.23-.03h.01s-.23-.03-.23-.03c-.03-.03.08,0,.09-.02-.12-.01-.24.02-.34-.02h.17c-.11-.03-.13-.03-.21-.04h0s-.12-.02-.12-.02c-.03-.22-.06-.44-.12-.66-.05-.23-.11-.11-.16-.41l.05.07c-.05-.14-.1-.27-.15-.41.06-.03.13-.07.22-.11-.03,0-.06.01-.03,0,.26-.12.1-.07.27-.17.1-.04-.01.05.14-.06.11-.05.04.01,0,.04.14-.11.29-.16.38-.21l-.07.06.12-.09h-.06s.08-.04.09-.03c.04-.04-.05,0,.03-.08.07-.03.17-.14.21-.13-.19.13.04,0-.12.12.03-.02.07-.05.11-.08,0,0,0,0-.01.02.19-.11.07-.08.25-.22-.01.03.06,0,.09-.04-.07.06-.05,0,0-.06.12-.08.12-.11.18-.15l-.07.05s.07-.07.15-.14c.01,0-.07.06-.03.05.07-.09.22-.14.32-.26.06-.04.02.02.08-.02.01-.01.02-.02.03-.03.06.03-.01.03.08.06-.01-.01.01-.01.02-.01.04.04.16.09.25.12h-.02c.15.08.33.15.51.2-.06-.03-.04-.06.02-.04v.03c.05,0-.04-.03.04-.03.06.03.03.05,0,.04l.08.02s-.02,0-.03.02c.04,0,.13.08.19.06h0c.18.07.27.08.42.12,0-.02.07,0,.11,0,.11.04.23.08.36.1.1,0,.03-.02.08-.02,0,.02.14.04.07.05.16.03.21.02.42.01-.02,0-.05-.02-.03-.02.04,0,.09.01.08.02h0c.23,0,.55.03.73-.05h0s.18-.08.18-.08c.09-.02-.05.03.02.03.19-.09.32-.1.46-.21.16,0,.42-.23.58-.31h-.02s0-.02.01-.02c.02.04.03.08.04.13h0c.05.08.09.24.12.35Zm-.14,2.37c-.01.05-.02.07-.02.08h0s0,0,0,0l-.08.15s.01-.05,0-.05c-.05.11-.04.04-.09.11.02,0,0,.05-.03.11l.06-.08c-.04.17-.1.12-.15.29v-.06c-.01.09-.16.28-.16.38-.01.01-.04.02-.02-.02-.11.18-.25.41-.37.52v-.02s-.03.07-.08.09c0,0,0-.02-.01,0-.01.02-.06.09-.1.12l.02-.04c-.15.14-.21.24-.35.35-.02-.03-.16.06-.23.1h0c-.22.1-.34.24-.54.33-.06,0-.13.03-.22.06-.07-.1-.14-.2-.21-.3,0-.07.11.14.09.07-.15-.26-.45-.43-.63-.65l.04.04c-.06,0-.14-.17-.25-.26.03.02.05.01.04.01-.12-.16-.33-.23-.58-.39h.04c-.09-.06-.25-.16-.35-.24-.04-.01-.1-.05-.07-.01,0,0,0,0-.01-.01.01-.01.02-.03.04-.04-.05.05-.07.01-.03-.03h.04s-.05.04-.01-.03c.05-.05.06-.01.04.02l.05-.07s0,.02,0,.03c.01-.04.12-.1.14-.15h0c.15-.12.21-.18.33-.29-.01-.02.04-.06.06-.1.1-.06.23-.11.34-.18.08-.06.01-.03.04-.07.02.02.14-.06.08,0,.14-.09.19-.1.38-.2-.03,0-.05,0-.04,0,.03-.02.09-.03.08-.01h0c.21-.14.55-.1.72-.2h0c.06-.02.13-.04.19-.05.09,0-.05.02.02.03.21-.06.34-.05.51-.08.14.08.49-.03.67.05v-.02s.05.02.08.02c0-.01-.05-.02-.02-.03.22.01.45.06.67.13-.03.18-.07.36-.13.56.08-.07-.02.07.04.07Zm-2.87,2.59c-.05,0-.14.06-.14.03h.02s-.15.01-.23.02v.05c-.24-.04-.58.12-.71.05l-.17.03v-.02c-.15,0-.22,0-.4,0h.04c-.1-.03-.13.05-.23.04l-.03-.04c-.18,0-.35-.07-.53-.08,0,0,.01-.01.04,0-.02,0-.06-.01-.09-.03h0c-.03-.06.09-.25.04-.28.07-.13.06-.09.14-.28.03-.05,0-.09.03-.15h.03s.01-.09.01-.09l.05-.03.02-.06s-.03.04-.04.04c.03-.1.12-.21.13-.21.03-.08.05-.15.09-.22,0,0-.01.04-.02.07.05-.12.04,0,.08-.11-.01,0,0-.02-.01-.02.05-.04.12-.15.17-.23v.03c.07-.11.16-.23.25-.34.02.02.02.03.03.04.07.03.3.2.25.13h-.02s.01,0,.01,0c.22.13.45.29.64.45h0c.11.11.24.24.33.3.03.03.06.09.04.08.09.08.1.08.21.21-.09-.07.02.04-.09-.08.1.11.12.14.24.25-.05-.03.04.11.09.17l-.05-.1.12.18h-.04s.04.06.06.09c-.11.04-.22.07-.32.08.04,0,0,.03-.04.04Zm-2.61,0s-.04,0-.04.02c0-.03-.17-.07-.27-.09l.02-.02c-.09,0-.09,0-.2-.03-.02,0-.02-.02,0-.02-.06-.03-.06,0-.15-.06h.04c-.08-.04-.08-.03-.13-.04-.06-.02-.15-.1-.15-.12-.01,0-.04,0-.07-.01.03-.25.03-.61.05-.83l-.02.02c-.01-.08,0-.09.01-.15-.01,0-.01.08-.02.03-.02-.38-.03-.79-.07-1.19.05,0,.11,0,.16.01-.01.02.32.04.48.1h0s.2.02.32.04c0,.02-.03.02-.1.02l.11.02s.06,0,.14.02h-.03c.14.06.3.08.48.15.02-.02-.12-.11.08-.05,0,.01,0,.04-.05.02.02,0,.06.02.09.04h-.08c.08.03.05-.01.11.02,0,.02.04.03.03.04-.02,0-.05-.03-.08-.04.07.04.15.08.18.11,0-.01,0-.02.06,0,.03.01.04.02.05.03-.07.08-.14.17-.2.24.03-.03.02.02,0,.06-.04.04-.06.14-.08.11v-.02s-.1.11-.14.19l.03.04c-.18.16-.24.55-.35.63-.01.05-.04.11-.05.17h-.02c-.05.13-.08.21-.13.39v-.04c-.03.08,0,.13,0,.19Zm5.55-3.36s.04,0,.06,0c0,0,0,0,0,.01-.02,0-.04,0-.06,0Zm-6.67,1.97c.02.26,0,.51-.03.79-.07-.03-.14-.07-.19-.12h0s0,0,0,0l-.05-.03-.05-.06s-.08-.09-.11-.12c-.01.02-.06-.03-.03.03,0,0,0,0,.03.03h.02s0,.01,0,.01l.09.09s-.07-.04-.11-.09c-.03,0-.06-.01-.08-.02-.03-.07-.11-.18-.11-.21-.12-.1-.25-.26-.35-.3-.03-.03-.02-.05-.03-.06.02.02.04.04.05.04-.07-.06-.18-.19-.21-.19-.05-.1.06.03-.03-.09h.02c-.12-.26-.37-.33-.45-.67,0,.02.01.03,0,.04-.02-.05-.04-.09-.06-.14.01,0,.03,0,.04,0h-.02c.27-.02.02-.03.23-.07l.14.06.03-.03s.08,0,.07.01c.1-.02-.02-.01.04-.03.13.02.37-.02.4.02.05-.02-.13-.01.01-.03.04.05.17-.01.29.01-.04.02-.15,0-.03.03.07-.04.24.02.34.01,0,0,.02-.01.04-.01h0s-.04.01-.04.01v.02s.03,0,.04-.01c.01.08.03.15.04.17l-.02-.11c.04.11.09.25.09.43-.07-.03.02.47-.04.6Zm-.12.94l-.07-.06s.01-.01.03,0c-.01,0,.02.03.05.06Zm0-.16v-.02s.06.05.09.07c0,0,0,.01,0,.02-.03-.02-.06-.04-.09-.07Zm-.17.03h0s-.04-.03-.04-.03l.04.03Zm-.03-.25l-.04-.04h0s.02,0,.02,0c.03.02.03.03.03.04Zm-1.64-2.52c.22-.06.41-.15.6-.17.07-.05-.17.04-.1,0,.14-.04.3-.05.34-.07.2-.05.16-.11.36-.18-.03,0-.06-.01.08-.09.14-.05.18-.03.1.01-.03.01-.05.02-.05.01-.04.02-.1.05-.04.04v-.02c.08-.02.27-.1.23-.07.09-.06.04-.04-.04,0,.04-.01.06-.03.09-.04.01.03.02.05.03.08-.04-.05-.04-.07-.05-.03.03.08.03-.03.08.12,0,.05.03.17,0,.19l-.05-.14c0,.08.06.19.08.26h-.02c.08.21.1.21.15.46v-.03c.07.13.01.12.07.24l-.03.05s.03.1.04.17c0,0-.01,0-.02,0,0-.03-.02-.06-.02-.09,0,.02,0,.05.01.09-.1,0-.2-.01-.33,0,.19-.03.03-.02.05-.05-.05,0-.13-.02-.11-.03-.09.02-.16-.01-.29.02,0,0-.1,0-.08-.02-.12,0,.03.01.02.03-.19.03-.44-.02-.71.03-.07,0-.11.02-.16.03-.12-.26-.24-.53-.27-.81Zm.05.8s.01,0,.02,0h0s0,.02-.02,0Zm-.15-1.17c-.03-.16.02-.27-.01-.47l-.02.03c0-.07-.01-.23,0-.21,0,0-.02-.02,0-.05h.01s-.01-.18-.01-.18c.02-.13.05.03.07-.17,0-.07-.01-.21-.03-.19,0,.03-.02.07-.03.07v-.07s-.03-.02-.04-.02c0,0,0-.02.01-.03l-.02-.04v.07s0,0,0,0c-.02,0-.04.03-.06.11v.12s-.01.04-.01.04v-.1c-.02.05,0,.09,0,.13l-.03.05.03.12s-.03-.05-.04.02c.01.06.04-.05.05.04-.02.06-.03.04-.02.11-.01,0-.02,0-.02-.03.01.06,0,.16.03.19-.02.06.01.2-.03.2.01.02.04.1.05.16-.06-.09.02.2-.03.18.02.04.04.1.06.18h-.02s-.03.03-.03.03l.06-.02s0,0,0,.01c-.08.02-.15.04-.23.04-.07-.02.18-.04.1-.05-.29.06-.6.13-.89.14h.05s-.22,0-.36.01c.04,0,.05-.03.04-.02-.2-.01-.4.02-.7,0h.04c-.11-.03-.31-.04-.43-.07-.04,0-.11,0-.07.02-.37-.13-.73-.12-1.05-.27.04.01.1.02.07.01l-.28-.09s.03.02.09.06c-.04,0-.12-.02-.19-.04.13.03,0-.03-.04-.06,0,0-.01,0-.01.02-.13-.09-.04.04-.23-.07h.01c-.07-.03-.15-.05-.22-.09-.02-.04.08.02.09,0-.11-.05-.23-.05-.32-.12l.17.06c-.09-.07-.11-.07-.18-.11l-.16-.1c.02-.06.04-.11.06-.18-.02-.01,0-.07,0-.11.05-.1.08-.22.11-.35,0-.09-.02-.03-.02-.07.02,0,.05-.13.05-.06.01-.16,0-.21,0-.41-.01.02-.02.05-.02.03,0-.04.01-.08.02-.08h0c-.05-.21.02-.52-.07-.69h0s-.06-.17-.06-.17c-.02-.08.03.04.03-.02-.1-.18-.08-.31-.17-.45.02-.15-.18-.42-.24-.58v.02s-.03-.05-.04-.08c0,.01.01.05-.01.03-.1-.15-.19-.3-.29-.46.03-.02.07-.03.14-.05-.03,0-.06-.02.09-.07.14-.03.18.01.09.03-.03,0-.05,0-.05,0-.04.01-.1.03-.04.03h.02c.07-.02.26-.05.22-.03.1-.03.04-.02-.04-.02.18-.01.28-.04.47-.06-.03,0-.06-.01-.03-.02.28,0,.12-.02.31-.03.11.01-.04.04.15.02.11,0,.02.03-.02.04.17-.03.31.03.41.04h-.09s.14,0,.14,0l-.05-.03c.05,0,.1.01.09.02.06,0-.04-.04.07-.05.07.01.21.02.23.05-.19-.05-.03,0-.11,0,.02,0,.05,0,.08.02,0,0,0,0-.02,0,.2.07.1-.01.31.04-.03,0,.04.04.08.04-.09-.02-.04-.03.05-.03.13.05.15.04.22.06l-.08-.03s.1.02.19.04c0,.01-.09-.02-.06,0,.11,0,.23.09.38.14.06.04,0,.03.05.06.17.04.16.09.34.14-.04-.04-.05-.04.07,0l-.28-.1.19.04c-.08-.03-.18-.06-.23-.08.09.02.08.02.05-.01.1.08.24.07.35.15l-.02.05c.18.11.36.13.59.27l-.08-.05s.15.08.24.11c-.02.01.03.04.06.07,0-.01.17.1.21.09l.09.08c.18.12.25.09.41.23-.06-.02,0,.04-.11-.03.06.04.1.09.11.08.03.03.17.1.21.16.03.01.05,0,.11.06h0s.1.09.06.02c.05.08.14.17.23.26,0,.03-.01.05-.02.09-.03.04-.01-.05-.01-.05-.04.07-.06.13-.08.2,0-.02-.01,0-.03.01-.02.06.01.05-.03.12v-.07s-.06.21-.06.21c-.02.01,0-.05,0-.08-.02.08-.06.21-.05.24l.02-.05s-.02,0-.02-.01c0-.07.04-.09.05-.09v.05c.05-.03.05-.2.1-.3l.02.05v-.11s.05-.02.04.03c.04-.06.01-.07.06-.12h0s.02-.07.02-.07c0,.02.03,0,0,.04.01-.02.02-.04.03-.06.11.11.22.22.26.32.1.12.23.26.3.38,0,0,0,0-.02-.02.09.17.11.07.21.27.04.11-.08-.09-.05-.03-.03.05.15.22.18.38l-.02-.03c.03.11.16.23.22.41h0c.04.07.1.18.16.29-.05.03-.1.06-.15.07l.09-.05-.23.11.14-.04c-.12.07.03.03-.14.09.03-.02-.13.05-.2.06-.06.04-.12.08-.22.1-.03,0,0-.04-.01-.04-.05.05-.3.11-.37.16.02-.02.02-.03.01-.03l-.05.04c-.06.01-.07.01-.07,0-.18.04.07.03-.15.06.02,0,0,0,.04-.02-.08.02-.16.04-.23.06-.01-.04-.03-.06-.05-.1l.02-.03-.04-.1Zm-5.14-.7s-.08-.1-.06-.09c-.09-.05-.1-.12-.21-.19,0-.01-.07-.07-.04-.07-.09-.09,0,.03,0,.03-.15-.12-.26-.36-.46-.55-.15-.18-.2-.2-.34-.37-.03-.07.06.03.06.03-.06-.11-.11-.18-.18-.27.02.01.01,0,0-.04-.05-.07-.06-.03-.11-.14.02.01.05.03.08.06l-.2-.26s.05.05.08.07c-.07-.1-.18-.27-.22-.29l.03.07s0-.03.03,0c.07.08.07.14.07.14l-.04-.06c0,.1.17.27.25.4l-.07-.04.11.12s0,.07-.04,0c.05.1.06.08.1.17,0,.01,0,0,0,0l.07.09s-.01.03-.05-.03c.09.18.21.25.23.32h-.01c.17.2.04,0,.19.14l.03.15h.04s.05.07.04.07c.08.07,0-.02.05.01.07.12.26.28.25.33.05.02-.08-.11.03,0,0,.06.12.12.2.22-.04,0-.12-.1-.05,0,.07.02.14.12.22.19-.03.08-.05.15-.1.24-.1.08-.21.37-.35.51.02-.02.02.02,0,.05-.04.03-.06.12-.08.09h.01c-.05,0-.1.07-.15.13l.03.04c-.16.12-.33.4-.46.42l-.1.12v-.02c-.12.07-.16.13-.3.21l.02-.03c-.08.04-.06.12-.13.16l-.04-.02-.42.22s0-.02.02-.03c-.07.02-.28.07-.24.11-.01-.03-.16.05-.23.09v-.03c-.06.05-.05.07-.15.09-.02,0-.02,0-.01-.01-.06,0-.05.03-.14.03l.03-.02c-.08.01-.07.02-.12.04-.04.02-.13.02-.16,0-.06-.15-.17-.28-.21-.43.01.02.04.05.03.03l-.1-.15s0,.03,0,.07c-.02-.01-.05-.05-.07-.09.05.06.03-.02.02-.05h-.02c-.02-.09-.04.02-.09-.1h.01s-.09-.11-.09-.11c0-.03.04.04.05.03-.04-.06-.11-.09-.14-.16l.07.08c-.02-.08-.03-.08-.06-.12h0s-.07-.1-.07-.1v.03c-.09-.03-.11-.14-.22-.2.11.06.03,0,.06-.01-.01-.03-.04-.07-.03-.06-.05-.03-.05-.08-.13-.12,0,0-.04-.04-.02-.05-.06-.05,0,.02-.01.03-.1-.06-.17-.22-.32-.29-.12-.08-.16-.08-.27-.14-.03-.04.05,0,.05,0-.05-.05-.09-.09-.15-.12.02,0,0-.01,0-.03-.05-.03-.05,0-.1-.05h.06s-.18-.08-.18-.08c0-.02.05,0,.07,0-.06-.04-.17-.09-.2-.09l.04.03s0-.02.02-.02c.06.02.07.06.07.07l-.04-.02c.01.07.16.1.24.16h-.05s.1.04.1.04c.01.02,0,.04-.03.02.04.06.05.03.09.08h0s.06.04.06.04c-.01,0,0,.03-.04,0,.08.09.16.1.18.15h0c.13.09.03-.02.14.04l.02.1h.03s.03.03.02.03c.06.03,0-.02.04,0,.04.07.17.15.15.19.03,0-.04-.07.03-.01-.02.05.07.07.11.14-.03,0-.07-.06-.04,0,.06,0,.09.11.13.16.03-.02.09.1.17.17,0,0,.1.17.14.26h0s.09.08.13.15c-.02,0-.03,0-.06-.03l.03.06s.03.02.06.06h-.03c.04.08.12.14.15.26.02,0,.02-.11.08,0,0,0-.03.02-.04,0,0,0,.02.03.03.05l-.04-.04c.01.05.03.02.04.06-.02,0,0,.03-.01.03l-.02-.05s.03.1.03.13c0,0,.02,0,.04.02h0c-.13,0-.2.06-.29.03h-.02c.11,0,.2-.02.19-.02,0-.02-.09-.01-.02-.05-.07.02-.19.06-.28.05h-.01s0-.01,0-.01h-.05s-.07,0-.07,0c-.01-.02-.1-.01-.15-.01,0,.02-.06.02,0,.04,0,0,0,0,.04,0h.02s0,0,0,0h.11s-.07.02-.12,0l-.06.04c-.06-.03-.18-.05-.19-.08-.14,0-.32-.03-.41,0-.04,0-.04-.02-.06-.03h.06c-.08,0-.23-.03-.25,0-.09-.03.06-.02-.07-.03h.02c-.25-.1-.43-.05-.69-.19l.03.02c-.11-.05-.23-.11-.34-.18,0-.04,0-.06.02-.12,0,0,0,0,0,0v-.11s.03-.01.02.05c.05-.19.03-.32.07-.38v.02c.04-.27-.02-.03,0-.24l.1-.12-.02-.03s.03-.08.03-.07c.01-.11-.02.01-.02-.05.06-.12.09-.36.15-.38,0-.05-.06.12-.02-.02.06-.02.05-.16.12-.27,0,.04-.05.15.02.04,0-.07.06-.19.11-.28,0,0,0,0,.01,0,0,.01,0,.01-.01.02.04,0,.1.01.09-.02-.04,0-.05,0-.08,0,0,0,.01-.02.01-.03-.03-.02.09-.21.16-.37,0,0,.18-.27.28-.4h0s.08-.18.15-.28c.01.01,0,.04-.03.09l.07-.09s.03-.06.07-.12v.04c.1-.12.16-.27.31-.39,0-.02-.16.07-.02-.09.01,0,.04.01,0,.05.01-.01.04-.05.07-.07l-.04.07c.07-.06.02-.04.07-.09.01.01.05-.03.05-.01-.01.01-.05.04-.06.06.06-.06.13-.12.17-.13-.01,0-.02-.02.02-.06.11-.11.05-.02.12-.08.01-.04.1-.09.08-.11.03-.03.05-.02.07-.03.05-.06.28-.23.2-.2h-.02s0,0,0,0c.18-.19.44-.3.65-.45h0c.12-.09.29-.18.38-.24.04-.02.1-.03.09-.02.07-.04.09-.06.15-.08.06.1.17.25.16.21-.02-.04-.05-.11-.03-.12l.05.09s.04,0,.05,0c0,.01,0,.03.02.04l.05.02-.05-.08h0s0-.07-.04-.18l-.03-.04s.09-.04.15-.09c-.04.04.12-.01.18-.05l-.11.02.21-.08-.03.04c.3-.07.5-.27.75-.27.07-.04-.17.03-.1-.01.14-.03.29-.03.34-.04.04,0,.07-.02.09-.02.03.03.06.07.09.11-.07.02.14.24.13.33.11.15.17.32.25.52.02-.09.03.06.07.02.02.04.03.06.03.07h0s.03.15.03.15c0,.04-.03-.04-.04-.03.03.11,0,.05,0,.12.01-.02.04.03.05.09v-.09c.07.14,0,.14.07.28l-.03-.04c.03.07.06.28.12.35,0,.01-.01.04-.02,0,.02.18.1.41.06.56h-.01s.02.05,0,.09c0,0-.01-.01-.01,0,0,.02.02.09,0,.14v-.04c-.03.18-.02.28-.04.44-.03,0-.08.13-.12.19h0c-.03.07-.05.14-.07.21-.05-.04-.11-.09-.17-.13.17.1.04,0,.07,0Zm-3.08,2.62s-.01,0-.02,0c0,0,0-.01.01-.02,0,0,0,0,0,.01Zm-.21.14h-.08s0-.02.02-.02c-.01,0,.04.01.06.02Zm-.19,0h0s-.05,0-.05,0h.05Zm-.17-.17h-.05s0,0,0,0h.01s.04-.01.04,0Zm1.49-5.91c-.05-.07,0,.09-.06-.03-.01-.08,0-.07-.04-.15,0-.02.02,0,.04.03-.04-.08-.09-.21-.12-.24-.02-.09-.1-.27-.06-.28-.02-.02-.07-.14-.09-.21.08.13-.08-.29-.01-.26-.04-.08-.07-.26-.1-.43.12.07.35.07.44.15.08.03.19.05.27.09,0,0,0,0-.02,0,.09.07.09-.01.19.07.04.06-.07-.02-.04,0-.01.05.14.08.19.15h-.02s.15.06.23.14h0c.07.03.2.11.28.18-.04,0-.04-.03-.04,0,.04.03.01-.04.09.03.01.03.06.09.05.11l-.07-.06c.01.05.08.08.11.12h-.01c.1.1.12.08.22.19v-.02c.08.04.03.06.1.11v.04s.06.07.11.12c0,0-.01,0-.02,0,0,0-.02-.01-.02-.02,0,0,0-.02,0-.02,0,0,0,0-.01,0-.02-.01-.03-.03-.05-.04,0,.01.02.03.04.05-.08.04-.29.08-.36.13.02-.01.02-.03.01-.03l-.05.04c-.06.01-.07.01-.07,0-.18.06.07.02-.15.08.02,0,0,0,.04-.02-.21.07-.4.17-.6.23-.07,0,.17-.07.09-.07-.11.04-.21.1-.32.15-.02-.03-.04-.05-.06-.07v-.07s-.12-.13-.12-.13c0-.03.06.06.02-.05Zm.15.34s0,0-.01,0v-.05s.01.04.01.04Zm2.33,3.21l.03.03s-.03,0-.04-.01c0,0,0-.01,0-.02Zm5.27-2.17l.1-.06-.02-.03s.03-.05.03-.04c.02-.07-.02,0-.01-.04.07-.07.12-.22.17-.22,0-.04-.06.07-.02-.02.05,0,.05-.1.11-.16,0,.04-.04.09.02.04,0-.07.09-.13.14-.18-.02-.02.09-.12.16-.21,0,.02.15-.16.25-.21h0s.09-.1.15-.15c0,.02,0,.03-.03.07l.06-.05s.02-.04.06-.07v.03c.08-.06.14-.16.26-.21,0-.02-.13,0-.01-.08.01,0,.03.02,0,.05,0,0,.03-.03.06-.04l-.04.05c.06-.02.02-.03.06-.05,0,.02.04,0,.04,0l-.05.03s.11-.05.13-.05c0,0-.01-.02.02-.04,0,0,.01,0,.02-.01.02.11.04.22.08.32l.05.06s0,.04-.01.02c.02.08.02,0,.04.03.02.04,0,.06-.01.04.06.13.19.35.24.49l-.02-.02c.04.11.11.09.13.2v-.02c.12.21.28.43.4.59.05,0,.16.19.21.16.08.12.05.09.2.23.04.03.08.02.14.06v.02s.07.03.07.03l.02.06.06.03s-.04-.04-.03-.04c.07.03.15.1.18.13-.16.14-.32.27-.46.4,0,0,.02-.03.04-.05-.04.04-.1.08-.09.09l.04-.04c.09-.04-.14.18-.14.2.05-.1-.23.16-.15.02-.03.02-.06.06-.05.06-.05.03-.06.03-.03-.01-.16.12-.09.1-.24.2,0,0,.02-.03.03-.05-.07.06-.13.14-.26.21,0,0-.01,0,.03-.03-.22.13-.35.28-.62.4.06-.07-.09.03-.12.01l-.12.07c-.1-.26-.22-.52-.37-.76.02.02.03.02.05.06-.02-.1-.17-.32-.19-.31-.04-.06,0-.02-.01-.06-.04-.09-.16-.19-.17-.25,0,0,.02.02.03.03-.04-.05-.17-.25-.16-.18-.1-.14-.22-.25-.3-.37-.05-.04-.13-.13-.19-.18,0-.01.01-.02.02-.03h0c.06-.16-.02-.02.01-.15Zm1.67-1.78l-.02-.08s.02,0,.02.02c0,0,0,.04,0,.07Zm.06-.45h.01s0,.05,0,.05v-.05s-.01,0-.01,0Zm.07.41s-.01,0-.02,0c0-.03-.02-.05-.02-.08v-.02s.02.06.03.08c-.01.01-.02.02,0,.02Zm.21-.02h-.01s0,0,0,0c.15-.09.33-.14.49-.21h0c.09-.03.21-.07.28-.11.03-.01.07,0,.06,0,.07-.03.08-.05.19-.06-.07.03.03,0-.08.03.1-.02.13,0,.23-.06-.03.03.08,0,.13,0h-.07s.15-.03.15-.03l-.02.04c.21-.01.36-.12.52-.08.05-.03-.11,0-.07-.03.1-.02.2.05.23.04.13.02.12-.04.26-.02-.02-.01-.03-.04.07-.05.1,0,.11.05.05.05-.02,0-.03,0-.03,0-.03,0-.07,0-.03.02h.01s.18,0,.14.02c.07,0,.03-.02-.02-.02.12.01.19.01.31.06-.02-.01-.03-.03-.01-.02.18.06.08,0,.21.03.06.03-.03.03.09.05.07.03,0,.03-.02.03.07,0,.13.03.18.05-.01.05-.03.1-.04.14,0,.09-.09.28-.07.32-.03-.02-.15.27-.17.37,0-.04-.05.08-.05.04-.04.12-.1.22-.07.21-.16.17-.19.43-.31.5-.19.31-.39.59-.62.84-.02-.04.25-.27.21-.29-.2.24-.29.4-.53.6,0,0,0,0-.01,0,.02-.02.03-.04.04-.05-.02.02-.03.03-.05.05-.15-.09-.34-.16-.37-.25l-.14-.08.02-.02c-.11-.08-.15-.13-.27-.25h.04c-.06-.06-.13-.02-.2-.09v-.04c-.11-.12-.16-.28-.29-.39,0,0,.02,0,.03.02-.05-.06-.13-.27-.16-.22.03-.02-.07-.15-.13-.23h.03c-.06-.05-.08-.05-.12-.15,0-.02,0-.03.01-.01-.02-.06-.04-.04-.06-.13l.03.03c-.03-.08-.03-.07-.07-.11-.03-.05-.05-.16-.03-.17-.02,0-.05-.05-.06-.1,0,0,.02,0,.02.02,0-.06-.02-.1-.04-.14,0,0,0,0,0,0,0,0,0,.01,0,.01,0,0,0,0,0-.01,0,0,.02,0,.02,0,.04-.04.22-.11.16-.11Zm3.46-.19l.08.04s0,0-.02,0c.12.08.07,0,.2.06-.02,0,.02.04.04.05-.05-.03-.01-.04.04-.02.08.05.1.04.14.06l-.05-.03s.07.02.13.04c0,.01-.06-.02-.04,0,.08,0,.12.12.22.16.03.04-.01.03.02.06.11.05.09.09.2.14-.02-.04-.02-.04.06,0l-.17-.1.12.05s-.11-.06-.14-.09c.06.02.05.02.04,0,.05.07.15.08.21.15l-.03.04c.11.09.21.15.34.28l-.04-.05s.09.08.13.11c-.02,0,0,.04.02.06,0-.01.1.09.13.08l.04.08c.09.12.14.1.23.21-.04-.02-.01.04-.08-.03.03.04.05.07.06.07,0,.03.1.09.12.13.02.01.04,0,.07.05h0s.06.06.05.02c.03.16.22.35.25.48.07.08.11.2.15.29,0,0,0,0-.01-.01.04.13.08.06.12.2,0,.08-.05-.07-.04-.02-.03.03.03.11.06.2-.14.12-.29.22-.49.31.1,0-.06.03-.02.07-.04.02-.06.03-.07.03h0s0,0,0,0h0s0,0,0,0l-.15.04s.04-.03.03-.04c-.1.05-.05,0-.12.02.02.01-.03.04-.09.05h.09c-.14.07-.14,0-.29.07l.04-.03c-.07.04-.28.09-.36.13-.02,0-.04-.02,0-.03-.19.03-.43.09-.58.05h.02s-.06,0-.11,0c0,0,.02-.01,0-.01-.02,0-.1.02-.15,0h.04c-.19-.06-.29-.02-.46-.04,0-.03-.14-.08-.21-.11h0c-.21-.07-.38-.07-.58-.13-.11-.08-.41-.16-.59-.27.03.02-.02.03-.05.01-.04-.03-.14-.03-.11-.06h.02s-.09-.06-.16-.09c.02-.02.04-.04.06-.06-.05.02-.06.03.03-.07l-.15.15s0,0,0,0l.06-.08s-.05.05-.07.07c0,0,0,0-.01,0,.07-.06.12-.14.21-.2l.03.04c.17-.15.25-.3.45-.51l-.07.06s.1-.14.15-.22c0,.02.05-.03.08-.05-.01,0,.12-.17.11-.21l.09-.09c.12-.2.09-.25.2-.44-.02.07.04-.02-.02.12.04-.06.07-.12.06-.13.04-.03.07-.19.11-.25,0-.03,0-.05.03-.12h0s.04-.12,0-.06c.13-.16.18-.48.26-.68h0s-.01-.04.06-.03c.04.03.13.05.14.08-.13-.07,0,.03-.11-.02Zm-1.85,2.88s-.02,0-.04,0c0,0,0,0,0,0h.04Zm-2.31,1.38s-.03.02-.04.02c0,0,0,0,0-.01h.05Zm.21,1.65h0s.01,0,.02,0c.02.08.04.16.05.24-.02-.05-.05-.14-.07-.23,0,0,0,0,0,0h0Zm3.28-10.68s-.09.02-.02.03c.04-.05.15-.01.21-.02,0-.03.14-.02.25-.03,0,.01.2,0,.3.03h0s.12-.01.2-.01c0,.02-.02.03-.06.03h.07s.04,0,.09,0l-.02.02c.09,0,.19,0,.31.03.01-.02-.09-.08.04-.07,0,.01,0,.03-.03.03.01,0,.04,0,.06,0h-.05c.05.03.03,0,.07,0,0,.02.03.02.02.03h-.05s.11.02.12.04c0,0,0-.02.04-.02.09.02.03.03.08.05.02,0,.08.02.09,0,.03,0,.03.02.04.03.05,0,.21.07.17.02h-.01s0,0,0,0c.16.03.3.13.45.2h0c.09.04.19.1.26.12.02.01.05.05.03.05.06.03.08.03.16.09-.07-.02.01.02-.07-.03.08.06.09.07.18.11-.04,0,.04.06.08.09l-.04-.05.11.08h-.04c.13.15.32.16.38.31.05.02-.07-.08-.02-.07.06.06.1.16.12.17.08.09.11.04.2.14,0-.02,0-.05.08.01.05.07.04.11,0,.08-.01-.02-.02-.03-.01-.03-.02-.02-.05-.04-.03-.01h.01s.1.13.07.12c.05.04.03.01,0-.03.06.1.11.13.18.23,0-.02,0-.04,0-.02.1.14.06.05.14.13.02.06-.04,0,.03.09.03.07-.02.03-.04,0,.07.08.09.17.11.23l-.03-.04.05.07v-.04s.03.05.02.06c.03.02.02-.04.07,0,.01.04.08.11.06.13-.06-.12-.02.03-.08-.07l.04.07h-.01c.04.11.06.03.11.15-.02,0-.02.04,0,.06-.02-.05.01-.03.04,0,.02.09.04.08.06.13v-.05s.02.05.05.11c0,0-.03-.05-.02-.03.05.05.03.15.08.23,0,.04-.03.01-.02.05.04.1,0,.12.04.22.01-.04,0-.04.04.03l-.05-.17.05.11c-.01-.05-.04-.11-.04-.14.03.05.02.05.03.02-.01.08.05.14.05.23h-.05c0,.14.08.23.08.4v-.06s.02.1.03.16c-.02,0-.02.03-.03.06.01,0,.01.12.05.14v.08c-.01.14.04.15.04.29-.02-.04-.03.02-.05-.07,0,.04,0,.08,0,.08-.01.03.02.12,0,.16,0,.02.03.03.03.07h0s.01.08.03.04c-.05.13-.04.38-.1.49,0,.1-.03.21-.06.29,0,0,0,0,0-.02-.05.11.03.08-.03.21-.05.06,0-.07-.02-.04-.06,0-.04.16-.1.23v-.02c-.03.06-.03.17-.09.27h0c-.01.08-.07.21-.12.32,0-.04.01-.05-.02-.04-.02.05.04,0,0,.1-.03.02-.07.08-.09.07l.04-.08s-.06.1-.09.14h0c-.08.1-.06.12-.15.25h.02c-.02.08-.06.04-.09.12h-.04c-.02.05-.11.16-.17.24.02-.06.1-.14.13-.21-.03.04-.13.13-.14.16l.05-.05c-.03.07-.08.14-.16.21-.02-.04-.09.03-.17.1-.02-.07-.06-.15-.08-.14-.02-.05.01-.02,0-.05-.02-.07-.09-.15-.09-.19,0,0,.01.01.02.03-.03-.04-.08-.19-.08-.14-.03-.12-.12-.19-.16-.28-.06-.04-.1-.18-.14-.18.04-.01-.08-.2-.15-.24.03.01-.03-.06,0-.05-.06-.07-.11-.12-.12-.1-.06-.15-.23-.22-.24-.33-.2-.16-.38-.31-.56-.46.03-.03.19.17.21.13-.16-.14-.29-.18-.46-.31-.04-.04.04,0,.06,0-.19-.1-.33-.26-.52-.32,0,0,.02,0,.04,0-.04-.02-.08-.04-.08-.03h.04c.04.06-.16,0-.17,0,.08-.02-.17-.09-.04-.11-.02,0-.06-.01-.06,0-.03-.02-.04-.03,0-.03-.13-.05-.09-.01-.2-.06,0,0,.03,0,.04,0-.03,0-.06-.01-.1-.02.03-.14.04-.29.06-.41,0,.01,0,0,0,.03.05-.2-.02-.13.01-.35.04-.11,0,.12.02.05.06-.03,0-.28.05-.43v.04c.04-.12-.02-.29-.02-.48,0,0,0,0,0,0-.03-.13-.06-.38-.1-.56.03.05.02.08.04.04-.01-.08-.03.03-.06-.13,0-.05,0-.17.02-.19l.02.15c.02-.08-.03-.2-.04-.28h.02c-.06-.23-.09-.22-.15-.47v.03c-.07-.13-.02-.12-.09-.24l.02-.05c-.04-.08-.13-.3-.2-.45.07.07.13.26.19.37-.03-.09-.1-.3-.14-.33.02.03.04.07.05.11-.06-.1-.14-.22-.21-.39.08,0-.18-.44-.21-.58,0,0,0,0,0,0,.02,0,.05-.01.07-.01Zm-11.44-.87s.05-.03.09-.06l-.1.1s-.01-.01,0-.04Zm-.12.18h0l-.05.06s.02-.03.05-.06Zm-1.52,3.86c.03-.1.01-.09.05-.14-.04-.02,0-.09-.02-.18.03-.14.04-.03.04-.19.02-.07.02.07.02.07,0-.16-.03-.08-.04-.11.02-.19.04-.08.06-.15.01-.12,0-.22.01-.3,0,0,.01-.02.01,0,0-.13.09-.37.09-.52v-.02s-.03.02-.04,0c.02-.07.02-.14.05-.16-.02.04,0,.05,0,.07l.02-.07c.05-.05-.03.1,0,.11.04-.14.08-.31.12-.42.04-.01-.08.25,0,.12l-.07.16c.09-.11-.04.1.05,0,.09-.21.07-.25.17-.46,0-.05-.03,0-.02-.05.12-.31.18-.2.25-.43.01-.06,0-.1.1-.24v.07c.12-.19.02-.14.17-.32-.02.04-.08.16-.06.13.1-.12.04-.1.11-.2h.04c.13-.2.27-.43.44-.63,0,.02-.02.06.02.02.2-.26.48-.52.74-.72l.08-.1s.05-.03.03,0c.1-.08,0-.02.03-.06.05-.05.08-.05.05-.02.16-.15.47-.43.68-.53l-.03.03c.16-.09.14-.16.3-.23l-.02.02c.34-.19.73-.41,1.02-.5.04-.06.37-.13.37-.18.22-.06.16-.03.47-.1.08-.02.11-.07.21-.1v.03s.14-.06.14-.06l.08.02.09-.03s-.08,0-.08,0c.15-.04.37-.06.38-.05l.35-.07s-.07.02-.11.04c.19-.05.04.02.21-.03-.02,0,.01-.02.01-.02.09,0,.29-.01.44-.02l-.03.02c.27-.02.56-.01.86,0-.11-.01-.08-.04,0-.04l.03.03c.06-.01-.09-.02.03-.03.11.02.07.04,0,.04h.14s-.03.02-.03.03c.06-.01.23.06.31.04h0c.29.07.43.09.66.15.01-.02.1.01.18.02.17.06.35.14.55.23.14.05.05,0,.12.01,0,.03.2.11.09.08.24.11.29.16.59.3-.03-.03-.06-.05-.04-.04.06.02.11.08.1.08h-.01c.33.17.64.55.88.72h-.01c.08.05.15.12.23.19.09.11-.07-.05,0,.04.26.21.35.39.53.59.09.2.44.61.55.87v-.02s.02.02.03.03c-.1.01-.24.02-.36.08-.14.06-.16.08-.27.15-.05,0,.02-.05.02-.05-.07.02-.12.05-.18.09,0-.01,0-.01-.03-.01-.05.03-.02.04-.09.07,0-.01.01-.03.03-.06l-.16.12s.03-.04.04-.06c-.07.03-.16.12-.16.16l.04-.03s-.02,0,0-.02c.04-.06.08-.05.09-.04l-.04.03c.07.01.17-.09.26-.14l-.02.05.08-.07s.04.01,0,.04c.07-.01.05-.04.11-.05h0s.06-.03.06-.03c0,.01.02.02-.02.03.12-.03.18-.08.23-.07h0c.16-.05,0-.03.12-.09l.1.04v-.03s.06-.01.06,0c.06-.03-.01,0,.02-.04.04,0,.08,0,.12-.01,0,0,0,.02,0,.03h-.1s.05.02,0,.03c.15,0-.01-.01.1-.03h0s0,0,0,0c0,0,0,0,.01,0h-.01s0-.02,0-.03c0,0,0,0,.01,0,.33.53.53,1.17.67,1.78.05.23.12.11.14.4l-.04-.08c.11.46.13.95.13,1.41,0-.03-.01-.03-.01-.07-.03.1-.02.36,0,.36,0,.07-.02.01-.03.06-.02.1-.01.24-.04.29,0,0,0-.03,0-.05,0,.06-.05.29-.02.23,0,.05-.02.09-.03.13-.15-.03-.27-.03-.43-.09.06-.02-.06-.03-.07-.06l-.1-.02.04.03c-.09-.03-.18,0-.25,0h.07s-.17-.01-.17-.01l.1.02c-.09.01,0,.04-.11.03.03,0-.09,0-.14-.03-.05,0-.09.02-.16,0-.02-.01.01-.04,0-.04-.04.02-.22,0-.27.04.02,0,.02-.03.01-.03l-.03.03s-.05,0-.04-.02c-.13.01.05.04-.11.04.01,0,0,0,.03-.01-.15,0-.29.06-.43.09-.05-.02.12-.04.06-.05-.2.05-.4.14-.58.2h.04s-.15.02-.23.07c.02-.01.02-.03.02-.03-.13.03-.25.11-.43.21l.02-.02c-.08.02-.19.08-.27.11h0c-.03-.05-.05-.11-.06-.16h0s0,0,0,0l-.02-.05v-.07s-.01-.11-.02-.15c-.02,0-.03-.05-.04,0,0,0,0,0,0,.04v.02s0,0,0,0l.02.11s-.03-.07-.03-.12l-.05-.06c.03-.07.03-.19.05-.21-.04-.14-.04-.32-.08-.41,0-.04.01-.05.02-.06,0,.02,0,.05,0,.06-.01-.08,0-.23-.03-.26.02-.1.03.06.03-.08v.02c.12-.25-.02-.46.16-.73-.01.02-.02.03-.02.03.13-.32.24-.68.46-.94.06-.08.05-.1.07-.16h.03s.03-.11.03-.11c.06-.13.2-.16.28-.33h-.03s.12-.17.13-.14c0,0,0-.03.02-.04h.01s.08-.13.08-.13c.09-.09.03.05.15-.09.04-.06.09-.17.07-.16-.02.02-.05.05-.06.04l.03-.05s-.02-.03-.03-.04c0,0,.01,0,.03-.02v-.04s-.04.04-.04.04h0s-.05,0-.1.05l-.05.1h-.04s.06-.06.06-.06c-.05.03-.05.06-.07.1l-.05.02-.04.11s0-.06-.05,0c-.02.05.06-.01.02.06-.05.03-.05,0-.08.06-.01,0-.01-.01,0-.04-.02.05-.08.12-.08.15-.05.03-.1.15-.13.12,0,.02-.03.09-.06.13.01-.1-.11.15-.13.1,0,.08-.11.22-.16.33v-.03c-.03.05-.05.06-.08.1.03.02-.01.12-.02.18-.07.06-.01-.06-.05-.06.03,0-.04.14,0,.13-.05.05-.03.04-.07.06.03.03-.02.06-.02.11-.06.07-.05,0-.08.1-.03.04-.01-.05-.01-.05-.03.1.01.06.02.09-.03.12-.04.04-.07.08-.02.08,0,.14-.03.2,0,0-.01.01-.01,0,0,.08-.07.23-.05.33h-.01s.04,0,.05,0c0,.04,0,.09-.02.1,0-.03,0-.03,0-.05v.05s0-.07-.02-.07c0,.09,0,.2-.02.27-.03.01.02-.17-.02-.08l.03-.11c-.06.08.02-.07-.05,0-.03.15-.03.16-.04.31.02.03.02,0,.04.03.03.21-.08.16-.04.32.02.04.05.05.04.16l-.04-.03c0,.14.06.08.05.23-.02-.02-.03-.11-.03-.09-.01.1.03.07.04.14l-.03.02c.03.15.06.31.11.47-.01,0-.03-.03-.03,0,.02.07.04.14.06.21-.17.09-.31.22-.47.3.02-.02.05-.05.03-.04l-.15.13s.03,0,.07-.02c-.01.03-.05.07-.09.1.06-.06-.02-.03-.06,0v.02c-.1.04.02.04-.1.11h0s-.1.11-.1.11c-.03,0,.03-.05.02-.07-.05.06-.08.15-.14.18l.07-.1c-.07.04-.08.05-.12.09h0s-.1.09-.1.09l.03-.02c-.02.12-.14.15-.17.29.04-.13,0-.03-.02-.06-.02.03-.06.07-.06.05-.02.07-.07.08-.09.18,0,0-.04.06-.05.04-.04.08.02,0,.03,0-.05.12-.19.24-.22.43-.01.03-.02.06-.02.08h0s-.19-.25-.3-.3c.04.01-.07-.07-.02-.06-.1-.08-.2-.15-.19-.11-.15-.19-.41-.24-.49-.36-.33-.19-.65-.32-.96-.45.03-.03.34.15.34.11-.3-.12-.47-.18-.77-.3-.07-.04.05,0,.08,0-.3-.11-.58-.22-.86-.28,0,0,.03,0,.06,0-.05-.02-.12-.04-.12-.03h.05c.08.06-.23,0-.24.02.11-.03-.27-.07-.11-.1-.04,0-.08,0-.08,0-.05-.01-.07-.03-.01-.03-.2-.03-.13,0-.31-.02,0,0,.04,0,.06-.02-.1,0-.19.01-.34-.01,0,0,0,0,.01,0-.25-.03-.44.04-.72.02.08-.04-.1-.01-.12-.04l-.15.03h.06c-.14.03-.25.07-.37.08l.1-.03c-.08.02-.17.02-.25.05l.14-.02c-.13.04.02.03-.15.07.03-.01-.13.04-.2.04l.08-.04s-.08.02-.08.04c0,0-.02,0-.03.01-.09-.14-.19-.29-.31-.41-.09-.11-.11,0-.21-.16h.06c-.23-.16-.43-.39-.69-.52.02,0,.02,0,.05.01-.04-.05-.18-.13-.2-.11-.04-.02,0-.02-.02-.04-.05-.04-.15-.05-.17-.08,0,0,.02,0,.03,0-.04-.01-.17-.07-.15-.04-.1-.05-.2-.06-.28-.09-.06.01-.17-.05-.2-.02.01-.03-.09-.06-.17-.07,0-.06,0-.09.01-.15-.04-.01-.05-.18-.08-.27.03-.13.04.08.07.04-.03,0-.04-.22-.06-.18Zm9.89,1.67h0s-.01-.05-.01-.05v.05Zm-16.71,4.48l-.03.03h0l.03-.03Zm-.12.11s.01.01,0,.03c0-.01-.03.02-.06.03l.06-.06Zm4.83,6.46c-.23-.4-.45-.83-.55-1.27-.04-.15-.07-.16-.11-.25l.02-.04-.07-.15c-.08-.22-.03-.41-.12-.69v.04c-.03-.11-.08-.33-.05-.32,0-.01-.02-.03-.02-.07h.01s-.05-.26-.05-.26c0-.2.06.03.04-.27-.01-.11-.06-.31-.06-.27,0,.04,0,.11-.02.12v-.1s-.05-.02-.06-.02c0-.01,0-.02,0-.05l-.03-.04v.1s0,0,0,0c-.02.02-.03.06-.04.17l.04.17v.06s-.03-.15-.03-.15c-.01.08,0,.14.02.19,0,.01-.01.04-.02.08l.06.17s-.04-.07-.04.04c.03.08.03-.08.05.05,0,.08-.03.06,0,.16,0,.02-.02,0-.03-.04.02.09.04.23.07.27-.01.09.06.29.02.29.01.03.06.14.08.22-.08-.13.07.29.01.27.06.1.13.37.21.55l-.02-.04c.03.1.03.14.05.21.04,0,.11.16.16.23.02.14-.07-.06-.08,0,.02-.02.12.2.12.15.02.1.03.08.02.14.05,0,.05.08.11.15.05.14-.02.05.07.19.03.07-.06-.04-.06-.04.08.15.07.05.1.07.02.03.03.05.04.07-.07.04-.09.08-.19.12.03-.03-.03-.02.05-.06-.04.01-.08.03-.07.04-.03,0-.1.06-.15.06-.01.01-.01.03-.06.05h0s-.07.03-.02.03c-.14,0-.35.11-.48.09-.09.03-.2.06-.28.07,0,0,0,0,.01,0-.12,0-.06.07-.2.07-.07-.02.07-.02.02-.03-.03-.06-.16.02-.25,0h.02c-.07-.02-.16.03-.28.04h0c-.07.03-.22.05-.33.05.03-.02.05-.01.03-.03-.05,0,.01.04-.08.04-.03-.01-.1-.02-.11-.05h.09s-.12,0-.16,0h0c-.14-.01-.14.01-.29,0h.01c-.09.04-.07-.01-.15,0l-.02-.04c-.05,0-.19,0-.29-.02.06-.01.17,0,.24,0-.05-.01-.18-.04-.21-.03h.07c-.07.02-.16.01-.26-.01.04-.05-.26-.11-.31-.18-.18-.05-.33-.16-.52-.27.04.09-.05-.03-.07.02-.04-.02-.06-.03-.06-.04h0s0,0,0,0l-.11-.11s.05.02.05,0c-.09-.07-.02-.05-.07-.1,0,.02-.05,0-.09-.05l.05.08c-.14-.08-.07-.12-.21-.19l.05.02c-.07-.04-.2-.21-.29-.23,0-.01,0-.04.02-.01-.12-.14-.31-.3-.36-.44h.02s-.05-.04-.06-.08c0,0,.02,0,.01,0-.01-.01-.07-.07-.09-.11l.03.03c-.08-.17-.15-.24-.23-.38.03-.01,0-.15-.02-.23h0c-.07-.2-.14-.34-.19-.54,0-.13-.04-.42-.03-.62,0,.03-.03,0-.03-.04,0-.05-.03-.13,0-.12v.02s.03-.13.03-.21h-.05c.07-.21.01-.54.09-.64v-.15s.04,0,.04,0c.04-.13.06-.19.09-.35v.04c.03-.09-.03-.13-.01-.22h.04c.04-.17.16-.3.19-.46,0,0,.01.01,0,.04.03-.07.15-.25.09-.25.03.02.06-.15.11-.23v.02c.03-.08.02-.08.08-.17.01-.01.02-.01.02,0,.04-.04.01-.06.08-.12v.04c.04-.07.03-.07.04-.11.02-.05.1-.12.12-.12,0-.02,0-.07.04-.1.01,0,0,.02,0,.03.09-.11.12-.17.21-.22h.02c-.08.07-.15.13-.15.12.02.01.09-.04.06.03.04-.06.11-.17.18-.22h.01s0,0,0,0l.04-.04.06-.04s.08-.06.12-.09c-.02-.02.03-.05-.03-.03,0,0,0,0-.03.03h-.01s0,.01,0,.01l-.08.07s.04-.07.08-.09c0-.03.02-.06.02-.07.07-.01.17-.08.19-.07.11-.08.27-.15.33-.24.03-.02.04,0,.06,0-.02.01-.04.03-.05.04.06-.06.21-.09.22-.13.1-.01-.04.04.08,0h-.01c.26-.02.4-.18.7-.15-.02,0-.03,0-.04,0,.07,0,.14,0,.21-.01,0,.03,0,.06.01.08h0s0-.05-.01-.08c.02,0,.04,0,.07,0,0,0,0,.02.01.03,0,.05-.04-.03-.04-.03,0,.07.02.12.04.19,0-.01-.01,0-.02.03.02.05.04.02.06.09l-.05-.04.11.16s-.04-.03-.06-.05c.04.07.09.17.12.18v-.05s-.02.02-.04,0c-.04-.05-.03-.09-.02-.09l.02.04c.03-.06-.08-.17-.12-.25l.05.02-.06-.08s.02-.04.04,0c0-.07-.03-.05-.02-.11h0s-.02-.05-.02-.05c0,0,.01,0,.02,0,0,0,0,0,0,.02,0,0,0,0,0-.02.23-.02.47-.02.7.03.09.02.11,0,.16-.01l.02.03.1-.02c.14,0,.23.1.41.09l-.02-.02c.06.02.2.04.18.06,0,0,.02-.01.05,0h0s.16.03.16.03c.11.05-.03.04.13.11.06.02.19.03.17.01-.02,0-.06-.03-.06-.05h.06s.03,0,.04-.02c0,0,.01.01.02.02h.04s-.06-.03-.06-.03h0s-.02-.04-.08-.08l-.11-.02-.03-.03.09.03s-.08-.03-.12-.03l-.04-.04h-.11s.05,0-.01-.03c-.05,0,.04.05-.05.04-.04-.03-.03-.04-.09-.04,0-.01,0-.02.03-.01-.05,0-.14-.03-.17-.01-.05-.03-.18-.02-.16-.06-.02,0-.1.01-.15,0,.09-.03-.18-.03-.15-.08-.07.03-.24,0-.36.01h.03c-.06-.01-.08-.03-.12-.04-.01.03-.11.03-.17.06-.08-.03.05-.04.03-.07,0,.03-.14.03-.11.05-.06-.02-.05,0-.08-.04-.01.04-.06,0-.11.04-.08-.02-.03-.04-.11-.03,0,0,0-.01,0-.02.01,0,.03,0,.03,0-.01,0-.02,0-.03,0,0,0,0-.01,0-.02h0c-.05-.15-.03,0-.09-.11l.05-.09h-.03s0-.06,0-.06c-.03-.06,0,.01-.03-.02,0-.08-.04-.22,0-.24-.02-.03-.01.08-.03,0,.04-.03-.01-.1,0-.17.02.02.01.09.03.02-.04-.04,0-.14,0-.2,0,0-.01-.02-.02-.04l.02.04h.02s-.02-.03-.04-.04c0-.05,0-.13-.02-.2,0,0,0-.19.05-.29h0s0-.12,0-.19c.02,0,.02.02.03.06v-.07s0-.04,0-.08l.02.02c.01-.09,0-.18.03-.3-.02-.01-.08.08-.07-.05.01,0,.03,0,.03.03,0-.01,0-.04,0-.06v.05c.03-.05,0-.03,0-.07.02,0,.02-.03.03-.02v.05s.02-.1.04-.11c-.01,0-.02,0-.01-.04.03-.08.03-.02.06-.07,0-.02.03-.07,0-.08,0-.02.02-.02.03-.03,0-.05.07-.2.03-.16h0s0,0,0,0c.05-.14.16-.28.23-.41h0c.04-.07.11-.16.14-.22.02-.02.05-.04.05-.03.03-.06.03-.07.11-.14-.04.06.03,0-.04.06.07-.06.09-.07.14-.15,0,.04.07-.03.09-.07l-.05.04.09-.1v.04c.16-.1.21-.27.35-.32.02-.05-.08.06-.07,0,.06-.06.16-.08.18-.09.1-.05.06-.1.16-.16-.02,0-.05-.01.02-.08.07-.05.11-.02.07.01-.02.01-.03.02-.03.01-.02.02-.05.04-.01.03h0s.14-.09.12-.06c.05-.04.01-.03-.03,0,.1-.04.14-.09.25-.13-.02,0-.04,0-.02,0,.15-.07.05-.06.15-.11.06-.01,0,.04.09-.01.07-.02.03.02,0,.04.08-.06.18-.07.23-.09l-.04.03.07-.04h-.04s.06-.02.06-.01c.03-.02-.04-.03.02-.06.04,0,.12-.04.14-.02-.13.02.02.02-.08.05l.08-.02s0,0-.01,0c.13,0,.05-.04.17-.07-.01.02.04.02.05.01-.05.01-.03-.02.01-.04.08,0,.09-.03.13-.04h-.05s.05-.02.11-.04c0,.01-.05.02-.03.02.06-.05.15,0,.23-.01.04.01,0,.03.04.04.1-.02.11.02.21,0-.03-.02-.04-.02.04-.04l-.17.02.11-.03c-.05,0-.11.01-.14.01.05-.02.05-.01.02-.03.07.03.14-.02.23,0v.05c.12.02.22-.04.38,0l-.05-.02s.1.01.15.01c0,.02.02.03.05.04,0-.01.12.02.14-.01l.07.03c.13.03.16-.03.28,0-.04.01.01.03-.07.03.04,0,.08.02.08,0,.02.01.08,0,.12.02h0s0,0,0,0h0s0,.04,0,.05c.02.16.04.18.07.27l-.02.04.06.16c.09.22.03.42.18.69v-.04c.04.1.14.32.11.31,0,0,.03.03.04.07h-.01s.13.24.13.24c.08.17-.03.03.04.2-.11.06-.22.12-.32.17l.05-.02c-.01.06-.2.08-.31.18.03-.02.03-.05.02-.04-.17.11-.34.22-.57.41l.02-.03c-.1.07-.24.19-.34.27-.02.03-.08.08-.03.06-.33.21-.52.53-.77.77.03-.03.05-.08.03-.06l-.17.24s.03-.02.08-.06c-.01.04-.06.11-.1.16.07-.11-.03-.02-.07.02.01,0,0,.02.01.02-.11.11.02.04-.11.21h0c-.04.05-.06.12-.11.19-.04.02.03-.08.02-.09-.06.1-.09.22-.15.31.02-.05.05-.11.07-.16-.09.09-.08.11-.12.18h0s-.06.09-.06.09c.02-.04.04-.06.05-.09l-.09.16.03-.04c0,.08-.04.15-.07.22,0,0,0-.01,0-.01-.01,0-.04-.04-.07-.03.02.02.04.04.07.06-.03.07-.07.15-.08.24.03-.2,0-.04-.03-.06-.03.04-.06.11-.06.09-.01.1-.07.14-.09.28-.01,0-.03.1-.04.07-.03.12.02-.02.03,0-.02.19-.17.42-.18.7-.03.23-.02.28-.03.5-.02.07-.02-.06-.02-.06-.02.07-.03.14-.04.21-.17-.1-.32-.21-.44-.35-.06-.07-.08-.07-.13-.1v-.03s-.08-.05-.08-.05c-.11-.09-.13-.2-.26-.33v.03c-.03-.05-.12-.16-.1-.16,0,0-.03,0-.03-.03h.01s-.11-.12-.11-.12c-.06-.1.06-.02-.04-.16-.04-.05-.14-.13-.13-.11.01.02.03.06.02.07l-.04-.05s-.04,0-.05.01c0,0,0-.01,0-.03h-.04s.03.04.03.04h0s0,.05.02.11l.08.07v.04s-.05-.07-.05-.07c.01.05.04.07.07.09v.05s.1.06.1.06c0,.02-.05-.02-.02.04.04.03,0-.06.06,0,.01.05,0,.05.04.09,0,.01-.02,0-.03,0,.04.04.08.11.11.12,0,.06.11.14.08.16.02,0,.09.05.12.08-.1-.03.12.13.07.15.08.02.18.16.27.22h-.03s.05.06.08.09c.03-.02.12.03.18.04.05.07-.06,0-.06.05.01-.02.13.05.12.02.04.05.04.04.05.08.03-.03.05.02.1.03h0c0,.09.03.07,0,.18,0-.02-.02-.05-.03-.09v.32s-.01-.07-.02-.11c0,.12,0,.32.02.36v-.08s0,.02-.01-.01c-.02-.11.02-.15.03-.16v.08c.05-.08.02-.31.04-.47l.03.07v-.05s0,.02.05.04c.03.04-.05,0-.05,0,.08.06.05,0,.08,0,.1.06.03.05.06.09.08.02.14,0,.19.03,0,0,.01.01,0,.01.08,0,.22.07.32.07h0s0-.03,0-.04c.04.01.08,0,.09.03-.03,0-.03,0-.04,0h.05s-.06,0-.07.02c.09.02.19.04.26.04,0,.04-.16-.02-.08.03l-.1-.04c.07.07-.06-.02,0,.05.13.06.16.02.29.05.03-.01,0-.03.03-.04.2,0,.14.1.29.08.04-.01.06-.05.16-.02l-.04.03c.13.02.08-.04.22,0-.03.01-.11,0-.09,0,.09.04.07-.01.14-.01v.03c.16,0,.32-.03.48-.03,0,0-.04.02,0,.03.14,0,.29-.01.44-.02,0,.01,0,.02,0,.03.03.04.07.21.08.15h0s0,0,0,0c.07.14.06.32.1.46h0c.02.09.02.2.05.27,0,.03-.01.07-.02.05,0,.07.03.08.01.18-.01-.07-.01.02-.01-.07,0,.09-.02.11,0,.21-.02-.03-.03.07-.02.11l.02-.06v.13s-.03-.03-.03-.03c-.04.18,0,.34-.07.46.01.05.03-.1.05-.05-.02.08-.08.16-.08.19-.04.11.02.12-.01.23.01-.01.04-.02.03.07-.03.08-.08.08-.07.03,0-.02.01-.03.01-.03,0-.03,0-.06,0-.03h0c-.02.05-.07.16-.08.13-.02.06,0,.03.03-.01-.06.09-.07.16-.12.25.01-.01.03-.02.02,0-.08.15-.01.07-.05.18-.04.05-.03-.04-.06.07-.04.06-.03,0-.03-.03-.02.11-.09.16-.13.2l.02-.05-.05.07h.04s-.04.03-.04.03c0,.03.04,0,.02.06-.03.03-.07.11-.1.1.09-.1-.03,0,.03-.1l-.05.06h0c-.09.07,0,.05-.09.15,0-.02-.04,0-.05.02.03-.04.03,0,.02.04-.06.06-.04.08-.08.11l.04-.03s-.03.05-.07.1c-.01,0,.03-.04.01-.03-.03.06-.13.08-.19.15-.04.02-.02-.02-.06,0-.06.08-.1.05-.17.14.04,0,.04-.01,0,.05l.12-.13-.07.1s.08-.08.1-.1c-.03.05-.03.04,0,.04-.08.02-.1.11-.17.15l-.03-.04c-.11.06-.17.14-.32.21l.05-.02s-.09.05-.13.09c0-.02-.04,0-.06,0,0,0-.07.05-.09.08Zm-4.52-6.52l.04-.04h0s0,.01,0,.01c-.02.02-.03.03-.04.02Zm7.17,8.81l-.07-.03s.04.01.07.03h0Zm.17.06s0-.02.04,0c-.02,0,.05.03.1.05l-.13-.04Zm4.82,3.02c-.02.39-.01.79,0,1.2-.09-.05-.18-.09-.28-.14-.15-.15-.59-.39-.84-.62.04.04-.03.02-.08-.01-.06-.05-.19-.11-.16-.13l.02.02c-.02-.07-.15-.17-.24-.25l-.05.02c-.2-.26-.6-.62-.64-.81l-.16-.2h.02c-.1-.2-.16-.3-.29-.54l.04.04c-.06-.14-.14-.15-.2-.28l.02-.05c-.1-.25-.16-.51-.26-.76,0,0,.02,0,.03.05-.01-.05-.03-.13-.04-.2.09,0,.17.02.24.03h-.05c.18.02.21-.04.38-.02h-.03c.4.03.84-.04,1.14-.02.05-.05.39-.04.41-.1.23-.01.17.02.48-.04.08-.02.12-.06.22-.09v.03s.14-.06.14-.06h.08s.05,0,.05,0c-.07.35-.03.7,0,1.01.02.19.04.38.03.53-.01.23,0,.5,0,.75,0,.24,0,.46,0,.66Zm-.07-2.97s.03,0,.04-.01c0,0,0,.01,0,.02-.02,0-.04,0-.04,0Zm1.22-.7c.05-.01,0,.03-.05.06-.08.03-.19.11-.19.08h.03c-.07-.02-.21.06-.33.11v.05c-.34.05-.82.31-1.02.28l-.25.08v-.03c-.22.05-.33.05-.6.1l.05-.03c-.15.02-.18.11-.33.12l-.05-.03-.81.04s.01-.02.06-.02c-.13,0-.49-.03-.45.02,0-.02-.21-.02-.36-.02-.02-.04-.03-.07-.04-.05.03-.01-.04-.27-.08-.42l.03.02c-.05-.12-.06-.12-.09-.29,0-.04.02-.04.02.02,0-.14-.03-.1-.04-.27l.02.06c-.01-.14-.02-.13-.05-.2-.01-.09,0-.27.01-.29-.01-.02-.04-.09-.04-.18,0-.01.01.02.02.03,0-.23-.02-.35,0-.51l.02-.03c0,.18-.01.33-.01.32.02,0,.03-.15.06-.03-.01-.12-.04-.32-.03-.47v-.02s.01.01.01.01v-.09s.01-.12.01-.12c.02-.02.01-.17.02-.24-.03,0,0-.09-.04,0,0-.01,0,.01,0,.06v.03s0,0,0,0c0,.05,0,.11,0,.18-.01-.06-.02-.12,0-.2-.02-.04-.02-.08-.03-.11.05-.1.11-.29.13-.31.04-.22.08-.53.09-.68.02-.06.04-.07.05-.09,0,.04-.02.08-.02.1.03-.12.13-.36.11-.4.07-.15,0,.1.07-.12v.03c.17-.4.24-.68.53-1.08-.02.03-.03.04-.04.04.34-.43.69-.93,1.17-1.21.13-.09.13-.12.19-.19h.04s.13-.1.13-.1c.2-.13.39-.13.63-.3h-.04c.09-.06.3-.13.3-.11,0,0,.03-.03.07-.03h0s.24-.08.24-.08c.2-.05-.01.06.27-.02.1-.04.29-.13.25-.13-.04.01-.11.02-.12.01l.09-.04s.02-.04.01-.05c.01,0,.03,0,.05,0l.04-.04-.09.02h0s-.06-.01-.18,0l-.16.07h-.06s.14-.05.14-.05c-.08,0-.13.04-.18.06-.02,0-.04,0-.08,0l-.15.09s.06-.05-.05-.03c-.07.04.09.01-.04.06-.09,0-.07-.01-.16.03-.02,0,0-.02.04-.03-.08.03-.22.08-.25.13-.09.02-.26.14-.27.1-.02.02-.12.1-.19.14.11-.11-.27.14-.26.08-.08.07-.3.25-.44.39l.03-.04c-.09.07-.12.08-.18.11.01.03-.11.15-.17.22-.13.06.03-.08-.02-.08.02,0-.15.18-.1.17-.08.06-.06.06-.12.08.02.04-.06.08-.09.16-.11.1-.06,0-.15.13-.06.05.02-.07.02-.07-.11.13-.03.08-.03.12-.12.16-.08.06-.13.1-.08.1-.1.2-.14.27,0,0-.02.02-.01,0-.04.13-.19.33-.24.48h-.02s.04,0,.05.01c-.04.06-.05.13-.08.14.02-.04.02-.05.02-.07l-.03.07c-.06.05.04-.1.02-.11-.08.13-.11.3-.15.41-.04.01.08-.25,0-.12.03-.05.04-.11.08-.16-.11.1.06-.09-.05,0-.1.21-.08.25-.17.47,0,.05.03,0,.03.05-.08.32-.17.22-.2.47,0,.07.04.1-.01.27l-.02-.07c-.05.22.02.14-.04.37,0-.04.02-.18.01-.14-.05.15,0,.11-.02.23l-.03.02c-.06.24-.04.5-.04.77,0-.01-.02-.06-.03,0,0,.34-.02.72,0,1.04l.03.12s0,.05-.01.02c0,.13.02,0,.03.06,0,.07,0,.1-.02.05.04.22.12.62.14.86v-.04c0,.06,0,.1.02.14-.03,0-.07,0-.13,0-.04,0-.03-.02.02-.01-.13-.02-.11,0-.27-.03h.06c-.14-.03-.13-.02-.21-.02-.09,0-.26-.05-.28-.08-.02.01-.1.01-.18-.02,0-.01.02,0,.04,0-.22-.08-.34-.06-.49-.13l-.02-.02c.18.05.32.09.31.09,0-.02-.14-.07-.01-.06-.12-.02-.33-.03-.46-.1h-.02s.01-.01.01-.01l-.09-.03-.11-.05s-.16-.07-.23-.1c0,.03-.09-.02-.02.04-.01,0,.01,0,.06.02h.03s0,0,0,0c.05.02.11.04.17.06-.06,0-.12-.02-.19-.06-.04,0-.09,0-.11,0-.08-.08-.25-.18-.26-.22-.22-.08-.46-.27-.61-.31-.05-.04-.05-.06-.06-.08.03.02.07.05.09.06-.11-.07-.3-.24-.35-.23-.12-.12.09.04-.08-.11h.03c-.27-.33-.57-.45-.79-.9.02.03.02.05.02.05-.02-.04-.05-.08-.07-.12.17-.12.33-.23.49-.33.02.04-.19.12-.16.15.17-.1.23-.2.38-.33.04-.03-.01.03-.02.05.13-.14.3-.24.4-.38,0,0,0,.02-.01.04.02-.03.05-.06.04-.07l-.02.03c-.05.03.04-.14.03-.16,0,.08.11-.13.11-.01.01-.02.02-.05,0-.05.02-.02.03-.03.03,0,.07-.1.02-.08.09-.17v.04c.02-.06.04-.11.1-.18,0,0,.01,0,0,.02.09-.13.08-.27.17-.42.01.06.03-.05.07-.05l.03-.09-.03.03c.03-.08.04-.15.08-.21v.06s.03-.09.04-.15l-.04.08c.01-.08-.03,0,0-.1,0,.02.02-.08.04-.12,0-.04,0-.09.01-.14.01-.01.03.02.04.01-.02-.05.03-.19,0-.25,0,.02.02.02.03.02l-.02-.04s.02-.04.03-.03c.03-.11-.05.03,0-.1,0,.01,0,0,0,.03.04-.13.03-.26.04-.39.03-.04,0,.11.03.07,0-.18-.03-.38-.04-.55v.03s.01-.13-.02-.22c0,.02.03.03.02.02-.01-.12-.06-.24-.11-.41l.02.02c0-.07-.05-.18-.07-.25,0,0-.01-.02-.02-.03.03,0,.05,0,.08,0l.07-.04s.03,0,.02.01c.08,0,0-.02.04-.03.04,0,.06,0,.03.02.13-.03.36-.13.5-.15l-.02.02c.11-.03.1-.09.21-.1h-.02c.24-.04.45-.22.63-.27.01-.05.22-.1.2-.15.12-.07.09-.03.25-.15.04-.03.04-.08.08-.12l.02.02.05-.08h.06s.04-.05.04-.05c-.02.01-.05.02-.05.02.07-.06.18-.14.19-.14l.12-.19s-.02.04-.03.07c.05-.11.04,0,.08-.1-.01,0,0-.02-.01-.02.05-.03.12-.13.18-.2v.02c.12-.12.19-.29.28-.45-.04.05-.06.02-.04-.03h.04s-.04.04-.02-.03c.04-.06.05-.02.04.01l.03-.08s0,.02.01.03c0-.04.1-.11.09-.17h0s.05-.08.06-.12c.06.04.14.08.21.11-.01,0,.3.15.45.23h0s.2.05.32.08c-.01.02-.03.02-.1,0l.11.04s.07,0,.14.03h-.04c.15.07.31.08.5.15.02-.02-.14-.1.07-.06,0,.01,0,.04-.05.03.02,0,.06,0,.1.02h-.09c.09.03.05,0,.12.01,0,.02.05.03.04.04-.02,0-.06-.02-.09-.02.08.02.17.06.2.08,0-.01,0-.02.06-.01.15.03.05.03.14.06.04,0,.14.03.14,0,.04,0,.05.02.07.03.08.01.38.05.29,0h-.02s.01,0,.01,0c.26,0,.54.07.81.05h0c.16,0,.35,0,.46-.03.05,0,.11,0,.09.02.12-.02.13-.02.3-.03-.12.03.04.01-.12.03.16,0,.19,0,.35-.05-.05.03.12,0,.19,0h-.11s.22-.04.22-.04h0s-.03.04-.03.04c.01,0,.03,0,.04,0,0,.02,0,.03.02.05v-.03c0,.07,0,.1,0,.15.03,0,.07.11.12.16,0,.1-.06-.04-.08,0,.03-.01.08.14.09.1,0,.07.01.06,0,.1.04,0,.03.06.07.1.01.1-.03.05.02.13,0,0-.02,0-.03,0,0-.01-.02-.02-.02-.02,0,0,0,.01.01.02-.05,0-.11,0-.17,0h0s.12,0,.18,0c.03.06.04,0,.06.02,0,0,0,.02.01.02-.05.01-.1.02-.18.03-.07,0,.06-.04.06-.04-.12,0-.21,0-.32.02.03,0,0-.01-.04-.02-.09.02-.05.04-.17.05.02-.01.04-.03.08-.05l-.31.09s.06-.03.1-.05c-.12.03-.31.07-.34.1h.08s-.03-.02,0-.03c.1-.04.15-.02.16-.01l-.08.02c.09.04.3-.06.46-.08l-.06.05.15-.05s.06.03-.02.04c.11.01.1-.02.19,0,.01,0,0,0,0,0l.11-.02s.02.02-.05.02c.07,0,.13,0,.19-.01,0,.01-.02,0-.02.04.05.07.1.11.13.17,0,0,0,.02-.01,0,.06.07.12.24.21.3h0s.02-.02.03-.02c.03.04.07.06.06.09-.02-.03-.03-.02-.04-.03l.04.04c0,.06-.05-.05-.07-.04.07.08.16.16.19.23-.01.03-.11-.14-.07-.04l-.06-.11c.01.1-.04-.06-.03.04.09.14.12.14.2.27.03.02.01-.03.05,0,.16.15.06.18.19.28.04.02.08,0,.14.11h-.05c.1.11.09.03.19.16-.03,0-.09-.08-.08-.06.05.09.07.04.12.09v.03c.12.11.25.23.4.33-.01,0-.04-.01-.02.02.1.07.2.15.3.23,0,0,0,0,.01,0,0,0,0,0,0,0,0,.08-.01.11-.01.12v-.02s0,.02,0,.02h0l-.07.25c-.02.06,0-.08-.01-.08-.03.18-.03.07-.07.19.02-.02.02.07-.01.17l.05-.14c-.02.26-.09.21-.12.47v-.08c-.01.14-.12.48-.12.62-.01.02-.04.05-.02-.01-.09.31-.22.68-.34.9v-.03c-.03.05-.03.1-.08.16,0,0,0-.03-.01,0-.01.03-.06.15-.11.21l.02-.07c-.17.26-.23.42-.39.63-.03-.03-.18.16-.28.24h0c-.27.24-.41.45-.69.66-.18.11-.6.38-.91.52Zm-4.48-1.79v.02s0,.07,0,.07v-.09h0Zm-.16.57s-.01.06-.02.11v-.14s.02,0,.02.03Zm-.01-.21s0-.06,0-.08c0,.02,0,.04,0,.08h0Zm-1.7,1.76l-.08-.03h0s.02,0,.02,0c.05.01.06.03.07.03Zm14.93-.23h-.05c-.02.2,0,.37-.04.64l.02-.09s0,.13-.01.22c-.02,0-.03,0-.06.02-.04,0-.07-.02-.06-.03-.02,0-.06-.01-.09,0,.05.03.12.03.19.02.01,0,0,.01,0,.02,0,0,.02,0,.03,0h0s-.03.05-.04.09c.01,0-.02.2.01.23l-.05.12c-.07.21-.02.25-.08.46,0-.07-.04.02-.02-.12-.02.07-.04.13-.03.13-.02.04-.03.2-.06.25,0,.03.01.05,0,.12h0s-.04.11,0,.06c-.15.17-.28.55-.4.69-.06.15-.19.28-.26.4,0-.01,0,0,.01-.03-.13.14-.03.12-.18.29-.09.07.06-.1,0-.05-.07-.01-.15.22-.28.31l.02-.03c-.09.07-.18.22-.31.35h0c-.07.11-.23.29-.35.42.02-.06.05-.07,0-.06-.06.06.05.02-.07.12-.05.02-.15.09-.17.08l.12-.09c-.08.02-.15.12-.22.16v-.02c-.17.14-.16.18-.38.29h.03c-.1.09-.11.03-.22.12h-.05c-.07.04-.27.15-.42.21.07-.06.25-.12.34-.2-.07.05-.28.11-.31.15l.11-.05c-.09.06-.22.12-.39.18.01-.06-.45.11-.59.09-.29.11-.61.11-.97.17.13.03-.1.02-.08.07-.08.01-.12.01-.12,0h.02s-.02,0-.02,0h0s-.26-.01-.26-.01c-.06-.01.08-.02.07-.03-.19.01-.08-.02-.2-.02.03.02-.06.03-.17.03h.15c-.26.06-.23-.02-.49.02l.08-.02c-.13,0-.49.01-.63.04-.02,0-.05-.02,0-.02-.32-.02-.72,0-.95-.09h.03c-.06-.02-.11,0-.17-.03,0,0,.03,0,0-.01-.03,0-.16,0-.23-.05h.07c-.06-.02-.11-.04-.16-.06,0-.05,0-.1,0-.15,0-.32-.03-.71-.06-1.12-.05-.71-.11-1.45-.04-1.98.04-.31.16-1.74.2-2.17v-.04s-.01,0-.01,0c.14-.09.28-.18.43-.26-.1.05-.09,0-.02-.04h.04s-.08.05,0-.04c.09-.07.08-.02.03.03l.11-.09s-.01.03-.01.04c.04-.05.21-.12.26-.2h.01c.25-.18.33-.31.51-.47-.01-.02.06-.09.1-.15.12-.14.26-.28.4-.46.09-.13.01-.05.04-.11.02,0,.14-.19.09-.08.13-.23.18-.29.32-.6-.02.03-.04.07-.04.04.02-.06.06-.12.07-.11v.02c.13-.35.38-.78.41-1.09l.04-.29c.04-.14,0,.09.03-.01.04-.33.1-.52.12-.8,0-.01.01-.03.02-.05.04.03.08.06.12.08l.09.02s.03.03,0,.02c.07.05.01-.01.05,0,.04.02.05.05.02.04.14.06.42.12.56.22h-.03s.08.02.11.02c-.03.14-.08.29-.05.44,0,0-.02,0-.02-.04,0,.09-.03.34.02.31-.04,0,0,.19.03.29h-.03c.04.07.05.07.07.19,0,.03-.02.03-.01-.01,0,.09.03.07.03.18l-.02-.04c.01.09.03.08.06.13.02.06.04.18.02.2.02,0,.05.06.05.11,0,0-.02,0-.02-.02.02.16.11.22.12.33v.02c-.05-.12-.09-.22-.08-.21-.02,0,.01.1-.05.04.05.07.13.19.16.29v.02s0,0,0,0l.03.06.03.08s.05.11.07.16c.02-.01.05.05.04-.02,0,0,0,0-.02-.04v-.02s0,0,0,0l-.06-.11s.06.06.07.12c.03.02.05.03.07.05,0,.08.05.21.04.23.09.13.21.31.3.36.03.03.02.05.02.07-.02-.02-.03-.04-.05-.05.05.07.16.21.2.2.06.1-.06-.03.04.09h-.02c.15.26.39.3.58.58l-.02-.03c.27.27.62.48.92.7.09.06.11.05.17.07v.04s.12.02.12.02c.15.04.22.18.42.21l-.02-.03c.07.03.22.06.2.08,0,0,.03,0,.05,0h0s.18.04.18.04c.13.04-.04.05.16.1.08.01.22,0,.19,0-.03,0-.07-.03-.07-.04h.07s.02-.02.02-.04c0,0,.02,0,.03,0l.03-.03h-.06s0,0,0,0c0-.02-.03-.04-.1-.07h-.11s-.03-.03-.03-.03l.09.02s-.08-.02-.12-.02l-.04-.03h-.12s.06,0-.01-.04c-.05,0,.04.05-.05.03-.05-.04-.03-.04-.09-.05,0-.01.01-.02.03-.01-.06,0-.14-.04-.18-.03-.05-.04-.18-.07-.16-.1-.02,0-.1-.01-.15-.03.11,0-.17-.08-.13-.12-.08,0-.23-.11-.35-.15h.03c-.06-.03-.07-.05-.1-.08-.03.03-.12-.03-.18-.05-.05-.08.07,0,.06-.04-.01.03-.14-.06-.13-.03-.04-.05-.04-.04-.05-.08-.04.03-.05-.03-.11-.04-.06-.08,0-.05-.08-.1-.03-.04.05,0,.05,0-.08-.07-.06,0-.09,0-.1-.08-.03-.06-.05-.1-.07-.04-.13-.06-.18-.1,0,0,0-.02,0-.01-.08-.04-.17-.18-.27-.22h0s-.01.02-.02.03c-.03-.03-.08-.05-.07-.08.02.02.03.02.04.02l-.04-.03c0-.05.06.04.07.03-.08-.06-.17-.13-.21-.2.01-.03.12.13.08.03l.07.1c-.03-.1.05.05.03-.04-.09-.12-.12-.12-.21-.24-.03-.02-.01.02-.05,0-.16-.15-.04-.18-.16-.28-.04-.02-.08-.02-.12-.12h.05c-.08-.11-.09-.03-.15-.17.02.02.07.09.06.07-.03-.1-.05-.05-.09-.12l.02-.03c-.07-.14-.19-.27-.24-.44.01,0,.03.03.03-.01-.1-.19-.16-.43-.18-.64l-.04-.07s0-.04.01-.02c-.01-.08-.02,0-.04-.04-.01-.04,0-.06.01-.04-.03-.14-.1-.4-.07-.55v.03c.02-.12-.04-.13-.02-.24v.02c0-.18.03-.37.06-.53.25.07.52.09.71.13.04-.03.27.04.29-.02.15.02.11.03.33.04.06,0,.09-.04.16-.04v.03s.1-.03.1-.03l.05.03.07-.02s-.06,0-.05-.01c.1-.03.25-.02.26,0l.24-.06s-.04.02-.08.03c.13-.05.03.02.15-.02-.02,0,0-.02,0-.02.06,0,.2-.03.29-.06v.02c.14-.04.31-.09.47-.15.1.12.19.23.24.36.06.06-.07-.15-.02-.1.08.12.08.28.11.32.06.18.11.15.19.33,0-.03.01-.06.09.07.06.13.03.18-.01.1-.01-.03-.02-.05-.01-.05-.02-.04-.05-.09-.04-.04h.02c.02.08.1.26.07.22.05.09.04.04,0-.04.07.17.09.27.14.45,0-.03,0-.06,0-.03.06.27.05.11.11.29.01.11-.05-.03.02.15.02.11-.02.03-.04-.01.06.16.08.31.09.4l-.02-.09c.02.05.02.09.03.14v-.05c.02.05.02.1.01.1.02.05.03-.05.06.06,0,.07.04.21.02.24-.02-.22-.02.03-.05-.16,0,.04.01.08.02.13,0,0,0,0-.01-.02,0,.21.04.09.08.31-.02-.03-.02.05-.01.09-.01-.09.02-.04.04.03,0,.14.03.15.04.22v-.08s.02.1.03.19c-.01,0,0-.09-.01-.05.03.11-.02.25,0,.4,0,.07-.03,0-.04.07.02.17-.02.18,0,.36.02-.05.01-.06.04.07l-.02-.29.03.19c0-.09-.02-.19-.01-.24.02.09.01.08.03.04-.03.12.02.24,0,.38Zm-4.01-2.4l.03.08s-.02,0-.02-.01c0,0,0-.04,0-.07Zm0,.43l.03.05h0s-.02,0-.02,0c-.02-.03-.02-.04-.02-.05Zm.08-.24h0s.02.05.02.05l-.02-.05Zm8.49-1.71s.02.05.03.05c0,.04,0,.05-.02.01.02.13.03.08.03.2,0,0-.01-.02-.02-.04.02.06.03.12.03.22,0,0-.01,0-.01-.02,0,.17.03.29,0,.48-.03-.06-.02.06-.05.07v.1s.02-.04.02-.04c0,.09,0,.17-.04.24v-.07s-.03.16-.03.16l.04-.09c0,.09.04,0,0,.11,0-.02-.02.09-.05.13h0s0,.09-.03.15c-.02.01-.03-.02-.04-.02.01.05-.06.2-.05.26,0-.02-.02-.03-.02-.02v.04s-.02.04-.03.03c-.05.12.05-.02-.01.11,0-.01,0,0,0-.03-.05.14-.09.27-.16.39-.05.02.04-.11,0-.08-.09.17-.12.39-.25.54l.02-.03s-.1.1-.13.2c.01-.02,0-.04,0-.03-.08.1-.12.24-.26.38v-.03c-.05.05-.13.14-.19.2,0,.03-.04.06,0,.05-.21.15-.35.34-.56.44.02-.02.04-.05.03-.03l-.15.12s.03,0,.07-.01c-.01.03-.05.06-.1.08.07-.05-.02-.03-.06-.02v.02c-.1.01.01.04-.12.08h0s-.13.07-.13.07c-.03-.01.04-.03.04-.05-.07.04-.12.11-.19.12l.1-.06c-.08,0-.08.02-.13.04l-.12.04h.03c-.07.08-.19.06-.3.14.11-.07.01-.03.02-.06-.03,0-.09,0-.07,0-.05.04-.1.01-.18.07,0,0-.06.02-.05,0-.08.03.02,0,.02.02-.11.08-.29,0-.46.07-.15.03-.18.06-.32.09-.05,0,.04-.03.04-.03-.08,0-.14,0-.21.01.01,0,0-.01-.02-.03-.06,0-.04.03-.12,0,.01,0,.03-.02.06-.03h-.21s.04,0,.07-.01c-.06,0-.13,0-.18,0,0,0,0-.02,0-.03h.02s-.02,0-.02,0c.01-.21.02-.42.04-.61.04.01-.03.37.01.36.02-.32,0-.5,0-.82,0-.08.02.05.03.07-.03-.32,0-.62-.05-.89,0,0,.01.03.02.06,0-.06-.01-.13-.03-.12v.05c0,.09-.07-.21-.09-.22.06.09-.03-.28.06-.14,0-.04-.02-.08-.03-.07,0-.05,0-.07.02-.02-.04-.2-.05-.12-.07-.3,0,0,.02.03.03.05-.03-.09-.05-.18-.08-.33,0,0,0-.01.02.03-.07-.25-.17-.42-.23-.7.06.07-.01-.1.01-.12l-.05-.15v.06c-.03-.13-.1-.23-.14-.34l.05.09-.11-.23.05.14c-.07-.12-.03.03-.1-.14.02.03-.05-.12-.07-.19l.05.08s-.03-.08-.05-.08c-.04-.06-.08-.11-.11-.21,0-.03.04,0,.04-.02-.05-.05-.13-.29-.22-.34.02.02.04.01.04,0l-.05-.03c-.03-.06-.03-.06-.01-.06-.1-.16,0,.07-.11-.12.01.01,0,0,.03.03-.02-.03-.03-.05-.05-.08,0,0,0,0,.01,0,.07-.03.06.01.02.04l.08-.04s-.01.02-.01.03c.03-.03.16-.03.2-.08h0c.19-.09.26-.15.41-.23-.01-.02.05-.05.08-.09.1-.07.23-.13.35-.23.08-.07.01-.03.04-.07.02.01.13-.09.08-.03.13-.13.17-.16.31-.34-.02.01-.04.03-.04.01.02-.03.07-.07.07-.05h0c.14-.2.41-.42.47-.63h0c.03-.05.06-.12.08-.19.04-.09,0,.06.03,0,.05-.23.16-.32.19-.52.12-.12.14-.5.21-.68h-.02s0,0,0,0c.11.04.22.09.32.14.14.06.11-.04.27.06h-.06c.28.12.56.29.8.46-.02,0-.02,0-.05-.02.04.06.18.14.2.13.04.03,0,.02.02.04.05.04.14.08.15.12,0,0-.02,0-.03-.01.04.02.13.14.12.09.07.09.16.15.21.22.07.02.11.16.15.15-.04.02.09.18.15.23-.02-.01.03.06,0,.04.05.06.1.12.11.1.04.15.18.25.17.35.15.2.23.4.33.6-.04,0-.1-.22-.13-.2.09.18.18.28.22.48,0,.05-.02-.02-.04-.04.07.19.11.38.15.56,0,0-.01-.02-.02-.04,0,.04,0,.08.02.08v-.03c0-.06.06.13.08.14-.06-.06.01.18-.07.09Zm-1-2.68v.03s.05,0,0-.03Zm-1.78-1.17s-.07-.05-.11-.05c.04.02.09.05.11.05Zm.03,8.49c-.07.02,0,.01,0,.02.04-.02.05-.03,0-.02Zm2.66-3.12v-.06s-.01.06,0,.06Zm-8.34-2.78h0s0,.02,0,.02v-.02Zm8.66,1.39h0s0,.01,0,0Zm-.91-2.35h0s.03.04.03.04l-.03-.04Zm-3.99-1.89h.01s-.01,0-.01,0Zm-3.71,2.21l-.03.08.02-.03.02-.04Zm3.71-2.26c.08.02-.13.03,0,.05-.01,0,.11-.04,0-.05Zm3.56,1.42h0s.02.03.02.03l-.02-.03Zm.28.66h0,0s0,0,0,0Zm-3.28,6.8h-.02s0,0,0,0h.02Zm3.01-7.17l-.03-.06h-.01s.04.06.04.06Zm-3.85,7.17h-.01s0,.01,0,.01h.02Zm.82-.01h-.04s.03,0,.03,0h0Zm4.09-4.98h0s0-.02,0,0Zm-8.46,2.3h-.01s0,0,0,0h0s0,0,0,0Zm.97,1.12s.08.05,0-.04v.04Z"/>
    </g>
  </g>
</svg>