<?xml version="1.0" encoding="UTF-8"?>
<svg id="Layer_1" data-name="Layer 1" xmlns="http://www.w3.org/2000/svg" viewBox="0 0 278.12 278.12">
  <defs>
    <style>
      .cls-1 {
        fill: #ff6d2d;
      }

      .cls-2 {
        fill: #9bacb6;
      }
    </style>
  </defs>
  <g id="Icon_Orange_Gray" data-name="Icon Orange Gray">
    <path id="Gray" class="cls-2" d="M180.19,196.91l-32.79,32.97c-2.3,2.3-5.32,3.44-8.34,3.41-3.01,.02-6.04-1.11-8.34-3.41l-32.79-32.97,18.54-18.54,22.58,22.58,22.58-22.58,18.54,18.54Zm49.69-66.18l-32.97-32.79-18.54,18.54,22.58,22.58-22.58,22.58,18.54,18.54,32.97-32.79c2.3-2.3,3.44-5.32,3.41-8.34,.02-3.01-1.11-6.04-3.41-8.34Zm-130.12,30.92l-22.58-22.58,22.58-22.58-18.54-18.54-32.97,32.79c-2.3,2.3-3.44,5.32-3.41,8.34-.02,3.01,1.11,6.04,3.41,8.34l32.97,32.79,18.54-18.54Zm-9.01,96.4c15.38,6.24,31.64,9.4,48.31,9.4,16.67,0,32.93-3.16,48.31-9.4,15.93-6.46,30.22-15.95,42.47-28.2,12.25-12.25,21.74-26.54,28.2-42.47,6.24-15.38,9.4-31.64,9.4-48.31,0-16.67-3.16-32.93-9.4-48.31-6.46-15.93-15.95-30.22-28.2-42.47-12.25-12.25-26.54-21.74-42.47-28.2-15.38-6.24-31.64-9.4-48.31-9.4-16.67,0-32.93,3.16-48.31,9.4-15.93,6.46-30.22,15.95-42.47,28.2-12.25,12.25-21.74,26.54-28.2,42.47-6.24,15.38-9.4,31.64-9.4,48.31,0,16.67,3.16,32.93,9.4,48.31,6.46,15.93,15.95,30.22,28.2,42.47s26.54,21.74,42.47,28.2Zm162.79-118.99c0,30.58-11.91,59.33-33.53,80.95-21.62,21.62-50.37,33.53-80.95,33.53-30.58,0-59.33-11.91-80.95-33.53-21.62-21.62-33.53-50.37-33.53-80.95,0-30.58,11.91-59.33,33.53-80.95,21.62-21.62,50.37-33.53,80.95-33.53s59.33,11.91,80.95,33.53c21.62,21.62,33.53,50.37,33.53,80.95Z"/>
    <path id="Orange" class="cls-1" d="M161.64,99.76l-22.58-22.58-22.58,22.58-18.54-18.54,32.79-32.97c2.3-2.3,5.32-3.44,8.34-3.41,3.01-.02,6.04,1.11,8.34,3.41l32.79,32.97-18.54,18.54Zm-74.91,168.18c16.66,6.76,34.27,10.18,52.33,10.18,18.06,0,35.67-3.43,52.33-10.18,17.25-7,32.73-17.27,46-30.55,13.27-13.27,23.55-28.75,30.55-46,6.76-16.66,10.18-34.27,10.18-52.33,0-18.06-3.43-35.67-10.18-52.33-7-17.25-17.27-32.73-30.55-46-13.27-13.27-28.75-23.55-46-30.55C174.72,3.43,157.12,0,139.06,0c-18.06,0-35.67,3.43-52.33,10.18-17.25,7-32.73,17.27-46,30.55-13.27,13.27-23.55,28.75-30.55,46C3.43,103.39,0,121,0,139.06c0,18.06,3.43,35.67,10.18,52.33,7,17.25,17.27,32.73,30.55,46,13.27,13.27,28.75,23.55,46,30.55ZM263.93,88.36c6.55,16.14,9.87,33.2,9.87,50.7,0,17.5-3.32,34.56-9.87,50.7-6.78,16.71-16.73,31.71-29.6,44.57-12.86,12.86-27.86,22.82-44.57,29.6-16.14,6.55-33.2,9.87-50.7,9.87-17.5,0-34.56-3.32-50.7-9.87-16.71-6.78-31.71-16.73-44.57-29.6-12.86-12.86-22.82-27.86-29.6-44.57-6.55-16.14-9.87-33.2-9.87-50.7,0-17.5,3.32-34.56,9.87-50.7,6.78-16.71,16.73-31.71,29.6-44.57,12.86-12.86,27.86-22.82,44.57-29.6,16.14-6.55,33.2-9.87,50.7-9.87,17.5,0,34.56,3.32,50.7,9.87,16.71,6.78,31.71,16.74,44.57,29.6,12.86,12.86,22.82,27.86,29.6,44.57Z"/>
  </g>
</svg>