<?xml version="1.0" encoding="utf-8"?>
<!-- Generator: Adobe Illustrator 27.5.0, SVG Export Plug-In . SVG Version: 6.00 Build 0)  -->
<svg version="1.1" id="Layer_1" xmlns="http://www.w3.org/2000/svg" xmlns:xlink="http://www.w3.org/1999/xlink" x="0px" y="0px"
	 viewBox="0 0 1264.7 458.4" style="enable-background:new 0 0 1264.7 458.4;" xml:space="preserve">
<style type="text/css">
	.st0{fill:#2E5741;}
</style>
<g>
	<path class="st0" d="M380.5,346.4h45.9c55.6-92.3,37.5-214.5-42.6-286.6c-86-79.5-222.3-79.7-308.5-0.5
		c-80.5,72.1-98.8,194.6-43.1,287.1H78 M78,346.4h302.5 M373.6,103.5c13.9,15.9,25.1,34,33,53.6l0,0l0,0
		c7.6,18.7,12.1,38.2,13.5,58.2H261.7L373.6,103.5L373.6,103.5L373.6,103.5z M242.5,38.3c41,2.7,81,19.2,112,46.2l0,0l-112,112
		L242.5,38.3L242.5,38.3z M104.1,84.4c30.8-26.9,70.6-43.3,111.4-46.1v157.6L104.1,84.4L104.1,84.4C104,84.4,104.1,84.4,104.1,84.4z
		 M51.9,157.2C51.9,157.2,51.9,157.2,51.9,157.2L51.9,157.2c7.9-19.6,19.1-37.8,33-53.6l0,0l111.9,111.9H38.4
		C39.8,195.4,44.3,175.8,51.9,157.2L51.9,157.2z M57.2,313c-1.9-3.9-3.6-7.8-5.3-11.8c-7.7-18.9-12.2-38.6-13.6-58.8h158.2
		L125.9,313H57.2 M164.1,313l51.4-51.4V313H164.1z M242.4,313v-52l51.9,52H242.4L242.4,313z M401.3,313h-68.7l-70.6-70.6h158.2
		c-1.4,20.2-5.9,40-13.6,58.8l0,0l0,0C404.9,305.2,403.2,309.1,401.3,313"/>
	<path class="st0" d="M116.3,428.7c69,39.5,156.9,39.5,225.9,0H116.3z"/>
	<path class="st0" d="M380.5,346.4h45.9c55.6-92.3,37.5-214.5-42.6-286.6c-86-79.5-222.3-79.7-308.5-0.5
		c-80.5,72.1-98.8,194.6-43.1,287.1H78 M373.6,103.5c13.9,15.9,25.1,34,33,53.6l0,0l0,0c7.6,18.7,12.1,38.2,13.5,58.2H261.7
		L373.6,103.5L373.6,103.5L373.6,103.5z M242.5,38.3c41,2.7,81,19.2,112,46.2l0,0l-112,112L242.5,38.3L242.5,38.3z M104.1,84.4
		c30.8-26.9,70.6-43.3,111.4-46.1v157.6L104.1,84.4L104.1,84.4C104,84.4,104.1,84.4,104.1,84.4z M51.9,157.2
		C51.9,157.2,51.9,157.2,51.9,157.2L51.9,157.2c7.9-19.6,19.1-37.8,33-53.6l0,0l111.9,111.9H38.4C39.8,195.4,44.3,175.8,51.9,157.2
		L51.9,157.2z M57.2,313c-1.9-3.9-3.6-7.8-5.3-11.8c-7.7-18.9-12.2-38.6-13.6-58.8h158.2L125.9,313H57.2 M164.1,313l51.4-51.4V313
		H164.1z M242.4,313v-52l51.9,52H242.4L242.4,313z M401.3,313h-68.7l-70.6-70.6h158.2c-1.4,20.2-5.9,40-13.6,58.8l0,0l0,0
		C404.9,305.2,403.2,309.1,401.3,313"/>
	<path class="st0" d="M116.3,428.7c69,39.5,156.9,39.5,225.9,0H116.3z"/>
	<path class="st0" d="M50.3,372.6c8.5,10.7,18.2,20.8,28.6,29.8h301c10.3-9,20-19.1,28.6-29.8H50.3z"/>
</g>
<g>
	<path class="st0" d="M589,137.6v-38h-34.4v38h-19.1V47.6h19.1V82H589V47.6h19.3v89.9H589z"/>
	<path class="st0" d="M655.2,122.7l-6.9,14.9h-20V135l41.4-88.1h8.9l41.1,88.1v2.6h-19.9l-7.1-14.9L655.2,122.7L655.2,122.7z
		 M661.5,106.5h24.9L674,76.8L661.5,106.5L661.5,106.5z"/>
	<path class="st0" d="M819,47.4h6.9v90.2h-19.3V88.9L784,117.1h-2.4L759,88.9v48.7h-19.3V47.4h7.1l36.1,42.8L819,47.4z"/>
	<path class="st0" d="M897.2,122.3v15.3h-44.7v-15.3h12.7V62.5h-11.7V47.6h42.6v14.9h-11.7v59.7H897.2L897.2,122.3z"/>
	<path class="st0" d="M943,120.4h37.5v17.2h-56.8V47.6H943L943,120.4L943,120.4z"/>
	<path class="st0" d="M988.3,64.3V47.6h66.5v16.7h-23.9v73.2h-18.6V64.3H988.3L988.3,64.3z"/>
	<path class="st0" d="M1116.7,139.1c-24,0-45.7-16.2-45.7-46.5s22.2-46.4,46.1-46.4c23.9,0,45.7,16.2,45.7,46.4
		C1162.8,120,1143.9,139.1,1116.7,139.1z M1116.9,121.5c14,0,26.7-9.2,26.7-28.9S1131.1,64,1117,64s-26.7,9.6-26.7,28.6
		S1102.5,121.5,1116.9,121.5z"/>
	<path class="st0" d="M1208.1,86.2v51.4h-19.1V47.3h6l50.5,51.4v-51h19.3v90.2h-5.8C1259,137.8,1208.1,86.2,1208.1,86.2z"/>
	<path class="st0" d="M614.7,180h6.9v90.2h-19.3v-48.7l-22.6,28.3h-2.4l-22.6-28.3v48.7h-19.3V180h7.1l36.1,42.8L614.7,180
		L614.7,180z"/>
	<path class="st0" d="M692.9,254.9v15.3h-44.7v-15.3h12.7v-59.7h-11.7v-14.9h42.6v14.9h-11.7v59.7H692.9L692.9,254.9z"/>
	<path class="st0" d="M738.7,253h37.5v17.2h-56.8v-89.9h19.3L738.7,253L738.7,253z"/>
	<path class="st0" d="M818.3,253h37.5v17.2H799v-89.9h19.3L818.3,253L818.3,253z"/>
	<path class="st0" d="M576.4,312c18.1,0,37.4,9.8,41.5,32h-18.6c-4-10.2-12.1-14.6-22.9-14.6c-15.9,0-26.6,11.6-26.6,28.6
		c0,15.4,10.4,28.3,26.5,28.3c11.2,0,20.3-5.3,23.4-16.2h18.5c-3.9,23.8-23,33.7-41.8,33.7c-23.6,0-46-15.9-46-45.7
		S552.8,311.6,576.4,312L576.4,312z"/>
	<path class="st0" d="M697.1,402.8v-38h-34.4v38h-19.1v-89.9h19.1v34.3h34.4v-34.3h19.3v89.9H697.1z"/>
	<path class="st0" d="M746.8,372.9v-60h19.3v59.6c0,9.6,7.8,14.5,16.7,14.5s16.6-4.9,16.6-14.5v-59.6h19v60
		c0,20.2-16.6,31.1-35.6,31.1C763.7,404,746.8,393.1,746.8,372.9z"/>
	<path class="st0" d="M923.3,400v2.7h-20.6L884.2,373h-16.1v29.7h-19.3v-89.9c12.9,0,25.6-0.1,38.4,0c20.6,0,31.7,14.9,31.7,30.8
		c0,11.4-5.8,21.5-16.1,26.5L923.3,400L923.3,400z M887.2,357.2c8.1,0,13.4-6.3,13.2-14c0-7.6-5-13.6-13.2-13.6h-19.3v27.6
		L887.2,357.2L887.2,357.2z"/>
	<path class="st0" d="M988.1,312c18.1,0,37.4,9.8,41.5,32H1011c-4-10.2-12.1-14.6-22.9-14.6c-15.9,0-26.6,11.6-26.6,28.6
		c0,15.4,10.4,28.3,26.5,28.3c11.2,0,20.3-5.3,23.4-16.2h18.5c-3.9,23.8-23,33.7-41.8,33.7c-23.6,0-46-15.9-46-45.7
		S964.4,311.6,988.1,312L988.1,312z"/>
	<path class="st0" d="M1108.8,402.8v-38h-34.4v38h-19.1v-89.9h19.1v34.3h34.4v-34.3h19.3v89.9H1108.8z"/>
</g>
</svg>
