<?xml version="1.0" encoding="UTF-8"?>
<svg id="Layer_1" data-name="Layer 1" xmlns="http://www.w3.org/2000/svg" viewBox="0 0 539.31 216.07">
  <defs>
    <style>
      .cls-1 {
        fill: #36332f;
      }

      .cls-2 {
        fill: #2a7de1;
      }
    </style>
  </defs>
  <g>
    <g>
      <path class="cls-1" d="M251.9,83.26c.49,0,.93-.31,1.13-.79l6.79-14.75,6.88,14.78c.36,.72,.92,.8,1.14,.8,.19,0,.84-.06,1.13-.86l12.79-31.31c.12-.29,.09-.63-.09-.89-.18-.26-.47-.42-.79-.42h-8.28c-.39,0-.75,.24-.89,.61l-4.71,12.4-6-13.01c-.19-.47-.6-.77-1.06-.77s-.87,.29-1.05,.74l-5.73,13.04-4.94-12.41c-.14-.36-.49-.6-.88-.6h-8.69c-.32,0-.61,.16-.79,.42-.18,.26-.21,.6-.09,.89l12.97,31.32c.21,.5,.65,.81,1.14,.81"/>
      <path class="cls-1" d="M297.18,49.45c-9.85,0-17.56,7.37-17.56,16.79s7.71,16.83,17.56,16.83,17.56-7.39,17.56-16.83-7.71-16.79-17.56-16.79m0,24.53c-4.37,0-7.2-3.04-7.2-7.75s2.83-7.7,7.2-7.7,7.2,3.02,7.2,7.7-2.83,7.75-7.2,7.75"/>
      <path class="cls-1" d="M334.49,49.45c-9.85,0-17.56,7.37-17.56,16.79s7.71,16.83,17.56,16.83,17.56-7.39,17.56-16.83-7.71-16.79-17.56-16.79m0,24.53c-4.37,0-7.2-3.04-7.2-7.75s2.83-7.7,7.2-7.7,7.2,3.02,7.2,7.7-2.83,7.75-7.2,7.75"/>
      <path class="cls-1" d="M383.45,66.23c0-9.67-6.83-16.42-16.6-16.42h-11.97c-.52,0-.95,.42-.95,.95v30.95c0,.52,.42,.95,.95,.95h11.97c9.78,0,16.6-6.75,16.6-16.42m-17.51-7.52c4.41,0,7.15,2.88,7.15,7.52s-2.74,7.52-7.15,7.52h-1.83v-15.03h1.83Z"/>
      <path class="cls-1" d="M397.79,83.11c8.06,0,12.69-3.91,12.69-10.73,0-5.06-2.76-8.23-8.93-10.27l-4.1-1.37c-1.43-.48-1.54-.85-1.54-1.38,0-1.07,1.44-1.19,2.06-1.19,1.92,0,3.41,.62,4.69,1.94,.18,.19,.42,.29,.68,.29h0c.26,0,.5-.11,.68-.29l4.73-4.96c.34-.35,.35-.9,.04-1.27-1.72-2.02-5.07-4.43-11.28-4.43-5.54,0-11.51,3.19-11.51,10.19,0,4.94,2.81,8.38,8.34,10.23l3.64,1.23c2.22,.74,2.4,1.21,2.4,1.74,0,.41,0,1.51-2.97,1.51s-4.52-1.52-5.72-3.01c-.32-.4-.9-.47-1.31-.16l-6.01,4.51c-.2,.15-.33,.38-.37,.62-.04,.25,.03,.5,.18,.7,1.71,2.28,5.76,6.11,13.59,6.11"/>
      <path class="cls-1" d="M429.69,81.71v-23.04h7.24c.52,0,.95-.42,.95-.95v-6.96c0-.52-.42-.95-.95-.95h-24.67c-.52,0-.95,.42-.95,.95v6.96c0,.52,.42,.95,.95,.95h7.24v23.04c0,.52,.42,.95,.95,.95h8.28c.52,0,.95-.42,.95-.95"/>
      <path class="cls-1" d="M455.91,83.07c9.85,0,17.56-7.39,17.56-16.83s-7.71-16.79-17.56-16.79-17.56,7.37-17.56,16.79,7.71,16.83,17.56,16.83m0-9.09c-4.37,0-7.2-3.04-7.2-7.75s2.83-7.7,7.2-7.7,7.2,3.02,7.2,7.7-2.83,7.75-7.2,7.75"/>
      <path class="cls-1" d="M492.72,83.07c6.67,0,11.25-2.49,14.42-7.84,.26-.44,.13-1.01-.3-1.28l-6.37-4.1c-.22-.14-.49-.19-.75-.12-.26,.07-.47,.24-.6,.47-1,1.87-2.55,3.78-6.45,3.78-4.6,0-6.65-3.89-6.65-7.75,0-4.6,2.56-7.7,6.38-7.7s5.23,1.74,6.21,3.25c.14,.21,.36,.36,.61,.41,.25,.05,.51,0,.72-.15l6.24-4.23c.43-.29,.55-.88,.25-1.32-3.18-4.69-7.94-7.06-14.16-7.06-9.31,0-16.6,7.37-16.6,16.79s7.49,16.83,17.06,16.83"/>
      <path class="cls-1" d="M510.33,82.66h8.28c.52,0,.95-.42,.95-.95v-7.72l1.56-1.92,6.66,10.16c.18,.27,.47,.43,.79,.43h9.78c.35,0,.67-.19,.83-.5,.17-.31,.15-.68-.04-.97l-11.14-16.96,9.88-12.89c.22-.29,.26-.67,.1-1-.16-.32-.49-.53-.85-.53h-8.97c-.3,0-.58,.14-.76,.38l-7.85,10.54v-9.97c0-.52-.42-.95-.95-.95h-8.28c-.52,0-.95,.42-.95,.95v30.95c0,.52,.42,.95,.95,.95"/>
    </g>
    <g>
      <path class="cls-1" d="M269.37,115.8l-6.46-4.15c-.23-.15-.52-.2-.79-.13s-.5,.25-.63,.49c-1.01,1.88-2.58,3.81-6.5,3.81-4.63,0-6.71-3.92-6.71-7.81s1.99-7.77,6.43-7.77c3.66,0,5.27,1.75,6.27,3.28,.15,.23,.38,.38,.64,.44,.26,.05,.54,0,.76-.15l6.32-4.29c.46-.31,.57-.93,.27-1.39-3.23-4.76-8.07-7.17-14.39-7.17-9.46,0-16.87,7.49-16.87,17.05s7.61,17.1,17.33,17.1c6.78,0,11.43-2.53,14.65-7.96,.27-.46,.13-1.06-.32-1.35"/>
      <path class="cls-1" d="M281.57,91.33h-8.4c-.55,0-1,.45-1,1v31.37c0,.55,.45,1,1,1h8.4c.55,0,1-.45,1-1v-31.37c0-.55-.45-1-1-1"/>
      <path class="cls-1" d="M311.46,91.33h-25.01c-.55,0-1,.45-1,1v7.06c0,.55,.45,1,1,1h7.31v23.31c0,.55,.45,1,1,1h8.4c.55,0,1-.45,1-1v-23.31h7.31c.55,0,1-.45,1-1v-7.06c0-.55-.45-1-1-1"/>
      <path class="cls-1" d="M344.96,91.33h-8.81c-.37,0-.71,.2-.88,.53l-5.3,9.85-5.3-9.85c-.17-.32-.51-.53-.88-.53h-9.23c-.36,0-.69,.19-.87,.5-.18,.31-.18,.69,0,1l10.94,19.01v11.87c0,.55,.45,1,1,1h8.4c.55,0,1-.45,1-1v-12.1l10.8-18.78c.18-.31,.18-.69,0-1-.18-.31-.51-.5-.87-.5"/>
    </g>
    <g>
      <path class="cls-1" d="M269.38,157.67l-6.46-4.15c-.23-.15-.52-.2-.79-.13-.27,.07-.5,.25-.63,.49-1.01,1.88-2.58,3.81-6.5,3.81-4.63,0-6.71-3.92-6.71-7.81s1.99-7.77,6.43-7.77c3.66,0,5.27,1.75,6.27,3.28,.15,.23,.38,.38,.64,.44,.26,.05,.54,0,.76-.15l6.32-4.29c.46-.31,.58-.93,.27-1.39-3.23-4.76-8.07-7.17-14.39-7.17-9.46,0-16.87,7.49-16.87,17.05s7.61,17.1,17.33,17.1c6.78,0,11.43-2.53,14.65-7.96,.27-.46,.13-1.06-.32-1.35"/>
      <path class="cls-1" d="M300.67,133.19h-8.4c-.55,0-1,.45-1,1v11.04h-8.89v-11.04c0-.55-.45-1-1-1h-8.4c-.55,0-1,.45-1,1v31.37c0,.55,.45,1,1,1h8.4c.55,0,1-.45,1-1v-11.27h8.89v11.27c0,.55,.45,1,1,1h8.4c.55,0,1-.45,1-1v-31.37c0-.55-.45-1-1-1"/>
      <path class="cls-1" d="M333.93,133.19h-8.4c-.55,0-1,.45-1,1v19.15c0,3.13-1.34,4.58-4.21,4.58s-4.21-1.46-4.21-4.58v-19.15c0-.55-.45-1-1-1h-8.4c-.55,0-1,.45-1,1v19.24c0,8.39,5.6,13.59,14.61,13.59s14.61-5.21,14.61-13.59v-19.24c0-.55-.45-1-1-1"/>
      <path class="cls-1" d="M360.74,154.85c3.44-1.96,5.32-5.31,5.32-9.54,0-7.36-5.26-12.12-13.41-12.12h-12.69c-.55,0-1,.45-1,1v31.37c0,.55,.45,1,1,1h8.4c.55,0,1-.45,1-1v-8.83h1.28l5.25,9.32c.18,.31,.51,.51,.87,.51h9.09c.36,0,.69-.19,.87-.5,.18-.31,.18-.69,0-1l-5.97-10.21Zm-11.38-12.56h2.88c2.28,0,3.38,.99,3.38,3.01s-1.11,3.02-3.38,3.02h-2.88v-6.03Z"/>
      <path class="cls-1" d="M399.89,157.67l-6.46-4.15c-.23-.15-.52-.2-.79-.13-.27,.07-.5,.25-.63,.49-1.01,1.88-2.58,3.81-6.5,3.81-4.63,0-6.71-3.92-6.71-7.81s1.99-7.77,6.43-7.77c3.66,0,5.27,1.75,6.27,3.28,.15,.23,.38,.38,.64,.44,.26,.05,.54,0,.76-.15l6.32-4.29c.46-.31,.58-.93,.27-1.39-3.23-4.76-8.07-7.17-14.39-7.17-9.46,0-16.87,7.49-16.87,17.05s7.61,17.1,17.33,17.1c6.78,0,11.43-2.53,14.65-7.96,.27-.46,.13-1.06-.32-1.35"/>
      <path class="cls-1" d="M431.18,133.19h-8.4c-.55,0-1,.45-1,1v11.04h-8.89v-11.04c0-.55-.45-1-1-1h-8.4c-.55,0-1,.45-1,1v31.37c0,.55,.45,1,1,1h8.4c.55,0,1-.45,1-1v-11.27h8.89v11.27c0,.55,.45,1,1,1h8.4c.55,0,1-.45,1-1v-31.37c0-.55-.45-1-1-1"/>
    </g>
  </g>
  <path class="cls-2" d="M215.48,97.35c-.12-1.63-1.67-2.72-3.26-2.37,0,0-3.97,.77-7.72,1.68-3.75,.92-7.89,2.13-7.89,2.13-1.23,.35-2.07,1.42-2.01,2.68,.1,2.11,.3,4.81,.3,6.36-.02,22.6-8.53,44.04-24.21,60.37-15.76,16.42-36.98,25.88-59.73,26.65-18.3,.61-35.48-4.51-49.82-13.74-.51-.33-.75-.97-.58-1.56,2.22-7.89,4.89-15.47,7.94-22.57l.36-.83c3.54-8.27,9.47-22.11,18.32-23.19,.17-.02,.34-.03,.49-.03,4.84,.1,6.97,12.9,7.66,17.1,.07,.41,.13,.8,.19,1.14,.78,4.57,1.35,9.5,1.85,15.99,0,0,.35,4.49,.34,7.65-.02,7.07,3.61,11.22,8.33,11.32,1.8,.04,6.45-.43,7.95-7.75,.38-1.84,.75-3.65,1.18-5.42,14.45-59.79,67.21-81.2,92.27-87.9,.04-.01,1.74-.48,3.29-.9,1.43-.39,2.28-1.85,1.9-3.28-.59-2.25-1.52-6-3.46-11.21-1.65-4.44-3.66-8.29-4.79-10.53-.61-1.2-2-1.76-3.28-1.33-1.7,.58-3.79,1.29-3.85,1.31-19.81,6.71-56.28,25.31-84.97,75.63-.63,1.1-2.28,.85-2.56-.39-2.47-11.24-7.12-24.88-19.42-28.03-1.1-.28-2.23-.44-3.34-.46-9.72-.2-17.6,9.15-23.43,18.79-.69,1.14-2.43,.75-2.58-.58-2.31-20.84-7.98-37.82-17.21-51.61-2.42-3.61-5.28-6.75-8.52-9.4-.56-.45-.7-1.25-.31-1.85,14.91-23.22,40.6-39,70.21-40,26.19-.88,51.06,9.9,68.31,29.64,.85,.98,2.03,2.39,3.06,3.66,.77,.95,2.11,1.22,3.2,.72s4.67-2.14,7.96-3.7,6.63-3.26,6.63-3.26c1.52-.73,1.99-2.67,.96-4.01-1.97-2.58-4.25-5.48-5.69-7.14C166.67,10.79,132.86-2.8,97.8,.48,41.24,5.77-1.75,54.69,.05,111.47c1.93,60.73,53.87,108.27,114.92,104.38,25.44-1.62,49.38-12.12,67.77-29.77,21.55-20.68,33.46-48.7,33.33-78.34-.01-2.72-.35-7.05-.59-10.39ZM45.11,164.36c-.08,1.23-1.62,1.76-2.43,.83-12.75-14.56-20.76-33.43-21.46-54.23-.28-8.21,.61-16.2,2.49-23.81,.24-.97,1.39-1.36,2.19-.77,2.21,1.66,4.22,3.59,5.96,5.78,14.89,18.61,14.76,49.33,13.24,72.21Z"/>
</svg>