<?xml version="1.0" encoding="UTF-8"?>
<svg id="Layer_1" data-name="Layer 1" xmlns="http://www.w3.org/2000/svg" viewBox="0 0 144 144">
  <defs>
    <style>
      .cls-1 {
        fill: none;
      }

      .cls-2 {
        fill: #fff;
      }
    </style>
  </defs>
  <polygon class="cls-1" points="81.47 95.05 89.77 86.75 81.47 86.75 81.47 95.05"/>
  <polygon class="cls-1" points="64.79 86.81 55.95 95.64 64.79 95.64 64.79 86.81"/>
  <polygon class="cls-1" points="95.63 95.64 104.46 95.64 95.63 86.82 95.63 95.64"/>
  <polygon class="cls-1" points="93.16 86.85 84.37 95.64 93.16 95.64 93.16 86.85"/>
  <polygon class="cls-1" points="67.26 86.82 67.26 95.64 76.08 95.64 67.26 86.82"/>
  <polygon class="cls-1" points="79 86.75 70.68 86.75 79 95.06 79 86.75"/>
  <polygon class="cls-1" points="53.05 95.05 61.35 86.75 53.05 86.75 53.05 95.05"/>
  <path class="cls-1" d="M53.05,73.57v8.24h16.21c-5.75-2.64-11.17-5.21-16.21-8.24Z"/>
  <polygon class="cls-1" points="107.37 86.75 99.06 86.75 107.37 95.06 107.37 86.75"/>
  <path class="cls-1" d="M124.05,86.82v8.82h2.01c.26-.58,.51-1.17,.74-1.76,.42-1.04,.79-2.1,1.15-3.17l-3.9-3.9Z"/>
  <path class="cls-1" d="M32.45,54.16c.28-.34,.55-.68,.82-1.02h8.6c.27,.34,.55,.68,.82,1.02,14.12,17.26,34.98,25.84,58.57,27.64h12.98c5.6-.43,11.05-1.25,16.29-2.48,.3-2.4,.47-4.84,.47-7.33,0-15.75-6.17-30.06-16.23-40.64-10.75-11.31-25.93-18.35-42.76-18.35-.37,0-.74,0-1.11,.01-31.58,.58-57.07,25.98-57.85,57.5,7.33-4.21,13.89-9.62,19.4-16.36Z"/>
  <path class="cls-1" d="M127.48,86.75l1.3,1.3c.12-.43,.24-.86,.35-1.3h-1.65Z"/>
  <polygon class="cls-1" points="109.84 95.05 118.14 86.75 109.84 86.75 109.84 95.05"/>
  <polygon class="cls-1" points="121.58 86.81 112.74 95.64 121.58 95.64 121.58 86.81"/>
  <path class="cls-1" d="M122.48,24.03C109.79,10.68,91.87,2.36,72,2.36c-.44,0-.88,0-1.31,.02C32.83,3.08,2.36,33.98,2.36,72c0,9.45,1.89,18.46,5.3,26.68,10.47,25.22,35.33,42.96,64.34,42.96s54.43-18.14,64.69-43.81c3.19-7.99,4.95-16.7,4.95-25.83,0-18.59-7.29-35.48-19.16-47.97Zm-50.48,114.24c-36.6,0-66.27-29.67-66.27-66.27S35.4,5.73,72,5.73s66.27,29.67,66.27,66.27-29.67,66.27-66.27,66.27Z"/>
  <path class="cls-1" d="M22.47,86.75h-7.59c.11,.42,.23,.84,.35,1.25l7.24,7.24v-8.5Z"/>
  <path class="cls-1" d="M36.37,62.1c-3.09,3.4-6.45,6.23-10.03,8.72l10.03,10.03v-18.75Z"/>
  <path class="cls-1" d="M22.47,73.34c-2.91,1.77-5.96,3.38-9.12,4.93,.13,1.19,.3,2.37,.49,3.53h8.63v-8.47Z"/>
  <path class="cls-1" d="M17.49,94.6c.15,.35,.3,.69,.46,1.04h1.42l-2.4-2.4c.18,.45,.34,.91,.53,1.36Z"/>
  <path class="cls-1" d="M38.84,100.59v1.87h1.96v4.6h-6.4v-4.6h1.96v-1.87h-15.98c10.06,18.13,29.4,30.41,51.61,30.41s41.54-12.28,51.6-30.41H38.84Z"/>
  <polygon class="cls-1" points="24.94 94.78 32.97 86.75 24.94 86.75 24.94 94.78"/>
  <polygon class="cls-1" points="50.58 72.63 41.41 81.81 50.58 81.81 50.58 72.63"/>
  <polygon class="cls-1" points="38.84 95.64 47.67 95.64 38.84 86.82 38.84 95.64"/>
  <path class="cls-1" d="M38.84,62.19v18.69l10.01-10.01c-3.58-2.48-6.92-5.3-10.01-8.68Z"/>
  <polygon class="cls-1" points="24.94 72.91 24.94 81.81 33.83 81.81 24.94 72.91"/>
  <polygon class="cls-1" points="36.37 86.84 27.57 95.64 36.37 95.64 36.37 86.84"/>
  <polygon class="cls-1" points="50.58 86.75 42.27 86.75 50.58 95.06 50.58 86.75"/>
  <path class="cls-2" d="M72,5.73C35.4,5.73,5.73,35.4,5.73,72s29.67,66.27,66.27,66.27,66.27-29.67,66.27-66.27S108.6,5.73,72,5.73Zm-1.11,7.29c.37,0,.74-.01,1.11-.01,16.83,0,32.01,7.05,42.76,18.35,10.06,10.58,16.23,24.89,16.23,40.64,0,2.48-.17,4.92-.47,7.33-5.24,1.23-10.69,2.05-16.29,2.48h-12.98c-23.58-1.8-44.44-10.38-58.57-27.64-.28-.34-.55-.68-.82-1.02h-8.6c-.27,.34-.55,.68-.82,1.02-5.52,6.74-12.07,12.15-19.4,16.36,.78-31.53,26.27-56.92,57.85-57.5Zm55.17,82.62h-2.01v-8.82l3.9,3.9c-.36,1.07-.73,2.13-1.15,3.17-.24,.59-.49,1.18-.74,1.76Zm1.42-8.9h1.65c-.11,.43-.23,.87-.35,1.3l-1.3-1.3Zm-5.89,.06v8.84h-8.84l8.84-8.84Zm-11.74,8.24v-8.3h8.3l-8.3,8.3Zm-10.78-8.3h8.31v8.31l-8.31-8.31Zm5.4,8.9h-8.82v-8.82l8.82,8.82Zm-11.3-8.8v8.8h-8.8l8.8-8.8Zm-11.7,8.2v-8.3h8.3l-8.3,8.3Zm-16.68-8.24v8.84h-8.84l8.84-8.84Zm-11.74,8.24v-8.3h8.3l-8.3,8.3Zm0-13.24v-8.24c5.03,3.03,10.46,5.59,16.21,8.24h-16.21Zm14.21,5.01l8.82,8.82h-8.82v-8.82Zm3.42-.07h8.31v8.31l-8.31-8.31Zm-28.42,0h8.31v8.31l-8.31-8.31Zm5.4,8.9h-8.82v-8.82l8.82,8.82Zm-6.26-13.84l9.17-9.17v9.17h-9.17Zm-2.56-.93v-18.69c3.09,3.38,6.44,6.2,10.01,8.68l-10.01,10.01Zm-5.87,5.87l-8.03,8.03v-8.03h8.03Zm-8.03-4.94v-8.89l8.89,8.89h-8.89Zm11.43,5.03v8.8h-8.8l8.8-8.8Zm-10.03-16.02c3.58-2.49,6.94-5.32,10.03-8.72v18.75l-10.03-10.03Zm-8.39,24.82c-.15-.35-.31-.69-.46-1.04-.19-.45-.35-.91-.53-1.36l2.4,2.4h-1.42Zm-2.73-7.64c-.12-.42-.24-.83-.35-1.25h7.59v8.5l-7.24-7.24Zm-1.39-6.2c-.2-1.17-.37-2.34-.49-3.53,3.16-1.56,6.21-3.16,9.12-4.93v8.47H13.83Zm58.17,49.19c-22.21,0-41.55-12.28-51.61-30.41h15.98v1.87h-1.96v4.6h6.4v-4.6h-1.96v-1.87H123.6c-10.06,18.13-29.4,30.41-51.6,30.41Z"/>
  <path class="cls-2" d="M72,0C32.24,0,0,32.24,0,72s32.24,72,72,72,72-32.24,72-72S111.76,0,72,0Zm0,141.64c-29.01,0-53.87-17.74-64.34-42.96-3.41-8.22-5.3-17.23-5.3-26.68C2.36,33.98,32.83,3.08,70.69,2.38c.44,0,.87-.02,1.31-.02,19.87,0,37.79,8.32,50.48,21.67,11.87,12.49,19.16,29.38,19.16,47.97,0,9.13-1.76,17.84-4.95,25.83-10.26,25.67-35.35,43.81-64.69,43.81Z"/>
</svg>