<?xml version="1.0" encoding="UTF-8"?>
<svg id="Layer_1" data-name="Layer 1" xmlns="http://www.w3.org/2000/svg" viewBox="0 0 149.53 149.53">
  <defs>
    <style>
      .cls-1 {
        fill: #fff;
      }
    </style>
  </defs>
  <path class="cls-1" d="M74.77,149.53C33.54,149.53,0,115.99,0,74.77S33.54,0,74.77,0s74.77,33.54,74.77,74.77-33.54,74.77-74.77,74.77Zm0-137.53c-34.61,0-62.77,28.16-62.77,62.77s28.16,62.77,62.77,62.77,62.77-28.16,62.77-62.77S109.38,12,74.77,12Z"/>
  <g>
    <path class="cls-1" d="M34.62,55.66c.23,1.64,1.62,2.74,3.39,2.74,1.17,0,1.93-.44,2.63-1.36h4.43c-1.38,3.16-4.02,5.01-7.07,5.01-4.17,0-7.67-3.36-7.67-7.67s3.34-7.77,7.59-7.77,7.64,3.42,7.64,7.9c0,.42-.03,.76-.1,1.15h-10.85Zm6.62-2.92c-.34-1.49-1.64-2.48-3.31-2.48-1.56,0-2.92,.94-3.26,2.48h6.57Z"/>
    <path class="cls-1" d="M58.85,61.58v-1.56h-.05c-.63,1.28-2.35,2.06-4.25,2.06-4.28,0-7.25-3.36-7.25-7.74s3.1-7.72,7.25-7.72c1.77,0,3.42,.7,4.25,2.03h.05v-1.54h4.33v14.47h-4.33Zm0-7.25c0-2.03-1.64-3.68-3.68-3.68s-3.55,1.64-3.55,3.73,1.59,3.65,3.6,3.65,3.62-1.62,3.62-3.7Z"/>
    <path class="cls-1" d="M72.49,51.17c-.03-.83-.63-1.09-1.33-1.09s-1.25,.42-1.25,.96c0,.78,.7,1.17,2.71,1.7,3.44,.91,4.56,2.29,4.56,4.41,0,3.03-2.61,4.93-5.89,4.93s-5.58-1.85-5.89-4.8h4.3c.13,.91,.78,1.33,1.64,1.33,.76,0,1.51-.44,1.51-1.12,0-.81-.5-1.23-2.66-1.9-3.65-1.12-4.62-2.56-4.62-4.25,0-2.87,2.69-4.72,5.61-4.72,3.13,0,5.35,1.72,5.55,4.56h-4.25Z"/>
    <path class="cls-1" d="M80.21,61.58v-11.19h-2.14v-3.29h2.14v-4.82h4.33v4.82h2.09v3.29h-2.09v11.19h-4.33Z"/>
  </g>
  <g>
    <path class="cls-1" d="M41.21,74.73c-.63-1.36-1.75-2.03-3.23-2.03-1.98,0-3.34,1.64-3.34,3.68s1.43,3.68,3.44,3.68c1.46,0,2.48-.68,3.13-1.93h4.41c-.86,3.62-3.96,5.97-7.67,5.97-4.28,0-7.67-3.47-7.67-7.75s3.42-7.69,7.59-7.69c3.81,0,6.91,2.4,7.72,6.08h-4.38Z"/>
    <path class="cls-1" d="M55.11,84.07c-4.41,0-7.8-3.26-7.8-7.69s3.47-7.69,7.8-7.69,7.8,3.26,7.8,7.64-3.44,7.75-7.8,7.75Zm3.47-7.69c0-1.93-1.46-3.65-3.49-3.65-1.9,0-3.44,1.67-3.44,3.65s1.51,3.65,3.47,3.65,3.47-1.72,3.47-3.65Z"/>
    <path class="cls-1" d="M65.1,83.62v-19.3h4.33v5.97c1.15-1.23,2.61-1.64,4.12-1.64,3.75,0,7.2,2.82,7.2,7.64,0,4.46-2.84,7.82-7.3,7.82-1.75,0-3.49-.81-4.15-2.03h-.05v1.54h-4.15Zm11.32-7.25c0-1.93-1.49-3.68-3.57-3.68s-3.57,1.64-3.57,3.65c0,2.14,1.51,3.73,3.52,3.73s3.62-1.62,3.62-3.7Z"/>
    <path class="cls-1" d="M82.91,83.62v-19.3h4.33v5.97c1.15-1.23,2.61-1.64,4.12-1.64,3.75,0,7.2,2.82,7.2,7.64,0,4.46-2.84,7.82-7.3,7.82-1.75,0-3.49-.81-4.15-2.03h-.05v1.54h-4.15Zm11.32-7.25c0-1.93-1.49-3.68-3.57-3.68s-3.57,1.64-3.57,3.65c0,2.14,1.51,3.73,3.52,3.73s3.62-1.62,3.62-3.7Z"/>
  </g>
  <g>
    <path class="cls-1" d="M41.95,96.2c-.63-1.36-1.75-2.03-3.23-2.03-1.98,0-3.34,1.64-3.34,3.68s1.43,3.68,3.44,3.68c1.46,0,2.48-.68,3.13-1.93h4.41c-.86,3.62-3.96,5.97-7.67,5.97-4.28,0-7.67-3.47-7.67-7.75s3.42-7.69,7.59-7.69c3.81,0,6.91,2.4,7.72,6.08h-4.38Z"/>
    <path class="cls-1" d="M57.41,105.09v-7.95c0-1.88-.73-2.95-2.32-2.95s-2.43,.96-2.43,2.76v8.14h-4.33v-19.3h4.33v6.21c.63-1.17,2.03-1.88,3.75-1.88,3.31,0,5.32,2.09,5.32,5.87v9.1h-4.33Z"/>
    <path class="cls-1" d="M73.61,105.09v-1.54h-.05c-.63,1.33-1.77,2.01-3.73,2.01-3.05,0-5.58-1.83-5.58-5.95v-9h4.33v8.11c0,1.9,.68,2.79,2.32,2.79s2.48-1.1,2.48-2.87v-8.03h4.33v14.47h-4.09Z"/>
    <path class="cls-1" d="M80.81,105.09v-14.47h4.07v1.54h.05c.76-1.54,1.96-2.03,3.62-2.03v4.36c-2.58,.03-3.42,.99-3.42,2.63v7.98h-4.33Z"/>
    <path class="cls-1" d="M100.32,96.2c-.63-1.36-1.75-2.03-3.23-2.03-1.98,0-3.34,1.64-3.34,3.68s1.43,3.68,3.44,3.68c1.46,0,2.48-.68,3.13-1.93h4.41c-.86,3.62-3.96,5.97-7.67,5.97-4.28,0-7.67-3.47-7.67-7.75s3.42-7.69,7.59-7.69c3.81,0,6.91,2.4,7.72,6.08h-4.38Z"/>
    <path class="cls-1" d="M115.78,105.09v-7.95c0-1.88-.73-2.95-2.32-2.95s-2.42,.96-2.42,2.76v8.14h-4.33v-19.3h4.33v6.21c.63-1.17,2.03-1.88,3.75-1.88,3.31,0,5.32,2.09,5.32,5.87v9.1h-4.33Z"/>
  </g>
</svg>