<?xml version="1.0" encoding="UTF-8"?>
<svg id="Layer_2" data-name="Layer 2" xmlns="http://www.w3.org/2000/svg" viewBox="0 0 53.27 53.27">
  <defs>
    <style>
      .cls-1 {
        fill: #fff;
      }
    </style>
  </defs>
  <g id="White">
    <path class="cls-1" d="m26.64,53.27C11.95,53.27,0,41.32,0,26.64S11.95,0,26.64,0s26.64,11.95,26.64,26.64-11.95,26.64-26.64,26.64Zm0-50.85C13.29,2.43,2.43,13.29,2.43,26.64s10.86,24.21,24.21,24.21,24.21-10.86,24.21-24.21S39.99,2.43,26.64,2.43Z"/>
    <path class="cls-1" d="m37.53,20.66c.03-.23.04-.47.04-.72,0-.43-.06-.85-.17-1.25.88-.78,1.39-2,1.39-3.5,0-1.03-.52-2.13-1.41-3.04-.88-.88-1.99-1.41-2.97-1.41-.25,0-.5.02-.74.06-.3-.53-.67-1.02-1.1-1.45-1.26-1.25-3.01-1.93-4.93-1.93-4,0-7.25,3.15-7.27,7.03-.23-.04-.46-.06-.7-.06-2.37,0-4.3,1.93-4.3,4.3,0,.26.02.51.07.75-1.89.47-3.29,2.15-3.29,4.13,0,2.35,1.96,4.27,4.38,4.27.71,0,1.37-.16,1.96-.46.92,1.27,2.29,2.07,4.02,2.29.32,1.19,1,2.28,2,3.17.44.39.92.72,1.44,1,.01.74.03,1.3.03,1.41,0,.37-.07,5.32-.07,5.65,0,.56-.02,1.26-.06,1.85-.06.88-.06,1.36-1.56,1.36s-8.41.26-8.49.26c-.59.02-.89.04-1.07.06-.12.02-.38.05-.41.28,0,.06,0,.13.05.18.08.09.08.1,1.32.13.63.02,1.52.04,2.58.06,1.95.04,3.45.06,3.97.06h5.13c.45,0,.74-.15.78-.4h0c.07-.39-.11-2.61-.18-3.09,0-.01,0-.02,0-.03-.03-.29-.14-1.49-.19-2.76-.02-.46-.06-2.47-.09-4.36.63.16,1.28.25,1.92.25,3.21,0,5.75-2.03,6.47-4.93.05,0,.1,0,.16,0,2.57,0,4.51-2.06,4.51-4.79,0-2.06-1.31-3.76-3.18-4.39Zm-.63-.72c0,.19,0,.37-.03.55-.31-.06-.63-.09-.96-.09-1.42,0-2.68.57-3.56,1.5-.53-.25-1.09-.42-1.67-.53-.06-.31-.15-.62-.25-.91.73-.36,1.4-.83,1.97-1.38.69.37,1.5.57,2.35.57.78,0,1.47-.19,2.06-.53.06.27.08.54.08.83Zm-1.39,9.17c-.87-.14-1.71-.55-2.37-1.16-.86-.79-1.34-1.82-1.34-2.9,0-.14,0-.28.02-.42.29.05.6.08.91.08.62,0,1.19-.08,1.71-.23.75,1.05,1.15,2.31,1.15,3.64,0,.34-.03.66-.07.98Zm-2.79-5.06c-.27,0-.53-.03-.78-.07.13-.45.33-.86.59-1.23.48.28.92.62,1.31,1.03.04.05.09.09.13.14-.39.09-.8.13-1.25.13Zm-9.22,5.03c-.15,0-.29,0-.43-.01-.05-.31-.08-.62-.08-.93,0-2.03.55-3.59,1.64-4.62.89-.84,2.13-1.34,3.71-1.5.39.8,1,1.48,1.75,1.95-.44,3.19-2.89,5.12-6.6,5.12Zm5.58-7.12c.14,0,.28,0,.43,0,.2,0,.4.01.6.03.04.29.06.59.06.9,0,.11,0,.21,0,.31-.44-.34-.81-.75-1.08-1.23Zm-8.84,1.64c0,1.19-.6,2.25-1.52,2.9-.55-.99-.84-2.22-.84-3.62,0-.09,0-.17,0-.26.54.25,1.15.39,1.78.39.17,0,.34-.01.51-.03.04.2.06.41.06.62Zm-.57-1.26c-.62,0-1.21-.16-1.72-.43.07-.5.2-.99.38-1.45.76.41,1.35,1.07,1.66,1.86-.11,0-.22.02-.33.02Zm-2.33-.85c-.47-.39-.83-.9-1.06-1.48.08,0,.16,0,.25,0,.42,0,.81.07,1.19.19-.17.42-.29.85-.38,1.3Zm1.28-1.64c.28-.53.64-1.03,1.07-1.46.39-.4.83-.74,1.3-1.01.3.67.7,1.29,1.18,1.82.27.3.57.57.89.81-.41,1.06-1.29,1.88-2.39,2.19-.36-1.01-1.1-1.85-2.05-2.35Zm2.97-2.78c.36-.16.73-.28,1.11-.36.38.57.6,1.26.6,2,0,.2-.02.4-.05.59-.73-.61-1.29-1.38-1.66-2.23Zm-.24-.63c-.11-.35-.19-.7-.24-1.06.42.18.8.44,1.12.76-.3.08-.59.18-.87.31Zm2.06.16c.2-.02.41-.03.61-.03,1.57,0,3.04.59,4.17,1.66-.21.54-.33,1.12-.33,1.73,0,.2.01.4.04.59-.32.04-.63.07-.95.07-1.2,0-2.24-.33-3.11-.87.08-.33.13-.67.13-1.03,0-.77-.2-1.49-.56-2.12Zm5.12,3.36c0-.41.06-.81.18-1.18.34.41.62.86.85,1.34-.32.13-.66.23-1,.31-.02-.15-.03-.31-.03-.47Zm2.14-4.98c0-1.41,1.02-2.91,2.63-3.39.36.8.56,1.7.56,2.68,0,.35-.03.69-.09,1.03-.34-.07-.69-.12-1.06-.12-.71,0-1.38.15-1.99.42-.03-.21-.05-.42-.05-.63Zm2.04.88c.31,0,.61.03.9.1-.26.83-.7,1.61-1.31,2.29-.19-.14-.36-.29-.53-.46-.41-.43-.71-.94-.89-1.51.56-.27,1.18-.42,1.84-.42Zm1.53.29c1.08.42,1.94,1.27,2.36,2.33-.51.34-1.14.52-1.86.52s-1.32-.14-1.87-.4c.62-.72,1.09-1.55,1.37-2.44Zm-2.97,2.1c.17.17.34.33.53.47-.02.02-.04.03-.06.05-.48.43-1.01.79-1.59,1.07-.3-.64-.69-1.23-1.18-1.76.31-.58.75-1.08,1.29-1.46.22.61.55,1.16,1,1.62Zm-1.47,2.5c.06.18.12.37.16.56-.16-.01-.32-.02-.47-.02-.25,0-.49,0-.73.02-.03-.07-.05-.15-.07-.22.38-.09.76-.2,1.11-.34Zm.98,1.35c.39.08.77.2,1.13.36-.28.41-.5.87-.63,1.36-.17-.06-.33-.13-.48-.21.02-.24.03-.48.03-.72,0-.27-.01-.53-.04-.79Zm3.53,1.23c-.41-.42-.86-.78-1.35-1.08.74-.72,1.78-1.16,2.94-1.16.29,0,.58.03.85.08-.16.7-.47,1.3-.92,1.77-.32.33-.72.59-1.17.78-.11-.13-.22-.26-.34-.39Zm.08-11.89c1.74,0,3.72,2.01,3.72,3.78,0,1.18-.35,2.15-.97,2.81-.53-1.16-1.51-2.08-2.73-2.53.08-.4.12-.8.12-1.22,0-1-.19-1.95-.56-2.82.14-.02.28-.02.43-.02Zm-13.36,3.07c0-3.53,2.96-6.39,6.6-6.39,2.36,0,4.3,1.11,5.36,2.88-1.72.58-2.99,2.17-2.99,3.98,0,.33.03.65.09.96-.66.42-1.21.99-1.6,1.66-1.23-1.1-2.81-1.7-4.48-1.7-.35,0-.7.03-1.04.08-.5-.61-1.17-1.08-1.94-1.34,0-.05,0-.09,0-.14Zm-5,4.21c0-2,1.63-3.63,3.63-3.63.25,0,.5.03.73.07.05.54.17,1.07.34,1.58-.56.31-1.08.7-1.54,1.17-.49.5-.89,1.06-1.2,1.67-.46-.16-.95-.25-1.47-.25-.15,0-.29,0-.43.02-.04-.21-.06-.42-.06-.64Zm.49,8.48c-2.04,0-3.71-1.61-3.71-3.6,0-1.67,1.19-3.08,2.78-3.48.3.87.88,1.62,1.63,2.14-.02.21-.03.42-.03.63,0,1.55.32,2.89.92,3.96-.49.23-1.03.35-1.6.35Zm2.77.15c-.08-.09-.15-.18-.22-.28,1.11-.78,1.83-2.04,1.83-3.47,0-.26-.02-.51-.07-.75,1.26-.36,2.28-1.27,2.79-2.46.98.58,2.12.89,3.32.89.37,0,.73-.03,1.09-.08.01.05.03.11.05.16-1.64.2-2.96.75-3.92,1.66-1.23,1.17-1.85,2.89-1.85,5.11,0,.29.02.58.06.86-1.27-.2-2.32-.77-3.08-1.66Zm5.66,5.03c-.83-.74-1.42-1.64-1.73-2.61.09,0,.18,0,.26,0,.84,0,1.63-.1,2.36-.28.02.79.05,2.31.08,3.61-.35-.21-.67-.45-.97-.72Zm4.61,1.74c-.65,0-1.31-.1-1.94-.28-.02-1.48-.03-2.76,0-2.98.03-.21.09-1.39.12-2.15.38-.22.73-.48,1.04-.77,1.02-.93,1.67-2.17,1.93-3.64.14.06.29.12.44.17-.02.19-.04.39-.04.59,0,1.27.55,2.48,1.56,3.4.75.69,1.7,1.15,2.69,1.32-.68,2.55-2.95,4.33-5.8,4.33Zm9.4-6.12c-.7.77-1.69,1.19-2.76,1.19,0,0-.02,0-.03,0,.05-.34.07-.68.07-1.04,0-1.41-.41-2.75-1.17-3.88,1.2-.55,2.01-1.56,2.33-2.91,1.55.57,2.63,2,2.63,3.72,0,1.13-.38,2.16-1.08,2.92Z"/>
  </g>
</svg>