<?xml version="1.0" encoding="UTF-8"?>
<svg id="Layer_1" data-name="Layer 1" xmlns="http://www.w3.org/2000/svg" viewBox="0 0 278.12 278.12">
  <defs>
    <style>
      .cls-1 {
        fill: #fff;
      }
    </style>
  </defs>
  <g>
    <path class="cls-1" d="M180.19,81.21l-32.79-32.97c-2.3-2.3-5.32-3.44-8.34-3.41-3.01-.02-6.04,1.11-8.34,3.41l-32.79,32.97,18.54,18.54,22.58-22.58,22.58,22.58,18.54-18.54Z"/>
    <g>
      <path class="cls-1" d="M161.64,178.36l-22.58,22.58-22.58-22.58-18.54,18.54,32.79,32.97c2.3,2.3,5.32,3.44,8.34,3.41,3.01,.02,6.04-1.11,8.34-3.41l32.79-32.97-18.54-18.54Z"/>
      <path class="cls-1" d="M229.88,130.72l-32.97-32.79-18.54,18.54,22.58,22.58-22.58,22.58,18.54,18.54,32.97-32.79c2.3-2.3,3.44-5.32,3.41-8.34,.02-3.01-1.11-6.04-3.41-8.34Z"/>
      <path class="cls-1" d="M99.76,161.64l-22.58-22.58,22.58-22.58-18.54-18.54-32.97,32.79c-2.3,2.3-3.44,5.32-3.41,8.34-.02,3.01,1.11,6.04,3.41,8.34l32.97,32.79,18.54-18.54Z"/>
    </g>
  </g>
  <path class="cls-1" d="M40.73,237.39c-13.27-13.27-23.55-28.75-30.55-46C3.43,174.72,0,157.12,0,139.06c0-18.06,3.43-35.67,10.18-52.33,7-17.25,17.27-32.73,30.55-46,13.27-13.27,28.75-23.55,46-30.55C103.39,3.43,121,0,139.06,0c18.06,0,35.67,3.43,52.33,10.18,17.25,7,32.73,17.27,46,30.55,13.27,13.27,23.55,28.75,30.55,46,6.76,16.66,10.18,34.27,10.18,52.33,0,18.06-3.43,35.67-10.18,52.33-7,17.25-17.27,32.73-30.55,46-13.27,13.27-28.75,23.55-46,30.55-16.66,6.76-34.27,10.18-52.33,10.18-18.06,0-35.67-3.43-52.33-10.18-17.25-7-32.73-17.27-46-30.55ZM234.33,43.79c-12.86-12.86-27.86-22.82-44.57-29.6-16.14-6.55-33.2-9.87-50.7-9.87-17.5,0-34.56,3.32-50.7,9.87-16.71,6.78-31.71,16.73-44.57,29.6-12.86,12.86-22.82,27.86-29.6,44.57-6.55,16.14-9.87,33.2-9.87,50.7,0,17.5,3.32,34.56,9.87,50.7,6.78,16.71,16.73,31.71,29.6,44.57,12.86,12.86,27.86,22.82,44.57,29.6,16.14,6.55,33.2,9.87,50.7,9.87,17.5,0,34.56-3.32,50.7-9.87,16.71-6.78,31.71-16.73,44.57-29.6,12.86-12.86,22.82-27.86,29.6-44.57,6.55-16.14,9.87-33.2,9.87-50.7,0-17.5-3.32-34.56-9.87-50.7-6.78-16.71-16.73-31.71-29.6-44.57Z"/>
  <path class="cls-1" d="M48.28,229.84c-12.25-12.25-21.74-26.54-28.2-42.47-6.24-15.38-9.4-31.64-9.4-48.31,0-16.67,3.16-32.93,9.4-48.31,6.46-15.93,15.95-30.22,28.2-42.47,12.25-12.25,26.54-21.74,42.47-28.2,15.38-6.24,31.64-9.4,48.31-9.4,16.67,0,32.93,3.16,48.31,9.4,15.93,6.46,30.22,15.95,42.47,28.2,12.25,12.25,21.74,26.54,28.2,42.47,6.24,15.38,9.4,31.64,9.4,48.31,0,16.67-3.16,32.93-9.4,48.31-6.46,15.93-15.95,30.22-28.2,42.47-12.25,12.25-26.54,21.74-42.47,28.2-15.38,6.24-31.64,9.4-48.31,9.4-16.67,0-32.93-3.16-48.31-9.4-15.93-6.46-30.22-15.95-42.47-28.2ZM220.01,58.11c-21.62-21.62-50.37-33.53-80.95-33.53s-59.33,11.91-80.95,33.53c-21.62,21.62-33.53,50.37-33.53,80.95,0,30.58,11.91,59.33,33.53,80.95,21.62,21.62,50.37,33.53,80.95,33.53,30.58,0,59.33-11.91,80.95-33.53,21.62-21.62,33.53-50.37,33.53-80.95,0-30.58-11.91-59.33-33.53-80.95Z"/>
</svg>