<?xml version="1.0" encoding="UTF-8"?>
<svg id="Layer_1" data-name="Layer 1" xmlns="http://www.w3.org/2000/svg" viewBox="0 0 164.82 131.73">
  <defs>
    <style>
      .cls-1 {
        fill: #fff;
      }
    </style>
  </defs>
  <g id="NPM_Logo" data-name="NPM Logo">
    <path class="cls-1" d="M163.24,107.98l-2.64-1.5c-1.4-.8-3.12-.8-4.52,0l-23.68,13.45c-1.91,1.09-4.25,1.09-6.16,0l-40.75-23.15c-1.91-1.09-4.25-1.09-6.16,0l-40.75,23.15c-1.91,1.09-4.25,1.09-6.16,0l-23.68-13.45c-1.4-.8-3.12-.8-4.52,0l-2.64,1.5c-2.1,1.2-2.1,4.23,0,5.42l30.84,17.52c1.91,1.09,4.25,1.09,6.16,0l40.76-23.15c1.91-1.09,4.25-1.09,6.16,0l40.75,23.15c1.91,1.09,4.25,1.09,6.16,0l30.84-17.52c2.1-1.2,2.1-4.23,0-5.42Z"/>
    <path class="cls-1" d="M163.24,86l-2.64-1.5c-1.4-.8-3.12-.8-4.52,0l-23.68,13.45c-1.91,1.09-4.25,1.09-6.16,0l-40.75-23.15c-1.91-1.09-4.25-1.09-6.16,0l-40.75,23.15c-1.91,1.09-4.25,1.09-6.16,0l-23.68-13.45c-1.4-.8-3.12-.8-4.52,0l-2.64,1.5c-2.1,1.2-2.1,4.23,0,5.42l30.84,17.52c1.91,1.09,4.25,1.09,6.16,0l40.75-23.15c1.91-1.09,4.25-1.09,6.16,0l40.75,23.15c1.91,1.09,4.25,1.09,6.16,0l30.84-17.52c2.1-1.2,2.1-4.23,0-5.42Z"/>
    <path class="cls-1" d="M163.24,64.03l-2.64-1.5c-1.4-.8-3.12-.8-4.52,0l-23.68,13.45c-1.91,1.09-4.25,1.09-6.16,0l-40.75-23.15c-1.91-1.09-4.25-1.09-6.16,0l-40.76,23.15c-1.91,1.09-4.25,1.09-6.16,0l-23.68-13.45c-1.4-.8-3.12-.8-4.52,0l-2.64,1.5c-2.1,1.2-2.1,4.23,0,5.42l30.84,17.52c1.91,1.09,4.25,1.09,6.16,0l40.75-23.15c1.91-1.09,4.25-1.09,6.16,0l40.75,23.15c1.91,1.09,4.25,1.09,6.16,0l30.84-17.52c2.1-1.2,2.1-4.23,0-5.42Z"/>
    <path class="cls-1" d="M161.99,44.59L84.45,.54c-1.26-.72-2.81-.72-4.07,0L2.83,44.59c-1.39,.79-1.39,2.79,0,3.58l29.58,16.81c1.91,1.09,4.25,1.09,6.16,0l40.75-23.15c1.91-1.09,4.25-1.09,6.16,0l40.75,23.15c1.91,1.09,4.25,1.09,6.16,0l29.58-16.81c1.39-.79,1.39-2.79,0-3.58Z"/>
  </g>
</svg>